M48
; DRILL file {KiCad (7.0.0-0)} date Monday, March 27, 2023 at 10:21:21 PM
; FORMAT={-:-/ absolute / inch / decimal}
; #@! TF.CreationDate,2023-03-27T22:21:21-05:00
; #@! TF.GenerationSoftware,Kicad,Pcbnew,(7.0.0-0)
; #@! TF.FileFunction,Plated,1,2,PTH
FMAT,2
INCH
; #@! TA.AperFunction,Plated,PTH,ViaDrill
T1C0.0157
; #@! TA.AperFunction,Plated,PTH,ComponentDrill
T2C0.0394
%
G90
G05
T1
X3.1266Y-3.9079
X3.1309Y-3.0944
X3.1317Y-3.6449
X3.1329Y-3.6075
X3.1333Y-3.6847
X3.1348Y-3.5658
X3.136Y-2.8314
X3.1372Y-2.794
X3.1376Y-2.8712
X3.1392Y-2.7523
X3.2297Y-3.5646
X3.2297Y-3.6087
X3.2297Y-3.6497
X3.2313Y-3.6871
X3.234Y-2.7511
X3.234Y-2.7952
X3.234Y-2.8361
X3.2356Y-2.8735
X3.2947Y-3.8091
X3.299Y-2.9956
X3.8754Y-3.9048
X4.0464Y-3.8099
X4.3703Y-3.6626
X4.3833Y-3.8587
X4.4011Y-3.0121
X4.4041Y-3.7709
X4.4111Y-2.7821
X4.4111Y-2.8421
X4.4111Y-2.9421
X4.4111Y-3.2121
X4.4211Y-3.1221
X4.4242Y-3.6028
X4.4313Y-4.0174
X4.4474Y-3.6945
X4.4482Y-3.9563
X4.4518Y-3.9032
X4.4711Y-3.2521
X4.5006Y-3.5434
X4.5006Y-3.6312
X4.5033Y-3.0776
X4.5096Y-3.9556
X4.5104Y-2.7059
X4.5123Y-2.7583
X4.5123Y-2.8071
X4.5143Y-2.8658
X4.5151Y-3.726
X4.5159Y-3.1244
X4.5159Y-3.9067
X4.5179Y-2.9189
X4.5211Y-3.1921
X4.5667Y-3.9619
X4.5919Y-3.1567
X4.5931Y-2.8874
X4.6155Y-2.754
X4.6211Y-2.8421
X4.6253Y-3.0992
X4.6277Y-3.9689
X4.6325Y-3.6455
X4.6336Y-3.6081
X4.634Y-3.6853
X4.6356Y-3.5664
X4.6388Y-3.9111
X4.6557Y-2.7536
X4.6801Y-3.1351
X4.6931Y-3.9497
X4.7293Y-3.0721
X4.7305Y-3.5652
X4.7305Y-3.6093
X4.7305Y-3.6502
X4.7321Y-3.6876
X4.7336Y-3.8674
X4.7427Y-2.7481
X4.7447Y-3.9264
X4.7482Y-3.7504
X4.7511Y-3.1721
X4.7659Y-3.9867
X4.7773Y-3.0701
X4.7911Y-3.1321
X4.7955Y-3.8097
X4.7974Y-2.7536
X4.8009Y-2.7984
X4.8018Y-3.6528
X4.8018Y-3.7067
X4.8025Y-3.5843
X4.8033Y-2.8445
X4.8057Y-3.7508
X4.8104Y-2.8922
X4.8132Y-3.8937
X4.8151Y-3.0
X4.8173Y-2.9473
X4.8234Y-3.9402
X4.8411Y-3.0821
X4.8459Y-3.6367
X4.8511Y-2.8521
X4.8511Y-2.9021
X4.8557Y-3.5819
X4.8711Y-2.7321
X4.8711Y-2.8021
X4.8734Y-3.6997
X4.8811Y-3.1621
X4.8872Y-3.9079
X4.888Y-3.9595
X4.8986Y-4.013
X4.9006Y-3.6398
X4.9108Y-3.5768
X4.9111Y-2.9021
X4.9211Y-3.1021
X4.9281Y-3.7315
X4.9297Y-3.9193
X4.9311Y-3.2521
X4.9511Y-2.7321
X4.9511Y-2.8421
X4.9511Y-3.0121
X4.9611Y-2.9421
X4.9659Y-3.6111
X4.9746Y-3.6989
X4.9797Y-3.8123
X4.9811Y-3.1121
X4.9872Y-3.9914
X4.9911Y-3.1921
X5.0111Y-2.8321
X5.1541Y-3.0124
X5.1641Y-2.7824
X5.1641Y-2.8424
X5.1641Y-2.9424
X5.1641Y-3.2124
X5.1741Y-3.1224
X5.2241Y-3.2524
X5.2563Y-3.078
X5.2634Y-2.7063
X5.2653Y-2.7587
X5.2653Y-2.8075
X5.2673Y-2.8661
X5.2689Y-3.1248
X5.2709Y-2.9193
X5.2741Y-3.1924
X5.3445Y-2.9374
X5.3449Y-3.1571
X5.346Y-2.8878
X5.3685Y-2.7543
X5.3741Y-2.8424
X5.3783Y-3.0996
X5.3794Y-2.3455
X5.4086Y-2.7539
X5.4331Y-3.1354
X5.4823Y-3.0724
X5.4957Y-2.7484
X5.5041Y-3.1724
X5.5053Y-2.9365
X5.5303Y-3.0705
X5.5441Y-3.1324
X5.5484Y-2.8957
X5.5504Y-2.7539
X5.5518Y-2.0882
X5.5518Y-2.2482
X5.5539Y-2.7988
X5.5563Y-2.8449
X5.5681Y-3.0004
X5.5941Y-3.0824
X5.6041Y-2.8524
X5.6041Y-2.9024
X5.6241Y-2.7324
X5.6241Y-2.8024
X5.6341Y-3.1624
X5.6641Y-2.9024
X5.6741Y-3.1024
X5.6841Y-3.2524
X5.7041Y-2.7324
X5.7041Y-2.8424
X5.7041Y-3.0124
X5.7141Y-2.9424
X5.7341Y-3.1124
X5.7441Y-3.1924
X5.7641Y-2.8324
X6.1316Y-2.346
X6.304Y-2.0887
X6.3124Y-2.9936
X6.3195Y-2.2362
T2
X2.8856Y-3.4788
X2.8899Y-2.6653
X3.0856Y-3.4788
X3.0856Y-4.0788
X3.0899Y-2.6653
X3.0899Y-3.2653
X3.1856Y-3.4788
X3.1856Y-4.0788
X3.1899Y-2.6653
X3.1899Y-3.2653
X3.2856Y-3.4788
X3.2856Y-4.0788
X3.2899Y-2.6653
X3.2899Y-3.2653
X3.4856Y-3.4788
X3.4899Y-2.6653
X3.6374Y-3.4796
X3.6449Y-2.6659
X3.8374Y-3.4796
X3.8374Y-4.0796
X3.8449Y-2.6659
X3.8449Y-3.2659
X3.9374Y-3.4796
X3.9374Y-4.0796
X3.9449Y-2.6659
X3.9449Y-3.2659
X4.0374Y-3.4796
X4.0374Y-4.0796
X4.0449Y-2.6659
X4.0449Y-3.2659
X4.2374Y-3.4796
X4.2449Y-2.6659
X4.3864Y-3.4794
X4.3954Y-2.666
X4.3972Y-1.8997
X4.5864Y-3.4794
X4.5864Y-4.0794
X4.5954Y-2.666
X4.5954Y-3.266
X4.5972Y-1.8997
X4.5972Y-2.4997
X4.6864Y-3.4794
X4.6864Y-4.0794
X4.6954Y-2.666
X4.6954Y-3.266
X4.6972Y-1.8997
X4.6972Y-2.4997
X4.7864Y-3.4794
X4.7864Y-4.0794
X4.7954Y-2.666
X4.7954Y-3.266
X4.7972Y-1.8997
X4.7972Y-2.4997
X4.9864Y-3.4794
X4.9954Y-2.666
X4.9972Y-1.8997
X5.1382Y-3.4802
X5.1484Y-2.6663
X5.1495Y-1.9123
X5.3382Y-3.4802
X5.3382Y-4.0802
X5.3484Y-2.6663
X5.3484Y-3.2663
X5.3495Y-1.9123
X5.3495Y-2.5123
X5.4382Y-3.4802
X5.4382Y-4.0802
X5.4484Y-2.6663
X5.4484Y-3.2663
X5.4495Y-1.9123
X5.4495Y-2.5123
X5.5382Y-3.4802
X5.5382Y-4.0802
X5.5484Y-2.6663
X5.5484Y-3.2663
X5.5495Y-1.9123
X5.5495Y-2.5123
X5.7382Y-3.4802
X5.7484Y-2.6663
X5.7495Y-1.9123
X5.8917Y-3.4806
X5.8984Y-2.663
X5.9017Y-1.9128
X6.0917Y-3.4806
X6.0917Y-4.0806
X6.0984Y-2.663
X6.0984Y-3.263
X6.1017Y-1.9128
X6.1017Y-2.5128
X6.1917Y-3.4806
X6.1917Y-4.0806
X6.1984Y-2.663
X6.1984Y-3.263
X6.2017Y-1.9128
X6.2017Y-2.5128
X6.2917Y-3.4806
X6.2917Y-4.0806
X6.2984Y-2.663
X6.2984Y-3.263
X6.3017Y-1.9128
X6.3017Y-2.5128
X6.4911Y-1.9163
X6.4917Y-3.4806
X6.4984Y-2.663
T0
M30
