%TF.GenerationSoftware,KiCad,Pcbnew,(7.0.0-0)*%
%TF.CreationDate,2023-03-27T22:21:21-05:00*%
%TF.ProjectId,he-sensor-breakout,68652d73-656e-4736-9f72-2d627265616b,rev?*%
%TF.SameCoordinates,Original*%
%TF.FileFunction,Soldermask,Top*%
%TF.FilePolarity,Negative*%
%FSLAX46Y46*%
G04 Gerber Fmt 4.6, Leading zero omitted, Abs format (unit mm)*
G04 Created by KiCad (PCBNEW (7.0.0-0)) date 2023-03-27 22:21:21*
%MOMM*%
%LPD*%
G01*
G04 APERTURE LIST*
%ADD10C,1.700000*%
%ADD11R,1.700000X1.700000*%
%ADD12O,1.700000X1.700000*%
G04 APERTURE END LIST*
D10*
%TO.C,SW*%
X86104600Y-76111549D03*
X75944600Y-76111549D03*
%TD*%
%TO.C,SW*%
X143470000Y-76138750D03*
X133310000Y-76138750D03*
%TD*%
%TO.C,SW*%
X143209600Y-96810000D03*
X133049600Y-96810000D03*
%TD*%
%TO.C,SW*%
X124344000Y-76129299D03*
X114184000Y-76129299D03*
%TD*%
%TO.C,SW*%
X124388242Y-56665417D03*
X114228242Y-56665417D03*
%TD*%
%TO.C,SW*%
X105280000Y-76128750D03*
X95120000Y-76128750D03*
%TD*%
%TO.C,SW*%
X85994600Y-96775000D03*
X75834600Y-96775000D03*
%TD*%
%TO.C,SW*%
X143496142Y-56984917D03*
X133336142Y-56984917D03*
%TD*%
%TO.C,SW*%
X162604242Y-56997667D03*
X152444242Y-56997667D03*
%TD*%
%TO.C,SW*%
X162350000Y-96820000D03*
X152190000Y-96820000D03*
%TD*%
%TO.C,SW*%
X105089600Y-96795000D03*
X94929600Y-96795000D03*
%TD*%
%TO.C,SW*%
X162519000Y-76054299D03*
X152359000Y-76054299D03*
%TD*%
%TO.C,SW*%
X124114600Y-96790000D03*
X113954600Y-96790000D03*
%TD*%
D11*
%TO.C,STB3*%
X83564599Y-82937798D03*
D12*
X81024599Y-82937798D03*
X78484599Y-82937798D03*
%TD*%
D11*
%TO.C,STB1*%
X130769999Y-67724999D03*
%TD*%
%TO.C,STB1*%
X149904241Y-48583916D03*
%TD*%
%TO.C,STB2*%
X126654599Y-88376249D03*
%TD*%
%TO.C,STB2*%
X107819999Y-67714999D03*
%TD*%
%TO.C,J1*%
X102549599Y-88381249D03*
D12*
X100009599Y-88381249D03*
X97469599Y-88381249D03*
%TD*%
D11*
%TO.C,STB3*%
X159809999Y-103646249D03*
D12*
X157269999Y-103646249D03*
X154729999Y-103646249D03*
%TD*%
D11*
%TO.C,STB1*%
X130796141Y-48571166D03*
%TD*%
%TO.C,STB3*%
X140956141Y-63811166D03*
D12*
X138416141Y-63811166D03*
X135876141Y-63811166D03*
%TD*%
D11*
%TO.C,STB1*%
X92389599Y-88381249D03*
%TD*%
%TO.C,STB1*%
X149818999Y-67640548D03*
%TD*%
%TO.C,STB3*%
X160064241Y-63823916D03*
D12*
X157524241Y-63823916D03*
X154984241Y-63823916D03*
%TD*%
D11*
%TO.C,J1*%
X140929999Y-67724999D03*
D12*
X138389999Y-67724999D03*
X135849999Y-67724999D03*
%TD*%
D11*
%TO.C,J1*%
X159809999Y-88406249D03*
D12*
X157269999Y-88406249D03*
X154729999Y-88406249D03*
%TD*%
D11*
%TO.C,STB3*%
X102549599Y-103621249D03*
D12*
X100009599Y-103621249D03*
X97469599Y-103621249D03*
%TD*%
D11*
%TO.C,STB1*%
X111688241Y-48251666D03*
%TD*%
%TO.C,STB2*%
X126928241Y-48251666D03*
%TD*%
%TO.C,STB1*%
X111414599Y-88376249D03*
%TD*%
%TO.C,J1*%
X102739999Y-67714999D03*
D12*
X100199999Y-67714999D03*
X97659999Y-67714999D03*
%TD*%
D11*
%TO.C,STB2*%
X146036141Y-48571166D03*
%TD*%
%TO.C,STB1*%
X92579999Y-67714999D03*
%TD*%
%TO.C,STB3*%
X140929999Y-82964999D03*
D12*
X138389999Y-82964999D03*
X135849999Y-82964999D03*
%TD*%
D11*
%TO.C,J1*%
X121803999Y-67715548D03*
D12*
X119263999Y-67715548D03*
X116723999Y-67715548D03*
%TD*%
D11*
%TO.C,STB3*%
X121848241Y-63491666D03*
D12*
X119308241Y-63491666D03*
X116768241Y-63491666D03*
%TD*%
D11*
%TO.C,STB1*%
X130509599Y-88396249D03*
%TD*%
%TO.C,STB3*%
X83454599Y-103601249D03*
D12*
X80914599Y-103601249D03*
X78374599Y-103601249D03*
%TD*%
D11*
%TO.C,STB1*%
X73294599Y-88361249D03*
%TD*%
%TO.C,J1*%
X160064241Y-48583916D03*
D12*
X157524241Y-48583916D03*
X154984241Y-48583916D03*
%TD*%
D11*
%TO.C,J1*%
X159978999Y-67640548D03*
D12*
X157438999Y-67640548D03*
X154898999Y-67640548D03*
%TD*%
D11*
%TO.C,STB2*%
X88534599Y-88361249D03*
%TD*%
%TO.C,STB2*%
X107629599Y-88381249D03*
%TD*%
%TO.C,J1*%
X83564599Y-67697798D03*
D12*
X81024599Y-67697798D03*
X78484599Y-67697798D03*
%TD*%
D11*
%TO.C,STB3*%
X102739999Y-82954999D03*
D12*
X100199999Y-82954999D03*
X97659999Y-82954999D03*
%TD*%
D11*
%TO.C,STB2*%
X165058999Y-67640548D03*
%TD*%
%TO.C,STB1*%
X73404599Y-67697798D03*
%TD*%
%TO.C,STB2*%
X164889999Y-88406249D03*
%TD*%
%TO.C,J1*%
X83454599Y-88361249D03*
D12*
X80914599Y-88361249D03*
X78374599Y-88361249D03*
%TD*%
D11*
%TO.C,STB1*%
X149649999Y-88406249D03*
%TD*%
%TO.C,STB3*%
X140669599Y-103636249D03*
D12*
X138129599Y-103636249D03*
X135589599Y-103636249D03*
%TD*%
D11*
%TO.C,STB2*%
X146009999Y-67724999D03*
%TD*%
%TO.C,STB2*%
X145749599Y-88396249D03*
%TD*%
%TO.C,STB2*%
X126883999Y-67715548D03*
%TD*%
%TO.C,STB2*%
X164874999Y-48674999D03*
%TD*%
%TO.C,J1*%
X140669599Y-88396249D03*
D12*
X138129599Y-88396249D03*
X135589599Y-88396249D03*
%TD*%
D11*
%TO.C,STB3*%
X159978999Y-82880548D03*
D12*
X157438999Y-82880548D03*
X154898999Y-82880548D03*
%TD*%
D11*
%TO.C,J1*%
X121848241Y-48251666D03*
D12*
X119308241Y-48251666D03*
X116768241Y-48251666D03*
%TD*%
D11*
%TO.C,J1*%
X140956141Y-48571166D03*
D12*
X138416141Y-48571166D03*
X135876141Y-48571166D03*
%TD*%
D11*
%TO.C,STB3*%
X121803999Y-82955548D03*
D12*
X119263999Y-82955548D03*
X116723999Y-82955548D03*
%TD*%
D11*
%TO.C,J1*%
X121574599Y-88376249D03*
D12*
X119034599Y-88376249D03*
X116494599Y-88376249D03*
%TD*%
D11*
%TO.C,STB2*%
X88644599Y-67697798D03*
%TD*%
%TO.C,STB3*%
X121574599Y-103616249D03*
D12*
X119034599Y-103616249D03*
X116494599Y-103616249D03*
%TD*%
D11*
%TO.C,STB1*%
X111643999Y-67715548D03*
%TD*%
M02*
