%TF.GenerationSoftware,KiCad,Pcbnew,(7.0.0-0)*%
%TF.CreationDate,2023-03-27T22:21:21-05:00*%
%TF.ProjectId,he-sensor-breakout,68652d73-656e-4736-9f72-2d627265616b,rev?*%
%TF.SameCoordinates,Original*%
%TF.FileFunction,Paste,Bot*%
%TF.FilePolarity,Positive*%
%FSLAX46Y46*%
G04 Gerber Fmt 4.6, Leading zero omitted, Abs format (unit mm)*
G04 Created by KiCad (PCBNEW (7.0.0-0)) date 2023-03-27 22:21:21*
%MOMM*%
%LPD*%
G01*
G04 APERTURE LIST*
G04 Aperture macros list*
%AMRoundRect*
0 Rectangle with rounded corners*
0 $1 Rounding radius*
0 $2 $3 $4 $5 $6 $7 $8 $9 X,Y pos of 4 corners*
0 Add a 4 corners polygon primitive as box body*
4,1,4,$2,$3,$4,$5,$6,$7,$8,$9,$2,$3,0*
0 Add four circle primitives for the rounded corners*
1,1,$1+$1,$2,$3*
1,1,$1+$1,$4,$5*
1,1,$1+$1,$6,$7*
1,1,$1+$1,$8,$9*
0 Add four rect primitives between the rounded corners*
20,1,$1+$1,$2,$3,$4,$5,0*
20,1,$1+$1,$4,$5,$6,$7,0*
20,1,$1+$1,$6,$7,$8,$9,0*
20,1,$1+$1,$8,$9,$2,$3,0*%
G04 Aperture macros list end*
%ADD10RoundRect,0.150000X-0.512500X-0.150000X0.512500X-0.150000X0.512500X0.150000X-0.512500X0.150000X0*%
%ADD11RoundRect,0.225000X0.250000X-0.225000X0.250000X0.225000X-0.250000X0.225000X-0.250000X-0.225000X0*%
%ADD12RoundRect,0.150000X0.512500X0.150000X-0.512500X0.150000X-0.512500X-0.150000X0.512500X-0.150000X0*%
%ADD13RoundRect,0.225000X0.225000X0.250000X-0.225000X0.250000X-0.225000X-0.250000X0.225000X-0.250000X0*%
G04 APERTURE END LIST*
D10*
%TO.C,U1*%
X118126500Y-77079299D03*
X118126500Y-75179299D03*
X120401500Y-76129299D03*
%TD*%
D11*
%TO.C,C1*%
X78144600Y-78572799D03*
X78144600Y-77022799D03*
%TD*%
D10*
%TO.C,U1*%
X79887100Y-77061549D03*
X79887100Y-75161549D03*
X82162100Y-76111549D03*
%TD*%
%TO.C,U1*%
X118170742Y-57615417D03*
X118170742Y-55715417D03*
X120445742Y-56665417D03*
%TD*%
%TO.C,U1*%
X156301500Y-77004299D03*
X156301500Y-75104299D03*
X158576500Y-76054299D03*
%TD*%
D11*
%TO.C,C1*%
X116263600Y-78655549D03*
X116263600Y-77105549D03*
%TD*%
D10*
%TO.C,U1*%
X137252500Y-77088750D03*
X137252500Y-75188750D03*
X139527500Y-76138750D03*
%TD*%
D12*
%TO.C,U3*%
X139479242Y-52022667D03*
X139479242Y-52972667D03*
X139479242Y-53922667D03*
X137204242Y-53922667D03*
X137204242Y-52022667D03*
%TD*%
D10*
%TO.C,U1*%
X156132500Y-97770000D03*
X156132500Y-95870000D03*
X158407500Y-96820000D03*
%TD*%
D12*
%TO.C,U3*%
X120333600Y-71250549D03*
X120333600Y-72200549D03*
X120333600Y-73150549D03*
X118058600Y-73150549D03*
X118058600Y-71250549D03*
%TD*%
D11*
%TO.C,C1*%
X97144600Y-99066250D03*
X97144600Y-97516250D03*
%TD*%
%TO.C,C1*%
X154564000Y-78650549D03*
X154564000Y-77100549D03*
%TD*%
D10*
%TO.C,U1*%
X117897100Y-97740000D03*
X117897100Y-95840000D03*
X120172100Y-96790000D03*
%TD*%
D11*
%TO.C,C1*%
X154395000Y-99416250D03*
X154395000Y-97866250D03*
%TD*%
%TO.C,C1*%
X116174600Y-99346250D03*
X116174600Y-97796250D03*
%TD*%
%TO.C,C1*%
X135254600Y-99406250D03*
X135254600Y-97856250D03*
%TD*%
D10*
%TO.C,U1*%
X156386742Y-57947667D03*
X156386742Y-56047667D03*
X158661742Y-56997667D03*
%TD*%
D11*
%TO.C,C1*%
X135389600Y-78665000D03*
X135389600Y-77115000D03*
%TD*%
D10*
%TO.C,U1*%
X99062500Y-77078750D03*
X99062500Y-75178750D03*
X101337500Y-76128750D03*
%TD*%
D12*
%TO.C,U3*%
X158587342Y-52035417D03*
X158587342Y-52985417D03*
X158587342Y-53935417D03*
X156312342Y-53935417D03*
X156312342Y-52035417D03*
%TD*%
%TO.C,U3*%
X139459600Y-71260000D03*
X139459600Y-72210000D03*
X139459600Y-73160000D03*
X137184600Y-73160000D03*
X137184600Y-71260000D03*
%TD*%
D10*
%TO.C,U1*%
X98872100Y-97745000D03*
X98872100Y-95845000D03*
X101147100Y-96795000D03*
%TD*%
D13*
%TO.C,C1*%
X100905000Y-78623750D03*
X99355000Y-78623750D03*
%TD*%
D11*
%TO.C,C1*%
X154339242Y-59548917D03*
X154339242Y-57998917D03*
%TD*%
D10*
%TO.C,U1*%
X79777100Y-97725000D03*
X79777100Y-95825000D03*
X82052100Y-96775000D03*
%TD*%
%TO.C,U1*%
X137278642Y-57934917D03*
X137278642Y-56034917D03*
X139553642Y-56984917D03*
%TD*%
D13*
%TO.C,C1*%
X120013242Y-59160417D03*
X118463242Y-59160417D03*
%TD*%
D10*
%TO.C,U1*%
X136992100Y-97760000D03*
X136992100Y-95860000D03*
X139267100Y-96810000D03*
%TD*%
D11*
%TO.C,C1*%
X135415742Y-59511167D03*
X135415742Y-57961167D03*
%TD*%
%TO.C,C1*%
X78034600Y-99236250D03*
X78034600Y-97686250D03*
%TD*%
M02*
