%TF.GenerationSoftware,KiCad,Pcbnew,(7.0.0-0)*%
%TF.CreationDate,2023-03-27T22:21:21-05:00*%
%TF.ProjectId,he-sensor-breakout,68652d73-656e-4736-9f72-2d627265616b,rev?*%
%TF.SameCoordinates,Original*%
%TF.FileFunction,Legend,Top*%
%TF.FilePolarity,Positive*%
%FSLAX46Y46*%
G04 Gerber Fmt 4.6, Leading zero omitted, Abs format (unit mm)*
G04 Created by KiCad (PCBNEW (7.0.0-0)) date 2023-03-27 22:21:21*
%MOMM*%
%LPD*%
G01*
G04 APERTURE LIST*
%ADD10C,0.150000*%
%ADD11C,0.120000*%
%ADD12C,0.100000*%
%ADD13C,1.700000*%
%ADD14R,1.700000X1.700000*%
%ADD15O,1.700000X1.700000*%
G04 APERTURE END LIST*
D10*
X159436943Y-92226734D02*
X159389323Y-92321972D01*
X159389323Y-92321972D02*
X159389323Y-92464829D01*
X159389323Y-92464829D02*
X159436943Y-92607686D01*
X159436943Y-92607686D02*
X159532181Y-92702924D01*
X159532181Y-92702924D02*
X159627419Y-92750543D01*
X159627419Y-92750543D02*
X159817895Y-92798162D01*
X159817895Y-92798162D02*
X159960752Y-92798162D01*
X159960752Y-92798162D02*
X160151228Y-92750543D01*
X160151228Y-92750543D02*
X160246466Y-92702924D01*
X160246466Y-92702924D02*
X160341704Y-92607686D01*
X160341704Y-92607686D02*
X160389323Y-92464829D01*
X160389323Y-92464829D02*
X160389323Y-92369591D01*
X160389323Y-92369591D02*
X160341704Y-92226734D01*
X160341704Y-92226734D02*
X160294085Y-92179115D01*
X160294085Y-92179115D02*
X159960752Y-92179115D01*
X159960752Y-92179115D02*
X159960752Y-92369591D01*
X160389323Y-91750543D02*
X159389323Y-91750543D01*
X159389323Y-91750543D02*
X160389323Y-91179115D01*
X160389323Y-91179115D02*
X159389323Y-91179115D01*
X160389323Y-90702924D02*
X159389323Y-90702924D01*
X159389323Y-90702924D02*
X159389323Y-90464829D01*
X159389323Y-90464829D02*
X159436943Y-90321972D01*
X159436943Y-90321972D02*
X159532181Y-90226734D01*
X159532181Y-90226734D02*
X159627419Y-90179115D01*
X159627419Y-90179115D02*
X159817895Y-90131496D01*
X159817895Y-90131496D02*
X159960752Y-90131496D01*
X159960752Y-90131496D02*
X160151228Y-90179115D01*
X160151228Y-90179115D02*
X160246466Y-90226734D01*
X160246466Y-90226734D02*
X160341704Y-90321972D01*
X160341704Y-90321972D02*
X160389323Y-90464829D01*
X160389323Y-90464829D02*
X160389323Y-90702924D01*
X135296464Y-53091687D02*
X136296464Y-52758354D01*
X136296464Y-52758354D02*
X135296464Y-52425021D01*
X136201226Y-51520259D02*
X136248845Y-51567878D01*
X136248845Y-51567878D02*
X136296464Y-51710735D01*
X136296464Y-51710735D02*
X136296464Y-51805973D01*
X136296464Y-51805973D02*
X136248845Y-51948830D01*
X136248845Y-51948830D02*
X136153607Y-52044068D01*
X136153607Y-52044068D02*
X136058369Y-52091687D01*
X136058369Y-52091687D02*
X135867893Y-52139306D01*
X135867893Y-52139306D02*
X135725036Y-52139306D01*
X135725036Y-52139306D02*
X135534560Y-52091687D01*
X135534560Y-52091687D02*
X135439322Y-52044068D01*
X135439322Y-52044068D02*
X135344084Y-51948830D01*
X135344084Y-51948830D02*
X135296464Y-51805973D01*
X135296464Y-51805973D02*
X135296464Y-51710735D01*
X135296464Y-51710735D02*
X135344084Y-51567878D01*
X135344084Y-51567878D02*
X135391703Y-51520259D01*
X136201226Y-50520259D02*
X136248845Y-50567878D01*
X136248845Y-50567878D02*
X136296464Y-50710735D01*
X136296464Y-50710735D02*
X136296464Y-50805973D01*
X136296464Y-50805973D02*
X136248845Y-50948830D01*
X136248845Y-50948830D02*
X136153607Y-51044068D01*
X136153607Y-51044068D02*
X136058369Y-51091687D01*
X136058369Y-51091687D02*
X135867893Y-51139306D01*
X135867893Y-51139306D02*
X135725036Y-51139306D01*
X135725036Y-51139306D02*
X135534560Y-51091687D01*
X135534560Y-51091687D02*
X135439322Y-51044068D01*
X135439322Y-51044068D02*
X135344084Y-50948830D01*
X135344084Y-50948830D02*
X135296464Y-50805973D01*
X135296464Y-50805973D02*
X135296464Y-50710735D01*
X135296464Y-50710735D02*
X135344084Y-50567878D01*
X135344084Y-50567878D02*
X135391703Y-50520259D01*
X154150322Y-92926770D02*
X155150322Y-92593437D01*
X155150322Y-92593437D02*
X154150322Y-92260104D01*
X155055084Y-91355342D02*
X155102703Y-91402961D01*
X155102703Y-91402961D02*
X155150322Y-91545818D01*
X155150322Y-91545818D02*
X155150322Y-91641056D01*
X155150322Y-91641056D02*
X155102703Y-91783913D01*
X155102703Y-91783913D02*
X155007465Y-91879151D01*
X155007465Y-91879151D02*
X154912227Y-91926770D01*
X154912227Y-91926770D02*
X154721751Y-91974389D01*
X154721751Y-91974389D02*
X154578894Y-91974389D01*
X154578894Y-91974389D02*
X154388418Y-91926770D01*
X154388418Y-91926770D02*
X154293180Y-91879151D01*
X154293180Y-91879151D02*
X154197942Y-91783913D01*
X154197942Y-91783913D02*
X154150322Y-91641056D01*
X154150322Y-91641056D02*
X154150322Y-91545818D01*
X154150322Y-91545818D02*
X154197942Y-91402961D01*
X154197942Y-91402961D02*
X154245561Y-91355342D01*
X155055084Y-90355342D02*
X155102703Y-90402961D01*
X155102703Y-90402961D02*
X155150322Y-90545818D01*
X155150322Y-90545818D02*
X155150322Y-90641056D01*
X155150322Y-90641056D02*
X155102703Y-90783913D01*
X155102703Y-90783913D02*
X155007465Y-90879151D01*
X155007465Y-90879151D02*
X154912227Y-90926770D01*
X154912227Y-90926770D02*
X154721751Y-90974389D01*
X154721751Y-90974389D02*
X154578894Y-90974389D01*
X154578894Y-90974389D02*
X154388418Y-90926770D01*
X154388418Y-90926770D02*
X154293180Y-90879151D01*
X154293180Y-90879151D02*
X154197942Y-90783913D01*
X154197942Y-90783913D02*
X154150322Y-90641056D01*
X154150322Y-90641056D02*
X154150322Y-90545818D01*
X154150322Y-90545818D02*
X154197942Y-90402961D01*
X154197942Y-90402961D02*
X154245561Y-90355342D01*
X154319322Y-72161069D02*
X155319322Y-71827736D01*
X155319322Y-71827736D02*
X154319322Y-71494403D01*
X155224084Y-70589641D02*
X155271703Y-70637260D01*
X155271703Y-70637260D02*
X155319322Y-70780117D01*
X155319322Y-70780117D02*
X155319322Y-70875355D01*
X155319322Y-70875355D02*
X155271703Y-71018212D01*
X155271703Y-71018212D02*
X155176465Y-71113450D01*
X155176465Y-71113450D02*
X155081227Y-71161069D01*
X155081227Y-71161069D02*
X154890751Y-71208688D01*
X154890751Y-71208688D02*
X154747894Y-71208688D01*
X154747894Y-71208688D02*
X154557418Y-71161069D01*
X154557418Y-71161069D02*
X154462180Y-71113450D01*
X154462180Y-71113450D02*
X154366942Y-71018212D01*
X154366942Y-71018212D02*
X154319322Y-70875355D01*
X154319322Y-70875355D02*
X154319322Y-70780117D01*
X154319322Y-70780117D02*
X154366942Y-70637260D01*
X154366942Y-70637260D02*
X154414561Y-70589641D01*
X155224084Y-69589641D02*
X155271703Y-69637260D01*
X155271703Y-69637260D02*
X155319322Y-69780117D01*
X155319322Y-69780117D02*
X155319322Y-69875355D01*
X155319322Y-69875355D02*
X155271703Y-70018212D01*
X155271703Y-70018212D02*
X155176465Y-70113450D01*
X155176465Y-70113450D02*
X155081227Y-70161069D01*
X155081227Y-70161069D02*
X154890751Y-70208688D01*
X154890751Y-70208688D02*
X154747894Y-70208688D01*
X154747894Y-70208688D02*
X154557418Y-70161069D01*
X154557418Y-70161069D02*
X154462180Y-70113450D01*
X154462180Y-70113450D02*
X154366942Y-70018212D01*
X154366942Y-70018212D02*
X154319322Y-69875355D01*
X154319322Y-69875355D02*
X154319322Y-69780117D01*
X154319322Y-69780117D02*
X154366942Y-69637260D01*
X154366942Y-69637260D02*
X154414561Y-69589641D01*
X99683138Y-72535844D02*
X100683138Y-72202511D01*
X100683138Y-72202511D02*
X99683138Y-71869178D01*
X100683138Y-71392987D02*
X100635519Y-71488225D01*
X100635519Y-71488225D02*
X100587900Y-71535844D01*
X100587900Y-71535844D02*
X100492662Y-71583463D01*
X100492662Y-71583463D02*
X100206948Y-71583463D01*
X100206948Y-71583463D02*
X100111710Y-71535844D01*
X100111710Y-71535844D02*
X100064091Y-71488225D01*
X100064091Y-71488225D02*
X100016472Y-71392987D01*
X100016472Y-71392987D02*
X100016472Y-71250130D01*
X100016472Y-71250130D02*
X100064091Y-71154892D01*
X100064091Y-71154892D02*
X100111710Y-71107273D01*
X100111710Y-71107273D02*
X100206948Y-71059654D01*
X100206948Y-71059654D02*
X100492662Y-71059654D01*
X100492662Y-71059654D02*
X100587900Y-71107273D01*
X100587900Y-71107273D02*
X100635519Y-71154892D01*
X100635519Y-71154892D02*
X100683138Y-71250130D01*
X100683138Y-71250130D02*
X100683138Y-71392987D01*
X100016472Y-70202511D02*
X100683138Y-70202511D01*
X100016472Y-70631082D02*
X100540281Y-70631082D01*
X100540281Y-70631082D02*
X100635519Y-70583463D01*
X100635519Y-70583463D02*
X100683138Y-70488225D01*
X100683138Y-70488225D02*
X100683138Y-70345368D01*
X100683138Y-70345368D02*
X100635519Y-70250130D01*
X100635519Y-70250130D02*
X100587900Y-70202511D01*
X100016472Y-69869177D02*
X100016472Y-69488225D01*
X99683138Y-69726320D02*
X100540281Y-69726320D01*
X100540281Y-69726320D02*
X100635519Y-69678701D01*
X100635519Y-69678701D02*
X100683138Y-69583463D01*
X100683138Y-69583463D02*
X100683138Y-69488225D01*
X118791380Y-53072511D02*
X119791380Y-52739178D01*
X119791380Y-52739178D02*
X118791380Y-52405845D01*
X119791380Y-51929654D02*
X119743761Y-52024892D01*
X119743761Y-52024892D02*
X119696142Y-52072511D01*
X119696142Y-52072511D02*
X119600904Y-52120130D01*
X119600904Y-52120130D02*
X119315190Y-52120130D01*
X119315190Y-52120130D02*
X119219952Y-52072511D01*
X119219952Y-52072511D02*
X119172333Y-52024892D01*
X119172333Y-52024892D02*
X119124714Y-51929654D01*
X119124714Y-51929654D02*
X119124714Y-51786797D01*
X119124714Y-51786797D02*
X119172333Y-51691559D01*
X119172333Y-51691559D02*
X119219952Y-51643940D01*
X119219952Y-51643940D02*
X119315190Y-51596321D01*
X119315190Y-51596321D02*
X119600904Y-51596321D01*
X119600904Y-51596321D02*
X119696142Y-51643940D01*
X119696142Y-51643940D02*
X119743761Y-51691559D01*
X119743761Y-51691559D02*
X119791380Y-51786797D01*
X119791380Y-51786797D02*
X119791380Y-51929654D01*
X119124714Y-50739178D02*
X119791380Y-50739178D01*
X119124714Y-51167749D02*
X119648523Y-51167749D01*
X119648523Y-51167749D02*
X119743761Y-51120130D01*
X119743761Y-51120130D02*
X119791380Y-51024892D01*
X119791380Y-51024892D02*
X119791380Y-50882035D01*
X119791380Y-50882035D02*
X119743761Y-50786797D01*
X119743761Y-50786797D02*
X119696142Y-50739178D01*
X119124714Y-50405844D02*
X119124714Y-50024892D01*
X118791380Y-50262987D02*
X119648523Y-50262987D01*
X119648523Y-50262987D02*
X119743761Y-50215368D01*
X119743761Y-50215368D02*
X119791380Y-50120130D01*
X119791380Y-50120130D02*
X119791380Y-50024892D01*
X115914922Y-92896770D02*
X116914922Y-92563437D01*
X116914922Y-92563437D02*
X115914922Y-92230104D01*
X116819684Y-91325342D02*
X116867303Y-91372961D01*
X116867303Y-91372961D02*
X116914922Y-91515818D01*
X116914922Y-91515818D02*
X116914922Y-91611056D01*
X116914922Y-91611056D02*
X116867303Y-91753913D01*
X116867303Y-91753913D02*
X116772065Y-91849151D01*
X116772065Y-91849151D02*
X116676827Y-91896770D01*
X116676827Y-91896770D02*
X116486351Y-91944389D01*
X116486351Y-91944389D02*
X116343494Y-91944389D01*
X116343494Y-91944389D02*
X116153018Y-91896770D01*
X116153018Y-91896770D02*
X116057780Y-91849151D01*
X116057780Y-91849151D02*
X115962542Y-91753913D01*
X115962542Y-91753913D02*
X115914922Y-91611056D01*
X115914922Y-91611056D02*
X115914922Y-91515818D01*
X115914922Y-91515818D02*
X115962542Y-91372961D01*
X115962542Y-91372961D02*
X116010161Y-91325342D01*
X116819684Y-90325342D02*
X116867303Y-90372961D01*
X116867303Y-90372961D02*
X116914922Y-90515818D01*
X116914922Y-90515818D02*
X116914922Y-90611056D01*
X116914922Y-90611056D02*
X116867303Y-90753913D01*
X116867303Y-90753913D02*
X116772065Y-90849151D01*
X116772065Y-90849151D02*
X116676827Y-90896770D01*
X116676827Y-90896770D02*
X116486351Y-90944389D01*
X116486351Y-90944389D02*
X116343494Y-90944389D01*
X116343494Y-90944389D02*
X116153018Y-90896770D01*
X116153018Y-90896770D02*
X116057780Y-90849151D01*
X116057780Y-90849151D02*
X115962542Y-90753913D01*
X115962542Y-90753913D02*
X115914922Y-90611056D01*
X115914922Y-90611056D02*
X115914922Y-90515818D01*
X115914922Y-90515818D02*
X115962542Y-90372961D01*
X115962542Y-90372961D02*
X116010161Y-90325342D01*
X80507738Y-72518643D02*
X81507738Y-72185310D01*
X81507738Y-72185310D02*
X80507738Y-71851977D01*
X81507738Y-71375786D02*
X81460119Y-71471024D01*
X81460119Y-71471024D02*
X81412500Y-71518643D01*
X81412500Y-71518643D02*
X81317262Y-71566262D01*
X81317262Y-71566262D02*
X81031548Y-71566262D01*
X81031548Y-71566262D02*
X80936310Y-71518643D01*
X80936310Y-71518643D02*
X80888691Y-71471024D01*
X80888691Y-71471024D02*
X80841072Y-71375786D01*
X80841072Y-71375786D02*
X80841072Y-71232929D01*
X80841072Y-71232929D02*
X80888691Y-71137691D01*
X80888691Y-71137691D02*
X80936310Y-71090072D01*
X80936310Y-71090072D02*
X81031548Y-71042453D01*
X81031548Y-71042453D02*
X81317262Y-71042453D01*
X81317262Y-71042453D02*
X81412500Y-71090072D01*
X81412500Y-71090072D02*
X81460119Y-71137691D01*
X81460119Y-71137691D02*
X81507738Y-71232929D01*
X81507738Y-71232929D02*
X81507738Y-71375786D01*
X80841072Y-70185310D02*
X81507738Y-70185310D01*
X80841072Y-70613881D02*
X81364881Y-70613881D01*
X81364881Y-70613881D02*
X81460119Y-70566262D01*
X81460119Y-70566262D02*
X81507738Y-70471024D01*
X81507738Y-70471024D02*
X81507738Y-70328167D01*
X81507738Y-70328167D02*
X81460119Y-70232929D01*
X81460119Y-70232929D02*
X81412500Y-70185310D01*
X80841072Y-69851976D02*
X80841072Y-69471024D01*
X80507738Y-69709119D02*
X81364881Y-69709119D01*
X81364881Y-69709119D02*
X81460119Y-69661500D01*
X81460119Y-69661500D02*
X81507738Y-69566262D01*
X81507738Y-69566262D02*
X81507738Y-69471024D01*
X140296543Y-92216734D02*
X140248923Y-92311972D01*
X140248923Y-92311972D02*
X140248923Y-92454829D01*
X140248923Y-92454829D02*
X140296543Y-92597686D01*
X140296543Y-92597686D02*
X140391781Y-92692924D01*
X140391781Y-92692924D02*
X140487019Y-92740543D01*
X140487019Y-92740543D02*
X140677495Y-92788162D01*
X140677495Y-92788162D02*
X140820352Y-92788162D01*
X140820352Y-92788162D02*
X141010828Y-92740543D01*
X141010828Y-92740543D02*
X141106066Y-92692924D01*
X141106066Y-92692924D02*
X141201304Y-92597686D01*
X141201304Y-92597686D02*
X141248923Y-92454829D01*
X141248923Y-92454829D02*
X141248923Y-92359591D01*
X141248923Y-92359591D02*
X141201304Y-92216734D01*
X141201304Y-92216734D02*
X141153685Y-92169115D01*
X141153685Y-92169115D02*
X140820352Y-92169115D01*
X140820352Y-92169115D02*
X140820352Y-92359591D01*
X141248923Y-91740543D02*
X140248923Y-91740543D01*
X140248923Y-91740543D02*
X141248923Y-91169115D01*
X141248923Y-91169115D02*
X140248923Y-91169115D01*
X141248923Y-90692924D02*
X140248923Y-90692924D01*
X140248923Y-90692924D02*
X140248923Y-90454829D01*
X140248923Y-90454829D02*
X140296543Y-90311972D01*
X140296543Y-90311972D02*
X140391781Y-90216734D01*
X140391781Y-90216734D02*
X140487019Y-90169115D01*
X140487019Y-90169115D02*
X140677495Y-90121496D01*
X140677495Y-90121496D02*
X140820352Y-90121496D01*
X140820352Y-90121496D02*
X141010828Y-90169115D01*
X141010828Y-90169115D02*
X141106066Y-90216734D01*
X141106066Y-90216734D02*
X141201304Y-90311972D01*
X141201304Y-90311972D02*
X141248923Y-90454829D01*
X141248923Y-90454829D02*
X141248923Y-90692924D01*
X121201543Y-92196734D02*
X121153923Y-92291972D01*
X121153923Y-92291972D02*
X121153923Y-92434829D01*
X121153923Y-92434829D02*
X121201543Y-92577686D01*
X121201543Y-92577686D02*
X121296781Y-92672924D01*
X121296781Y-92672924D02*
X121392019Y-92720543D01*
X121392019Y-92720543D02*
X121582495Y-92768162D01*
X121582495Y-92768162D02*
X121725352Y-92768162D01*
X121725352Y-92768162D02*
X121915828Y-92720543D01*
X121915828Y-92720543D02*
X122011066Y-92672924D01*
X122011066Y-92672924D02*
X122106304Y-92577686D01*
X122106304Y-92577686D02*
X122153923Y-92434829D01*
X122153923Y-92434829D02*
X122153923Y-92339591D01*
X122153923Y-92339591D02*
X122106304Y-92196734D01*
X122106304Y-92196734D02*
X122058685Y-92149115D01*
X122058685Y-92149115D02*
X121725352Y-92149115D01*
X121725352Y-92149115D02*
X121725352Y-92339591D01*
X122153923Y-91720543D02*
X121153923Y-91720543D01*
X121153923Y-91720543D02*
X122153923Y-91149115D01*
X122153923Y-91149115D02*
X121153923Y-91149115D01*
X122153923Y-90672924D02*
X121153923Y-90672924D01*
X121153923Y-90672924D02*
X121153923Y-90434829D01*
X121153923Y-90434829D02*
X121201543Y-90291972D01*
X121201543Y-90291972D02*
X121296781Y-90196734D01*
X121296781Y-90196734D02*
X121392019Y-90149115D01*
X121392019Y-90149115D02*
X121582495Y-90101496D01*
X121582495Y-90101496D02*
X121725352Y-90101496D01*
X121725352Y-90101496D02*
X121915828Y-90149115D01*
X121915828Y-90149115D02*
X122011066Y-90196734D01*
X122011066Y-90196734D02*
X122106304Y-90291972D01*
X122106304Y-90291972D02*
X122153923Y-90434829D01*
X122153923Y-90434829D02*
X122153923Y-90672924D01*
X121430943Y-71536033D02*
X121383323Y-71631271D01*
X121383323Y-71631271D02*
X121383323Y-71774128D01*
X121383323Y-71774128D02*
X121430943Y-71916985D01*
X121430943Y-71916985D02*
X121526181Y-72012223D01*
X121526181Y-72012223D02*
X121621419Y-72059842D01*
X121621419Y-72059842D02*
X121811895Y-72107461D01*
X121811895Y-72107461D02*
X121954752Y-72107461D01*
X121954752Y-72107461D02*
X122145228Y-72059842D01*
X122145228Y-72059842D02*
X122240466Y-72012223D01*
X122240466Y-72012223D02*
X122335704Y-71916985D01*
X122335704Y-71916985D02*
X122383323Y-71774128D01*
X122383323Y-71774128D02*
X122383323Y-71678890D01*
X122383323Y-71678890D02*
X122335704Y-71536033D01*
X122335704Y-71536033D02*
X122288085Y-71488414D01*
X122288085Y-71488414D02*
X121954752Y-71488414D01*
X121954752Y-71488414D02*
X121954752Y-71678890D01*
X122383323Y-71059842D02*
X121383323Y-71059842D01*
X121383323Y-71059842D02*
X122383323Y-70488414D01*
X122383323Y-70488414D02*
X121383323Y-70488414D01*
X122383323Y-70012223D02*
X121383323Y-70012223D01*
X121383323Y-70012223D02*
X121383323Y-69774128D01*
X121383323Y-69774128D02*
X121430943Y-69631271D01*
X121430943Y-69631271D02*
X121526181Y-69536033D01*
X121526181Y-69536033D02*
X121621419Y-69488414D01*
X121621419Y-69488414D02*
X121811895Y-69440795D01*
X121811895Y-69440795D02*
X121954752Y-69440795D01*
X121954752Y-69440795D02*
X122145228Y-69488414D01*
X122145228Y-69488414D02*
X122240466Y-69536033D01*
X122240466Y-69536033D02*
X122335704Y-69631271D01*
X122335704Y-69631271D02*
X122383323Y-69774128D01*
X122383323Y-69774128D02*
X122383323Y-70012223D01*
X135009922Y-92916770D02*
X136009922Y-92583437D01*
X136009922Y-92583437D02*
X135009922Y-92250104D01*
X135914684Y-91345342D02*
X135962303Y-91392961D01*
X135962303Y-91392961D02*
X136009922Y-91535818D01*
X136009922Y-91535818D02*
X136009922Y-91631056D01*
X136009922Y-91631056D02*
X135962303Y-91773913D01*
X135962303Y-91773913D02*
X135867065Y-91869151D01*
X135867065Y-91869151D02*
X135771827Y-91916770D01*
X135771827Y-91916770D02*
X135581351Y-91964389D01*
X135581351Y-91964389D02*
X135438494Y-91964389D01*
X135438494Y-91964389D02*
X135248018Y-91916770D01*
X135248018Y-91916770D02*
X135152780Y-91869151D01*
X135152780Y-91869151D02*
X135057542Y-91773913D01*
X135057542Y-91773913D02*
X135009922Y-91631056D01*
X135009922Y-91631056D02*
X135009922Y-91535818D01*
X135009922Y-91535818D02*
X135057542Y-91392961D01*
X135057542Y-91392961D02*
X135105161Y-91345342D01*
X135914684Y-90345342D02*
X135962303Y-90392961D01*
X135962303Y-90392961D02*
X136009922Y-90535818D01*
X136009922Y-90535818D02*
X136009922Y-90631056D01*
X136009922Y-90631056D02*
X135962303Y-90773913D01*
X135962303Y-90773913D02*
X135867065Y-90869151D01*
X135867065Y-90869151D02*
X135771827Y-90916770D01*
X135771827Y-90916770D02*
X135581351Y-90964389D01*
X135581351Y-90964389D02*
X135438494Y-90964389D01*
X135438494Y-90964389D02*
X135248018Y-90916770D01*
X135248018Y-90916770D02*
X135152780Y-90869151D01*
X135152780Y-90869151D02*
X135057542Y-90773913D01*
X135057542Y-90773913D02*
X135009922Y-90631056D01*
X135009922Y-90631056D02*
X135009922Y-90535818D01*
X135009922Y-90535818D02*
X135057542Y-90392961D01*
X135057542Y-90392961D02*
X135105161Y-90345342D01*
X116144322Y-72236069D02*
X117144322Y-71902736D01*
X117144322Y-71902736D02*
X116144322Y-71569403D01*
X117049084Y-70664641D02*
X117096703Y-70712260D01*
X117096703Y-70712260D02*
X117144322Y-70855117D01*
X117144322Y-70855117D02*
X117144322Y-70950355D01*
X117144322Y-70950355D02*
X117096703Y-71093212D01*
X117096703Y-71093212D02*
X117001465Y-71188450D01*
X117001465Y-71188450D02*
X116906227Y-71236069D01*
X116906227Y-71236069D02*
X116715751Y-71283688D01*
X116715751Y-71283688D02*
X116572894Y-71283688D01*
X116572894Y-71283688D02*
X116382418Y-71236069D01*
X116382418Y-71236069D02*
X116287180Y-71188450D01*
X116287180Y-71188450D02*
X116191942Y-71093212D01*
X116191942Y-71093212D02*
X116144322Y-70950355D01*
X116144322Y-70950355D02*
X116144322Y-70855117D01*
X116144322Y-70855117D02*
X116191942Y-70712260D01*
X116191942Y-70712260D02*
X116239561Y-70664641D01*
X117049084Y-69664641D02*
X117096703Y-69712260D01*
X117096703Y-69712260D02*
X117144322Y-69855117D01*
X117144322Y-69855117D02*
X117144322Y-69950355D01*
X117144322Y-69950355D02*
X117096703Y-70093212D01*
X117096703Y-70093212D02*
X117001465Y-70188450D01*
X117001465Y-70188450D02*
X116906227Y-70236069D01*
X116906227Y-70236069D02*
X116715751Y-70283688D01*
X116715751Y-70283688D02*
X116572894Y-70283688D01*
X116572894Y-70283688D02*
X116382418Y-70236069D01*
X116382418Y-70236069D02*
X116287180Y-70188450D01*
X116287180Y-70188450D02*
X116191942Y-70093212D01*
X116191942Y-70093212D02*
X116144322Y-69950355D01*
X116144322Y-69950355D02*
X116144322Y-69855117D01*
X116144322Y-69855117D02*
X116191942Y-69712260D01*
X116191942Y-69712260D02*
X116239561Y-69664641D01*
X157007380Y-53404761D02*
X158007380Y-53071428D01*
X158007380Y-53071428D02*
X157007380Y-52738095D01*
X158007380Y-52261904D02*
X157959761Y-52357142D01*
X157959761Y-52357142D02*
X157912142Y-52404761D01*
X157912142Y-52404761D02*
X157816904Y-52452380D01*
X157816904Y-52452380D02*
X157531190Y-52452380D01*
X157531190Y-52452380D02*
X157435952Y-52404761D01*
X157435952Y-52404761D02*
X157388333Y-52357142D01*
X157388333Y-52357142D02*
X157340714Y-52261904D01*
X157340714Y-52261904D02*
X157340714Y-52119047D01*
X157340714Y-52119047D02*
X157388333Y-52023809D01*
X157388333Y-52023809D02*
X157435952Y-51976190D01*
X157435952Y-51976190D02*
X157531190Y-51928571D01*
X157531190Y-51928571D02*
X157816904Y-51928571D01*
X157816904Y-51928571D02*
X157912142Y-51976190D01*
X157912142Y-51976190D02*
X157959761Y-52023809D01*
X157959761Y-52023809D02*
X158007380Y-52119047D01*
X158007380Y-52119047D02*
X158007380Y-52261904D01*
X157340714Y-51071428D02*
X158007380Y-51071428D01*
X157340714Y-51499999D02*
X157864523Y-51499999D01*
X157864523Y-51499999D02*
X157959761Y-51452380D01*
X157959761Y-51452380D02*
X158007380Y-51357142D01*
X158007380Y-51357142D02*
X158007380Y-51214285D01*
X158007380Y-51214285D02*
X157959761Y-51119047D01*
X157959761Y-51119047D02*
X157912142Y-51071428D01*
X157340714Y-50738094D02*
X157340714Y-50357142D01*
X157007380Y-50595237D02*
X157864523Y-50595237D01*
X157864523Y-50595237D02*
X157959761Y-50547618D01*
X157959761Y-50547618D02*
X158007380Y-50452380D01*
X158007380Y-50452380D02*
X158007380Y-50357142D01*
X99492738Y-93202094D02*
X100492738Y-92868761D01*
X100492738Y-92868761D02*
X99492738Y-92535428D01*
X100492738Y-92059237D02*
X100445119Y-92154475D01*
X100445119Y-92154475D02*
X100397500Y-92202094D01*
X100397500Y-92202094D02*
X100302262Y-92249713D01*
X100302262Y-92249713D02*
X100016548Y-92249713D01*
X100016548Y-92249713D02*
X99921310Y-92202094D01*
X99921310Y-92202094D02*
X99873691Y-92154475D01*
X99873691Y-92154475D02*
X99826072Y-92059237D01*
X99826072Y-92059237D02*
X99826072Y-91916380D01*
X99826072Y-91916380D02*
X99873691Y-91821142D01*
X99873691Y-91821142D02*
X99921310Y-91773523D01*
X99921310Y-91773523D02*
X100016548Y-91725904D01*
X100016548Y-91725904D02*
X100302262Y-91725904D01*
X100302262Y-91725904D02*
X100397500Y-91773523D01*
X100397500Y-91773523D02*
X100445119Y-91821142D01*
X100445119Y-91821142D02*
X100492738Y-91916380D01*
X100492738Y-91916380D02*
X100492738Y-92059237D01*
X99826072Y-90868761D02*
X100492738Y-90868761D01*
X99826072Y-91297332D02*
X100349881Y-91297332D01*
X100349881Y-91297332D02*
X100445119Y-91249713D01*
X100445119Y-91249713D02*
X100492738Y-91154475D01*
X100492738Y-91154475D02*
X100492738Y-91011618D01*
X100492738Y-91011618D02*
X100445119Y-90916380D01*
X100445119Y-90916380D02*
X100397500Y-90868761D01*
X99826072Y-90535427D02*
X99826072Y-90154475D01*
X99492738Y-90392570D02*
X100349881Y-90392570D01*
X100349881Y-90392570D02*
X100445119Y-90344951D01*
X100445119Y-90344951D02*
X100492738Y-90249713D01*
X100492738Y-90249713D02*
X100492738Y-90154475D01*
X156922138Y-72461393D02*
X157922138Y-72128060D01*
X157922138Y-72128060D02*
X156922138Y-71794727D01*
X157922138Y-71318536D02*
X157874519Y-71413774D01*
X157874519Y-71413774D02*
X157826900Y-71461393D01*
X157826900Y-71461393D02*
X157731662Y-71509012D01*
X157731662Y-71509012D02*
X157445948Y-71509012D01*
X157445948Y-71509012D02*
X157350710Y-71461393D01*
X157350710Y-71461393D02*
X157303091Y-71413774D01*
X157303091Y-71413774D02*
X157255472Y-71318536D01*
X157255472Y-71318536D02*
X157255472Y-71175679D01*
X157255472Y-71175679D02*
X157303091Y-71080441D01*
X157303091Y-71080441D02*
X157350710Y-71032822D01*
X157350710Y-71032822D02*
X157445948Y-70985203D01*
X157445948Y-70985203D02*
X157731662Y-70985203D01*
X157731662Y-70985203D02*
X157826900Y-71032822D01*
X157826900Y-71032822D02*
X157874519Y-71080441D01*
X157874519Y-71080441D02*
X157922138Y-71175679D01*
X157922138Y-71175679D02*
X157922138Y-71318536D01*
X157255472Y-70128060D02*
X157922138Y-70128060D01*
X157255472Y-70556631D02*
X157779281Y-70556631D01*
X157779281Y-70556631D02*
X157874519Y-70509012D01*
X157874519Y-70509012D02*
X157922138Y-70413774D01*
X157922138Y-70413774D02*
X157922138Y-70270917D01*
X157922138Y-70270917D02*
X157874519Y-70175679D01*
X157874519Y-70175679D02*
X157826900Y-70128060D01*
X157255472Y-69794726D02*
X157255472Y-69413774D01*
X156922138Y-69651869D02*
X157779281Y-69651869D01*
X157779281Y-69651869D02*
X157874519Y-69604250D01*
X157874519Y-69604250D02*
X157922138Y-69509012D01*
X157922138Y-69509012D02*
X157922138Y-69413774D01*
X159605943Y-71461033D02*
X159558323Y-71556271D01*
X159558323Y-71556271D02*
X159558323Y-71699128D01*
X159558323Y-71699128D02*
X159605943Y-71841985D01*
X159605943Y-71841985D02*
X159701181Y-71937223D01*
X159701181Y-71937223D02*
X159796419Y-71984842D01*
X159796419Y-71984842D02*
X159986895Y-72032461D01*
X159986895Y-72032461D02*
X160129752Y-72032461D01*
X160129752Y-72032461D02*
X160320228Y-71984842D01*
X160320228Y-71984842D02*
X160415466Y-71937223D01*
X160415466Y-71937223D02*
X160510704Y-71841985D01*
X160510704Y-71841985D02*
X160558323Y-71699128D01*
X160558323Y-71699128D02*
X160558323Y-71603890D01*
X160558323Y-71603890D02*
X160510704Y-71461033D01*
X160510704Y-71461033D02*
X160463085Y-71413414D01*
X160463085Y-71413414D02*
X160129752Y-71413414D01*
X160129752Y-71413414D02*
X160129752Y-71603890D01*
X160558323Y-70984842D02*
X159558323Y-70984842D01*
X159558323Y-70984842D02*
X160558323Y-70413414D01*
X160558323Y-70413414D02*
X159558323Y-70413414D01*
X160558323Y-69937223D02*
X159558323Y-69937223D01*
X159558323Y-69937223D02*
X159558323Y-69699128D01*
X159558323Y-69699128D02*
X159605943Y-69556271D01*
X159605943Y-69556271D02*
X159701181Y-69461033D01*
X159701181Y-69461033D02*
X159796419Y-69413414D01*
X159796419Y-69413414D02*
X159986895Y-69365795D01*
X159986895Y-69365795D02*
X160129752Y-69365795D01*
X160129752Y-69365795D02*
X160320228Y-69413414D01*
X160320228Y-69413414D02*
X160415466Y-69461033D01*
X160415466Y-69461033D02*
X160510704Y-69556271D01*
X160510704Y-69556271D02*
X160558323Y-69699128D01*
X160558323Y-69699128D02*
X160558323Y-69937223D01*
X159691185Y-52404401D02*
X159643565Y-52499639D01*
X159643565Y-52499639D02*
X159643565Y-52642496D01*
X159643565Y-52642496D02*
X159691185Y-52785353D01*
X159691185Y-52785353D02*
X159786423Y-52880591D01*
X159786423Y-52880591D02*
X159881661Y-52928210D01*
X159881661Y-52928210D02*
X160072137Y-52975829D01*
X160072137Y-52975829D02*
X160214994Y-52975829D01*
X160214994Y-52975829D02*
X160405470Y-52928210D01*
X160405470Y-52928210D02*
X160500708Y-52880591D01*
X160500708Y-52880591D02*
X160595946Y-52785353D01*
X160595946Y-52785353D02*
X160643565Y-52642496D01*
X160643565Y-52642496D02*
X160643565Y-52547258D01*
X160643565Y-52547258D02*
X160595946Y-52404401D01*
X160595946Y-52404401D02*
X160548327Y-52356782D01*
X160548327Y-52356782D02*
X160214994Y-52356782D01*
X160214994Y-52356782D02*
X160214994Y-52547258D01*
X160643565Y-51928210D02*
X159643565Y-51928210D01*
X159643565Y-51928210D02*
X160643565Y-51356782D01*
X160643565Y-51356782D02*
X159643565Y-51356782D01*
X160643565Y-50880591D02*
X159643565Y-50880591D01*
X159643565Y-50880591D02*
X159643565Y-50642496D01*
X159643565Y-50642496D02*
X159691185Y-50499639D01*
X159691185Y-50499639D02*
X159786423Y-50404401D01*
X159786423Y-50404401D02*
X159881661Y-50356782D01*
X159881661Y-50356782D02*
X160072137Y-50309163D01*
X160072137Y-50309163D02*
X160214994Y-50309163D01*
X160214994Y-50309163D02*
X160405470Y-50356782D01*
X160405470Y-50356782D02*
X160500708Y-50404401D01*
X160500708Y-50404401D02*
X160595946Y-50499639D01*
X160595946Y-50499639D02*
X160643565Y-50642496D01*
X160643565Y-50642496D02*
X160643565Y-50880591D01*
X77904922Y-72218319D02*
X78904922Y-71884986D01*
X78904922Y-71884986D02*
X77904922Y-71551653D01*
X78809684Y-70646891D02*
X78857303Y-70694510D01*
X78857303Y-70694510D02*
X78904922Y-70837367D01*
X78904922Y-70837367D02*
X78904922Y-70932605D01*
X78904922Y-70932605D02*
X78857303Y-71075462D01*
X78857303Y-71075462D02*
X78762065Y-71170700D01*
X78762065Y-71170700D02*
X78666827Y-71218319D01*
X78666827Y-71218319D02*
X78476351Y-71265938D01*
X78476351Y-71265938D02*
X78333494Y-71265938D01*
X78333494Y-71265938D02*
X78143018Y-71218319D01*
X78143018Y-71218319D02*
X78047780Y-71170700D01*
X78047780Y-71170700D02*
X77952542Y-71075462D01*
X77952542Y-71075462D02*
X77904922Y-70932605D01*
X77904922Y-70932605D02*
X77904922Y-70837367D01*
X77904922Y-70837367D02*
X77952542Y-70694510D01*
X77952542Y-70694510D02*
X78000161Y-70646891D01*
X78809684Y-69646891D02*
X78857303Y-69694510D01*
X78857303Y-69694510D02*
X78904922Y-69837367D01*
X78904922Y-69837367D02*
X78904922Y-69932605D01*
X78904922Y-69932605D02*
X78857303Y-70075462D01*
X78857303Y-70075462D02*
X78762065Y-70170700D01*
X78762065Y-70170700D02*
X78666827Y-70218319D01*
X78666827Y-70218319D02*
X78476351Y-70265938D01*
X78476351Y-70265938D02*
X78333494Y-70265938D01*
X78333494Y-70265938D02*
X78143018Y-70218319D01*
X78143018Y-70218319D02*
X78047780Y-70170700D01*
X78047780Y-70170700D02*
X77952542Y-70075462D01*
X77952542Y-70075462D02*
X77904922Y-69932605D01*
X77904922Y-69932605D02*
X77904922Y-69837367D01*
X77904922Y-69837367D02*
X77952542Y-69694510D01*
X77952542Y-69694510D02*
X78000161Y-69646891D01*
X102366943Y-71535484D02*
X102319323Y-71630722D01*
X102319323Y-71630722D02*
X102319323Y-71773579D01*
X102319323Y-71773579D02*
X102366943Y-71916436D01*
X102366943Y-71916436D02*
X102462181Y-72011674D01*
X102462181Y-72011674D02*
X102557419Y-72059293D01*
X102557419Y-72059293D02*
X102747895Y-72106912D01*
X102747895Y-72106912D02*
X102890752Y-72106912D01*
X102890752Y-72106912D02*
X103081228Y-72059293D01*
X103081228Y-72059293D02*
X103176466Y-72011674D01*
X103176466Y-72011674D02*
X103271704Y-71916436D01*
X103271704Y-71916436D02*
X103319323Y-71773579D01*
X103319323Y-71773579D02*
X103319323Y-71678341D01*
X103319323Y-71678341D02*
X103271704Y-71535484D01*
X103271704Y-71535484D02*
X103224085Y-71487865D01*
X103224085Y-71487865D02*
X102890752Y-71487865D01*
X102890752Y-71487865D02*
X102890752Y-71678341D01*
X103319323Y-71059293D02*
X102319323Y-71059293D01*
X102319323Y-71059293D02*
X103319323Y-70487865D01*
X103319323Y-70487865D02*
X102319323Y-70487865D01*
X103319323Y-70011674D02*
X102319323Y-70011674D01*
X102319323Y-70011674D02*
X102319323Y-69773579D01*
X102319323Y-69773579D02*
X102366943Y-69630722D01*
X102366943Y-69630722D02*
X102462181Y-69535484D01*
X102462181Y-69535484D02*
X102557419Y-69487865D01*
X102557419Y-69487865D02*
X102747895Y-69440246D01*
X102747895Y-69440246D02*
X102890752Y-69440246D01*
X102890752Y-69440246D02*
X103081228Y-69487865D01*
X103081228Y-69487865D02*
X103176466Y-69535484D01*
X103176466Y-69535484D02*
X103271704Y-69630722D01*
X103271704Y-69630722D02*
X103319323Y-69773579D01*
X103319323Y-69773579D02*
X103319323Y-70011674D01*
X135270322Y-72245520D02*
X136270322Y-71912187D01*
X136270322Y-71912187D02*
X135270322Y-71578854D01*
X136175084Y-70674092D02*
X136222703Y-70721711D01*
X136222703Y-70721711D02*
X136270322Y-70864568D01*
X136270322Y-70864568D02*
X136270322Y-70959806D01*
X136270322Y-70959806D02*
X136222703Y-71102663D01*
X136222703Y-71102663D02*
X136127465Y-71197901D01*
X136127465Y-71197901D02*
X136032227Y-71245520D01*
X136032227Y-71245520D02*
X135841751Y-71293139D01*
X135841751Y-71293139D02*
X135698894Y-71293139D01*
X135698894Y-71293139D02*
X135508418Y-71245520D01*
X135508418Y-71245520D02*
X135413180Y-71197901D01*
X135413180Y-71197901D02*
X135317942Y-71102663D01*
X135317942Y-71102663D02*
X135270322Y-70959806D01*
X135270322Y-70959806D02*
X135270322Y-70864568D01*
X135270322Y-70864568D02*
X135317942Y-70721711D01*
X135317942Y-70721711D02*
X135365561Y-70674092D01*
X136175084Y-69674092D02*
X136222703Y-69721711D01*
X136222703Y-69721711D02*
X136270322Y-69864568D01*
X136270322Y-69864568D02*
X136270322Y-69959806D01*
X136270322Y-69959806D02*
X136222703Y-70102663D01*
X136222703Y-70102663D02*
X136127465Y-70197901D01*
X136127465Y-70197901D02*
X136032227Y-70245520D01*
X136032227Y-70245520D02*
X135841751Y-70293139D01*
X135841751Y-70293139D02*
X135698894Y-70293139D01*
X135698894Y-70293139D02*
X135508418Y-70245520D01*
X135508418Y-70245520D02*
X135413180Y-70197901D01*
X135413180Y-70197901D02*
X135317942Y-70102663D01*
X135317942Y-70102663D02*
X135270322Y-69959806D01*
X135270322Y-69959806D02*
X135270322Y-69864568D01*
X135270322Y-69864568D02*
X135317942Y-69721711D01*
X135317942Y-69721711D02*
X135365561Y-69674092D01*
X121475185Y-52072151D02*
X121427565Y-52167389D01*
X121427565Y-52167389D02*
X121427565Y-52310246D01*
X121427565Y-52310246D02*
X121475185Y-52453103D01*
X121475185Y-52453103D02*
X121570423Y-52548341D01*
X121570423Y-52548341D02*
X121665661Y-52595960D01*
X121665661Y-52595960D02*
X121856137Y-52643579D01*
X121856137Y-52643579D02*
X121998994Y-52643579D01*
X121998994Y-52643579D02*
X122189470Y-52595960D01*
X122189470Y-52595960D02*
X122284708Y-52548341D01*
X122284708Y-52548341D02*
X122379946Y-52453103D01*
X122379946Y-52453103D02*
X122427565Y-52310246D01*
X122427565Y-52310246D02*
X122427565Y-52215008D01*
X122427565Y-52215008D02*
X122379946Y-52072151D01*
X122379946Y-52072151D02*
X122332327Y-52024532D01*
X122332327Y-52024532D02*
X121998994Y-52024532D01*
X121998994Y-52024532D02*
X121998994Y-52215008D01*
X122427565Y-51595960D02*
X121427565Y-51595960D01*
X121427565Y-51595960D02*
X122427565Y-51024532D01*
X122427565Y-51024532D02*
X121427565Y-51024532D01*
X122427565Y-50548341D02*
X121427565Y-50548341D01*
X121427565Y-50548341D02*
X121427565Y-50310246D01*
X121427565Y-50310246D02*
X121475185Y-50167389D01*
X121475185Y-50167389D02*
X121570423Y-50072151D01*
X121570423Y-50072151D02*
X121665661Y-50024532D01*
X121665661Y-50024532D02*
X121856137Y-49976913D01*
X121856137Y-49976913D02*
X121998994Y-49976913D01*
X121998994Y-49976913D02*
X122189470Y-50024532D01*
X122189470Y-50024532D02*
X122284708Y-50072151D01*
X122284708Y-50072151D02*
X122379946Y-50167389D01*
X122379946Y-50167389D02*
X122427565Y-50310246D01*
X122427565Y-50310246D02*
X122427565Y-50548341D01*
X83081543Y-92181734D02*
X83033923Y-92276972D01*
X83033923Y-92276972D02*
X83033923Y-92419829D01*
X83033923Y-92419829D02*
X83081543Y-92562686D01*
X83081543Y-92562686D02*
X83176781Y-92657924D01*
X83176781Y-92657924D02*
X83272019Y-92705543D01*
X83272019Y-92705543D02*
X83462495Y-92753162D01*
X83462495Y-92753162D02*
X83605352Y-92753162D01*
X83605352Y-92753162D02*
X83795828Y-92705543D01*
X83795828Y-92705543D02*
X83891066Y-92657924D01*
X83891066Y-92657924D02*
X83986304Y-92562686D01*
X83986304Y-92562686D02*
X84033923Y-92419829D01*
X84033923Y-92419829D02*
X84033923Y-92324591D01*
X84033923Y-92324591D02*
X83986304Y-92181734D01*
X83986304Y-92181734D02*
X83938685Y-92134115D01*
X83938685Y-92134115D02*
X83605352Y-92134115D01*
X83605352Y-92134115D02*
X83605352Y-92324591D01*
X84033923Y-91705543D02*
X83033923Y-91705543D01*
X83033923Y-91705543D02*
X84033923Y-91134115D01*
X84033923Y-91134115D02*
X83033923Y-91134115D01*
X84033923Y-90657924D02*
X83033923Y-90657924D01*
X83033923Y-90657924D02*
X83033923Y-90419829D01*
X83033923Y-90419829D02*
X83081543Y-90276972D01*
X83081543Y-90276972D02*
X83176781Y-90181734D01*
X83176781Y-90181734D02*
X83272019Y-90134115D01*
X83272019Y-90134115D02*
X83462495Y-90086496D01*
X83462495Y-90086496D02*
X83605352Y-90086496D01*
X83605352Y-90086496D02*
X83795828Y-90134115D01*
X83795828Y-90134115D02*
X83891066Y-90181734D01*
X83891066Y-90181734D02*
X83986304Y-90276972D01*
X83986304Y-90276972D02*
X84033923Y-90419829D01*
X84033923Y-90419829D02*
X84033923Y-90657924D01*
X77794922Y-92881770D02*
X78794922Y-92548437D01*
X78794922Y-92548437D02*
X77794922Y-92215104D01*
X78699684Y-91310342D02*
X78747303Y-91357961D01*
X78747303Y-91357961D02*
X78794922Y-91500818D01*
X78794922Y-91500818D02*
X78794922Y-91596056D01*
X78794922Y-91596056D02*
X78747303Y-91738913D01*
X78747303Y-91738913D02*
X78652065Y-91834151D01*
X78652065Y-91834151D02*
X78556827Y-91881770D01*
X78556827Y-91881770D02*
X78366351Y-91929389D01*
X78366351Y-91929389D02*
X78223494Y-91929389D01*
X78223494Y-91929389D02*
X78033018Y-91881770D01*
X78033018Y-91881770D02*
X77937780Y-91834151D01*
X77937780Y-91834151D02*
X77842542Y-91738913D01*
X77842542Y-91738913D02*
X77794922Y-91596056D01*
X77794922Y-91596056D02*
X77794922Y-91500818D01*
X77794922Y-91500818D02*
X77842542Y-91357961D01*
X77842542Y-91357961D02*
X77890161Y-91310342D01*
X78699684Y-90310342D02*
X78747303Y-90357961D01*
X78747303Y-90357961D02*
X78794922Y-90500818D01*
X78794922Y-90500818D02*
X78794922Y-90596056D01*
X78794922Y-90596056D02*
X78747303Y-90738913D01*
X78747303Y-90738913D02*
X78652065Y-90834151D01*
X78652065Y-90834151D02*
X78556827Y-90881770D01*
X78556827Y-90881770D02*
X78366351Y-90929389D01*
X78366351Y-90929389D02*
X78223494Y-90929389D01*
X78223494Y-90929389D02*
X78033018Y-90881770D01*
X78033018Y-90881770D02*
X77937780Y-90834151D01*
X77937780Y-90834151D02*
X77842542Y-90738913D01*
X77842542Y-90738913D02*
X77794922Y-90596056D01*
X77794922Y-90596056D02*
X77794922Y-90500818D01*
X77794922Y-90500818D02*
X77842542Y-90357961D01*
X77842542Y-90357961D02*
X77890161Y-90310342D01*
X140556943Y-71545484D02*
X140509323Y-71640722D01*
X140509323Y-71640722D02*
X140509323Y-71783579D01*
X140509323Y-71783579D02*
X140556943Y-71926436D01*
X140556943Y-71926436D02*
X140652181Y-72021674D01*
X140652181Y-72021674D02*
X140747419Y-72069293D01*
X140747419Y-72069293D02*
X140937895Y-72116912D01*
X140937895Y-72116912D02*
X141080752Y-72116912D01*
X141080752Y-72116912D02*
X141271228Y-72069293D01*
X141271228Y-72069293D02*
X141366466Y-72021674D01*
X141366466Y-72021674D02*
X141461704Y-71926436D01*
X141461704Y-71926436D02*
X141509323Y-71783579D01*
X141509323Y-71783579D02*
X141509323Y-71688341D01*
X141509323Y-71688341D02*
X141461704Y-71545484D01*
X141461704Y-71545484D02*
X141414085Y-71497865D01*
X141414085Y-71497865D02*
X141080752Y-71497865D01*
X141080752Y-71497865D02*
X141080752Y-71688341D01*
X141509323Y-71069293D02*
X140509323Y-71069293D01*
X140509323Y-71069293D02*
X141509323Y-70497865D01*
X141509323Y-70497865D02*
X140509323Y-70497865D01*
X141509323Y-70021674D02*
X140509323Y-70021674D01*
X140509323Y-70021674D02*
X140509323Y-69783579D01*
X140509323Y-69783579D02*
X140556943Y-69640722D01*
X140556943Y-69640722D02*
X140652181Y-69545484D01*
X140652181Y-69545484D02*
X140747419Y-69497865D01*
X140747419Y-69497865D02*
X140937895Y-69450246D01*
X140937895Y-69450246D02*
X141080752Y-69450246D01*
X141080752Y-69450246D02*
X141271228Y-69497865D01*
X141271228Y-69497865D02*
X141366466Y-69545484D01*
X141366466Y-69545484D02*
X141461704Y-69640722D01*
X141461704Y-69640722D02*
X141509323Y-69783579D01*
X141509323Y-69783579D02*
X141509323Y-70021674D01*
X156753138Y-93227094D02*
X157753138Y-92893761D01*
X157753138Y-92893761D02*
X156753138Y-92560428D01*
X157753138Y-92084237D02*
X157705519Y-92179475D01*
X157705519Y-92179475D02*
X157657900Y-92227094D01*
X157657900Y-92227094D02*
X157562662Y-92274713D01*
X157562662Y-92274713D02*
X157276948Y-92274713D01*
X157276948Y-92274713D02*
X157181710Y-92227094D01*
X157181710Y-92227094D02*
X157134091Y-92179475D01*
X157134091Y-92179475D02*
X157086472Y-92084237D01*
X157086472Y-92084237D02*
X157086472Y-91941380D01*
X157086472Y-91941380D02*
X157134091Y-91846142D01*
X157134091Y-91846142D02*
X157181710Y-91798523D01*
X157181710Y-91798523D02*
X157276948Y-91750904D01*
X157276948Y-91750904D02*
X157562662Y-91750904D01*
X157562662Y-91750904D02*
X157657900Y-91798523D01*
X157657900Y-91798523D02*
X157705519Y-91846142D01*
X157705519Y-91846142D02*
X157753138Y-91941380D01*
X157753138Y-91941380D02*
X157753138Y-92084237D01*
X157086472Y-90893761D02*
X157753138Y-90893761D01*
X157086472Y-91322332D02*
X157610281Y-91322332D01*
X157610281Y-91322332D02*
X157705519Y-91274713D01*
X157705519Y-91274713D02*
X157753138Y-91179475D01*
X157753138Y-91179475D02*
X157753138Y-91036618D01*
X157753138Y-91036618D02*
X157705519Y-90941380D01*
X157705519Y-90941380D02*
X157657900Y-90893761D01*
X157086472Y-90560427D02*
X157086472Y-90179475D01*
X156753138Y-90417570D02*
X157610281Y-90417570D01*
X157610281Y-90417570D02*
X157705519Y-90369951D01*
X157705519Y-90369951D02*
X157753138Y-90274713D01*
X157753138Y-90274713D02*
X157753138Y-90179475D01*
X137612738Y-93217094D02*
X138612738Y-92883761D01*
X138612738Y-92883761D02*
X137612738Y-92550428D01*
X138612738Y-92074237D02*
X138565119Y-92169475D01*
X138565119Y-92169475D02*
X138517500Y-92217094D01*
X138517500Y-92217094D02*
X138422262Y-92264713D01*
X138422262Y-92264713D02*
X138136548Y-92264713D01*
X138136548Y-92264713D02*
X138041310Y-92217094D01*
X138041310Y-92217094D02*
X137993691Y-92169475D01*
X137993691Y-92169475D02*
X137946072Y-92074237D01*
X137946072Y-92074237D02*
X137946072Y-91931380D01*
X137946072Y-91931380D02*
X137993691Y-91836142D01*
X137993691Y-91836142D02*
X138041310Y-91788523D01*
X138041310Y-91788523D02*
X138136548Y-91740904D01*
X138136548Y-91740904D02*
X138422262Y-91740904D01*
X138422262Y-91740904D02*
X138517500Y-91788523D01*
X138517500Y-91788523D02*
X138565119Y-91836142D01*
X138565119Y-91836142D02*
X138612738Y-91931380D01*
X138612738Y-91931380D02*
X138612738Y-92074237D01*
X137946072Y-90883761D02*
X138612738Y-90883761D01*
X137946072Y-91312332D02*
X138469881Y-91312332D01*
X138469881Y-91312332D02*
X138565119Y-91264713D01*
X138565119Y-91264713D02*
X138612738Y-91169475D01*
X138612738Y-91169475D02*
X138612738Y-91026618D01*
X138612738Y-91026618D02*
X138565119Y-90931380D01*
X138565119Y-90931380D02*
X138517500Y-90883761D01*
X137946072Y-90550427D02*
X137946072Y-90169475D01*
X137612738Y-90407570D02*
X138469881Y-90407570D01*
X138469881Y-90407570D02*
X138565119Y-90359951D01*
X138565119Y-90359951D02*
X138612738Y-90264713D01*
X138612738Y-90264713D02*
X138612738Y-90169475D01*
X118517738Y-93197094D02*
X119517738Y-92863761D01*
X119517738Y-92863761D02*
X118517738Y-92530428D01*
X119517738Y-92054237D02*
X119470119Y-92149475D01*
X119470119Y-92149475D02*
X119422500Y-92197094D01*
X119422500Y-92197094D02*
X119327262Y-92244713D01*
X119327262Y-92244713D02*
X119041548Y-92244713D01*
X119041548Y-92244713D02*
X118946310Y-92197094D01*
X118946310Y-92197094D02*
X118898691Y-92149475D01*
X118898691Y-92149475D02*
X118851072Y-92054237D01*
X118851072Y-92054237D02*
X118851072Y-91911380D01*
X118851072Y-91911380D02*
X118898691Y-91816142D01*
X118898691Y-91816142D02*
X118946310Y-91768523D01*
X118946310Y-91768523D02*
X119041548Y-91720904D01*
X119041548Y-91720904D02*
X119327262Y-91720904D01*
X119327262Y-91720904D02*
X119422500Y-91768523D01*
X119422500Y-91768523D02*
X119470119Y-91816142D01*
X119470119Y-91816142D02*
X119517738Y-91911380D01*
X119517738Y-91911380D02*
X119517738Y-92054237D01*
X118851072Y-90863761D02*
X119517738Y-90863761D01*
X118851072Y-91292332D02*
X119374881Y-91292332D01*
X119374881Y-91292332D02*
X119470119Y-91244713D01*
X119470119Y-91244713D02*
X119517738Y-91149475D01*
X119517738Y-91149475D02*
X119517738Y-91006618D01*
X119517738Y-91006618D02*
X119470119Y-90911380D01*
X119470119Y-90911380D02*
X119422500Y-90863761D01*
X118851072Y-90530427D02*
X118851072Y-90149475D01*
X118517738Y-90387570D02*
X119374881Y-90387570D01*
X119374881Y-90387570D02*
X119470119Y-90339951D01*
X119470119Y-90339951D02*
X119517738Y-90244713D01*
X119517738Y-90244713D02*
X119517738Y-90149475D01*
X83191543Y-71518283D02*
X83143923Y-71613521D01*
X83143923Y-71613521D02*
X83143923Y-71756378D01*
X83143923Y-71756378D02*
X83191543Y-71899235D01*
X83191543Y-71899235D02*
X83286781Y-71994473D01*
X83286781Y-71994473D02*
X83382019Y-72042092D01*
X83382019Y-72042092D02*
X83572495Y-72089711D01*
X83572495Y-72089711D02*
X83715352Y-72089711D01*
X83715352Y-72089711D02*
X83905828Y-72042092D01*
X83905828Y-72042092D02*
X84001066Y-71994473D01*
X84001066Y-71994473D02*
X84096304Y-71899235D01*
X84096304Y-71899235D02*
X84143923Y-71756378D01*
X84143923Y-71756378D02*
X84143923Y-71661140D01*
X84143923Y-71661140D02*
X84096304Y-71518283D01*
X84096304Y-71518283D02*
X84048685Y-71470664D01*
X84048685Y-71470664D02*
X83715352Y-71470664D01*
X83715352Y-71470664D02*
X83715352Y-71661140D01*
X84143923Y-71042092D02*
X83143923Y-71042092D01*
X83143923Y-71042092D02*
X84143923Y-70470664D01*
X84143923Y-70470664D02*
X83143923Y-70470664D01*
X84143923Y-69994473D02*
X83143923Y-69994473D01*
X83143923Y-69994473D02*
X83143923Y-69756378D01*
X83143923Y-69756378D02*
X83191543Y-69613521D01*
X83191543Y-69613521D02*
X83286781Y-69518283D01*
X83286781Y-69518283D02*
X83382019Y-69470664D01*
X83382019Y-69470664D02*
X83572495Y-69423045D01*
X83572495Y-69423045D02*
X83715352Y-69423045D01*
X83715352Y-69423045D02*
X83905828Y-69470664D01*
X83905828Y-69470664D02*
X84001066Y-69518283D01*
X84001066Y-69518283D02*
X84096304Y-69613521D01*
X84096304Y-69613521D02*
X84143923Y-69756378D01*
X84143923Y-69756378D02*
X84143923Y-69994473D01*
X96889922Y-92901770D02*
X97889922Y-92568437D01*
X97889922Y-92568437D02*
X96889922Y-92235104D01*
X97794684Y-91330342D02*
X97842303Y-91377961D01*
X97842303Y-91377961D02*
X97889922Y-91520818D01*
X97889922Y-91520818D02*
X97889922Y-91616056D01*
X97889922Y-91616056D02*
X97842303Y-91758913D01*
X97842303Y-91758913D02*
X97747065Y-91854151D01*
X97747065Y-91854151D02*
X97651827Y-91901770D01*
X97651827Y-91901770D02*
X97461351Y-91949389D01*
X97461351Y-91949389D02*
X97318494Y-91949389D01*
X97318494Y-91949389D02*
X97128018Y-91901770D01*
X97128018Y-91901770D02*
X97032780Y-91854151D01*
X97032780Y-91854151D02*
X96937542Y-91758913D01*
X96937542Y-91758913D02*
X96889922Y-91616056D01*
X96889922Y-91616056D02*
X96889922Y-91520818D01*
X96889922Y-91520818D02*
X96937542Y-91377961D01*
X96937542Y-91377961D02*
X96985161Y-91330342D01*
X97794684Y-90330342D02*
X97842303Y-90377961D01*
X97842303Y-90377961D02*
X97889922Y-90520818D01*
X97889922Y-90520818D02*
X97889922Y-90616056D01*
X97889922Y-90616056D02*
X97842303Y-90758913D01*
X97842303Y-90758913D02*
X97747065Y-90854151D01*
X97747065Y-90854151D02*
X97651827Y-90901770D01*
X97651827Y-90901770D02*
X97461351Y-90949389D01*
X97461351Y-90949389D02*
X97318494Y-90949389D01*
X97318494Y-90949389D02*
X97128018Y-90901770D01*
X97128018Y-90901770D02*
X97032780Y-90854151D01*
X97032780Y-90854151D02*
X96937542Y-90758913D01*
X96937542Y-90758913D02*
X96889922Y-90616056D01*
X96889922Y-90616056D02*
X96889922Y-90520818D01*
X96889922Y-90520818D02*
X96937542Y-90377961D01*
X96937542Y-90377961D02*
X96985161Y-90330342D01*
X102176543Y-92201734D02*
X102128923Y-92296972D01*
X102128923Y-92296972D02*
X102128923Y-92439829D01*
X102128923Y-92439829D02*
X102176543Y-92582686D01*
X102176543Y-92582686D02*
X102271781Y-92677924D01*
X102271781Y-92677924D02*
X102367019Y-92725543D01*
X102367019Y-92725543D02*
X102557495Y-92773162D01*
X102557495Y-92773162D02*
X102700352Y-92773162D01*
X102700352Y-92773162D02*
X102890828Y-92725543D01*
X102890828Y-92725543D02*
X102986066Y-92677924D01*
X102986066Y-92677924D02*
X103081304Y-92582686D01*
X103081304Y-92582686D02*
X103128923Y-92439829D01*
X103128923Y-92439829D02*
X103128923Y-92344591D01*
X103128923Y-92344591D02*
X103081304Y-92201734D01*
X103081304Y-92201734D02*
X103033685Y-92154115D01*
X103033685Y-92154115D02*
X102700352Y-92154115D01*
X102700352Y-92154115D02*
X102700352Y-92344591D01*
X103128923Y-91725543D02*
X102128923Y-91725543D01*
X102128923Y-91725543D02*
X103128923Y-91154115D01*
X103128923Y-91154115D02*
X102128923Y-91154115D01*
X103128923Y-90677924D02*
X102128923Y-90677924D01*
X102128923Y-90677924D02*
X102128923Y-90439829D01*
X102128923Y-90439829D02*
X102176543Y-90296972D01*
X102176543Y-90296972D02*
X102271781Y-90201734D01*
X102271781Y-90201734D02*
X102367019Y-90154115D01*
X102367019Y-90154115D02*
X102557495Y-90106496D01*
X102557495Y-90106496D02*
X102700352Y-90106496D01*
X102700352Y-90106496D02*
X102890828Y-90154115D01*
X102890828Y-90154115D02*
X102986066Y-90201734D01*
X102986066Y-90201734D02*
X103081304Y-90296972D01*
X103081304Y-90296972D02*
X103128923Y-90439829D01*
X103128923Y-90439829D02*
X103128923Y-90677924D01*
X154404564Y-53104437D02*
X155404564Y-52771104D01*
X155404564Y-52771104D02*
X154404564Y-52437771D01*
X155309326Y-51533009D02*
X155356945Y-51580628D01*
X155356945Y-51580628D02*
X155404564Y-51723485D01*
X155404564Y-51723485D02*
X155404564Y-51818723D01*
X155404564Y-51818723D02*
X155356945Y-51961580D01*
X155356945Y-51961580D02*
X155261707Y-52056818D01*
X155261707Y-52056818D02*
X155166469Y-52104437D01*
X155166469Y-52104437D02*
X154975993Y-52152056D01*
X154975993Y-52152056D02*
X154833136Y-52152056D01*
X154833136Y-52152056D02*
X154642660Y-52104437D01*
X154642660Y-52104437D02*
X154547422Y-52056818D01*
X154547422Y-52056818D02*
X154452184Y-51961580D01*
X154452184Y-51961580D02*
X154404564Y-51818723D01*
X154404564Y-51818723D02*
X154404564Y-51723485D01*
X154404564Y-51723485D02*
X154452184Y-51580628D01*
X154452184Y-51580628D02*
X154499803Y-51533009D01*
X155309326Y-50533009D02*
X155356945Y-50580628D01*
X155356945Y-50580628D02*
X155404564Y-50723485D01*
X155404564Y-50723485D02*
X155404564Y-50818723D01*
X155404564Y-50818723D02*
X155356945Y-50961580D01*
X155356945Y-50961580D02*
X155261707Y-51056818D01*
X155261707Y-51056818D02*
X155166469Y-51104437D01*
X155166469Y-51104437D02*
X154975993Y-51152056D01*
X154975993Y-51152056D02*
X154833136Y-51152056D01*
X154833136Y-51152056D02*
X154642660Y-51104437D01*
X154642660Y-51104437D02*
X154547422Y-51056818D01*
X154547422Y-51056818D02*
X154452184Y-50961580D01*
X154452184Y-50961580D02*
X154404564Y-50818723D01*
X154404564Y-50818723D02*
X154404564Y-50723485D01*
X154404564Y-50723485D02*
X154452184Y-50580628D01*
X154452184Y-50580628D02*
X154499803Y-50533009D01*
X80397738Y-93182094D02*
X81397738Y-92848761D01*
X81397738Y-92848761D02*
X80397738Y-92515428D01*
X81397738Y-92039237D02*
X81350119Y-92134475D01*
X81350119Y-92134475D02*
X81302500Y-92182094D01*
X81302500Y-92182094D02*
X81207262Y-92229713D01*
X81207262Y-92229713D02*
X80921548Y-92229713D01*
X80921548Y-92229713D02*
X80826310Y-92182094D01*
X80826310Y-92182094D02*
X80778691Y-92134475D01*
X80778691Y-92134475D02*
X80731072Y-92039237D01*
X80731072Y-92039237D02*
X80731072Y-91896380D01*
X80731072Y-91896380D02*
X80778691Y-91801142D01*
X80778691Y-91801142D02*
X80826310Y-91753523D01*
X80826310Y-91753523D02*
X80921548Y-91705904D01*
X80921548Y-91705904D02*
X81207262Y-91705904D01*
X81207262Y-91705904D02*
X81302500Y-91753523D01*
X81302500Y-91753523D02*
X81350119Y-91801142D01*
X81350119Y-91801142D02*
X81397738Y-91896380D01*
X81397738Y-91896380D02*
X81397738Y-92039237D01*
X80731072Y-90848761D02*
X81397738Y-90848761D01*
X80731072Y-91277332D02*
X81254881Y-91277332D01*
X81254881Y-91277332D02*
X81350119Y-91229713D01*
X81350119Y-91229713D02*
X81397738Y-91134475D01*
X81397738Y-91134475D02*
X81397738Y-90991618D01*
X81397738Y-90991618D02*
X81350119Y-90896380D01*
X81350119Y-90896380D02*
X81302500Y-90848761D01*
X80731072Y-90515427D02*
X80731072Y-90134475D01*
X80397738Y-90372570D02*
X81254881Y-90372570D01*
X81254881Y-90372570D02*
X81350119Y-90324951D01*
X81350119Y-90324951D02*
X81397738Y-90229713D01*
X81397738Y-90229713D02*
X81397738Y-90134475D01*
X140583085Y-52391651D02*
X140535465Y-52486889D01*
X140535465Y-52486889D02*
X140535465Y-52629746D01*
X140535465Y-52629746D02*
X140583085Y-52772603D01*
X140583085Y-52772603D02*
X140678323Y-52867841D01*
X140678323Y-52867841D02*
X140773561Y-52915460D01*
X140773561Y-52915460D02*
X140964037Y-52963079D01*
X140964037Y-52963079D02*
X141106894Y-52963079D01*
X141106894Y-52963079D02*
X141297370Y-52915460D01*
X141297370Y-52915460D02*
X141392608Y-52867841D01*
X141392608Y-52867841D02*
X141487846Y-52772603D01*
X141487846Y-52772603D02*
X141535465Y-52629746D01*
X141535465Y-52629746D02*
X141535465Y-52534508D01*
X141535465Y-52534508D02*
X141487846Y-52391651D01*
X141487846Y-52391651D02*
X141440227Y-52344032D01*
X141440227Y-52344032D02*
X141106894Y-52344032D01*
X141106894Y-52344032D02*
X141106894Y-52534508D01*
X141535465Y-51915460D02*
X140535465Y-51915460D01*
X140535465Y-51915460D02*
X141535465Y-51344032D01*
X141535465Y-51344032D02*
X140535465Y-51344032D01*
X141535465Y-50867841D02*
X140535465Y-50867841D01*
X140535465Y-50867841D02*
X140535465Y-50629746D01*
X140535465Y-50629746D02*
X140583085Y-50486889D01*
X140583085Y-50486889D02*
X140678323Y-50391651D01*
X140678323Y-50391651D02*
X140773561Y-50344032D01*
X140773561Y-50344032D02*
X140964037Y-50296413D01*
X140964037Y-50296413D02*
X141106894Y-50296413D01*
X141106894Y-50296413D02*
X141297370Y-50344032D01*
X141297370Y-50344032D02*
X141392608Y-50391651D01*
X141392608Y-50391651D02*
X141487846Y-50486889D01*
X141487846Y-50486889D02*
X141535465Y-50629746D01*
X141535465Y-50629746D02*
X141535465Y-50867841D01*
X116188564Y-52772187D02*
X117188564Y-52438854D01*
X117188564Y-52438854D02*
X116188564Y-52105521D01*
X117093326Y-51200759D02*
X117140945Y-51248378D01*
X117140945Y-51248378D02*
X117188564Y-51391235D01*
X117188564Y-51391235D02*
X117188564Y-51486473D01*
X117188564Y-51486473D02*
X117140945Y-51629330D01*
X117140945Y-51629330D02*
X117045707Y-51724568D01*
X117045707Y-51724568D02*
X116950469Y-51772187D01*
X116950469Y-51772187D02*
X116759993Y-51819806D01*
X116759993Y-51819806D02*
X116617136Y-51819806D01*
X116617136Y-51819806D02*
X116426660Y-51772187D01*
X116426660Y-51772187D02*
X116331422Y-51724568D01*
X116331422Y-51724568D02*
X116236184Y-51629330D01*
X116236184Y-51629330D02*
X116188564Y-51486473D01*
X116188564Y-51486473D02*
X116188564Y-51391235D01*
X116188564Y-51391235D02*
X116236184Y-51248378D01*
X116236184Y-51248378D02*
X116283803Y-51200759D01*
X117093326Y-50200759D02*
X117140945Y-50248378D01*
X117140945Y-50248378D02*
X117188564Y-50391235D01*
X117188564Y-50391235D02*
X117188564Y-50486473D01*
X117188564Y-50486473D02*
X117140945Y-50629330D01*
X117140945Y-50629330D02*
X117045707Y-50724568D01*
X117045707Y-50724568D02*
X116950469Y-50772187D01*
X116950469Y-50772187D02*
X116759993Y-50819806D01*
X116759993Y-50819806D02*
X116617136Y-50819806D01*
X116617136Y-50819806D02*
X116426660Y-50772187D01*
X116426660Y-50772187D02*
X116331422Y-50724568D01*
X116331422Y-50724568D02*
X116236184Y-50629330D01*
X116236184Y-50629330D02*
X116188564Y-50486473D01*
X116188564Y-50486473D02*
X116188564Y-50391235D01*
X116188564Y-50391235D02*
X116236184Y-50248378D01*
X116236184Y-50248378D02*
X116283803Y-50200759D01*
X97080322Y-72235520D02*
X98080322Y-71902187D01*
X98080322Y-71902187D02*
X97080322Y-71568854D01*
X97985084Y-70664092D02*
X98032703Y-70711711D01*
X98032703Y-70711711D02*
X98080322Y-70854568D01*
X98080322Y-70854568D02*
X98080322Y-70949806D01*
X98080322Y-70949806D02*
X98032703Y-71092663D01*
X98032703Y-71092663D02*
X97937465Y-71187901D01*
X97937465Y-71187901D02*
X97842227Y-71235520D01*
X97842227Y-71235520D02*
X97651751Y-71283139D01*
X97651751Y-71283139D02*
X97508894Y-71283139D01*
X97508894Y-71283139D02*
X97318418Y-71235520D01*
X97318418Y-71235520D02*
X97223180Y-71187901D01*
X97223180Y-71187901D02*
X97127942Y-71092663D01*
X97127942Y-71092663D02*
X97080322Y-70949806D01*
X97080322Y-70949806D02*
X97080322Y-70854568D01*
X97080322Y-70854568D02*
X97127942Y-70711711D01*
X97127942Y-70711711D02*
X97175561Y-70664092D01*
X97985084Y-69664092D02*
X98032703Y-69711711D01*
X98032703Y-69711711D02*
X98080322Y-69854568D01*
X98080322Y-69854568D02*
X98080322Y-69949806D01*
X98080322Y-69949806D02*
X98032703Y-70092663D01*
X98032703Y-70092663D02*
X97937465Y-70187901D01*
X97937465Y-70187901D02*
X97842227Y-70235520D01*
X97842227Y-70235520D02*
X97651751Y-70283139D01*
X97651751Y-70283139D02*
X97508894Y-70283139D01*
X97508894Y-70283139D02*
X97318418Y-70235520D01*
X97318418Y-70235520D02*
X97223180Y-70187901D01*
X97223180Y-70187901D02*
X97127942Y-70092663D01*
X97127942Y-70092663D02*
X97080322Y-69949806D01*
X97080322Y-69949806D02*
X97080322Y-69854568D01*
X97080322Y-69854568D02*
X97127942Y-69711711D01*
X97127942Y-69711711D02*
X97175561Y-69664092D01*
X137899280Y-53392011D02*
X138899280Y-53058678D01*
X138899280Y-53058678D02*
X137899280Y-52725345D01*
X138899280Y-52249154D02*
X138851661Y-52344392D01*
X138851661Y-52344392D02*
X138804042Y-52392011D01*
X138804042Y-52392011D02*
X138708804Y-52439630D01*
X138708804Y-52439630D02*
X138423090Y-52439630D01*
X138423090Y-52439630D02*
X138327852Y-52392011D01*
X138327852Y-52392011D02*
X138280233Y-52344392D01*
X138280233Y-52344392D02*
X138232614Y-52249154D01*
X138232614Y-52249154D02*
X138232614Y-52106297D01*
X138232614Y-52106297D02*
X138280233Y-52011059D01*
X138280233Y-52011059D02*
X138327852Y-51963440D01*
X138327852Y-51963440D02*
X138423090Y-51915821D01*
X138423090Y-51915821D02*
X138708804Y-51915821D01*
X138708804Y-51915821D02*
X138804042Y-51963440D01*
X138804042Y-51963440D02*
X138851661Y-52011059D01*
X138851661Y-52011059D02*
X138899280Y-52106297D01*
X138899280Y-52106297D02*
X138899280Y-52249154D01*
X138232614Y-51058678D02*
X138899280Y-51058678D01*
X138232614Y-51487249D02*
X138756423Y-51487249D01*
X138756423Y-51487249D02*
X138851661Y-51439630D01*
X138851661Y-51439630D02*
X138899280Y-51344392D01*
X138899280Y-51344392D02*
X138899280Y-51201535D01*
X138899280Y-51201535D02*
X138851661Y-51106297D01*
X138851661Y-51106297D02*
X138804042Y-51058678D01*
X138232614Y-50725344D02*
X138232614Y-50344392D01*
X137899280Y-50582487D02*
X138756423Y-50582487D01*
X138756423Y-50582487D02*
X138851661Y-50534868D01*
X138851661Y-50534868D02*
X138899280Y-50439630D01*
X138899280Y-50439630D02*
X138899280Y-50344392D01*
D11*
%TO.C,SW*%
X88009600Y-83096549D02*
X74039600Y-83096549D01*
X88009600Y-69126549D02*
X88009600Y-83096549D01*
X74039600Y-83096549D02*
X74039600Y-69126549D01*
X74039600Y-69126549D02*
X88009600Y-69126549D01*
D12*
X85474600Y-82161549D02*
X76564600Y-82161549D01*
X76564600Y-82161549D02*
X76564600Y-79861549D01*
X76564600Y-79861549D02*
X85474600Y-79861549D01*
X85474600Y-79861549D02*
X85474600Y-82161549D01*
D11*
X145375000Y-83123750D02*
X131405000Y-83123750D01*
X145375000Y-69153750D02*
X145375000Y-83123750D01*
X131405000Y-83123750D02*
X131405000Y-69153750D01*
X131405000Y-69153750D02*
X145375000Y-69153750D01*
D12*
X142840000Y-82188750D02*
X133930000Y-82188750D01*
X133930000Y-82188750D02*
X133930000Y-79888750D01*
X133930000Y-79888750D02*
X142840000Y-79888750D01*
X142840000Y-79888750D02*
X142840000Y-82188750D01*
D11*
X145114600Y-103795000D02*
X131144600Y-103795000D01*
X145114600Y-89825000D02*
X145114600Y-103795000D01*
X131144600Y-103795000D02*
X131144600Y-89825000D01*
X131144600Y-89825000D02*
X145114600Y-89825000D01*
D12*
X142579600Y-102860000D02*
X133669600Y-102860000D01*
X133669600Y-102860000D02*
X133669600Y-100560000D01*
X133669600Y-100560000D02*
X142579600Y-100560000D01*
X142579600Y-100560000D02*
X142579600Y-102860000D01*
D11*
X126249000Y-83114299D02*
X112279000Y-83114299D01*
X126249000Y-69144299D02*
X126249000Y-83114299D01*
X112279000Y-83114299D02*
X112279000Y-69144299D01*
X112279000Y-69144299D02*
X126249000Y-69144299D01*
D12*
X123714000Y-82179299D02*
X114804000Y-82179299D01*
X114804000Y-82179299D02*
X114804000Y-79879299D01*
X114804000Y-79879299D02*
X123714000Y-79879299D01*
X123714000Y-79879299D02*
X123714000Y-82179299D01*
D11*
X126293242Y-63650417D02*
X112323242Y-63650417D01*
X126293242Y-49680417D02*
X126293242Y-63650417D01*
X112323242Y-63650417D02*
X112323242Y-49680417D01*
X112323242Y-49680417D02*
X126293242Y-49680417D01*
D12*
X123758242Y-62715417D02*
X114848242Y-62715417D01*
X114848242Y-62715417D02*
X114848242Y-60415417D01*
X114848242Y-60415417D02*
X123758242Y-60415417D01*
X123758242Y-60415417D02*
X123758242Y-62715417D01*
D11*
X107185000Y-83113750D02*
X93215000Y-83113750D01*
X107185000Y-69143750D02*
X107185000Y-83113750D01*
X93215000Y-83113750D02*
X93215000Y-69143750D01*
X93215000Y-69143750D02*
X107185000Y-69143750D01*
D12*
X104650000Y-82178750D02*
X95740000Y-82178750D01*
X95740000Y-82178750D02*
X95740000Y-79878750D01*
X95740000Y-79878750D02*
X104650000Y-79878750D01*
X104650000Y-79878750D02*
X104650000Y-82178750D01*
D11*
X87899600Y-103760000D02*
X73929600Y-103760000D01*
X87899600Y-89790000D02*
X87899600Y-103760000D01*
X73929600Y-103760000D02*
X73929600Y-89790000D01*
X73929600Y-89790000D02*
X87899600Y-89790000D01*
D12*
X85364600Y-102825000D02*
X76454600Y-102825000D01*
X76454600Y-102825000D02*
X76454600Y-100525000D01*
X76454600Y-100525000D02*
X85364600Y-100525000D01*
X85364600Y-100525000D02*
X85364600Y-102825000D01*
D11*
X145401142Y-63969917D02*
X131431142Y-63969917D01*
X145401142Y-49999917D02*
X145401142Y-63969917D01*
X131431142Y-63969917D02*
X131431142Y-49999917D01*
X131431142Y-49999917D02*
X145401142Y-49999917D01*
D12*
X142866142Y-63034917D02*
X133956142Y-63034917D01*
X133956142Y-63034917D02*
X133956142Y-60734917D01*
X133956142Y-60734917D02*
X142866142Y-60734917D01*
X142866142Y-60734917D02*
X142866142Y-63034917D01*
D11*
X164509242Y-63982667D02*
X150539242Y-63982667D01*
X164509242Y-50012667D02*
X164509242Y-63982667D01*
X150539242Y-63982667D02*
X150539242Y-50012667D01*
X150539242Y-50012667D02*
X164509242Y-50012667D01*
D12*
X161974242Y-63047667D02*
X153064242Y-63047667D01*
X153064242Y-63047667D02*
X153064242Y-60747667D01*
X153064242Y-60747667D02*
X161974242Y-60747667D01*
X161974242Y-60747667D02*
X161974242Y-63047667D01*
D11*
X164255000Y-103805000D02*
X150285000Y-103805000D01*
X164255000Y-89835000D02*
X164255000Y-103805000D01*
X150285000Y-103805000D02*
X150285000Y-89835000D01*
X150285000Y-89835000D02*
X164255000Y-89835000D01*
D12*
X161720000Y-102870000D02*
X152810000Y-102870000D01*
X152810000Y-102870000D02*
X152810000Y-100570000D01*
X152810000Y-100570000D02*
X161720000Y-100570000D01*
X161720000Y-100570000D02*
X161720000Y-102870000D01*
D11*
X106994600Y-103780000D02*
X93024600Y-103780000D01*
X106994600Y-89810000D02*
X106994600Y-103780000D01*
X93024600Y-103780000D02*
X93024600Y-89810000D01*
X93024600Y-89810000D02*
X106994600Y-89810000D01*
D12*
X104459600Y-102845000D02*
X95549600Y-102845000D01*
X95549600Y-102845000D02*
X95549600Y-100545000D01*
X95549600Y-100545000D02*
X104459600Y-100545000D01*
X104459600Y-100545000D02*
X104459600Y-102845000D01*
D11*
X164424000Y-83039299D02*
X150454000Y-83039299D01*
X164424000Y-69069299D02*
X164424000Y-83039299D01*
X150454000Y-83039299D02*
X150454000Y-69069299D01*
X150454000Y-69069299D02*
X164424000Y-69069299D01*
D12*
X161889000Y-82104299D02*
X152979000Y-82104299D01*
X152979000Y-82104299D02*
X152979000Y-79804299D01*
X152979000Y-79804299D02*
X161889000Y-79804299D01*
X161889000Y-79804299D02*
X161889000Y-82104299D01*
D11*
X126019600Y-103775000D02*
X112049600Y-103775000D01*
X126019600Y-89805000D02*
X126019600Y-103775000D01*
X112049600Y-103775000D02*
X112049600Y-89805000D01*
X112049600Y-89805000D02*
X126019600Y-89805000D01*
D12*
X123484600Y-102840000D02*
X114574600Y-102840000D01*
X114574600Y-102840000D02*
X114574600Y-100540000D01*
X114574600Y-100540000D02*
X123484600Y-100540000D01*
X123484600Y-100540000D02*
X123484600Y-102840000D01*
%TD*%
%LPC*%
D13*
%TO.C,SW*%
X86104600Y-76111549D03*
X75944600Y-76111549D03*
%TD*%
%TO.C,SW*%
X143470000Y-76138750D03*
X133310000Y-76138750D03*
%TD*%
%TO.C,SW*%
X143209600Y-96810000D03*
X133049600Y-96810000D03*
%TD*%
%TO.C,SW*%
X124344000Y-76129299D03*
X114184000Y-76129299D03*
%TD*%
%TO.C,SW*%
X124388242Y-56665417D03*
X114228242Y-56665417D03*
%TD*%
%TO.C,SW*%
X105280000Y-76128750D03*
X95120000Y-76128750D03*
%TD*%
%TO.C,SW*%
X85994600Y-96775000D03*
X75834600Y-96775000D03*
%TD*%
%TO.C,SW*%
X143496142Y-56984917D03*
X133336142Y-56984917D03*
%TD*%
%TO.C,SW*%
X162604242Y-56997667D03*
X152444242Y-56997667D03*
%TD*%
%TO.C,SW*%
X162350000Y-96820000D03*
X152190000Y-96820000D03*
%TD*%
%TO.C,SW*%
X105089600Y-96795000D03*
X94929600Y-96795000D03*
%TD*%
%TO.C,SW*%
X162519000Y-76054299D03*
X152359000Y-76054299D03*
%TD*%
%TO.C,SW*%
X124114600Y-96790000D03*
X113954600Y-96790000D03*
%TD*%
D14*
%TO.C,STB3*%
X83564599Y-82937798D03*
D15*
X81024599Y-82937798D03*
X78484599Y-82937798D03*
%TD*%
D14*
%TO.C,STB1*%
X130769999Y-67724999D03*
%TD*%
%TO.C,STB1*%
X149904241Y-48583916D03*
%TD*%
%TO.C,STB2*%
X126654599Y-88376249D03*
%TD*%
%TO.C,STB2*%
X107819999Y-67714999D03*
%TD*%
%TO.C,J1*%
X102549599Y-88381249D03*
D15*
X100009599Y-88381249D03*
X97469599Y-88381249D03*
%TD*%
D14*
%TO.C,STB3*%
X159809999Y-103646249D03*
D15*
X157269999Y-103646249D03*
X154729999Y-103646249D03*
%TD*%
D14*
%TO.C,STB1*%
X130796141Y-48571166D03*
%TD*%
%TO.C,STB3*%
X140956141Y-63811166D03*
D15*
X138416141Y-63811166D03*
X135876141Y-63811166D03*
%TD*%
D14*
%TO.C,STB1*%
X92389599Y-88381249D03*
%TD*%
%TO.C,STB1*%
X149818999Y-67640548D03*
%TD*%
%TO.C,STB3*%
X160064241Y-63823916D03*
D15*
X157524241Y-63823916D03*
X154984241Y-63823916D03*
%TD*%
D14*
%TO.C,J1*%
X140929999Y-67724999D03*
D15*
X138389999Y-67724999D03*
X135849999Y-67724999D03*
%TD*%
D14*
%TO.C,J1*%
X159809999Y-88406249D03*
D15*
X157269999Y-88406249D03*
X154729999Y-88406249D03*
%TD*%
D14*
%TO.C,STB3*%
X102549599Y-103621249D03*
D15*
X100009599Y-103621249D03*
X97469599Y-103621249D03*
%TD*%
D14*
%TO.C,STB1*%
X111688241Y-48251666D03*
%TD*%
%TO.C,STB2*%
X126928241Y-48251666D03*
%TD*%
%TO.C,STB1*%
X111414599Y-88376249D03*
%TD*%
%TO.C,J1*%
X102739999Y-67714999D03*
D15*
X100199999Y-67714999D03*
X97659999Y-67714999D03*
%TD*%
D14*
%TO.C,STB2*%
X146036141Y-48571166D03*
%TD*%
%TO.C,STB1*%
X92579999Y-67714999D03*
%TD*%
%TO.C,STB3*%
X140929999Y-82964999D03*
D15*
X138389999Y-82964999D03*
X135849999Y-82964999D03*
%TD*%
D14*
%TO.C,J1*%
X121803999Y-67715548D03*
D15*
X119263999Y-67715548D03*
X116723999Y-67715548D03*
%TD*%
D14*
%TO.C,STB3*%
X121848241Y-63491666D03*
D15*
X119308241Y-63491666D03*
X116768241Y-63491666D03*
%TD*%
D14*
%TO.C,STB1*%
X130509599Y-88396249D03*
%TD*%
%TO.C,STB3*%
X83454599Y-103601249D03*
D15*
X80914599Y-103601249D03*
X78374599Y-103601249D03*
%TD*%
D14*
%TO.C,STB1*%
X73294599Y-88361249D03*
%TD*%
%TO.C,J1*%
X160064241Y-48583916D03*
D15*
X157524241Y-48583916D03*
X154984241Y-48583916D03*
%TD*%
D14*
%TO.C,J1*%
X159978999Y-67640548D03*
D15*
X157438999Y-67640548D03*
X154898999Y-67640548D03*
%TD*%
D14*
%TO.C,STB2*%
X88534599Y-88361249D03*
%TD*%
%TO.C,STB2*%
X107629599Y-88381249D03*
%TD*%
%TO.C,J1*%
X83564599Y-67697798D03*
D15*
X81024599Y-67697798D03*
X78484599Y-67697798D03*
%TD*%
D14*
%TO.C,STB3*%
X102739999Y-82954999D03*
D15*
X100199999Y-82954999D03*
X97659999Y-82954999D03*
%TD*%
D14*
%TO.C,STB2*%
X165058999Y-67640548D03*
%TD*%
%TO.C,STB1*%
X73404599Y-67697798D03*
%TD*%
%TO.C,STB2*%
X164889999Y-88406249D03*
%TD*%
%TO.C,J1*%
X83454599Y-88361249D03*
D15*
X80914599Y-88361249D03*
X78374599Y-88361249D03*
%TD*%
D14*
%TO.C,STB1*%
X149649999Y-88406249D03*
%TD*%
%TO.C,STB3*%
X140669599Y-103636249D03*
D15*
X138129599Y-103636249D03*
X135589599Y-103636249D03*
%TD*%
D14*
%TO.C,STB2*%
X146009999Y-67724999D03*
%TD*%
%TO.C,STB2*%
X145749599Y-88396249D03*
%TD*%
%TO.C,STB2*%
X126883999Y-67715548D03*
%TD*%
%TO.C,STB2*%
X164874999Y-48674999D03*
%TD*%
%TO.C,J1*%
X140669599Y-88396249D03*
D15*
X138129599Y-88396249D03*
X135589599Y-88396249D03*
%TD*%
D14*
%TO.C,STB3*%
X159978999Y-82880548D03*
D15*
X157438999Y-82880548D03*
X154898999Y-82880548D03*
%TD*%
D14*
%TO.C,J1*%
X121848241Y-48251666D03*
D15*
X119308241Y-48251666D03*
X116768241Y-48251666D03*
%TD*%
D14*
%TO.C,J1*%
X140956141Y-48571166D03*
D15*
X138416141Y-48571166D03*
X135876141Y-48571166D03*
%TD*%
D14*
%TO.C,STB3*%
X121803999Y-82955548D03*
D15*
X119263999Y-82955548D03*
X116723999Y-82955548D03*
%TD*%
D14*
%TO.C,J1*%
X121574599Y-88376249D03*
D15*
X119034599Y-88376249D03*
X116494599Y-88376249D03*
%TD*%
D14*
%TO.C,STB2*%
X88644599Y-67697798D03*
%TD*%
%TO.C,STB3*%
X121574599Y-103616249D03*
D15*
X119034599Y-103616249D03*
X116494599Y-103616249D03*
%TD*%
D14*
%TO.C,STB1*%
X111643999Y-67715548D03*
%TD*%
M02*
