M48
; DRILL file {KiCad (7.0.0-0)} date Monday, March 27, 2023 at 10:21:21 PM
; FORMAT={-:-/ absolute / inch / decimal}
; #@! TF.CreationDate,2023-03-27T22:21:21-05:00
; #@! TF.GenerationSoftware,Kicad,Pcbnew,(7.0.0-0)
; #@! TF.FileFunction,NonPlated,1,2,NPTH
FMAT,2
INCH
; #@! TA.AperFunction,NonPlated,NPTH,ComponentDrill
T1C0.0669
%
G90
G05
T1
X2.9856Y-3.81
X2.9899Y-2.9965
X3.3856Y-3.81
X3.3899Y-2.9965
X3.7374Y-3.8108
X3.7449Y-2.9972
X4.1374Y-3.8108
X4.1449Y-2.9972
X4.4864Y-3.8106
X4.4954Y-2.9972
X4.4972Y-2.2309
X4.8864Y-3.8106
X4.8954Y-2.9972
X4.8972Y-2.2309
X5.2382Y-3.8114
X5.2484Y-2.9976
X5.2495Y-2.2435
X5.6382Y-3.8114
X5.6484Y-2.9976
X5.6495Y-2.2435
X5.9917Y-3.8118
X5.9984Y-2.9943
X6.0017Y-2.244
X6.3917Y-3.8118
X6.3984Y-2.9943
X6.4017Y-2.244
T0
M30
