%TF.GenerationSoftware,KiCad,Pcbnew,(7.0.0-0)*%
%TF.CreationDate,2023-04-23T13:01:11-05:00*%
%TF.ProjectId,panelized,70616e65-6c69-47a6-9564-2e6b69636164,rev?*%
%TF.SameCoordinates,Original*%
%TF.FileFunction,Soldermask,Bot*%
%TF.FilePolarity,Negative*%
%FSLAX46Y46*%
G04 Gerber Fmt 4.6, Leading zero omitted, Abs format (unit mm)*
G04 Created by KiCad (PCBNEW (7.0.0-0)) date 2023-04-23 13:01:11*
%MOMM*%
%LPD*%
G01*
G04 APERTURE LIST*
G04 Aperture macros list*
%AMRoundRect*
0 Rectangle with rounded corners*
0 $1 Rounding radius*
0 $2 $3 $4 $5 $6 $7 $8 $9 X,Y pos of 4 corners*
0 Add a 4 corners polygon primitive as box body*
4,1,4,$2,$3,$4,$5,$6,$7,$8,$9,$2,$3,0*
0 Add four circle primitives for the rounded corners*
1,1,$1+$1,$2,$3*
1,1,$1+$1,$4,$5*
1,1,$1+$1,$6,$7*
1,1,$1+$1,$8,$9*
0 Add four rect primitives between the rounded corners*
20,1,$1+$1,$2,$3,$4,$5,0*
20,1,$1+$1,$4,$5,$6,$7,0*
20,1,$1+$1,$6,$7,$8,$9,0*
20,1,$1+$1,$8,$9,$2,$3,0*%
%AMRotRect*
0 Rectangle, with rotation*
0 The origin of the aperture is its center*
0 $1 length*
0 $2 width*
0 $3 Rotation angle, in degrees counterclockwise*
0 Add horizontal line*
21,1,$1,$2,0,0,$3*%
%AMFreePoly0*
4,1,27,0.262664,0.808398,0.425000,0.736122,0.568761,0.631673,0.687664,0.499617,0.776514,0.345726,0.831425,0.176725,0.850000,0.000000,0.850000,-0.850000,0.000000,-0.850000,0.004656,-0.845344,-0.088849,-0.845344,-0.262664,-0.808398,-0.425000,-0.736122,-0.568761,-0.631673,-0.687664,-0.499617,-0.776514,-0.345726,-0.831425,-0.176725,-0.850000,0.000000,-0.831425,0.176725,-0.776514,0.345726,
-0.687664,0.499617,-0.568761,0.631673,-0.425000,0.736122,-0.262664,0.808398,-0.088849,0.845344,0.088849,0.845344,0.262664,0.808398,0.262664,0.808398,$1*%
%AMFreePoly1*
4,1,27,-0.004656,0.845344,0.088849,0.845344,0.262664,0.808398,0.425000,0.736122,0.568761,0.631673,0.687664,0.499617,0.776514,0.345726,0.831425,0.176725,0.850000,0.000000,0.831425,-0.176725,0.776514,-0.345726,0.687664,-0.499617,0.568761,-0.631673,0.425000,-0.736122,0.262664,-0.808398,0.088849,-0.845344,-0.088849,-0.845344,-0.262664,-0.808398,-0.425000,-0.736122,-0.568761,-0.631673,
-0.687664,-0.499617,-0.776514,-0.345726,-0.831425,-0.176725,-0.850000,0.000000,-0.850000,0.850000,0.000000,0.850000,-0.004656,0.845344,-0.004656,0.845344,$1*%
%AMFreePoly2*
4,1,21,0.500000,0.000000,0.479746,-0.140866,0.420627,-0.270320,0.327430,-0.377875,0.207708,-0.454816,0.071157,-0.494911,-0.071157,-0.494911,-0.207708,-0.454816,-0.327430,-0.377875,-0.420627,-0.270320,-0.479746,-0.140866,-0.500000,0.000000,-0.479746,0.140866,-0.420627,0.270320,-0.327430,0.377875,-0.207708,0.454816,-0.071157,0.494911,0.005089,0.494911,0.000000,0.500000,0.500000,0.500000,
0.500000,0.000000,0.500000,0.000000,$1*%
%AMFreePoly3*
4,1,21,0.207708,0.454816,0.327430,0.377875,0.420627,0.270320,0.479746,0.140866,0.500000,0.000000,0.500000,-0.500000,0.000000,-0.500000,0.005089,-0.494911,-0.071157,-0.494911,-0.207708,-0.454816,-0.327430,-0.377875,-0.420627,-0.270320,-0.479746,-0.140866,-0.500000,0.000000,-0.479746,0.140866,-0.420627,0.270320,-0.327430,0.377875,-0.207708,0.454816,-0.071157,0.494911,0.071157,0.494911,
0.207708,0.454816,0.207708,0.454816,$1*%
G04 Aperture macros list end*
%ADD10R,1.700000X1.700000*%
%ADD11C,1.700000*%
%ADD12RoundRect,0.160000X0.160000X-0.197500X0.160000X0.197500X-0.160000X0.197500X-0.160000X-0.197500X0*%
%ADD13FreePoly0,90.000000*%
%ADD14RotRect,1.700000X1.700000X135.000000*%
%ADD15FreePoly1,180.000000*%
%ADD16RoundRect,0.225000X-0.250000X0.225000X-0.250000X-0.225000X0.250000X-0.225000X0.250000X0.225000X0*%
%ADD17RoundRect,0.100000X-0.700000X-0.325000X0.700000X-0.325000X0.700000X0.325000X-0.700000X0.325000X0*%
%ADD18RoundRect,0.100000X0.700000X0.325000X-0.700000X0.325000X-0.700000X-0.325000X0.700000X-0.325000X0*%
%ADD19RoundRect,0.150000X-0.512500X-0.150000X0.512500X-0.150000X0.512500X0.150000X-0.512500X0.150000X0*%
%ADD20FreePoly0,180.000000*%
%ADD21FreePoly2,180.000000*%
%ADD22FreePoly3,180.000000*%
G04 APERTURE END LIST*
D10*
%TO.C,*%
X-3174999Y-69214999D03*
%TD*%
%TO.C,*%
X-3174999Y-50164999D03*
%TD*%
%TO.C,*%
X-3174999Y-183514999D03*
%TD*%
%TO.C,*%
X-3174999Y-107314999D03*
%TD*%
%TO.C,*%
X-3174999Y-126364999D03*
%TD*%
%TO.C,*%
X-3174999Y-164464999D03*
%TD*%
%TO.C,*%
X-3174999Y-145414999D03*
%TD*%
%TO.C,*%
X-3174999Y-31114999D03*
%TD*%
%TO.C,*%
X-3174999Y-88264999D03*
%TD*%
%TO.C,*%
X-3174999Y-12064999D03*
%TD*%
%TO.C,*%
X98424999Y-12064999D03*
%TD*%
%TO.C,*%
X98424999Y-88264999D03*
%TD*%
%TO.C,*%
X98424999Y-183514999D03*
%TD*%
%TO.C,*%
X98424999Y-145414999D03*
%TD*%
%TO.C,*%
X98424999Y-107314999D03*
%TD*%
%TO.C,*%
X98424999Y-69214999D03*
%TD*%
%TO.C,*%
X98424999Y-126364999D03*
%TD*%
%TO.C,*%
X98424999Y-50164999D03*
%TD*%
%TO.C,*%
X98424999Y-31114999D03*
%TD*%
%TO.C,*%
X98424999Y-164464999D03*
%TD*%
D11*
%TO.C,H1*%
X-2000000Y-42545000D03*
%TD*%
%TO.C,H1*%
X-2000000Y-61595000D03*
%TD*%
%TO.C,H1*%
X-2000000Y-175895000D03*
%TD*%
%TO.C,H1*%
X-2000000Y-137795000D03*
%TD*%
%TO.C,H1*%
X-2000000Y-4445000D03*
%TD*%
%TO.C,H1*%
X-2000000Y-118745000D03*
%TD*%
%TO.C,H1*%
X-2000000Y-156845000D03*
%TD*%
%TO.C,H1*%
X-2000000Y-80645000D03*
%TD*%
%TO.C,H1*%
X-2000000Y-99695000D03*
%TD*%
%TO.C,H1*%
X-2000000Y-23495000D03*
%TD*%
D10*
%TO.C,*%
X98424999Y-1904999D03*
%TD*%
%TO.C,*%
X98424999Y-78104999D03*
%TD*%
%TO.C,*%
X98424999Y-97154999D03*
%TD*%
%TO.C,*%
X98424999Y-59054999D03*
%TD*%
%TO.C,*%
X98424999Y-154304999D03*
%TD*%
%TO.C,*%
X98424999Y-116204999D03*
%TD*%
%TO.C,*%
X98424999Y-40004999D03*
%TD*%
%TO.C,*%
X98424999Y-20954999D03*
%TD*%
%TO.C,*%
X98424999Y-173354999D03*
%TD*%
%TO.C,*%
X98424999Y-135254999D03*
%TD*%
%TO.C,*%
X-3174999Y-45084999D03*
%TD*%
%TO.C,*%
X-3174999Y-64134999D03*
%TD*%
%TO.C,*%
X-3174999Y-178434999D03*
%TD*%
%TO.C,*%
X-3174999Y-140334999D03*
%TD*%
%TO.C,*%
X-3174999Y-102234999D03*
%TD*%
%TO.C,*%
X-3174999Y-6984999D03*
%TD*%
%TO.C,*%
X-3174999Y-121284999D03*
%TD*%
%TO.C,*%
X-3174999Y-159384999D03*
%TD*%
%TO.C,*%
X-3174999Y-83184999D03*
%TD*%
%TO.C,*%
X-3174999Y-26034999D03*
%TD*%
%TO.C,*%
X-3174999Y-74294999D03*
%TD*%
%TO.C,*%
X-3174999Y-55244999D03*
%TD*%
%TO.C,*%
X-3174999Y-188594999D03*
%TD*%
%TO.C,*%
X-3174999Y-150494999D03*
%TD*%
%TO.C,*%
X-3174999Y-112394999D03*
%TD*%
%TO.C,*%
X-3174999Y-17144999D03*
%TD*%
%TO.C,*%
X-3174999Y-131444999D03*
%TD*%
%TO.C,*%
X-3174999Y-93344999D03*
%TD*%
%TO.C,*%
X-3174999Y-36194999D03*
%TD*%
%TO.C,*%
X-3174999Y-169544999D03*
%TD*%
D11*
%TO.C,H3*%
X97250000Y-4445000D03*
%TD*%
%TO.C,H3*%
X97250000Y-80645000D03*
%TD*%
%TO.C,H3*%
X97250000Y-175895000D03*
%TD*%
%TO.C,H3*%
X97250000Y-99695000D03*
%TD*%
%TO.C,H3*%
X97250000Y-61595000D03*
%TD*%
%TO.C,H3*%
X97250000Y-156845000D03*
%TD*%
%TO.C,H3*%
X97250000Y-118745000D03*
%TD*%
%TO.C,H3*%
X97250000Y-137795000D03*
%TD*%
%TO.C,H3*%
X97250000Y-23495000D03*
%TD*%
%TO.C,H3*%
X97250000Y-42545000D03*
%TD*%
%TO.C,SW*%
X52705000Y-142875000D03*
X42545000Y-142875000D03*
%TD*%
%TO.C,SW*%
X90805000Y-104775000D03*
X80645000Y-104775000D03*
%TD*%
%TO.C,SW*%
X33655000Y-161925000D03*
X23495000Y-161925000D03*
%TD*%
%TO.C,SW*%
X90805000Y-161925000D03*
X80645000Y-161925000D03*
%TD*%
%TO.C,SW*%
X71755000Y-28575000D03*
X61595000Y-28575000D03*
%TD*%
%TO.C,SW*%
X14605000Y-66675000D03*
X4445000Y-66675000D03*
%TD*%
%TO.C,SW*%
X90805000Y-66675000D03*
X80645000Y-66675000D03*
%TD*%
%TO.C,SW*%
X14605000Y-85725000D03*
X4445000Y-85725000D03*
%TD*%
%TO.C,SW*%
X33655000Y-85725000D03*
X23495000Y-85725000D03*
%TD*%
%TO.C,SW*%
X14605000Y-123825000D03*
X4445000Y-123825000D03*
%TD*%
%TO.C,SW*%
X14605000Y-142875000D03*
X4445000Y-142875000D03*
%TD*%
%TO.C,SW*%
X14605000Y-161925000D03*
X4445000Y-161925000D03*
%TD*%
%TO.C,SW*%
X52705000Y-161925000D03*
X42545000Y-161925000D03*
%TD*%
%TO.C,SW*%
X71755000Y-161925000D03*
X61595000Y-161925000D03*
%TD*%
%TO.C,SW*%
X71755000Y-180975000D03*
X61595000Y-180975000D03*
%TD*%
%TO.C,SW*%
X71755000Y-9525000D03*
X61595000Y-9525000D03*
%TD*%
%TO.C,SW*%
X52705000Y-28575000D03*
X42545000Y-28575000D03*
%TD*%
%TO.C,SW*%
X52705000Y-85725000D03*
X42545000Y-85725000D03*
%TD*%
%TO.C,SW*%
X71755000Y-85725000D03*
X61595000Y-85725000D03*
%TD*%
%TO.C,SW*%
X52705000Y-123825000D03*
X42545000Y-123825000D03*
%TD*%
%TO.C,SW*%
X71755000Y-123825000D03*
X61595000Y-123825000D03*
%TD*%
%TO.C,SW*%
X71755000Y-142875000D03*
X61595000Y-142875000D03*
%TD*%
%TO.C,SW*%
X52705000Y-47625000D03*
X42545000Y-47625000D03*
%TD*%
%TO.C,SW*%
X71755000Y-47625000D03*
X61595000Y-47625000D03*
%TD*%
%TO.C,SW*%
X33655000Y-66675000D03*
X23495000Y-66675000D03*
%TD*%
%TO.C,SW*%
X71755000Y-66675000D03*
X61595000Y-66675000D03*
%TD*%
%TO.C,SW*%
X52705000Y-66675000D03*
X42545000Y-66675000D03*
%TD*%
%TO.C,SW*%
X71755000Y-104775000D03*
X61595000Y-104775000D03*
%TD*%
%TO.C,SW*%
X33655000Y-104775000D03*
X23495000Y-104775000D03*
%TD*%
%TO.C,SW*%
X33655000Y-180975000D03*
X23495000Y-180975000D03*
%TD*%
%TO.C,SW*%
X90805000Y-123825000D03*
X80645000Y-123825000D03*
%TD*%
%TO.C,SW*%
X14605000Y-180975000D03*
X4445000Y-180975000D03*
%TD*%
%TO.C,SW*%
X52705000Y-180975000D03*
X42545000Y-180975000D03*
%TD*%
%TO.C,SW*%
X52705000Y-9525000D03*
X42545000Y-9525000D03*
%TD*%
%TO.C,SW*%
X90805000Y-9525000D03*
X80645000Y-9525000D03*
%TD*%
%TO.C,SW*%
X33655000Y-28575000D03*
X23495000Y-28575000D03*
%TD*%
%TO.C,SW*%
X14605000Y-47625000D03*
X4445000Y-47625000D03*
%TD*%
%TO.C,SW*%
X33655000Y-47625000D03*
X23495000Y-47625000D03*
%TD*%
%TO.C,SW*%
X90805000Y-28575000D03*
X80645000Y-28575000D03*
%TD*%
%TO.C,SW*%
X90805000Y-47625000D03*
X80645000Y-47625000D03*
%TD*%
%TO.C,SW*%
X14605000Y-104775000D03*
X4445000Y-104775000D03*
%TD*%
%TO.C,SW*%
X14605000Y-9525000D03*
X4445000Y-9525000D03*
%TD*%
%TO.C,SW*%
X33655000Y-9525000D03*
X23495000Y-9525000D03*
%TD*%
%TO.C,SW*%
X52705000Y-104775000D03*
X42545000Y-104775000D03*
%TD*%
%TO.C,SW*%
X33655000Y-123825000D03*
X23495000Y-123825000D03*
%TD*%
%TO.C,SW*%
X33655000Y-142875000D03*
X23495000Y-142875000D03*
%TD*%
%TO.C,SW*%
X90805000Y-142875000D03*
X80645000Y-142875000D03*
%TD*%
%TO.C,SW*%
X90805000Y-180975000D03*
X80645000Y-180975000D03*
%TD*%
%TO.C,SW*%
X14605000Y-28575000D03*
X4445000Y-28575000D03*
%TD*%
%TO.C,SW*%
X90805000Y-85725000D03*
X80645000Y-85725000D03*
%TD*%
%TO.C,H2*%
X-2000000Y-71755000D03*
%TD*%
%TO.C,H2*%
X-2000000Y-52705000D03*
%TD*%
%TO.C,H2*%
X-2000000Y-186055000D03*
%TD*%
%TO.C,H2*%
X-2000000Y-147955000D03*
%TD*%
%TO.C,H2*%
X-2000000Y-109855000D03*
%TD*%
%TO.C,H2*%
X-2000000Y-14605000D03*
%TD*%
%TO.C,H2*%
X-2000000Y-128905000D03*
%TD*%
%TO.C,H2*%
X-2000000Y-90805000D03*
%TD*%
%TO.C,H2*%
X-2000000Y-33655000D03*
%TD*%
%TO.C,H2*%
X-2000000Y-167005000D03*
%TD*%
%TO.C,H4*%
X97250000Y-14605000D03*
%TD*%
%TO.C,H4*%
X97250000Y-90805000D03*
%TD*%
%TO.C,H4*%
X97250000Y-186055000D03*
%TD*%
%TO.C,H4*%
X97250000Y-109855000D03*
%TD*%
%TO.C,H4*%
X97250000Y-71755000D03*
%TD*%
%TO.C,H4*%
X97250000Y-167005000D03*
%TD*%
%TO.C,H4*%
X97250000Y-128905000D03*
%TD*%
%TO.C,H4*%
X97250000Y-147955000D03*
%TD*%
%TO.C,H4*%
X97250000Y-33655000D03*
%TD*%
%TO.C,H4*%
X97250000Y-52705000D03*
%TD*%
D10*
%TO.C,*%
X98424999Y-17144999D03*
%TD*%
%TO.C,*%
X98424999Y-93344999D03*
%TD*%
%TO.C,*%
X98424999Y-188594999D03*
%TD*%
%TO.C,*%
X98424999Y-112394999D03*
%TD*%
%TO.C,*%
X98424999Y-74294999D03*
%TD*%
%TO.C,*%
X98424999Y-169544999D03*
%TD*%
%TO.C,*%
X98424999Y-55244999D03*
%TD*%
%TO.C,*%
X98424999Y-131444999D03*
%TD*%
%TO.C,*%
X98424999Y-36194999D03*
%TD*%
%TO.C,*%
X98424999Y-150494999D03*
%TD*%
%TO.C,*%
X98424999Y-9524999D03*
%TD*%
%TO.C,*%
X98424999Y-85724999D03*
%TD*%
%TO.C,*%
X98424999Y-180974999D03*
%TD*%
%TO.C,*%
X98424999Y-104774999D03*
%TD*%
%TO.C,*%
X98424999Y-66674999D03*
%TD*%
%TO.C,*%
X98424999Y-161924999D03*
%TD*%
%TO.C,*%
X98424999Y-47624999D03*
%TD*%
%TO.C,*%
X98424999Y-123824999D03*
%TD*%
%TO.C,*%
X98424999Y-142874999D03*
%TD*%
%TO.C,*%
X98424999Y-28574999D03*
%TD*%
%TO.C,*%
X-3174999Y-66674999D03*
%TD*%
%TO.C,*%
X-3174999Y-47624999D03*
%TD*%
%TO.C,*%
X-3174999Y-180974999D03*
%TD*%
%TO.C,*%
X-3174999Y-142874999D03*
%TD*%
%TO.C,*%
X-3174999Y-104774999D03*
%TD*%
%TO.C,*%
X-3174999Y-9524999D03*
%TD*%
%TO.C,*%
X-3174999Y-123824999D03*
%TD*%
%TO.C,*%
X-3174999Y-85724999D03*
%TD*%
%TO.C,*%
X-3174999Y-161924999D03*
%TD*%
%TO.C,*%
X-3174999Y-28574999D03*
%TD*%
%TO.C,*%
X-3174999Y-59054999D03*
%TD*%
%TO.C,*%
X-3174999Y-40004999D03*
%TD*%
%TO.C,*%
X-3174999Y-173354999D03*
%TD*%
%TO.C,*%
X-3174999Y-97154999D03*
%TD*%
%TO.C,*%
X-3174999Y-1904999D03*
%TD*%
%TO.C,*%
X-3174999Y-116204999D03*
%TD*%
%TO.C,*%
X-3174999Y-135254999D03*
%TD*%
%TO.C,*%
X-3174999Y-78104999D03*
%TD*%
%TO.C,*%
X-3174999Y-154304999D03*
%TD*%
%TO.C,*%
X-3174999Y-20954999D03*
%TD*%
%TO.C,*%
X98424999Y-6984999D03*
%TD*%
%TO.C,*%
X98424999Y-83184999D03*
%TD*%
%TO.C,*%
X98424999Y-178434999D03*
%TD*%
%TO.C,*%
X98424999Y-159384999D03*
%TD*%
%TO.C,*%
X98424999Y-45084999D03*
%TD*%
%TO.C,*%
X98424999Y-121284999D03*
%TD*%
%TO.C,*%
X98424999Y-26034999D03*
%TD*%
%TO.C,*%
X98424999Y-140334999D03*
%TD*%
%TO.C,*%
X98424999Y-64134999D03*
%TD*%
%TO.C,*%
X98424999Y-102234999D03*
%TD*%
D12*
%TO.C,R2*%
X3805000Y-31272500D03*
X3805000Y-30077500D03*
%TD*%
%TO.C,R2*%
X80005000Y-88422500D03*
X80005000Y-87227500D03*
%TD*%
%TO.C,R2*%
X80005000Y-107472500D03*
X80005000Y-106277500D03*
%TD*%
%TO.C,R2*%
X41905000Y-145572500D03*
X41905000Y-144377500D03*
%TD*%
%TO.C,R2*%
X22855000Y-164622500D03*
X22855000Y-163427500D03*
%TD*%
%TO.C,R2*%
X80005000Y-164622500D03*
X80005000Y-163427500D03*
%TD*%
%TO.C,R2*%
X60955000Y-31272500D03*
X60955000Y-30077500D03*
%TD*%
%TO.C,R2*%
X3805000Y-69372500D03*
X3805000Y-68177500D03*
%TD*%
%TO.C,R2*%
X80005000Y-69372500D03*
X80005000Y-68177500D03*
%TD*%
%TO.C,R2*%
X3805000Y-88422500D03*
X3805000Y-87227500D03*
%TD*%
%TO.C,R2*%
X41905000Y-164622500D03*
X41905000Y-163427500D03*
%TD*%
%TO.C,R2*%
X22855000Y-88422500D03*
X22855000Y-87227500D03*
%TD*%
%TO.C,R2*%
X3805000Y-126522500D03*
X3805000Y-125327500D03*
%TD*%
%TO.C,R2*%
X3805000Y-145572500D03*
X3805000Y-144377500D03*
%TD*%
%TO.C,R2*%
X3805000Y-164622500D03*
X3805000Y-163427500D03*
%TD*%
%TO.C,R2*%
X60955000Y-164622500D03*
X60955000Y-163427500D03*
%TD*%
%TO.C,R2*%
X60955000Y-183672500D03*
X60955000Y-182477500D03*
%TD*%
%TO.C,R2*%
X60955000Y-12222500D03*
X60955000Y-11027500D03*
%TD*%
%TO.C,R2*%
X41905000Y-31272500D03*
X41905000Y-30077500D03*
%TD*%
%TO.C,R2*%
X41905000Y-88422500D03*
X41905000Y-87227500D03*
%TD*%
%TO.C,R2*%
X60955000Y-88422500D03*
X60955000Y-87227500D03*
%TD*%
%TO.C,R2*%
X41905000Y-126522500D03*
X41905000Y-125327500D03*
%TD*%
%TO.C,R2*%
X60955000Y-126522500D03*
X60955000Y-125327500D03*
%TD*%
%TO.C,R2*%
X60955000Y-145572500D03*
X60955000Y-144377500D03*
%TD*%
%TO.C,R2*%
X41905000Y-50322500D03*
X41905000Y-49127500D03*
%TD*%
%TO.C,R2*%
X60955000Y-50322500D03*
X60955000Y-49127500D03*
%TD*%
%TO.C,R2*%
X22855000Y-69372500D03*
X22855000Y-68177500D03*
%TD*%
%TO.C,R2*%
X41905000Y-69372500D03*
X41905000Y-68177500D03*
%TD*%
%TO.C,R2*%
X60955000Y-69372500D03*
X60955000Y-68177500D03*
%TD*%
%TO.C,R2*%
X22855000Y-107472500D03*
X22855000Y-106277500D03*
%TD*%
%TO.C,R2*%
X60955000Y-107472500D03*
X60955000Y-106277500D03*
%TD*%
%TO.C,R2*%
X22855000Y-183672500D03*
X22855000Y-182477500D03*
%TD*%
%TO.C,R2*%
X80005000Y-126522500D03*
X80005000Y-125327500D03*
%TD*%
%TO.C,R2*%
X3805000Y-183672500D03*
X3805000Y-182477500D03*
%TD*%
%TO.C,R2*%
X3805000Y-12222500D03*
X3805000Y-11027500D03*
%TD*%
%TO.C,R2*%
X41905000Y-12222500D03*
X41905000Y-11027500D03*
%TD*%
%TO.C,R2*%
X80005000Y-12222500D03*
X80005000Y-11027500D03*
%TD*%
%TO.C,R2*%
X22855000Y-31272500D03*
X22855000Y-30077500D03*
%TD*%
%TO.C,R2*%
X3805000Y-50322500D03*
X3805000Y-49127500D03*
%TD*%
%TO.C,R2*%
X22855000Y-50322500D03*
X22855000Y-49127500D03*
%TD*%
%TO.C,R2*%
X80005000Y-31272500D03*
X80005000Y-30077500D03*
%TD*%
%TO.C,R2*%
X80005000Y-50322500D03*
X80005000Y-49127500D03*
%TD*%
%TO.C,R2*%
X3805000Y-107472500D03*
X3805000Y-106277500D03*
%TD*%
%TO.C,R2*%
X41905000Y-183672500D03*
X41905000Y-182477500D03*
%TD*%
%TO.C,R2*%
X22855000Y-12222500D03*
X22855000Y-11027500D03*
%TD*%
%TO.C,R2*%
X41905000Y-107472500D03*
X41905000Y-106277500D03*
%TD*%
%TO.C,R2*%
X22855000Y-126522500D03*
X22855000Y-125327500D03*
%TD*%
%TO.C,R2*%
X22855000Y-145572500D03*
X22855000Y-144377500D03*
%TD*%
%TO.C,R2*%
X80005000Y-145572500D03*
X80005000Y-144377500D03*
%TD*%
%TO.C,R2*%
X80005000Y-183672500D03*
X80005000Y-182477500D03*
%TD*%
D13*
%TO.C,J9*%
X14605000Y-20955000D03*
%TD*%
%TO.C,J9*%
X90805000Y-78105000D03*
%TD*%
%TO.C,J9*%
X90805000Y-97155000D03*
%TD*%
%TO.C,J9*%
X52705000Y-135255000D03*
%TD*%
%TO.C,J9*%
X33655000Y-154305000D03*
%TD*%
%TO.C,J9*%
X90805000Y-154305000D03*
%TD*%
%TO.C,J9*%
X71755000Y-20955000D03*
%TD*%
%TO.C,J9*%
X14605000Y-59055000D03*
%TD*%
%TO.C,J9*%
X90805000Y-59055000D03*
%TD*%
%TO.C,J9*%
X14605000Y-78105000D03*
%TD*%
%TO.C,J9*%
X33655000Y-78105000D03*
%TD*%
%TO.C,J9*%
X14605000Y-116205000D03*
%TD*%
%TO.C,J9*%
X14605000Y-97155000D03*
%TD*%
%TO.C,J9*%
X14605000Y-135255000D03*
%TD*%
%TO.C,J9*%
X52705000Y-154305000D03*
%TD*%
%TO.C,J9*%
X71755000Y-154305000D03*
%TD*%
%TO.C,J9*%
X71755000Y-173355000D03*
%TD*%
%TO.C,J9*%
X71755000Y-1905000D03*
%TD*%
%TO.C,J9*%
X52705000Y-20955000D03*
%TD*%
%TO.C,J9*%
X52705000Y-78105000D03*
%TD*%
%TO.C,J9*%
X71755000Y-78105000D03*
%TD*%
%TO.C,J9*%
X52705000Y-116205000D03*
%TD*%
%TO.C,J9*%
X71755000Y-116205000D03*
%TD*%
%TO.C,J9*%
X71755000Y-135255000D03*
%TD*%
%TO.C,J9*%
X52705000Y-40005000D03*
%TD*%
%TO.C,J9*%
X71755000Y-40005000D03*
%TD*%
%TO.C,J9*%
X33655000Y-59055000D03*
%TD*%
%TO.C,J9*%
X52705000Y-59055000D03*
%TD*%
%TO.C,J9*%
X71755000Y-59055000D03*
%TD*%
%TO.C,J9*%
X33655000Y-97155000D03*
%TD*%
%TO.C,J9*%
X71755000Y-97155000D03*
%TD*%
%TO.C,J9*%
X90805000Y-116205000D03*
%TD*%
%TO.C,J9*%
X33655000Y-173355000D03*
%TD*%
%TO.C,J9*%
X14605000Y-173355000D03*
%TD*%
%TO.C,J9*%
X90805000Y-173355000D03*
%TD*%
%TO.C,J9*%
X14605000Y-1905000D03*
%TD*%
%TO.C,J9*%
X52705000Y-1905000D03*
%TD*%
%TO.C,J9*%
X90805000Y-1905000D03*
%TD*%
%TO.C,J9*%
X33655000Y-20955000D03*
%TD*%
%TO.C,J9*%
X14605000Y-40005000D03*
%TD*%
%TO.C,J9*%
X33655000Y-40005000D03*
%TD*%
%TO.C,J9*%
X90805000Y-20955000D03*
%TD*%
%TO.C,J9*%
X90805000Y-40005000D03*
%TD*%
%TO.C,J9*%
X52705000Y-173355000D03*
%TD*%
%TO.C,J9*%
X33655000Y-1905000D03*
%TD*%
%TO.C,J9*%
X52705000Y-97155000D03*
%TD*%
%TO.C,J9*%
X33655000Y-116205000D03*
%TD*%
%TO.C,J9*%
X33655000Y-135255000D03*
%TD*%
%TO.C,J9*%
X90805000Y-135255000D03*
%TD*%
%TO.C,J9*%
X14605000Y-154305000D03*
%TD*%
D14*
%TO.C,J6*%
X74294999Y-83184999D03*
%TD*%
%TO.C,J6*%
X55244999Y-121284999D03*
%TD*%
%TO.C,J6*%
X74294999Y-121284999D03*
%TD*%
%TO.C,J6*%
X74294999Y-140334999D03*
%TD*%
%TO.C,J6*%
X55244999Y-45084999D03*
%TD*%
%TO.C,J6*%
X74294999Y-45084999D03*
%TD*%
%TO.C,J6*%
X36194999Y-64134999D03*
%TD*%
%TO.C,J6*%
X55244999Y-64134999D03*
%TD*%
%TO.C,J6*%
X74294999Y-64134999D03*
%TD*%
%TO.C,J6*%
X36194999Y-102234999D03*
%TD*%
%TO.C,J6*%
X74294999Y-102234999D03*
%TD*%
%TO.C,J6*%
X93344999Y-121284999D03*
%TD*%
%TO.C,J6*%
X17144999Y-178434999D03*
%TD*%
%TO.C,J6*%
X36194999Y-178434999D03*
%TD*%
%TO.C,J6*%
X93344999Y-178434999D03*
%TD*%
%TO.C,J6*%
X17144999Y-159384999D03*
%TD*%
%TO.C,J6*%
X17144999Y-6984999D03*
%TD*%
%TO.C,J6*%
X55244999Y-6984999D03*
%TD*%
%TO.C,J6*%
X93344999Y-6984999D03*
%TD*%
%TO.C,J6*%
X36194999Y-26034999D03*
%TD*%
%TO.C,J6*%
X17144999Y-45084999D03*
%TD*%
%TO.C,J6*%
X36194999Y-45084999D03*
%TD*%
%TO.C,J6*%
X93344999Y-26034999D03*
%TD*%
%TO.C,J6*%
X93344999Y-45084999D03*
%TD*%
%TO.C,J6*%
X55244999Y-178434999D03*
%TD*%
%TO.C,J6*%
X36194999Y-6984999D03*
%TD*%
%TO.C,J6*%
X55244999Y-102234999D03*
%TD*%
%TO.C,J6*%
X36194999Y-121284999D03*
%TD*%
%TO.C,J6*%
X36194999Y-140334999D03*
%TD*%
%TO.C,J6*%
X93344999Y-140334999D03*
%TD*%
%TO.C,J6*%
X17144999Y-26034999D03*
%TD*%
%TO.C,J6*%
X93344999Y-83184999D03*
%TD*%
%TO.C,J6*%
X93344999Y-102234999D03*
%TD*%
%TO.C,J6*%
X55244999Y-140334999D03*
%TD*%
%TO.C,J6*%
X36194999Y-159384999D03*
%TD*%
%TO.C,J6*%
X93344999Y-159384999D03*
%TD*%
%TO.C,J6*%
X74294999Y-26034999D03*
%TD*%
%TO.C,J6*%
X17144999Y-64134999D03*
%TD*%
%TO.C,J6*%
X93344999Y-64134999D03*
%TD*%
%TO.C,J6*%
X17144999Y-83184999D03*
%TD*%
%TO.C,J6*%
X36194999Y-83184999D03*
%TD*%
%TO.C,J6*%
X17144999Y-102234999D03*
%TD*%
%TO.C,J6*%
X17144999Y-121284999D03*
%TD*%
%TO.C,J6*%
X17144999Y-140334999D03*
%TD*%
%TO.C,J6*%
X55244999Y-159384999D03*
%TD*%
%TO.C,J6*%
X74294999Y-159384999D03*
%TD*%
%TO.C,J6*%
X74294999Y-178434999D03*
%TD*%
%TO.C,J6*%
X74294999Y-6984999D03*
%TD*%
%TO.C,J6*%
X55244999Y-26034999D03*
%TD*%
%TO.C,J6*%
X55244999Y-83184999D03*
%TD*%
D10*
%TO.C,J2*%
X1904999Y-33654999D03*
%TD*%
%TO.C,J2*%
X78104999Y-90804999D03*
%TD*%
%TO.C,J2*%
X78104999Y-109854999D03*
%TD*%
%TO.C,J2*%
X40004999Y-147954999D03*
%TD*%
%TO.C,J2*%
X20954999Y-167004999D03*
%TD*%
%TO.C,J2*%
X78104999Y-167004999D03*
%TD*%
%TO.C,J2*%
X59054999Y-33654999D03*
%TD*%
%TO.C,J2*%
X1904999Y-71754999D03*
%TD*%
%TO.C,J2*%
X78104999Y-71754999D03*
%TD*%
%TO.C,J2*%
X1904999Y-90804999D03*
%TD*%
%TO.C,J2*%
X20954999Y-90804999D03*
%TD*%
%TO.C,J2*%
X1904999Y-109854999D03*
%TD*%
%TO.C,J2*%
X1904999Y-128904999D03*
%TD*%
%TO.C,J2*%
X1904999Y-147954999D03*
%TD*%
%TO.C,J2*%
X40004999Y-167004999D03*
%TD*%
%TO.C,J2*%
X59054999Y-167004999D03*
%TD*%
%TO.C,J2*%
X59054999Y-186054999D03*
%TD*%
%TO.C,J2*%
X59054999Y-14604999D03*
%TD*%
%TO.C,J2*%
X40004999Y-33654999D03*
%TD*%
%TO.C,J2*%
X40004999Y-90804999D03*
%TD*%
%TO.C,J2*%
X59054999Y-90804999D03*
%TD*%
%TO.C,J2*%
X40004999Y-128904999D03*
%TD*%
%TO.C,J2*%
X59054999Y-128904999D03*
%TD*%
%TO.C,J2*%
X59054999Y-147954999D03*
%TD*%
%TO.C,J2*%
X40004999Y-52704999D03*
%TD*%
%TO.C,J2*%
X59054999Y-52704999D03*
%TD*%
%TO.C,J2*%
X20954999Y-71754999D03*
%TD*%
%TO.C,J2*%
X40004999Y-71754999D03*
%TD*%
%TO.C,J2*%
X59054999Y-71754999D03*
%TD*%
%TO.C,J2*%
X59054999Y-109854999D03*
%TD*%
%TO.C,J2*%
X20954999Y-109854999D03*
%TD*%
%TO.C,J2*%
X78104999Y-128904999D03*
%TD*%
%TO.C,J2*%
X20954999Y-186054999D03*
%TD*%
%TO.C,J2*%
X1904999Y-186054999D03*
%TD*%
%TO.C,J2*%
X1904999Y-14604999D03*
%TD*%
%TO.C,J2*%
X40004999Y-14604999D03*
%TD*%
%TO.C,J2*%
X78104999Y-14604999D03*
%TD*%
%TO.C,J2*%
X20954999Y-33654999D03*
%TD*%
%TO.C,J2*%
X1904999Y-52704999D03*
%TD*%
%TO.C,J2*%
X20954999Y-52704999D03*
%TD*%
%TO.C,J2*%
X78104999Y-33654999D03*
%TD*%
%TO.C,J2*%
X78104999Y-52704999D03*
%TD*%
%TO.C,J2*%
X40004999Y-186054999D03*
%TD*%
%TO.C,J2*%
X20954999Y-14604999D03*
%TD*%
%TO.C,J2*%
X40004999Y-109854999D03*
%TD*%
%TO.C,J2*%
X20954999Y-128904999D03*
%TD*%
%TO.C,J2*%
X20954999Y-147954999D03*
%TD*%
%TO.C,J2*%
X78104999Y-147954999D03*
%TD*%
%TO.C,J2*%
X1904999Y-167004999D03*
%TD*%
%TO.C,J2*%
X78104999Y-186054999D03*
%TD*%
D12*
%TO.C,R1*%
X13605000Y-31272500D03*
X13605000Y-30077500D03*
%TD*%
%TO.C,R1*%
X89805000Y-88422500D03*
X89805000Y-87227500D03*
%TD*%
%TO.C,R1*%
X51705000Y-145572500D03*
X51705000Y-144377500D03*
%TD*%
%TO.C,R1*%
X89805000Y-107472500D03*
X89805000Y-106277500D03*
%TD*%
%TO.C,R1*%
X32655000Y-164622500D03*
X32655000Y-163427500D03*
%TD*%
%TO.C,R1*%
X89805000Y-164622500D03*
X89805000Y-163427500D03*
%TD*%
%TO.C,R1*%
X70755000Y-31272500D03*
X70755000Y-30077500D03*
%TD*%
%TO.C,R1*%
X13605000Y-69372500D03*
X13605000Y-68177500D03*
%TD*%
%TO.C,R1*%
X89805000Y-69372500D03*
X89805000Y-68177500D03*
%TD*%
%TO.C,R1*%
X13605000Y-88422500D03*
X13605000Y-87227500D03*
%TD*%
%TO.C,R1*%
X32655000Y-88422500D03*
X32655000Y-87227500D03*
%TD*%
%TO.C,R1*%
X13605000Y-107472500D03*
X13605000Y-106277500D03*
%TD*%
%TO.C,R1*%
X13605000Y-126522500D03*
X13605000Y-125327500D03*
%TD*%
%TO.C,R1*%
X13605000Y-145572500D03*
X13605000Y-144377500D03*
%TD*%
%TO.C,R1*%
X51705000Y-164622500D03*
X51705000Y-163427500D03*
%TD*%
%TO.C,R1*%
X70755000Y-164622500D03*
X70755000Y-163427500D03*
%TD*%
%TO.C,R1*%
X70755000Y-183672500D03*
X70755000Y-182477500D03*
%TD*%
%TO.C,R1*%
X70755000Y-12222500D03*
X70755000Y-11027500D03*
%TD*%
%TO.C,R1*%
X51705000Y-31272500D03*
X51705000Y-30077500D03*
%TD*%
%TO.C,R1*%
X51705000Y-88422500D03*
X51705000Y-87227500D03*
%TD*%
%TO.C,R1*%
X70755000Y-88422500D03*
X70755000Y-87227500D03*
%TD*%
%TO.C,R1*%
X51705000Y-126522500D03*
X51705000Y-125327500D03*
%TD*%
%TO.C,R1*%
X70755000Y-126522500D03*
X70755000Y-125327500D03*
%TD*%
%TO.C,R1*%
X70755000Y-145572500D03*
X70755000Y-144377500D03*
%TD*%
%TO.C,R1*%
X51705000Y-50322500D03*
X51705000Y-49127500D03*
%TD*%
%TO.C,R1*%
X70755000Y-107472500D03*
X70755000Y-106277500D03*
%TD*%
%TO.C,R1*%
X70755000Y-50322500D03*
X70755000Y-49127500D03*
%TD*%
%TO.C,R1*%
X32655000Y-69372500D03*
X32655000Y-68177500D03*
%TD*%
%TO.C,R1*%
X51705000Y-69372500D03*
X51705000Y-68177500D03*
%TD*%
%TO.C,R1*%
X70755000Y-69372500D03*
X70755000Y-68177500D03*
%TD*%
%TO.C,R1*%
X32655000Y-107472500D03*
X32655000Y-106277500D03*
%TD*%
%TO.C,R1*%
X89805000Y-126522500D03*
X89805000Y-125327500D03*
%TD*%
%TO.C,R1*%
X32655000Y-183672500D03*
X32655000Y-182477500D03*
%TD*%
%TO.C,R1*%
X13605000Y-183672500D03*
X13605000Y-182477500D03*
%TD*%
%TO.C,R1*%
X13605000Y-12222500D03*
X13605000Y-11027500D03*
%TD*%
%TO.C,R1*%
X51705000Y-12222500D03*
X51705000Y-11027500D03*
%TD*%
%TO.C,R1*%
X89805000Y-12222500D03*
X89805000Y-11027500D03*
%TD*%
%TO.C,R1*%
X32655000Y-31272500D03*
X32655000Y-30077500D03*
%TD*%
%TO.C,R1*%
X13605000Y-50322500D03*
X13605000Y-49127500D03*
%TD*%
%TO.C,R1*%
X32655000Y-50322500D03*
X32655000Y-49127500D03*
%TD*%
%TO.C,R1*%
X89805000Y-31272500D03*
X89805000Y-30077500D03*
%TD*%
%TO.C,R1*%
X89805000Y-50322500D03*
X89805000Y-49127500D03*
%TD*%
%TO.C,R1*%
X51705000Y-183672500D03*
X51705000Y-182477500D03*
%TD*%
%TO.C,R1*%
X32655000Y-12222500D03*
X32655000Y-11027500D03*
%TD*%
%TO.C,R1*%
X51705000Y-107472500D03*
X51705000Y-106277500D03*
%TD*%
%TO.C,R1*%
X32655000Y-126522500D03*
X32655000Y-125327500D03*
%TD*%
%TO.C,R1*%
X32655000Y-145572500D03*
X32655000Y-144377500D03*
%TD*%
%TO.C,R1*%
X89805000Y-145572500D03*
X89805000Y-144377500D03*
%TD*%
%TO.C,R1*%
X13605000Y-164622500D03*
X13605000Y-163427500D03*
%TD*%
%TO.C,R1*%
X89805000Y-183672500D03*
X89805000Y-182477500D03*
%TD*%
%TO.C,R3*%
X12105000Y-31272500D03*
X12105000Y-30077500D03*
%TD*%
%TO.C,R3*%
X88305000Y-88422500D03*
X88305000Y-87227500D03*
%TD*%
%TO.C,R3*%
X88305000Y-107472500D03*
X88305000Y-106277500D03*
%TD*%
%TO.C,R3*%
X50205000Y-145572500D03*
X50205000Y-144377500D03*
%TD*%
%TO.C,R3*%
X31155000Y-164622500D03*
X31155000Y-163427500D03*
%TD*%
%TO.C,R3*%
X88305000Y-164622500D03*
X88305000Y-163427500D03*
%TD*%
%TO.C,R3*%
X69255000Y-31272500D03*
X69255000Y-30077500D03*
%TD*%
%TO.C,R3*%
X12105000Y-69372500D03*
X12105000Y-68177500D03*
%TD*%
%TO.C,R3*%
X88305000Y-69372500D03*
X88305000Y-68177500D03*
%TD*%
%TO.C,R3*%
X12105000Y-88422500D03*
X12105000Y-87227500D03*
%TD*%
%TO.C,R3*%
X31155000Y-88422500D03*
X31155000Y-87227500D03*
%TD*%
%TO.C,R3*%
X12105000Y-107472500D03*
X12105000Y-106277500D03*
%TD*%
%TO.C,R3*%
X12105000Y-126522500D03*
X12105000Y-125327500D03*
%TD*%
%TO.C,R3*%
X12105000Y-145572500D03*
X12105000Y-144377500D03*
%TD*%
%TO.C,R3*%
X50205000Y-164622500D03*
X50205000Y-163427500D03*
%TD*%
%TO.C,R3*%
X69255000Y-164622500D03*
X69255000Y-163427500D03*
%TD*%
%TO.C,R3*%
X69255000Y-183672500D03*
X69255000Y-182477500D03*
%TD*%
%TO.C,R3*%
X69255000Y-12222500D03*
X69255000Y-11027500D03*
%TD*%
%TO.C,R3*%
X50205000Y-31272500D03*
X50205000Y-30077500D03*
%TD*%
%TO.C,R3*%
X50205000Y-88422500D03*
X50205000Y-87227500D03*
%TD*%
%TO.C,R3*%
X69255000Y-88422500D03*
X69255000Y-87227500D03*
%TD*%
%TO.C,R3*%
X50205000Y-126522500D03*
X50205000Y-125327500D03*
%TD*%
%TO.C,R3*%
X69255000Y-126522500D03*
X69255000Y-125327500D03*
%TD*%
%TO.C,R3*%
X69255000Y-145572500D03*
X69255000Y-144377500D03*
%TD*%
%TO.C,R3*%
X50205000Y-50322500D03*
X50205000Y-49127500D03*
%TD*%
%TO.C,R3*%
X69255000Y-50322500D03*
X69255000Y-49127500D03*
%TD*%
%TO.C,R3*%
X31155000Y-69372500D03*
X31155000Y-68177500D03*
%TD*%
%TO.C,R3*%
X50205000Y-69372500D03*
X50205000Y-68177500D03*
%TD*%
%TO.C,R3*%
X69255000Y-69372500D03*
X69255000Y-68177500D03*
%TD*%
%TO.C,R3*%
X31155000Y-107472500D03*
X31155000Y-106277500D03*
%TD*%
%TO.C,R3*%
X69255000Y-107472500D03*
X69255000Y-106277500D03*
%TD*%
%TO.C,R3*%
X88305000Y-126522500D03*
X88305000Y-125327500D03*
%TD*%
%TO.C,R3*%
X31155000Y-183672500D03*
X31155000Y-182477500D03*
%TD*%
%TO.C,R3*%
X12105000Y-183672500D03*
X12105000Y-182477500D03*
%TD*%
%TO.C,R3*%
X88305000Y-183672500D03*
X88305000Y-182477500D03*
%TD*%
%TO.C,R3*%
X12105000Y-12222500D03*
X12105000Y-11027500D03*
%TD*%
%TO.C,R3*%
X50205000Y-12222500D03*
X50205000Y-11027500D03*
%TD*%
%TO.C,R3*%
X88305000Y-12222500D03*
X88305000Y-11027500D03*
%TD*%
%TO.C,R3*%
X31155000Y-31272500D03*
X31155000Y-30077500D03*
%TD*%
%TO.C,R3*%
X12105000Y-50322500D03*
X12105000Y-49127500D03*
%TD*%
%TO.C,R3*%
X31155000Y-50322500D03*
X31155000Y-49127500D03*
%TD*%
%TO.C,R3*%
X88305000Y-31272500D03*
X88305000Y-30077500D03*
%TD*%
%TO.C,R3*%
X88305000Y-50322500D03*
X88305000Y-49127500D03*
%TD*%
%TO.C,R3*%
X50205000Y-183672500D03*
X50205000Y-182477500D03*
%TD*%
%TO.C,R3*%
X31155000Y-12222500D03*
X31155000Y-11027500D03*
%TD*%
%TO.C,R3*%
X50205000Y-107472500D03*
X50205000Y-106277500D03*
%TD*%
%TO.C,R3*%
X31155000Y-126522500D03*
X31155000Y-125327500D03*
%TD*%
%TO.C,R3*%
X31155000Y-145572500D03*
X31155000Y-144377500D03*
%TD*%
%TO.C,R3*%
X88305000Y-145572500D03*
X88305000Y-144377500D03*
%TD*%
%TO.C,R3*%
X12105000Y-164622500D03*
X12105000Y-163427500D03*
%TD*%
D11*
%TO.C,J8*%
X78105000Y-31115000D03*
%TD*%
%TO.C,J8*%
X59055000Y-50165000D03*
%TD*%
%TO.C,J8*%
X40005000Y-50165000D03*
%TD*%
%TO.C,J8*%
X20955000Y-31115000D03*
%TD*%
%TO.C,J8*%
X78105000Y-12065000D03*
%TD*%
%TO.C,J8*%
X59055000Y-126365000D03*
%TD*%
%TO.C,J8*%
X40005000Y-126365000D03*
%TD*%
%TO.C,J8*%
X20955000Y-50165000D03*
%TD*%
%TO.C,J8*%
X1905000Y-31115000D03*
%TD*%
%TO.C,J8*%
X78105000Y-88265000D03*
%TD*%
%TO.C,J8*%
X78105000Y-107315000D03*
%TD*%
%TO.C,J8*%
X40005000Y-145415000D03*
%TD*%
%TO.C,J8*%
X20955000Y-164465000D03*
%TD*%
%TO.C,J8*%
X78105000Y-164465000D03*
%TD*%
%TO.C,J8*%
X59055000Y-31115000D03*
%TD*%
%TO.C,J8*%
X1905000Y-69215000D03*
%TD*%
%TO.C,J8*%
X78105000Y-69215000D03*
%TD*%
%TO.C,J8*%
X1905000Y-88265000D03*
%TD*%
%TO.C,J8*%
X20955000Y-88265000D03*
%TD*%
%TO.C,J8*%
X1905000Y-107315000D03*
%TD*%
%TO.C,J8*%
X1905000Y-126365000D03*
%TD*%
%TO.C,J8*%
X1905000Y-145415000D03*
%TD*%
%TO.C,J8*%
X40005000Y-164465000D03*
%TD*%
%TO.C,J8*%
X59055000Y-164465000D03*
%TD*%
%TO.C,J8*%
X59055000Y-183515000D03*
%TD*%
%TO.C,J8*%
X59055000Y-12065000D03*
%TD*%
%TO.C,J8*%
X40005000Y-31115000D03*
%TD*%
%TO.C,J8*%
X40005000Y-88265000D03*
%TD*%
%TO.C,J8*%
X59055000Y-88265000D03*
%TD*%
%TO.C,J8*%
X40005000Y-12065000D03*
%TD*%
%TO.C,J8*%
X1905000Y-12065000D03*
%TD*%
%TO.C,J8*%
X59055000Y-69215000D03*
%TD*%
%TO.C,J8*%
X1905000Y-183515000D03*
%TD*%
%TO.C,J8*%
X78105000Y-183515000D03*
%TD*%
%TO.C,J8*%
X20955000Y-126365000D03*
%TD*%
%TO.C,J8*%
X78105000Y-126365000D03*
%TD*%
%TO.C,J8*%
X78105000Y-145415000D03*
%TD*%
%TO.C,J8*%
X20955000Y-145415000D03*
%TD*%
%TO.C,J8*%
X20955000Y-107315000D03*
%TD*%
%TO.C,J8*%
X20955000Y-183515000D03*
%TD*%
%TO.C,J8*%
X20955000Y-69215000D03*
%TD*%
%TO.C,J8*%
X59055000Y-145415000D03*
%TD*%
%TO.C,J8*%
X59055000Y-107315000D03*
%TD*%
%TO.C,J8*%
X40005000Y-69215000D03*
%TD*%
%TO.C,J8*%
X1905000Y-164465000D03*
%TD*%
%TO.C,J8*%
X40005000Y-107315000D03*
%TD*%
%TO.C,J8*%
X20955000Y-12065000D03*
%TD*%
%TO.C,J8*%
X1905000Y-50165000D03*
%TD*%
%TO.C,J8*%
X78105000Y-50165000D03*
%TD*%
%TO.C,J8*%
X40005000Y-183515000D03*
%TD*%
D15*
%TO.C,J12*%
X14605000Y-36195000D03*
%TD*%
%TO.C,J12*%
X90805000Y-93345000D03*
%TD*%
%TO.C,J12*%
X90805000Y-112395000D03*
%TD*%
%TO.C,J12*%
X52705000Y-150495000D03*
%TD*%
%TO.C,J12*%
X33655000Y-169545000D03*
%TD*%
%TO.C,J12*%
X90805000Y-169545000D03*
%TD*%
%TO.C,J12*%
X71755000Y-36195000D03*
%TD*%
%TO.C,J12*%
X14605000Y-74295000D03*
%TD*%
%TO.C,J12*%
X90805000Y-74295000D03*
%TD*%
%TO.C,J12*%
X14605000Y-93345000D03*
%TD*%
%TO.C,J12*%
X33655000Y-93345000D03*
%TD*%
%TO.C,J12*%
X14605000Y-112395000D03*
%TD*%
%TO.C,J12*%
X14605000Y-131445000D03*
%TD*%
%TO.C,J12*%
X14605000Y-150495000D03*
%TD*%
%TO.C,J12*%
X52705000Y-169545000D03*
%TD*%
%TO.C,J12*%
X71755000Y-169545000D03*
%TD*%
%TO.C,J12*%
X71755000Y-188595000D03*
%TD*%
%TO.C,J12*%
X71755000Y-17145000D03*
%TD*%
%TO.C,J12*%
X52705000Y-36195000D03*
%TD*%
%TO.C,J12*%
X52705000Y-93345000D03*
%TD*%
%TO.C,J12*%
X71755000Y-93345000D03*
%TD*%
%TO.C,J12*%
X52705000Y-131445000D03*
%TD*%
%TO.C,J12*%
X71755000Y-131445000D03*
%TD*%
%TO.C,J12*%
X71755000Y-150495000D03*
%TD*%
%TO.C,J12*%
X52705000Y-55245000D03*
%TD*%
%TO.C,J12*%
X71755000Y-55245000D03*
%TD*%
%TO.C,J12*%
X33655000Y-74295000D03*
%TD*%
%TO.C,J12*%
X52705000Y-74295000D03*
%TD*%
%TO.C,J12*%
X71755000Y-74295000D03*
%TD*%
%TO.C,J12*%
X33655000Y-112395000D03*
%TD*%
%TO.C,J12*%
X71755000Y-112395000D03*
%TD*%
%TO.C,J12*%
X90805000Y-131445000D03*
%TD*%
%TO.C,J12*%
X33655000Y-188595000D03*
%TD*%
%TO.C,J12*%
X14605000Y-188595000D03*
%TD*%
%TO.C,J12*%
X90805000Y-188595000D03*
%TD*%
%TO.C,J12*%
X14605000Y-17145000D03*
%TD*%
%TO.C,J12*%
X52705000Y-17145000D03*
%TD*%
%TO.C,J12*%
X90805000Y-17145000D03*
%TD*%
%TO.C,J12*%
X33655000Y-36195000D03*
%TD*%
%TO.C,J12*%
X14605000Y-55245000D03*
%TD*%
%TO.C,J12*%
X33655000Y-55245000D03*
%TD*%
%TO.C,J12*%
X90805000Y-36195000D03*
%TD*%
%TO.C,J12*%
X90805000Y-55245000D03*
%TD*%
%TO.C,J12*%
X52705000Y-188595000D03*
%TD*%
%TO.C,J12*%
X33655000Y-17145000D03*
%TD*%
%TO.C,J12*%
X52705000Y-112395000D03*
%TD*%
%TO.C,J12*%
X33655000Y-131445000D03*
%TD*%
%TO.C,J12*%
X33655000Y-150495000D03*
%TD*%
%TO.C,J12*%
X90805000Y-150495000D03*
%TD*%
%TO.C,J12*%
X14605000Y-169545000D03*
%TD*%
D16*
%TO.C,C3*%
X89705000Y-82410000D03*
X89705000Y-83960000D03*
%TD*%
%TO.C,C3*%
X13505000Y-25260000D03*
X13505000Y-26810000D03*
%TD*%
%TO.C,C3*%
X89705000Y-101460000D03*
X89705000Y-103010000D03*
%TD*%
%TO.C,C3*%
X51605000Y-139560000D03*
X51605000Y-141110000D03*
%TD*%
%TO.C,C3*%
X32555000Y-158610000D03*
X32555000Y-160160000D03*
%TD*%
%TO.C,C3*%
X89705000Y-158610000D03*
X89705000Y-160160000D03*
%TD*%
%TO.C,C3*%
X70655000Y-25260000D03*
X70655000Y-26810000D03*
%TD*%
%TO.C,C3*%
X13505000Y-63360000D03*
X13505000Y-64910000D03*
%TD*%
%TO.C,C3*%
X89705000Y-63360000D03*
X89705000Y-64910000D03*
%TD*%
%TO.C,C3*%
X13505000Y-82410000D03*
X13505000Y-83960000D03*
%TD*%
%TO.C,C3*%
X32555000Y-82410000D03*
X32555000Y-83960000D03*
%TD*%
%TO.C,C3*%
X13505000Y-101460000D03*
X13505000Y-103010000D03*
%TD*%
%TO.C,C3*%
X13505000Y-120510000D03*
X13505000Y-122060000D03*
%TD*%
%TO.C,C3*%
X13505000Y-139560000D03*
X13505000Y-141110000D03*
%TD*%
%TO.C,C3*%
X51605000Y-158610000D03*
X51605000Y-160160000D03*
%TD*%
%TO.C,C3*%
X70655000Y-158610000D03*
X70655000Y-160160000D03*
%TD*%
%TO.C,C3*%
X70655000Y-177660000D03*
X70655000Y-179210000D03*
%TD*%
%TO.C,C3*%
X70655000Y-6210000D03*
X70655000Y-7760000D03*
%TD*%
%TO.C,C3*%
X51605000Y-25260000D03*
X51605000Y-26810000D03*
%TD*%
%TO.C,C3*%
X51605000Y-82410000D03*
X51605000Y-83960000D03*
%TD*%
%TO.C,C3*%
X70655000Y-82410000D03*
X70655000Y-83960000D03*
%TD*%
%TO.C,C3*%
X51605000Y-120510000D03*
X51605000Y-122060000D03*
%TD*%
%TO.C,C3*%
X70655000Y-120510000D03*
X70655000Y-122060000D03*
%TD*%
%TO.C,C3*%
X70655000Y-139560000D03*
X70655000Y-141110000D03*
%TD*%
%TO.C,C3*%
X51605000Y-44310000D03*
X51605000Y-45860000D03*
%TD*%
%TO.C,C3*%
X70655000Y-44310000D03*
X70655000Y-45860000D03*
%TD*%
%TO.C,C3*%
X32555000Y-63360000D03*
X32555000Y-64910000D03*
%TD*%
%TO.C,C3*%
X51605000Y-63360000D03*
X51605000Y-64910000D03*
%TD*%
%TO.C,C3*%
X70655000Y-63360000D03*
X70655000Y-64910000D03*
%TD*%
%TO.C,C3*%
X32555000Y-101460000D03*
X32555000Y-103010000D03*
%TD*%
%TO.C,C3*%
X70655000Y-101460000D03*
X70655000Y-103010000D03*
%TD*%
%TO.C,C3*%
X89705000Y-120510000D03*
X89705000Y-122060000D03*
%TD*%
%TO.C,C3*%
X13505000Y-177660000D03*
X13505000Y-179210000D03*
%TD*%
%TO.C,C3*%
X32555000Y-177660000D03*
X32555000Y-179210000D03*
%TD*%
%TO.C,C3*%
X89705000Y-177660000D03*
X89705000Y-179210000D03*
%TD*%
%TO.C,C3*%
X13505000Y-6210000D03*
X13505000Y-7760000D03*
%TD*%
%TO.C,C3*%
X51605000Y-6210000D03*
X51605000Y-7760000D03*
%TD*%
%TO.C,C3*%
X89705000Y-6210000D03*
X89705000Y-7760000D03*
%TD*%
%TO.C,C3*%
X32555000Y-25260000D03*
X32555000Y-26810000D03*
%TD*%
%TO.C,C3*%
X13505000Y-44310000D03*
X13505000Y-45860000D03*
%TD*%
%TO.C,C3*%
X32555000Y-44310000D03*
X32555000Y-45860000D03*
%TD*%
%TO.C,C3*%
X89705000Y-25260000D03*
X89705000Y-26810000D03*
%TD*%
%TO.C,C3*%
X89705000Y-44310000D03*
X89705000Y-45860000D03*
%TD*%
%TO.C,C3*%
X51605000Y-177660000D03*
X51605000Y-179210000D03*
%TD*%
%TO.C,C3*%
X32555000Y-6210000D03*
X32555000Y-7760000D03*
%TD*%
%TO.C,C3*%
X51605000Y-101460000D03*
X51605000Y-103010000D03*
%TD*%
%TO.C,C3*%
X32555000Y-120510000D03*
X32555000Y-122060000D03*
%TD*%
%TO.C,C3*%
X32555000Y-139560000D03*
X32555000Y-141110000D03*
%TD*%
%TO.C,C3*%
X89705000Y-139560000D03*
X89705000Y-141110000D03*
%TD*%
%TO.C,C3*%
X13505000Y-158610000D03*
X13505000Y-160160000D03*
%TD*%
D11*
%TO.C,J3*%
X78105000Y-42545000D03*
%TD*%
%TO.C,J3*%
X40005000Y-175895000D03*
%TD*%
%TO.C,J3*%
X20955000Y-4445000D03*
%TD*%
%TO.C,J3*%
X40005000Y-99695000D03*
%TD*%
%TO.C,J3*%
X20955000Y-118745000D03*
%TD*%
%TO.C,J3*%
X20955000Y-137795000D03*
%TD*%
%TO.C,J3*%
X78105000Y-137795000D03*
%TD*%
%TO.C,J3*%
X1905000Y-156845000D03*
%TD*%
%TO.C,J3*%
X1905000Y-23495000D03*
%TD*%
%TO.C,J3*%
X78105000Y-80645000D03*
%TD*%
%TO.C,J3*%
X78105000Y-99695000D03*
%TD*%
%TO.C,J3*%
X40005000Y-137795000D03*
%TD*%
%TO.C,J3*%
X20955000Y-156845000D03*
%TD*%
%TO.C,J3*%
X78105000Y-156845000D03*
%TD*%
%TO.C,J3*%
X59055000Y-23495000D03*
%TD*%
%TO.C,J3*%
X1905000Y-61595000D03*
%TD*%
%TO.C,J3*%
X78105000Y-61595000D03*
%TD*%
%TO.C,J3*%
X1905000Y-80645000D03*
%TD*%
%TO.C,J3*%
X20955000Y-80645000D03*
%TD*%
%TO.C,J3*%
X1905000Y-118745000D03*
%TD*%
%TO.C,J3*%
X1905000Y-99695000D03*
%TD*%
%TO.C,J3*%
X1905000Y-137795000D03*
%TD*%
%TO.C,J3*%
X40005000Y-156845000D03*
%TD*%
%TO.C,J3*%
X59055000Y-156845000D03*
%TD*%
%TO.C,J3*%
X59055000Y-175895000D03*
%TD*%
%TO.C,J3*%
X59055000Y-4445000D03*
%TD*%
%TO.C,J3*%
X40005000Y-23495000D03*
%TD*%
%TO.C,J3*%
X40005000Y-80645000D03*
%TD*%
%TO.C,J3*%
X59055000Y-80645000D03*
%TD*%
%TO.C,J3*%
X40005000Y-118745000D03*
%TD*%
%TO.C,J3*%
X59055000Y-118745000D03*
%TD*%
%TO.C,J3*%
X59055000Y-137795000D03*
%TD*%
%TO.C,J3*%
X40005000Y-42545000D03*
%TD*%
%TO.C,J3*%
X59055000Y-42545000D03*
%TD*%
%TO.C,J3*%
X20955000Y-61595000D03*
%TD*%
%TO.C,J3*%
X40005000Y-61595000D03*
%TD*%
%TO.C,J3*%
X59055000Y-61595000D03*
%TD*%
%TO.C,J3*%
X59055000Y-99695000D03*
%TD*%
%TO.C,J3*%
X20955000Y-99695000D03*
%TD*%
%TO.C,J3*%
X78105000Y-118745000D03*
%TD*%
%TO.C,J3*%
X1905000Y-175895000D03*
%TD*%
%TO.C,J3*%
X20955000Y-175895000D03*
%TD*%
%TO.C,J3*%
X78105000Y-175895000D03*
%TD*%
%TO.C,J3*%
X1905000Y-4445000D03*
%TD*%
%TO.C,J3*%
X40005000Y-4445000D03*
%TD*%
%TO.C,J3*%
X78105000Y-4445000D03*
%TD*%
%TO.C,J3*%
X20955000Y-23495000D03*
%TD*%
%TO.C,J3*%
X1905000Y-42545000D03*
%TD*%
%TO.C,J3*%
X20955000Y-42545000D03*
%TD*%
%TO.C,J3*%
X78105000Y-23495000D03*
%TD*%
D14*
%TO.C,J5*%
X1904999Y-26034999D03*
%TD*%
%TO.C,J5*%
X78104999Y-83184999D03*
%TD*%
%TO.C,J5*%
X78104999Y-102234999D03*
%TD*%
%TO.C,J5*%
X40004999Y-140334999D03*
%TD*%
%TO.C,J5*%
X20954999Y-159384999D03*
%TD*%
%TO.C,J5*%
X78104999Y-159384999D03*
%TD*%
%TO.C,J5*%
X59054999Y-26034999D03*
%TD*%
%TO.C,J5*%
X1904999Y-64134999D03*
%TD*%
%TO.C,J5*%
X78104999Y-64134999D03*
%TD*%
%TO.C,J5*%
X1904999Y-83184999D03*
%TD*%
%TO.C,J5*%
X20954999Y-83184999D03*
%TD*%
%TO.C,J5*%
X1904999Y-121284999D03*
%TD*%
%TO.C,J5*%
X1904999Y-102234999D03*
%TD*%
%TO.C,J5*%
X1904999Y-140334999D03*
%TD*%
%TO.C,J5*%
X40004999Y-159384999D03*
%TD*%
%TO.C,J5*%
X59054999Y-159384999D03*
%TD*%
%TO.C,J5*%
X59054999Y-178434999D03*
%TD*%
%TO.C,J5*%
X59054999Y-6984999D03*
%TD*%
%TO.C,J5*%
X40004999Y-26034999D03*
%TD*%
%TO.C,J5*%
X40004999Y-83184999D03*
%TD*%
%TO.C,J5*%
X59054999Y-83184999D03*
%TD*%
%TO.C,J5*%
X40004999Y-121284999D03*
%TD*%
%TO.C,J5*%
X59054999Y-121284999D03*
%TD*%
%TO.C,J5*%
X59054999Y-140334999D03*
%TD*%
%TO.C,J5*%
X40004999Y-45084999D03*
%TD*%
%TO.C,J5*%
X59054999Y-45084999D03*
%TD*%
%TO.C,J5*%
X20954999Y-64134999D03*
%TD*%
%TO.C,J5*%
X40004999Y-64134999D03*
%TD*%
%TO.C,J5*%
X59054999Y-64134999D03*
%TD*%
%TO.C,J5*%
X59054999Y-102234999D03*
%TD*%
%TO.C,J5*%
X20954999Y-102234999D03*
%TD*%
%TO.C,J5*%
X78104999Y-121284999D03*
%TD*%
%TO.C,J5*%
X1904999Y-178434999D03*
%TD*%
%TO.C,J5*%
X20954999Y-178434999D03*
%TD*%
%TO.C,J5*%
X1904999Y-6984999D03*
%TD*%
%TO.C,J5*%
X40004999Y-6984999D03*
%TD*%
%TO.C,J5*%
X78104999Y-6984999D03*
%TD*%
%TO.C,J5*%
X20954999Y-26034999D03*
%TD*%
%TO.C,J5*%
X1904999Y-45084999D03*
%TD*%
%TO.C,J5*%
X20954999Y-45084999D03*
%TD*%
%TO.C,J5*%
X78104999Y-26034999D03*
%TD*%
%TO.C,J5*%
X78104999Y-45084999D03*
%TD*%
%TO.C,J5*%
X78104999Y-140334999D03*
%TD*%
%TO.C,J5*%
X40004999Y-178434999D03*
%TD*%
%TO.C,J5*%
X20954999Y-6984999D03*
%TD*%
%TO.C,J5*%
X40004999Y-102234999D03*
%TD*%
%TO.C,J5*%
X20954999Y-121284999D03*
%TD*%
%TO.C,J5*%
X78104999Y-178434999D03*
%TD*%
%TO.C,J5*%
X20954999Y-140334999D03*
%TD*%
%TO.C,J5*%
X1904999Y-159384999D03*
%TD*%
D10*
%TO.C,J1*%
X17144999Y-33654999D03*
%TD*%
%TO.C,J1*%
X93344999Y-90804999D03*
%TD*%
%TO.C,J1*%
X93344999Y-109854999D03*
%TD*%
%TO.C,J1*%
X55244999Y-147954999D03*
%TD*%
%TO.C,J1*%
X36194999Y-167004999D03*
%TD*%
%TO.C,J1*%
X93344999Y-167004999D03*
%TD*%
%TO.C,J1*%
X74294999Y-33654999D03*
%TD*%
%TO.C,J1*%
X17144999Y-71754999D03*
%TD*%
%TO.C,J1*%
X93344999Y-71754999D03*
%TD*%
%TO.C,J1*%
X17144999Y-90804999D03*
%TD*%
%TO.C,J1*%
X36194999Y-90804999D03*
%TD*%
%TO.C,J1*%
X17144999Y-109854999D03*
%TD*%
%TO.C,J1*%
X17144999Y-128904999D03*
%TD*%
%TO.C,J1*%
X17144999Y-147954999D03*
%TD*%
%TO.C,J1*%
X55244999Y-167004999D03*
%TD*%
%TO.C,J1*%
X74294999Y-167004999D03*
%TD*%
%TO.C,J1*%
X74294999Y-186054999D03*
%TD*%
%TO.C,J1*%
X74294999Y-14604999D03*
%TD*%
%TO.C,J1*%
X55244999Y-33654999D03*
%TD*%
%TO.C,J1*%
X55244999Y-90804999D03*
%TD*%
%TO.C,J1*%
X74294999Y-90804999D03*
%TD*%
%TO.C,J1*%
X55244999Y-128904999D03*
%TD*%
%TO.C,J1*%
X74294999Y-128904999D03*
%TD*%
%TO.C,J1*%
X74294999Y-147954999D03*
%TD*%
%TO.C,J1*%
X55244999Y-52704999D03*
%TD*%
%TO.C,J1*%
X74294999Y-52704999D03*
%TD*%
%TO.C,J1*%
X36194999Y-71754999D03*
%TD*%
%TO.C,J1*%
X55244999Y-71754999D03*
%TD*%
%TO.C,J1*%
X74294999Y-71754999D03*
%TD*%
%TO.C,J1*%
X36194999Y-109854999D03*
%TD*%
%TO.C,J1*%
X74294999Y-109854999D03*
%TD*%
%TO.C,J1*%
X93344999Y-128904999D03*
%TD*%
%TO.C,J1*%
X17144999Y-186054999D03*
%TD*%
%TO.C,J1*%
X36194999Y-186054999D03*
%TD*%
%TO.C,J1*%
X17144999Y-14604999D03*
%TD*%
%TO.C,J1*%
X55244999Y-14604999D03*
%TD*%
%TO.C,J1*%
X93344999Y-14604999D03*
%TD*%
%TO.C,J1*%
X36194999Y-33654999D03*
%TD*%
%TO.C,J1*%
X17144999Y-52704999D03*
%TD*%
%TO.C,J1*%
X36194999Y-52704999D03*
%TD*%
%TO.C,J1*%
X93344999Y-33654999D03*
%TD*%
%TO.C,J1*%
X93344999Y-52704999D03*
%TD*%
%TO.C,J1*%
X93344999Y-147954999D03*
%TD*%
%TO.C,J1*%
X55244999Y-186054999D03*
%TD*%
%TO.C,J1*%
X36194999Y-14604999D03*
%TD*%
%TO.C,J1*%
X55244999Y-109854999D03*
%TD*%
%TO.C,J1*%
X36194999Y-128904999D03*
%TD*%
%TO.C,J1*%
X93344999Y-186054999D03*
%TD*%
%TO.C,J1*%
X36194999Y-147954999D03*
%TD*%
%TO.C,J1*%
X17144999Y-167004999D03*
%TD*%
D17*
%TO.C,D1*%
X7105000Y-33000000D03*
D18*
X7105000Y-34750000D03*
X12105000Y-34750000D03*
D17*
X12105000Y-33000000D03*
%TD*%
%TO.C,D1*%
X83305000Y-90150000D03*
D18*
X83305000Y-91900000D03*
X88305000Y-91900000D03*
D17*
X88305000Y-90150000D03*
%TD*%
%TO.C,D1*%
X83305000Y-109200000D03*
D18*
X83305000Y-110950000D03*
X88305000Y-110950000D03*
D17*
X88305000Y-109200000D03*
%TD*%
%TO.C,D1*%
X45205000Y-147300000D03*
D18*
X45205000Y-149050000D03*
X50205000Y-149050000D03*
D17*
X50205000Y-147300000D03*
%TD*%
%TO.C,D1*%
X26155000Y-166350000D03*
D18*
X26155000Y-168100000D03*
X31155000Y-168100000D03*
D17*
X31155000Y-166350000D03*
%TD*%
%TO.C,D1*%
X83305000Y-166350000D03*
D18*
X83305000Y-168100000D03*
X88305000Y-168100000D03*
D17*
X88305000Y-166350000D03*
%TD*%
%TO.C,D1*%
X64255000Y-33000000D03*
D18*
X64255000Y-34750000D03*
X69255000Y-34750000D03*
D17*
X69255000Y-33000000D03*
%TD*%
%TO.C,D1*%
X7105000Y-71100000D03*
D18*
X7105000Y-72850000D03*
X12105000Y-72850000D03*
D17*
X12105000Y-71100000D03*
%TD*%
%TO.C,D1*%
X83305000Y-71100000D03*
D18*
X83305000Y-72850000D03*
X88305000Y-72850000D03*
D17*
X88305000Y-71100000D03*
%TD*%
%TO.C,D1*%
X7105000Y-90150000D03*
D18*
X7105000Y-91900000D03*
X12105000Y-91900000D03*
D17*
X12105000Y-90150000D03*
%TD*%
%TO.C,D1*%
X26155000Y-90150000D03*
D18*
X26155000Y-91900000D03*
X31155000Y-91900000D03*
D17*
X31155000Y-90150000D03*
%TD*%
%TO.C,D1*%
X7105000Y-109200000D03*
D18*
X7105000Y-110950000D03*
X12105000Y-110950000D03*
D17*
X12105000Y-109200000D03*
%TD*%
%TO.C,D1*%
X7105000Y-128250000D03*
D18*
X7105000Y-130000000D03*
X12105000Y-130000000D03*
D17*
X12105000Y-128250000D03*
%TD*%
%TO.C,D1*%
X45205000Y-166350000D03*
D18*
X45205000Y-168100000D03*
X50205000Y-168100000D03*
D17*
X50205000Y-166350000D03*
%TD*%
%TO.C,D1*%
X64255000Y-166350000D03*
D18*
X64255000Y-168100000D03*
X69255000Y-168100000D03*
D17*
X69255000Y-166350000D03*
%TD*%
%TO.C,D1*%
X64255000Y-185400000D03*
D18*
X64255000Y-187150000D03*
X69255000Y-187150000D03*
D17*
X69255000Y-185400000D03*
%TD*%
%TO.C,D1*%
X64255000Y-13950000D03*
D18*
X64255000Y-15700000D03*
X69255000Y-15700000D03*
D17*
X69255000Y-13950000D03*
%TD*%
%TO.C,D1*%
X45205000Y-33000000D03*
D18*
X45205000Y-34750000D03*
X50205000Y-34750000D03*
D17*
X50205000Y-33000000D03*
%TD*%
%TO.C,D1*%
X45205000Y-90150000D03*
D18*
X45205000Y-91900000D03*
X50205000Y-91900000D03*
D17*
X50205000Y-90150000D03*
%TD*%
%TO.C,D1*%
X64255000Y-90150000D03*
D18*
X64255000Y-91900000D03*
X69255000Y-91900000D03*
D17*
X69255000Y-90150000D03*
%TD*%
%TO.C,D1*%
X45205000Y-128250000D03*
D18*
X45205000Y-130000000D03*
X50205000Y-130000000D03*
D17*
X50205000Y-128250000D03*
%TD*%
%TO.C,D1*%
X64255000Y-128250000D03*
D18*
X64255000Y-130000000D03*
X69255000Y-130000000D03*
D17*
X69255000Y-128250000D03*
%TD*%
%TO.C,D1*%
X64255000Y-147300000D03*
D18*
X64255000Y-149050000D03*
X69255000Y-149050000D03*
D17*
X69255000Y-147300000D03*
%TD*%
%TO.C,D1*%
X45205000Y-52050000D03*
D18*
X45205000Y-53800000D03*
X50205000Y-53800000D03*
D17*
X50205000Y-52050000D03*
%TD*%
%TO.C,D1*%
X64255000Y-52050000D03*
D18*
X64255000Y-53800000D03*
X69255000Y-53800000D03*
D17*
X69255000Y-52050000D03*
%TD*%
%TO.C,D1*%
X26155000Y-71100000D03*
D18*
X26155000Y-72850000D03*
X31155000Y-72850000D03*
D17*
X31155000Y-71100000D03*
%TD*%
%TO.C,D1*%
X45205000Y-71100000D03*
D18*
X45205000Y-72850000D03*
X50205000Y-72850000D03*
D17*
X50205000Y-71100000D03*
%TD*%
%TO.C,D1*%
X64255000Y-71100000D03*
D18*
X64255000Y-72850000D03*
X69255000Y-72850000D03*
D17*
X69255000Y-71100000D03*
%TD*%
%TO.C,D1*%
X26155000Y-109200000D03*
D18*
X26155000Y-110950000D03*
X31155000Y-110950000D03*
D17*
X31155000Y-109200000D03*
%TD*%
%TO.C,D1*%
X64255000Y-109200000D03*
D18*
X64255000Y-110950000D03*
X69255000Y-110950000D03*
D17*
X69255000Y-109200000D03*
%TD*%
%TO.C,D1*%
X83305000Y-128250000D03*
D18*
X83305000Y-130000000D03*
X88305000Y-130000000D03*
D17*
X88305000Y-128250000D03*
%TD*%
%TO.C,D1*%
X7105000Y-185400000D03*
D18*
X7105000Y-187150000D03*
X12105000Y-187150000D03*
D17*
X12105000Y-185400000D03*
%TD*%
%TO.C,D1*%
X26155000Y-185400000D03*
D18*
X26155000Y-187150000D03*
X31155000Y-187150000D03*
D17*
X31155000Y-185400000D03*
%TD*%
%TO.C,D1*%
X7105000Y-13950000D03*
D18*
X7105000Y-15700000D03*
X12105000Y-15700000D03*
D17*
X12105000Y-13950000D03*
%TD*%
%TO.C,D1*%
X45205000Y-13950000D03*
D18*
X45205000Y-15700000D03*
X50205000Y-15700000D03*
D17*
X50205000Y-13950000D03*
%TD*%
%TO.C,D1*%
X83305000Y-13950000D03*
D18*
X83305000Y-15700000D03*
X88305000Y-15700000D03*
D17*
X88305000Y-13950000D03*
%TD*%
%TO.C,D1*%
X26155000Y-33000000D03*
D18*
X26155000Y-34750000D03*
X31155000Y-34750000D03*
D17*
X31155000Y-33000000D03*
%TD*%
%TO.C,D1*%
X7105000Y-52050000D03*
D18*
X7105000Y-53800000D03*
X12105000Y-53800000D03*
D17*
X12105000Y-52050000D03*
%TD*%
%TO.C,D1*%
X26155000Y-52050000D03*
D18*
X26155000Y-53800000D03*
X31155000Y-53800000D03*
D17*
X31155000Y-52050000D03*
%TD*%
%TO.C,D1*%
X83305000Y-33000000D03*
D18*
X83305000Y-34750000D03*
X88305000Y-34750000D03*
D17*
X88305000Y-33000000D03*
%TD*%
%TO.C,D1*%
X83305000Y-52050000D03*
D18*
X83305000Y-53800000D03*
X88305000Y-53800000D03*
D17*
X88305000Y-52050000D03*
%TD*%
%TO.C,D1*%
X83305000Y-147300000D03*
D18*
X83305000Y-149050000D03*
X88305000Y-149050000D03*
D17*
X88305000Y-147300000D03*
%TD*%
%TO.C,D1*%
X45205000Y-185400000D03*
D18*
X45205000Y-187150000D03*
X50205000Y-187150000D03*
D17*
X50205000Y-185400000D03*
%TD*%
%TO.C,D1*%
X26155000Y-13950000D03*
D18*
X26155000Y-15700000D03*
X31155000Y-15700000D03*
D17*
X31155000Y-13950000D03*
%TD*%
%TO.C,D1*%
X45205000Y-109200000D03*
D18*
X45205000Y-110950000D03*
X50205000Y-110950000D03*
D17*
X50205000Y-109200000D03*
%TD*%
%TO.C,D1*%
X26155000Y-128250000D03*
D18*
X26155000Y-130000000D03*
X31155000Y-130000000D03*
D17*
X31155000Y-128250000D03*
%TD*%
%TO.C,D1*%
X83305000Y-185400000D03*
D18*
X83305000Y-187150000D03*
X88305000Y-187150000D03*
D17*
X88305000Y-185400000D03*
%TD*%
%TO.C,D1*%
X7105000Y-147300000D03*
D18*
X7105000Y-149050000D03*
X12105000Y-149050000D03*
D17*
X12105000Y-147300000D03*
%TD*%
%TO.C,D1*%
X26155000Y-147300000D03*
D18*
X26155000Y-149050000D03*
X31155000Y-149050000D03*
D17*
X31155000Y-147300000D03*
%TD*%
%TO.C,D1*%
X7105000Y-166350000D03*
D18*
X7105000Y-168100000D03*
X12105000Y-168100000D03*
D17*
X12105000Y-166350000D03*
%TD*%
D19*
%TO.C,U1*%
X8387500Y-29525000D03*
X8387500Y-27625000D03*
X10662500Y-28575000D03*
%TD*%
%TO.C,U1*%
X84587500Y-86675000D03*
X84587500Y-84775000D03*
X86862500Y-85725000D03*
%TD*%
%TO.C,U1*%
X84587500Y-105725000D03*
X84587500Y-103825000D03*
X86862500Y-104775000D03*
%TD*%
%TO.C,U1*%
X46487500Y-143825000D03*
X46487500Y-141925000D03*
X48762500Y-142875000D03*
%TD*%
%TO.C,U1*%
X27437500Y-162875000D03*
X27437500Y-160975000D03*
X29712500Y-161925000D03*
%TD*%
%TO.C,U1*%
X84587500Y-162875000D03*
X84587500Y-160975000D03*
X86862500Y-161925000D03*
%TD*%
%TO.C,U1*%
X65537500Y-29525000D03*
X65537500Y-27625000D03*
X67812500Y-28575000D03*
%TD*%
%TO.C,U1*%
X8387500Y-67625000D03*
X8387500Y-65725000D03*
X10662500Y-66675000D03*
%TD*%
%TO.C,U1*%
X84587500Y-67625000D03*
X84587500Y-65725000D03*
X86862500Y-66675000D03*
%TD*%
%TO.C,U1*%
X8387500Y-86675000D03*
X8387500Y-84775000D03*
X10662500Y-85725000D03*
%TD*%
%TO.C,U1*%
X27437500Y-86675000D03*
X27437500Y-84775000D03*
X29712500Y-85725000D03*
%TD*%
%TO.C,U1*%
X8387500Y-105725000D03*
X8387500Y-103825000D03*
X10662500Y-104775000D03*
%TD*%
%TO.C,U1*%
X8387500Y-124775000D03*
X8387500Y-122875000D03*
X10662500Y-123825000D03*
%TD*%
%TO.C,U1*%
X46487500Y-162875000D03*
X46487500Y-160975000D03*
X48762500Y-161925000D03*
%TD*%
%TO.C,U1*%
X65537500Y-162875000D03*
X65537500Y-160975000D03*
X67812500Y-161925000D03*
%TD*%
%TO.C,U1*%
X65537500Y-181925000D03*
X65537500Y-180025000D03*
X67812500Y-180975000D03*
%TD*%
%TO.C,U1*%
X65537500Y-10475000D03*
X65537500Y-8575000D03*
X67812500Y-9525000D03*
%TD*%
%TO.C,U1*%
X46487500Y-29525000D03*
X46487500Y-27625000D03*
X48762500Y-28575000D03*
%TD*%
%TO.C,U1*%
X46487500Y-86675000D03*
X46487500Y-84775000D03*
X48762500Y-85725000D03*
%TD*%
%TO.C,U1*%
X65537500Y-86675000D03*
X65537500Y-84775000D03*
X67812500Y-85725000D03*
%TD*%
%TO.C,U1*%
X46487500Y-124775000D03*
X46487500Y-122875000D03*
X48762500Y-123825000D03*
%TD*%
%TO.C,U1*%
X65537500Y-124775000D03*
X65537500Y-122875000D03*
X67812500Y-123825000D03*
%TD*%
%TO.C,U1*%
X65537500Y-143825000D03*
X65537500Y-141925000D03*
X67812500Y-142875000D03*
%TD*%
%TO.C,U1*%
X46487500Y-48575000D03*
X46487500Y-46675000D03*
X48762500Y-47625000D03*
%TD*%
%TO.C,U1*%
X65537500Y-48575000D03*
X65537500Y-46675000D03*
X67812500Y-47625000D03*
%TD*%
%TO.C,U1*%
X27437500Y-67625000D03*
X27437500Y-65725000D03*
X29712500Y-66675000D03*
%TD*%
%TO.C,U1*%
X46487500Y-67625000D03*
X46487500Y-65725000D03*
X48762500Y-66675000D03*
%TD*%
%TO.C,U1*%
X65537500Y-67625000D03*
X65537500Y-65725000D03*
X67812500Y-66675000D03*
%TD*%
%TO.C,U1*%
X27437500Y-105725000D03*
X27437500Y-103825000D03*
X29712500Y-104775000D03*
%TD*%
%TO.C,U1*%
X65537500Y-105725000D03*
X65537500Y-103825000D03*
X67812500Y-104775000D03*
%TD*%
%TO.C,U1*%
X84587500Y-143825000D03*
X84587500Y-141925000D03*
X86862500Y-142875000D03*
%TD*%
%TO.C,U1*%
X27437500Y-181925000D03*
X27437500Y-180025000D03*
X29712500Y-180975000D03*
%TD*%
%TO.C,U1*%
X8387500Y-181925000D03*
X8387500Y-180025000D03*
X10662500Y-180975000D03*
%TD*%
%TO.C,U1*%
X8387500Y-10475000D03*
X8387500Y-8575000D03*
X10662500Y-9525000D03*
%TD*%
%TO.C,U1*%
X46487500Y-10475000D03*
X46487500Y-8575000D03*
X48762500Y-9525000D03*
%TD*%
%TO.C,U1*%
X84587500Y-10475000D03*
X84587500Y-8575000D03*
X86862500Y-9525000D03*
%TD*%
%TO.C,U1*%
X27437500Y-29525000D03*
X27437500Y-27625000D03*
X29712500Y-28575000D03*
%TD*%
%TO.C,U1*%
X8387500Y-48575000D03*
X8387500Y-46675000D03*
X10662500Y-47625000D03*
%TD*%
%TO.C,U1*%
X27437500Y-48575000D03*
X27437500Y-46675000D03*
X29712500Y-47625000D03*
%TD*%
%TO.C,U1*%
X84587500Y-29525000D03*
X84587500Y-27625000D03*
X86862500Y-28575000D03*
%TD*%
%TO.C,U1*%
X84587500Y-48575000D03*
X84587500Y-46675000D03*
X86862500Y-47625000D03*
%TD*%
%TO.C,U1*%
X84587500Y-124775000D03*
X84587500Y-122875000D03*
X86862500Y-123825000D03*
%TD*%
%TO.C,U1*%
X46487500Y-181925000D03*
X46487500Y-180025000D03*
X48762500Y-180975000D03*
%TD*%
%TO.C,U1*%
X27437500Y-10475000D03*
X27437500Y-8575000D03*
X29712500Y-9525000D03*
%TD*%
%TO.C,U1*%
X46487500Y-105725000D03*
X46487500Y-103825000D03*
X48762500Y-104775000D03*
%TD*%
%TO.C,U1*%
X27437500Y-124775000D03*
X27437500Y-122875000D03*
X29712500Y-123825000D03*
%TD*%
%TO.C,U1*%
X8387500Y-143825000D03*
X8387500Y-141925000D03*
X10662500Y-142875000D03*
%TD*%
%TO.C,U1*%
X27437500Y-143825000D03*
X27437500Y-141925000D03*
X29712500Y-142875000D03*
%TD*%
%TO.C,U1*%
X8387500Y-162875000D03*
X8387500Y-160975000D03*
X10662500Y-161925000D03*
%TD*%
%TO.C,U1*%
X84587500Y-181925000D03*
X84587500Y-180025000D03*
X86862500Y-180975000D03*
%TD*%
D20*
%TO.C,J10*%
X4445000Y-20955000D03*
%TD*%
%TO.C,J10*%
X80645000Y-78105000D03*
%TD*%
%TO.C,J10*%
X80645000Y-97155000D03*
%TD*%
%TO.C,J10*%
X42545000Y-135255000D03*
%TD*%
%TO.C,J10*%
X23495000Y-154305000D03*
%TD*%
%TO.C,J10*%
X80645000Y-154305000D03*
%TD*%
%TO.C,J10*%
X61595000Y-20955000D03*
%TD*%
%TO.C,J10*%
X4445000Y-59055000D03*
%TD*%
%TO.C,J10*%
X80645000Y-59055000D03*
%TD*%
%TO.C,J10*%
X4445000Y-78105000D03*
%TD*%
%TO.C,J10*%
X23495000Y-78105000D03*
%TD*%
%TO.C,J10*%
X4445000Y-97155000D03*
%TD*%
%TO.C,J10*%
X4445000Y-116205000D03*
%TD*%
%TO.C,J10*%
X42545000Y-154305000D03*
%TD*%
%TO.C,J10*%
X61595000Y-154305000D03*
%TD*%
%TO.C,J10*%
X61595000Y-173355000D03*
%TD*%
%TO.C,J10*%
X61595000Y-1905000D03*
%TD*%
%TO.C,J10*%
X42545000Y-20955000D03*
%TD*%
%TO.C,J10*%
X42545000Y-78105000D03*
%TD*%
%TO.C,J10*%
X61595000Y-78105000D03*
%TD*%
%TO.C,J10*%
X42545000Y-116205000D03*
%TD*%
%TO.C,J10*%
X61595000Y-116205000D03*
%TD*%
%TO.C,J10*%
X61595000Y-135255000D03*
%TD*%
%TO.C,J10*%
X42545000Y-40005000D03*
%TD*%
%TO.C,J10*%
X61595000Y-40005000D03*
%TD*%
%TO.C,J10*%
X23495000Y-59055000D03*
%TD*%
%TO.C,J10*%
X42545000Y-59055000D03*
%TD*%
%TO.C,J10*%
X61595000Y-59055000D03*
%TD*%
%TO.C,J10*%
X23495000Y-97155000D03*
%TD*%
%TO.C,J10*%
X61595000Y-97155000D03*
%TD*%
%TO.C,J10*%
X80645000Y-135255000D03*
%TD*%
%TO.C,J10*%
X4445000Y-173355000D03*
%TD*%
%TO.C,J10*%
X23495000Y-173355000D03*
%TD*%
%TO.C,J10*%
X4445000Y-1905000D03*
%TD*%
%TO.C,J10*%
X42545000Y-1905000D03*
%TD*%
%TO.C,J10*%
X80645000Y-1905000D03*
%TD*%
%TO.C,J10*%
X23495000Y-20955000D03*
%TD*%
%TO.C,J10*%
X4445000Y-40005000D03*
%TD*%
%TO.C,J10*%
X23495000Y-40005000D03*
%TD*%
%TO.C,J10*%
X80645000Y-20955000D03*
%TD*%
%TO.C,J10*%
X80645000Y-40005000D03*
%TD*%
%TO.C,J10*%
X80645000Y-116205000D03*
%TD*%
%TO.C,J10*%
X42545000Y-173355000D03*
%TD*%
%TO.C,J10*%
X23495000Y-1905000D03*
%TD*%
%TO.C,J10*%
X42545000Y-97155000D03*
%TD*%
%TO.C,J10*%
X23495000Y-116205000D03*
%TD*%
%TO.C,J10*%
X80645000Y-173355000D03*
%TD*%
%TO.C,J10*%
X4445000Y-135255000D03*
%TD*%
%TO.C,J10*%
X23495000Y-135255000D03*
%TD*%
%TO.C,J10*%
X4445000Y-154305000D03*
%TD*%
D11*
%TO.C,J7*%
X17145000Y-31115000D03*
%TD*%
%TO.C,J7*%
X93345000Y-88265000D03*
%TD*%
%TO.C,J7*%
X93345000Y-107315000D03*
%TD*%
%TO.C,J7*%
X55245000Y-145415000D03*
%TD*%
%TO.C,J7*%
X36195000Y-164465000D03*
%TD*%
%TO.C,J7*%
X93345000Y-164465000D03*
%TD*%
%TO.C,J7*%
X74295000Y-31115000D03*
%TD*%
%TO.C,J7*%
X17145000Y-69215000D03*
%TD*%
%TO.C,J7*%
X93345000Y-69215000D03*
%TD*%
%TO.C,J7*%
X17145000Y-88265000D03*
%TD*%
%TO.C,J7*%
X36195000Y-88265000D03*
%TD*%
%TO.C,J7*%
X17145000Y-107315000D03*
%TD*%
%TO.C,J7*%
X17145000Y-126365000D03*
%TD*%
%TO.C,J7*%
X55245000Y-164465000D03*
%TD*%
%TO.C,J7*%
X74295000Y-164465000D03*
%TD*%
%TO.C,J7*%
X74295000Y-183515000D03*
%TD*%
%TO.C,J7*%
X74295000Y-12065000D03*
%TD*%
%TO.C,J7*%
X55245000Y-31115000D03*
%TD*%
%TO.C,J7*%
X55245000Y-88265000D03*
%TD*%
%TO.C,J7*%
X74295000Y-88265000D03*
%TD*%
%TO.C,J7*%
X55245000Y-126365000D03*
%TD*%
%TO.C,J7*%
X74295000Y-126365000D03*
%TD*%
%TO.C,J7*%
X74295000Y-145415000D03*
%TD*%
%TO.C,J7*%
X55245000Y-50165000D03*
%TD*%
%TO.C,J7*%
X74295000Y-50165000D03*
%TD*%
%TO.C,J7*%
X36195000Y-69215000D03*
%TD*%
%TO.C,J7*%
X55245000Y-69215000D03*
%TD*%
%TO.C,J7*%
X74295000Y-69215000D03*
%TD*%
%TO.C,J7*%
X36195000Y-107315000D03*
%TD*%
%TO.C,J7*%
X74295000Y-107315000D03*
%TD*%
%TO.C,J7*%
X93345000Y-145415000D03*
%TD*%
%TO.C,J7*%
X17145000Y-183515000D03*
%TD*%
%TO.C,J7*%
X36195000Y-183515000D03*
%TD*%
%TO.C,J7*%
X17145000Y-12065000D03*
%TD*%
%TO.C,J7*%
X55245000Y-12065000D03*
%TD*%
%TO.C,J7*%
X93345000Y-12065000D03*
%TD*%
%TO.C,J7*%
X36195000Y-31115000D03*
%TD*%
%TO.C,J7*%
X17145000Y-50165000D03*
%TD*%
%TO.C,J7*%
X36195000Y-50165000D03*
%TD*%
%TO.C,J7*%
X93345000Y-31115000D03*
%TD*%
%TO.C,J7*%
X93345000Y-50165000D03*
%TD*%
%TO.C,J7*%
X93345000Y-126365000D03*
%TD*%
%TO.C,J7*%
X55245000Y-183515000D03*
%TD*%
%TO.C,J7*%
X36195000Y-12065000D03*
%TD*%
%TO.C,J7*%
X55245000Y-107315000D03*
%TD*%
%TO.C,J7*%
X36195000Y-126365000D03*
%TD*%
%TO.C,J7*%
X93345000Y-183515000D03*
%TD*%
%TO.C,J7*%
X17145000Y-145415000D03*
%TD*%
%TO.C,J7*%
X36195000Y-145415000D03*
%TD*%
%TO.C,J7*%
X17145000Y-164465000D03*
%TD*%
D13*
%TO.C,J14*%
X4445000Y-36195000D03*
%TD*%
%TO.C,J14*%
X80645000Y-93345000D03*
%TD*%
%TO.C,J14*%
X80645000Y-112395000D03*
%TD*%
%TO.C,J14*%
X42545000Y-150495000D03*
%TD*%
%TO.C,J14*%
X23495000Y-169545000D03*
%TD*%
%TO.C,J14*%
X80645000Y-169545000D03*
%TD*%
%TO.C,J14*%
X61595000Y-36195000D03*
%TD*%
%TO.C,J14*%
X4445000Y-74295000D03*
%TD*%
%TO.C,J14*%
X80645000Y-74295000D03*
%TD*%
%TO.C,J14*%
X4445000Y-93345000D03*
%TD*%
%TO.C,J14*%
X23495000Y-93345000D03*
%TD*%
%TO.C,J14*%
X4445000Y-112395000D03*
%TD*%
%TO.C,J14*%
X4445000Y-131445000D03*
%TD*%
%TO.C,J14*%
X42545000Y-169545000D03*
%TD*%
%TO.C,J14*%
X61595000Y-169545000D03*
%TD*%
%TO.C,J14*%
X61595000Y-188595000D03*
%TD*%
%TO.C,J14*%
X61595000Y-17145000D03*
%TD*%
%TO.C,J14*%
X42545000Y-36195000D03*
%TD*%
%TO.C,J14*%
X42545000Y-93345000D03*
%TD*%
%TO.C,J14*%
X61595000Y-93345000D03*
%TD*%
%TO.C,J14*%
X42545000Y-131445000D03*
%TD*%
%TO.C,J14*%
X61595000Y-131445000D03*
%TD*%
%TO.C,J14*%
X61595000Y-150495000D03*
%TD*%
%TO.C,J14*%
X42545000Y-55245000D03*
%TD*%
%TO.C,J14*%
X61595000Y-55245000D03*
%TD*%
%TO.C,J14*%
X23495000Y-74295000D03*
%TD*%
%TO.C,J14*%
X42545000Y-74295000D03*
%TD*%
%TO.C,J14*%
X61595000Y-74295000D03*
%TD*%
%TO.C,J14*%
X23495000Y-112395000D03*
%TD*%
%TO.C,J14*%
X61595000Y-112395000D03*
%TD*%
%TO.C,J14*%
X80645000Y-150495000D03*
%TD*%
%TO.C,J14*%
X4445000Y-188595000D03*
%TD*%
%TO.C,J14*%
X23495000Y-188595000D03*
%TD*%
%TO.C,J14*%
X80645000Y-188595000D03*
%TD*%
%TO.C,J14*%
X4445000Y-17145000D03*
%TD*%
%TO.C,J14*%
X42545000Y-17145000D03*
%TD*%
%TO.C,J14*%
X80645000Y-17145000D03*
%TD*%
%TO.C,J14*%
X23495000Y-36195000D03*
%TD*%
%TO.C,J14*%
X4445000Y-55245000D03*
%TD*%
%TO.C,J14*%
X23495000Y-55245000D03*
%TD*%
%TO.C,J14*%
X80645000Y-36195000D03*
%TD*%
%TO.C,J14*%
X80645000Y-55245000D03*
%TD*%
%TO.C,J14*%
X42545000Y-112395000D03*
%TD*%
%TO.C,J14*%
X80645000Y-131445000D03*
%TD*%
%TO.C,J14*%
X42545000Y-188595000D03*
%TD*%
%TO.C,J14*%
X23495000Y-17145000D03*
%TD*%
%TO.C,J14*%
X23495000Y-131445000D03*
%TD*%
%TO.C,J14*%
X4445000Y-150495000D03*
%TD*%
%TO.C,J14*%
X23495000Y-150495000D03*
%TD*%
%TO.C,J14*%
X4445000Y-169545000D03*
%TD*%
D21*
%TO.C,J11*%
X2345000Y-36175000D03*
%TD*%
%TO.C,J11*%
X78545000Y-93325000D03*
%TD*%
%TO.C,J11*%
X78545000Y-112375000D03*
%TD*%
%TO.C,J11*%
X40445000Y-150475000D03*
%TD*%
%TO.C,J11*%
X21395000Y-169525000D03*
%TD*%
%TO.C,J11*%
X78545000Y-169525000D03*
%TD*%
%TO.C,J11*%
X59495000Y-36175000D03*
%TD*%
%TO.C,J11*%
X2345000Y-74275000D03*
%TD*%
%TO.C,J11*%
X78545000Y-74275000D03*
%TD*%
%TO.C,J11*%
X2345000Y-93325000D03*
%TD*%
%TO.C,J11*%
X21395000Y-93325000D03*
%TD*%
%TO.C,J11*%
X2345000Y-112375000D03*
%TD*%
%TO.C,J11*%
X2345000Y-131425000D03*
%TD*%
%TO.C,J11*%
X40445000Y-169525000D03*
%TD*%
%TO.C,J11*%
X59495000Y-169525000D03*
%TD*%
%TO.C,J11*%
X59495000Y-188575000D03*
%TD*%
%TO.C,J11*%
X59495000Y-17125000D03*
%TD*%
%TO.C,J11*%
X40445000Y-36175000D03*
%TD*%
%TO.C,J11*%
X40445000Y-93325000D03*
%TD*%
%TO.C,J11*%
X59495000Y-93325000D03*
%TD*%
%TO.C,J11*%
X21395000Y-131425000D03*
%TD*%
%TO.C,J11*%
X40445000Y-131425000D03*
%TD*%
%TO.C,J11*%
X59495000Y-131425000D03*
%TD*%
%TO.C,J11*%
X59495000Y-150475000D03*
%TD*%
%TO.C,J11*%
X40445000Y-55225000D03*
%TD*%
%TO.C,J11*%
X59495000Y-55225000D03*
%TD*%
%TO.C,J11*%
X21395000Y-74275000D03*
%TD*%
%TO.C,J11*%
X40445000Y-74275000D03*
%TD*%
%TO.C,J11*%
X59495000Y-74275000D03*
%TD*%
%TO.C,J11*%
X21395000Y-112375000D03*
%TD*%
%TO.C,J11*%
X59495000Y-112375000D03*
%TD*%
%TO.C,J11*%
X78545000Y-150475000D03*
%TD*%
%TO.C,J11*%
X2345000Y-188575000D03*
%TD*%
%TO.C,J11*%
X21395000Y-188575000D03*
%TD*%
%TO.C,J11*%
X78545000Y-188575000D03*
%TD*%
%TO.C,J11*%
X2345000Y-17125000D03*
%TD*%
%TO.C,J11*%
X40445000Y-17125000D03*
%TD*%
%TO.C,J11*%
X78545000Y-17125000D03*
%TD*%
%TO.C,J11*%
X21395000Y-36175000D03*
%TD*%
%TO.C,J11*%
X2345000Y-55225000D03*
%TD*%
%TO.C,J11*%
X21395000Y-55225000D03*
%TD*%
%TO.C,J11*%
X78545000Y-36175000D03*
%TD*%
%TO.C,J11*%
X78545000Y-55225000D03*
%TD*%
%TO.C,J11*%
X40445000Y-112375000D03*
%TD*%
%TO.C,J11*%
X78545000Y-131425000D03*
%TD*%
%TO.C,J11*%
X40445000Y-188575000D03*
%TD*%
%TO.C,J11*%
X21395000Y-17125000D03*
%TD*%
%TO.C,J11*%
X2345000Y-150475000D03*
%TD*%
%TO.C,J11*%
X21395000Y-150475000D03*
%TD*%
%TO.C,J11*%
X2345000Y-169525000D03*
%TD*%
D16*
%TO.C,C2*%
X14905000Y-31400000D03*
X14905000Y-32950000D03*
%TD*%
%TO.C,C2*%
X91105000Y-88550000D03*
X91105000Y-90100000D03*
%TD*%
%TO.C,C2*%
X91105000Y-107600000D03*
X91105000Y-109150000D03*
%TD*%
%TO.C,C2*%
X53005000Y-145700000D03*
X53005000Y-147250000D03*
%TD*%
%TO.C,C2*%
X33955000Y-164750000D03*
X33955000Y-166300000D03*
%TD*%
%TO.C,C2*%
X91105000Y-164750000D03*
X91105000Y-166300000D03*
%TD*%
%TO.C,C2*%
X72055000Y-31400000D03*
X72055000Y-32950000D03*
%TD*%
%TO.C,C2*%
X14905000Y-69500000D03*
X14905000Y-71050000D03*
%TD*%
%TO.C,C2*%
X91105000Y-69500000D03*
X91105000Y-71050000D03*
%TD*%
%TO.C,C2*%
X14905000Y-88550000D03*
X14905000Y-90100000D03*
%TD*%
%TO.C,C2*%
X33955000Y-88550000D03*
X33955000Y-90100000D03*
%TD*%
%TO.C,C2*%
X14905000Y-107600000D03*
X14905000Y-109150000D03*
%TD*%
%TO.C,C2*%
X14905000Y-126650000D03*
X14905000Y-128200000D03*
%TD*%
%TO.C,C2*%
X53005000Y-164750000D03*
X53005000Y-166300000D03*
%TD*%
%TO.C,C2*%
X72055000Y-164750000D03*
X72055000Y-166300000D03*
%TD*%
%TO.C,C2*%
X72055000Y-183800000D03*
X72055000Y-185350000D03*
%TD*%
%TO.C,C2*%
X72055000Y-12350000D03*
X72055000Y-13900000D03*
%TD*%
%TO.C,C2*%
X53005000Y-31400000D03*
X53005000Y-32950000D03*
%TD*%
%TO.C,C2*%
X53005000Y-88550000D03*
X53005000Y-90100000D03*
%TD*%
%TO.C,C2*%
X72055000Y-88550000D03*
X72055000Y-90100000D03*
%TD*%
%TO.C,C2*%
X33955000Y-126650000D03*
X33955000Y-128200000D03*
%TD*%
%TO.C,C2*%
X53005000Y-126650000D03*
X53005000Y-128200000D03*
%TD*%
%TO.C,C2*%
X72055000Y-126650000D03*
X72055000Y-128200000D03*
%TD*%
%TO.C,C2*%
X33955000Y-145700000D03*
X33955000Y-147250000D03*
%TD*%
%TO.C,C2*%
X72055000Y-145700000D03*
X72055000Y-147250000D03*
%TD*%
%TO.C,C2*%
X53005000Y-50450000D03*
X53005000Y-52000000D03*
%TD*%
%TO.C,C2*%
X72055000Y-50450000D03*
X72055000Y-52000000D03*
%TD*%
%TO.C,C2*%
X33955000Y-69500000D03*
X33955000Y-71050000D03*
%TD*%
%TO.C,C2*%
X53005000Y-69500000D03*
X53005000Y-71050000D03*
%TD*%
%TO.C,C2*%
X72055000Y-69500000D03*
X72055000Y-71050000D03*
%TD*%
%TO.C,C2*%
X33955000Y-107600000D03*
X33955000Y-109150000D03*
%TD*%
%TO.C,C2*%
X72055000Y-107600000D03*
X72055000Y-109150000D03*
%TD*%
%TO.C,C2*%
X91105000Y-145700000D03*
X91105000Y-147250000D03*
%TD*%
%TO.C,C2*%
X14905000Y-183800000D03*
X14905000Y-185350000D03*
%TD*%
%TO.C,C2*%
X33955000Y-183800000D03*
X33955000Y-185350000D03*
%TD*%
%TO.C,C2*%
X91105000Y-183800000D03*
X91105000Y-185350000D03*
%TD*%
%TO.C,C2*%
X14905000Y-12350000D03*
X14905000Y-13900000D03*
%TD*%
%TO.C,C2*%
X53005000Y-12350000D03*
X53005000Y-13900000D03*
%TD*%
%TO.C,C2*%
X91105000Y-12350000D03*
X91105000Y-13900000D03*
%TD*%
%TO.C,C2*%
X33955000Y-31400000D03*
X33955000Y-32950000D03*
%TD*%
%TO.C,C2*%
X14905000Y-50450000D03*
X14905000Y-52000000D03*
%TD*%
%TO.C,C2*%
X33955000Y-50450000D03*
X33955000Y-52000000D03*
%TD*%
%TO.C,C2*%
X91105000Y-31400000D03*
X91105000Y-32950000D03*
%TD*%
%TO.C,C2*%
X91105000Y-50450000D03*
X91105000Y-52000000D03*
%TD*%
%TO.C,C2*%
X53005000Y-107600000D03*
X53005000Y-109150000D03*
%TD*%
%TO.C,C2*%
X91105000Y-126650000D03*
X91105000Y-128200000D03*
%TD*%
%TO.C,C2*%
X53005000Y-183800000D03*
X53005000Y-185350000D03*
%TD*%
%TO.C,C2*%
X33955000Y-12350000D03*
X33955000Y-13900000D03*
%TD*%
%TO.C,C2*%
X14905000Y-145700000D03*
X14905000Y-147250000D03*
%TD*%
%TO.C,C2*%
X14905000Y-164750000D03*
X14905000Y-166300000D03*
%TD*%
%TO.C,C4*%
X6731000Y-26911000D03*
X6731000Y-28461000D03*
%TD*%
%TO.C,C4*%
X82931000Y-84061000D03*
X82931000Y-85611000D03*
%TD*%
%TO.C,C4*%
X82931000Y-103111000D03*
X82931000Y-104661000D03*
%TD*%
%TO.C,C4*%
X44831000Y-141211000D03*
X44831000Y-142761000D03*
%TD*%
%TO.C,C4*%
X82931000Y-141211000D03*
X82931000Y-142761000D03*
%TD*%
%TO.C,C4*%
X25781000Y-160261000D03*
X25781000Y-161811000D03*
%TD*%
%TO.C,C4*%
X82931000Y-160261000D03*
X82931000Y-161811000D03*
%TD*%
%TO.C,C4*%
X63881000Y-26911000D03*
X63881000Y-28461000D03*
%TD*%
%TO.C,C4*%
X6731000Y-65011000D03*
X6731000Y-66561000D03*
%TD*%
%TO.C,C4*%
X82931000Y-65011000D03*
X82931000Y-66561000D03*
%TD*%
%TO.C,C4*%
X6731000Y-84061000D03*
X6731000Y-85611000D03*
%TD*%
%TO.C,C4*%
X25781000Y-84061000D03*
X25781000Y-85611000D03*
%TD*%
%TO.C,C4*%
X6731000Y-103111000D03*
X6731000Y-104661000D03*
%TD*%
%TO.C,C4*%
X6731000Y-122161000D03*
X6731000Y-123711000D03*
%TD*%
%TO.C,C4*%
X44831000Y-160261000D03*
X44831000Y-161811000D03*
%TD*%
%TO.C,C4*%
X63881000Y-160261000D03*
X63881000Y-161811000D03*
%TD*%
%TO.C,C4*%
X63881000Y-179311000D03*
X63881000Y-180861000D03*
%TD*%
%TO.C,C4*%
X63881000Y-7861000D03*
X63881000Y-9411000D03*
%TD*%
%TO.C,C4*%
X44831000Y-26911000D03*
X44831000Y-28461000D03*
%TD*%
%TO.C,C4*%
X44831000Y-84061000D03*
X44831000Y-85611000D03*
%TD*%
%TO.C,C4*%
X63881000Y-84061000D03*
X63881000Y-85611000D03*
%TD*%
%TO.C,C4*%
X25781000Y-122161000D03*
X25781000Y-123711000D03*
%TD*%
%TO.C,C4*%
X44831000Y-122161000D03*
X44831000Y-123711000D03*
%TD*%
%TO.C,C4*%
X63881000Y-122161000D03*
X63881000Y-123711000D03*
%TD*%
%TO.C,C4*%
X25781000Y-141211000D03*
X25781000Y-142761000D03*
%TD*%
%TO.C,C4*%
X63881000Y-141211000D03*
X63881000Y-142761000D03*
%TD*%
%TO.C,C4*%
X44831000Y-45961000D03*
X44831000Y-47511000D03*
%TD*%
%TO.C,C4*%
X63881000Y-45961000D03*
X63881000Y-47511000D03*
%TD*%
%TO.C,C4*%
X25781000Y-65011000D03*
X25781000Y-66561000D03*
%TD*%
%TO.C,C4*%
X44831000Y-65011000D03*
X44831000Y-66561000D03*
%TD*%
%TO.C,C4*%
X63881000Y-65011000D03*
X63881000Y-66561000D03*
%TD*%
%TO.C,C4*%
X25781000Y-103111000D03*
X25781000Y-104661000D03*
%TD*%
%TO.C,C4*%
X63881000Y-103111000D03*
X63881000Y-104661000D03*
%TD*%
%TO.C,C4*%
X6731000Y-179311000D03*
X6731000Y-180861000D03*
%TD*%
%TO.C,C4*%
X25781000Y-179311000D03*
X25781000Y-180861000D03*
%TD*%
%TO.C,C4*%
X82931000Y-179311000D03*
X82931000Y-180861000D03*
%TD*%
%TO.C,C4*%
X6731000Y-7861000D03*
X6731000Y-9411000D03*
%TD*%
%TO.C,C4*%
X44831000Y-7861000D03*
X44831000Y-9411000D03*
%TD*%
%TO.C,C4*%
X82931000Y-7861000D03*
X82931000Y-9411000D03*
%TD*%
%TO.C,C4*%
X25781000Y-26911000D03*
X25781000Y-28461000D03*
%TD*%
%TO.C,C4*%
X6731000Y-45961000D03*
X6731000Y-47511000D03*
%TD*%
%TO.C,C4*%
X25781000Y-45961000D03*
X25781000Y-47511000D03*
%TD*%
%TO.C,C4*%
X82931000Y-26911000D03*
X82931000Y-28461000D03*
%TD*%
%TO.C,C4*%
X82931000Y-45961000D03*
X82931000Y-47511000D03*
%TD*%
%TO.C,C4*%
X44831000Y-103111000D03*
X44831000Y-104661000D03*
%TD*%
%TO.C,C4*%
X82931000Y-122161000D03*
X82931000Y-123711000D03*
%TD*%
%TO.C,C4*%
X44831000Y-179311000D03*
X44831000Y-180861000D03*
%TD*%
%TO.C,C4*%
X25781000Y-7861000D03*
X25781000Y-9411000D03*
%TD*%
%TO.C,C4*%
X6731000Y-141211000D03*
X6731000Y-142761000D03*
%TD*%
%TO.C,C4*%
X6731000Y-160261000D03*
X6731000Y-161811000D03*
%TD*%
%TO.C,C1*%
X5222511Y-31443635D03*
X5222511Y-32993635D03*
%TD*%
%TO.C,C1*%
X81422511Y-88593635D03*
X81422511Y-90143635D03*
%TD*%
%TO.C,C1*%
X81422511Y-107643635D03*
X81422511Y-109193635D03*
%TD*%
%TO.C,C1*%
X43322511Y-145743635D03*
X43322511Y-147293635D03*
%TD*%
%TO.C,C1*%
X81422511Y-145743635D03*
X81422511Y-147293635D03*
%TD*%
%TO.C,C1*%
X24272511Y-164793635D03*
X24272511Y-166343635D03*
%TD*%
%TO.C,C1*%
X81422511Y-164793635D03*
X81422511Y-166343635D03*
%TD*%
%TO.C,C1*%
X62372511Y-31443635D03*
X62372511Y-32993635D03*
%TD*%
%TO.C,C1*%
X5222511Y-69543635D03*
X5222511Y-71093635D03*
%TD*%
%TO.C,C1*%
X81422511Y-69543635D03*
X81422511Y-71093635D03*
%TD*%
%TO.C,C1*%
X5222511Y-88593635D03*
X5222511Y-90143635D03*
%TD*%
%TO.C,C1*%
X24272511Y-88593635D03*
X24272511Y-90143635D03*
%TD*%
%TO.C,C1*%
X5222511Y-107643635D03*
X5222511Y-109193635D03*
%TD*%
%TO.C,C1*%
X5222511Y-126693635D03*
X5222511Y-128243635D03*
%TD*%
%TO.C,C1*%
X43322511Y-164793635D03*
X43322511Y-166343635D03*
%TD*%
%TO.C,C1*%
X62372511Y-164793635D03*
X62372511Y-166343635D03*
%TD*%
%TO.C,C1*%
X62372511Y-183843635D03*
X62372511Y-185393635D03*
%TD*%
%TO.C,C1*%
X62372511Y-12393635D03*
X62372511Y-13943635D03*
%TD*%
%TO.C,C1*%
X43322511Y-31443635D03*
X43322511Y-32993635D03*
%TD*%
%TO.C,C1*%
X43322511Y-88593635D03*
X43322511Y-90143635D03*
%TD*%
%TO.C,C1*%
X62372511Y-88593635D03*
X62372511Y-90143635D03*
%TD*%
%TO.C,C1*%
X24272511Y-126693635D03*
X24272511Y-128243635D03*
%TD*%
%TO.C,C1*%
X43322511Y-126693635D03*
X43322511Y-128243635D03*
%TD*%
%TO.C,C1*%
X62372511Y-126693635D03*
X62372511Y-128243635D03*
%TD*%
%TO.C,C1*%
X24272511Y-145743635D03*
X24272511Y-147293635D03*
%TD*%
%TO.C,C1*%
X62372511Y-145743635D03*
X62372511Y-147293635D03*
%TD*%
%TO.C,C1*%
X43322511Y-50493635D03*
X43322511Y-52043635D03*
%TD*%
%TO.C,C1*%
X62372511Y-50493635D03*
X62372511Y-52043635D03*
%TD*%
%TO.C,C1*%
X24272511Y-69543635D03*
X24272511Y-71093635D03*
%TD*%
%TO.C,C1*%
X43322511Y-69543635D03*
X43322511Y-71093635D03*
%TD*%
%TO.C,C1*%
X62372511Y-69543635D03*
X62372511Y-71093635D03*
%TD*%
%TO.C,C1*%
X24272511Y-107643635D03*
X24272511Y-109193635D03*
%TD*%
%TO.C,C1*%
X62372511Y-107643635D03*
X62372511Y-109193635D03*
%TD*%
%TO.C,C1*%
X5222511Y-183843635D03*
X5222511Y-185393635D03*
%TD*%
%TO.C,C1*%
X24272511Y-183843635D03*
X24272511Y-185393635D03*
%TD*%
%TO.C,C1*%
X81422511Y-183843635D03*
X81422511Y-185393635D03*
%TD*%
%TO.C,C1*%
X5222511Y-12393635D03*
X5222511Y-13943635D03*
%TD*%
%TO.C,C1*%
X43322511Y-12393635D03*
X43322511Y-13943635D03*
%TD*%
%TO.C,C1*%
X81422511Y-12393635D03*
X81422511Y-13943635D03*
%TD*%
%TO.C,C1*%
X24272511Y-31443635D03*
X24272511Y-32993635D03*
%TD*%
%TO.C,C1*%
X5222511Y-50493635D03*
X5222511Y-52043635D03*
%TD*%
%TO.C,C1*%
X24272511Y-50493635D03*
X24272511Y-52043635D03*
%TD*%
%TO.C,C1*%
X81422511Y-31443635D03*
X81422511Y-32993635D03*
%TD*%
%TO.C,C1*%
X81422511Y-50493635D03*
X81422511Y-52043635D03*
%TD*%
%TO.C,C1*%
X81422511Y-126693635D03*
X81422511Y-128243635D03*
%TD*%
%TO.C,C1*%
X43322511Y-107643635D03*
X43322511Y-109193635D03*
%TD*%
%TO.C,C1*%
X43322511Y-183843635D03*
X43322511Y-185393635D03*
%TD*%
%TO.C,C1*%
X24272511Y-12393635D03*
X24272511Y-13943635D03*
%TD*%
%TO.C,C1*%
X5222511Y-145743635D03*
X5222511Y-147293635D03*
%TD*%
%TO.C,C1*%
X5222511Y-164793635D03*
X5222511Y-166343635D03*
%TD*%
D22*
%TO.C,J13*%
X16705000Y-36175000D03*
%TD*%
%TO.C,J13*%
X92905000Y-93325000D03*
%TD*%
%TO.C,J13*%
X92905000Y-112375000D03*
%TD*%
%TO.C,J13*%
X54805000Y-150475000D03*
%TD*%
%TO.C,J13*%
X92905000Y-150475000D03*
%TD*%
%TO.C,J13*%
X35755000Y-169525000D03*
%TD*%
%TO.C,J13*%
X92905000Y-169525000D03*
%TD*%
%TO.C,J13*%
X73855000Y-36175000D03*
%TD*%
%TO.C,J13*%
X16705000Y-74275000D03*
%TD*%
%TO.C,J13*%
X92905000Y-74275000D03*
%TD*%
%TO.C,J13*%
X16705000Y-93325000D03*
%TD*%
%TO.C,J13*%
X35755000Y-93325000D03*
%TD*%
%TO.C,J13*%
X16705000Y-112375000D03*
%TD*%
%TO.C,J13*%
X16705000Y-131425000D03*
%TD*%
%TO.C,J13*%
X54805000Y-169525000D03*
%TD*%
%TO.C,J13*%
X73855000Y-169525000D03*
%TD*%
%TO.C,J13*%
X73855000Y-188575000D03*
%TD*%
%TO.C,J13*%
X73855000Y-17125000D03*
%TD*%
%TO.C,J13*%
X54805000Y-36175000D03*
%TD*%
%TO.C,J13*%
X54805000Y-93325000D03*
%TD*%
%TO.C,J13*%
X73855000Y-93325000D03*
%TD*%
%TO.C,J13*%
X35755000Y-131425000D03*
%TD*%
%TO.C,J13*%
X54805000Y-131425000D03*
%TD*%
%TO.C,J13*%
X73855000Y-131425000D03*
%TD*%
%TO.C,J13*%
X35755000Y-150475000D03*
%TD*%
%TO.C,J13*%
X73855000Y-150475000D03*
%TD*%
%TO.C,J13*%
X54805000Y-55225000D03*
%TD*%
%TO.C,J13*%
X73855000Y-55225000D03*
%TD*%
%TO.C,J13*%
X35755000Y-74275000D03*
%TD*%
%TO.C,J13*%
X54805000Y-74275000D03*
%TD*%
%TO.C,J13*%
X73855000Y-74275000D03*
%TD*%
%TO.C,J13*%
X35755000Y-112375000D03*
%TD*%
%TO.C,J13*%
X73855000Y-112375000D03*
%TD*%
%TO.C,J13*%
X16705000Y-188575000D03*
%TD*%
%TO.C,J13*%
X35755000Y-188575000D03*
%TD*%
%TO.C,J13*%
X92905000Y-188575000D03*
%TD*%
%TO.C,J13*%
X16705000Y-17125000D03*
%TD*%
%TO.C,J13*%
X54805000Y-17125000D03*
%TD*%
%TO.C,J13*%
X92905000Y-17125000D03*
%TD*%
%TO.C,J13*%
X35755000Y-36175000D03*
%TD*%
%TO.C,J13*%
X16705000Y-55225000D03*
%TD*%
%TO.C,J13*%
X35755000Y-55225000D03*
%TD*%
%TO.C,J13*%
X92905000Y-36175000D03*
%TD*%
%TO.C,J13*%
X92905000Y-55225000D03*
%TD*%
%TO.C,J13*%
X92905000Y-131425000D03*
%TD*%
%TO.C,J13*%
X54805000Y-112375000D03*
%TD*%
%TO.C,J13*%
X54805000Y-188575000D03*
%TD*%
%TO.C,J13*%
X35755000Y-17125000D03*
%TD*%
%TO.C,J13*%
X16705000Y-150475000D03*
%TD*%
%TO.C,J13*%
X16705000Y-169525000D03*
%TD*%
D11*
%TO.C,J4*%
X17145000Y-23495000D03*
%TD*%
%TO.C,J4*%
X93345000Y-80645000D03*
%TD*%
%TO.C,J4*%
X55245000Y-137795000D03*
%TD*%
%TO.C,J4*%
X93345000Y-137795000D03*
%TD*%
%TO.C,J4*%
X93345000Y-99695000D03*
%TD*%
%TO.C,J4*%
X36195000Y-156845000D03*
%TD*%
%TO.C,J4*%
X93345000Y-156845000D03*
%TD*%
%TO.C,J4*%
X74295000Y-23495000D03*
%TD*%
%TO.C,J4*%
X17145000Y-61595000D03*
%TD*%
%TO.C,J4*%
X93345000Y-61595000D03*
%TD*%
%TO.C,J4*%
X17145000Y-80645000D03*
%TD*%
%TO.C,J4*%
X36195000Y-80645000D03*
%TD*%
%TO.C,J4*%
X17145000Y-99695000D03*
%TD*%
%TO.C,J4*%
X17145000Y-118745000D03*
%TD*%
%TO.C,J4*%
X55245000Y-156845000D03*
%TD*%
%TO.C,J4*%
X74295000Y-156845000D03*
%TD*%
%TO.C,J4*%
X74295000Y-175895000D03*
%TD*%
%TO.C,J4*%
X74295000Y-4445000D03*
%TD*%
%TO.C,J4*%
X55245000Y-23495000D03*
%TD*%
%TO.C,J4*%
X55245000Y-80645000D03*
%TD*%
%TO.C,J4*%
X74295000Y-80645000D03*
%TD*%
%TO.C,J4*%
X36195000Y-118745000D03*
%TD*%
%TO.C,J4*%
X55245000Y-118745000D03*
%TD*%
%TO.C,J4*%
X74295000Y-118745000D03*
%TD*%
%TO.C,J4*%
X36195000Y-137795000D03*
%TD*%
%TO.C,J4*%
X74295000Y-137795000D03*
%TD*%
%TO.C,J4*%
X74295000Y-42545000D03*
%TD*%
%TO.C,J4*%
X36195000Y-61595000D03*
%TD*%
%TO.C,J4*%
X55245000Y-61595000D03*
%TD*%
%TO.C,J4*%
X74295000Y-61595000D03*
%TD*%
%TO.C,J4*%
X36195000Y-99695000D03*
%TD*%
%TO.C,J4*%
X74295000Y-99695000D03*
%TD*%
%TO.C,J4*%
X17145000Y-175895000D03*
%TD*%
%TO.C,J4*%
X36195000Y-175895000D03*
%TD*%
%TO.C,J4*%
X93345000Y-175895000D03*
%TD*%
%TO.C,J4*%
X17145000Y-4445000D03*
%TD*%
%TO.C,J4*%
X55245000Y-4445000D03*
%TD*%
%TO.C,J4*%
X93345000Y-4445000D03*
%TD*%
%TO.C,J4*%
X36195000Y-23495000D03*
%TD*%
%TO.C,J4*%
X17145000Y-42545000D03*
%TD*%
%TO.C,J4*%
X36195000Y-42545000D03*
%TD*%
%TO.C,J4*%
X55245000Y-42545000D03*
%TD*%
%TO.C,J4*%
X93345000Y-23495000D03*
%TD*%
%TO.C,J4*%
X93345000Y-42545000D03*
%TD*%
%TO.C,J4*%
X93345000Y-118745000D03*
%TD*%
%TO.C,J4*%
X55245000Y-99695000D03*
%TD*%
%TO.C,J4*%
X55245000Y-175895000D03*
%TD*%
%TO.C,J4*%
X36195000Y-4445000D03*
%TD*%
%TO.C,J4*%
X17145000Y-137795000D03*
%TD*%
%TO.C,J4*%
X17145000Y-156845000D03*
%TD*%
M02*
