M48
; DRILL file {KiCad (7.0.0-0)} date Sunday, April 23, 2023 at 01:01:11 PM
; FORMAT={-:-/ absolute / inch / decimal}
; #@! TF.CreationDate,2023-04-23T13:01:11-05:00
; #@! TF.GenerationSoftware,Kicad,Pcbnew,(7.0.0-0)
; #@! TF.FileFunction,NonPlated,1,2,NPTH
FMAT,2
INCH
; #@! TA.AperFunction,NonPlated,NPTH,ComponentDrill
T1C0.0669
%
G90
G05
T1
X-0.0787Y-0.175
X-0.0787Y-0.575
X-0.0787Y-0.925
X-0.0787Y-1.325
X-0.0787Y-1.675
X-0.0787Y-2.075
X-0.0787Y-2.425
X-0.0787Y-2.825
X-0.0787Y-3.175
X-0.0787Y-3.575
X-0.0787Y-3.925
X-0.0787Y-4.325
X-0.0787Y-4.675
X-0.0787Y-5.075
X-0.0787Y-5.425
X-0.0787Y-5.825
X-0.0787Y-6.175
X-0.0787Y-6.575
X-0.0787Y-6.925
X-0.0787Y-7.325
X0.175Y-0.375
X0.175Y-1.125
X0.175Y-1.875
X0.175Y-2.625
X0.175Y-3.375
X0.175Y-4.125
X0.175Y-4.875
X0.175Y-5.625
X0.175Y-6.375
X0.175Y-7.125
X0.575Y-0.375
X0.575Y-1.125
X0.575Y-1.875
X0.575Y-2.625
X0.575Y-3.375
X0.575Y-4.125
X0.575Y-4.875
X0.575Y-5.625
X0.575Y-6.375
X0.575Y-7.125
X0.925Y-0.375
X0.925Y-1.125
X0.925Y-1.875
X0.925Y-2.625
X0.925Y-3.375
X0.925Y-4.125
X0.925Y-4.875
X0.925Y-5.625
X0.925Y-6.375
X0.925Y-7.125
X1.325Y-0.375
X1.325Y-1.125
X1.325Y-1.875
X1.325Y-2.625
X1.325Y-3.375
X1.325Y-4.125
X1.325Y-4.875
X1.325Y-5.625
X1.325Y-6.375
X1.325Y-7.125
X1.675Y-0.375
X1.675Y-1.125
X1.675Y-1.875
X1.675Y-2.625
X1.675Y-3.375
X1.675Y-4.125
X1.675Y-4.875
X1.675Y-5.625
X1.675Y-6.375
X1.675Y-7.125
X2.075Y-0.375
X2.075Y-1.125
X2.075Y-1.875
X2.075Y-2.625
X2.075Y-3.375
X2.075Y-4.125
X2.075Y-4.875
X2.075Y-5.625
X2.075Y-6.375
X2.075Y-7.125
X2.425Y-0.375
X2.425Y-1.125
X2.425Y-1.875
X2.425Y-2.625
X2.425Y-3.375
X2.425Y-4.125
X2.425Y-4.875
X2.425Y-5.625
X2.425Y-6.375
X2.425Y-7.125
X2.825Y-0.375
X2.825Y-1.125
X2.825Y-1.875
X2.825Y-2.625
X2.825Y-3.375
X2.825Y-4.125
X2.825Y-4.875
X2.825Y-5.625
X2.825Y-6.375
X2.825Y-7.125
X3.175Y-0.375
X3.175Y-1.125
X3.175Y-1.875
X3.175Y-2.625
X3.175Y-3.375
X3.175Y-4.125
X3.175Y-4.875
X3.175Y-5.625
X3.175Y-6.375
X3.175Y-7.125
X3.575Y-0.375
X3.575Y-1.125
X3.575Y-1.875
X3.575Y-2.625
X3.575Y-3.375
X3.575Y-4.125
X3.575Y-4.875
X3.575Y-5.625
X3.575Y-6.375
X3.575Y-7.125
X3.8287Y-0.175
X3.8287Y-0.575
X3.8287Y-0.925
X3.8287Y-1.325
X3.8287Y-1.675
X3.8287Y-2.075
X3.8287Y-2.425
X3.8287Y-2.825
X3.8287Y-3.175
X3.8287Y-3.575
X3.8287Y-3.925
X3.8287Y-4.325
X3.8287Y-4.675
X3.8287Y-5.075
X3.8287Y-5.425
X3.8287Y-5.825
X3.8287Y-6.175
X3.8287Y-6.575
X3.8287Y-6.925
X3.8287Y-7.325
T0
M30
