M48
; DRILL file {KiCad (7.0.0-0)} date Monday, June 26, 2023 at 09:23:28 AM
; FORMAT={-:-/ absolute / inch / decimal}
; #@! TF.CreationDate,2023-06-26T09:23:28-05:00
; #@! TF.GenerationSoftware,Kicad,Pcbnew,(7.0.0-0)
; #@! TF.FileFunction,Plated,1,2,PTH
FMAT,2
INCH
; #@! TA.AperFunction,Plated,PTH,ViaDrill
T1C0.0157
; #@! TA.AperFunction,Plated,PTH,ComponentDrill
T2C0.0256
; #@! TA.AperFunction,Plated,PTH,ComponentDrill
T3C0.0394
%
G90
G05
T1
X0.1045Y-0.3986
X0.1045Y-1.1486
X0.1045Y-1.8986
X0.1045Y-2.6486
X0.1045Y-3.3986
X0.1045Y-4.1486
X0.1045Y-4.8986
X0.1045Y-5.6486
X0.1045Y-6.3986
X0.1045Y-7.1486
X0.1284Y-0.3252
X0.1284Y-1.0752
X0.1284Y-1.8252
X0.1284Y-2.5752
X0.1284Y-3.3252
X0.1284Y-4.0752
X0.1284Y-4.8252
X0.1284Y-5.5752
X0.1284Y-6.3252
X0.1284Y-7.0752
X0.1301Y-0.2333
X0.1301Y-0.9833
X0.1301Y-1.7333
X0.1301Y-2.4833
X0.1301Y-3.2333
X0.1301Y-3.9833
X0.1301Y-4.7333
X0.1301Y-5.4833
X0.1301Y-6.2333
X0.1301Y-6.9833
X0.2226Y-0.4281
X0.2226Y-1.1781
X0.2226Y-1.9281
X0.2226Y-2.6781
X0.2226Y-3.4281
X0.2226Y-4.1781
X0.2226Y-4.9281
X0.2226Y-5.6781
X0.2226Y-6.4281
X0.2226Y-7.1781
X0.2384Y-0.2608
X0.2384Y-1.0108
X0.2384Y-1.7608
X0.2384Y-2.5108
X0.2384Y-3.2608
X0.2384Y-4.0108
X0.2384Y-4.7608
X0.2384Y-5.5108
X0.2384Y-6.2608
X0.2384Y-7.0108
X0.2896Y-0.2608
X0.2896Y-1.0108
X0.2896Y-1.7608
X0.2896Y-2.5108
X0.2896Y-3.2608
X0.2896Y-4.0108
X0.2896Y-4.7608
X0.2896Y-5.5108
X0.2896Y-6.2608
X0.2896Y-7.0108
X0.4372Y-0.3258
X0.4372Y-1.0758
X0.4372Y-1.8258
X0.4372Y-2.5758
X0.4372Y-3.3258
X0.4372Y-4.0758
X0.4372Y-4.8258
X0.4372Y-5.5758
X0.4372Y-6.3258
X0.4372Y-7.0758
X0.4805Y-0.3671
X0.4805Y-1.1171
X0.4805Y-1.8671
X0.4805Y-2.6171
X0.4805Y-3.3671
X0.4805Y-4.1171
X0.4805Y-4.8671
X0.4805Y-5.6171
X0.4805Y-6.3671
X0.4805Y-7.1171
X0.485Y-0.66
X0.485Y-1.41
X0.485Y-2.16
X0.485Y-2.91
X0.485Y-3.66
X0.485Y-4.41
X0.485Y-5.16
X0.485Y-5.91
X0.485Y-6.66
X0.485Y-7.41
X0.5061Y-0.1939
X0.5061Y-0.9439
X0.5061Y-1.6939
X0.5061Y-2.4439
X0.5061Y-3.1939
X0.5061Y-3.9439
X0.5061Y-4.6939
X0.5061Y-5.4439
X0.5061Y-6.1939
X0.5061Y-6.9439
X0.5396Y-0.6191
X0.5396Y-1.3691
X0.5396Y-2.1191
X0.5396Y-2.8691
X0.5396Y-3.6191
X0.5396Y-4.3691
X0.5396Y-5.1191
X0.5396Y-5.8691
X0.5396Y-6.6191
X0.5396Y-7.3691
X0.5553Y-0.1939
X0.5553Y-0.9439
X0.5553Y-1.6939
X0.5553Y-2.4439
X0.5553Y-3.1939
X0.5553Y-3.9439
X0.5553Y-4.6939
X0.5553Y-5.4439
X0.5553Y-6.1939
X0.5553Y-6.9439
X0.5789Y-0.436
X0.5789Y-1.186
X0.5789Y-1.936
X0.5789Y-2.686
X0.5789Y-3.436
X0.5789Y-4.186
X0.5789Y-4.936
X0.5789Y-5.686
X0.5789Y-6.436
X0.5789Y-7.186
X0.6118Y-0.2291
X0.6118Y-0.9791
X0.6118Y-1.7291
X0.6118Y-2.4791
X0.6118Y-3.2291
X0.6118Y-3.9791
X0.6118Y-4.7291
X0.6118Y-5.4791
X0.6118Y-6.2291
X0.6118Y-6.9791
X0.636Y-0.4104
X0.636Y-1.1604
X0.636Y-1.9104
X0.636Y-2.6604
X0.636Y-3.4104
X0.636Y-4.1604
X0.636Y-4.9104
X0.636Y-5.6604
X0.636Y-6.4104
X0.636Y-7.1604
X0.6381Y-0.3532
X0.6381Y-1.1032
X0.6381Y-1.8532
X0.6381Y-2.6032
X0.6381Y-3.3532
X0.6381Y-4.1032
X0.6381Y-4.8532
X0.6381Y-5.6032
X0.6381Y-6.3532
X0.6381Y-7.1032
X0.8545Y-0.3986
X0.8545Y-1.1486
X0.8545Y-1.8986
X0.8545Y-2.6486
X0.8545Y-3.3986
X0.8545Y-4.1486
X0.8545Y-4.8986
X0.8545Y-5.6486
X0.8545Y-6.3986
X0.8545Y-7.1486
X0.8784Y-0.3252
X0.8784Y-1.0752
X0.8784Y-1.8252
X0.8784Y-2.5752
X0.8784Y-3.3252
X0.8784Y-4.0752
X0.8784Y-4.8252
X0.8784Y-5.5752
X0.8784Y-6.3252
X0.8784Y-7.0752
X0.8801Y-0.2333
X0.8801Y-0.9833
X0.8801Y-1.7333
X0.8801Y-2.4833
X0.8801Y-3.2333
X0.8801Y-3.9833
X0.8801Y-4.7333
X0.8801Y-5.4833
X0.8801Y-6.2333
X0.8801Y-6.9833
X0.9726Y-0.4281
X0.9726Y-1.1781
X0.9726Y-1.9281
X0.9726Y-2.6781
X0.9726Y-3.4281
X0.9726Y-4.1781
X0.9726Y-4.9281
X0.9726Y-5.6781
X0.9726Y-6.4281
X0.9726Y-7.1781
X0.9884Y-0.2608
X0.9884Y-1.0108
X0.9884Y-1.7608
X0.9884Y-2.5108
X0.9884Y-3.2608
X0.9884Y-4.0108
X0.9884Y-4.7608
X0.9884Y-5.5108
X0.9884Y-6.2608
X0.9884Y-7.0108
X1.0396Y-0.2608
X1.0396Y-1.0108
X1.0396Y-1.7608
X1.0396Y-2.5108
X1.0396Y-3.2608
X1.0396Y-4.0108
X1.0396Y-4.7608
X1.0396Y-5.5108
X1.0396Y-6.2608
X1.0396Y-7.0108
X1.1872Y-0.3258
X1.1872Y-1.0758
X1.1872Y-1.8258
X1.1872Y-2.5758
X1.1872Y-3.3258
X1.1872Y-4.0758
X1.1872Y-4.8258
X1.1872Y-5.5758
X1.1872Y-6.3258
X1.1872Y-7.0758
X1.2305Y-0.3671
X1.2305Y-1.1171
X1.2305Y-1.8671
X1.2305Y-2.6171
X1.2305Y-3.3671
X1.2305Y-4.1171
X1.2305Y-4.8671
X1.2305Y-5.6171
X1.2305Y-6.3671
X1.2305Y-7.1171
X1.235Y-0.66
X1.235Y-1.41
X1.235Y-2.16
X1.235Y-2.91
X1.235Y-3.66
X1.235Y-4.41
X1.235Y-5.16
X1.235Y-5.91
X1.235Y-6.66
X1.235Y-7.41
X1.2561Y-0.1939
X1.2561Y-0.9439
X1.2561Y-1.6939
X1.2561Y-2.4439
X1.2561Y-3.1939
X1.2561Y-3.9439
X1.2561Y-4.6939
X1.2561Y-5.4439
X1.2561Y-6.1939
X1.2561Y-6.9439
X1.2896Y-0.6191
X1.2896Y-1.3691
X1.2896Y-2.1191
X1.2896Y-2.8691
X1.2896Y-3.6191
X1.2896Y-4.3691
X1.2896Y-5.1191
X1.2896Y-5.8691
X1.2896Y-6.6191
X1.2896Y-7.3691
X1.3053Y-0.1939
X1.3053Y-0.9439
X1.3053Y-1.6939
X1.3053Y-2.4439
X1.3053Y-3.1939
X1.3053Y-3.9439
X1.3053Y-4.6939
X1.3053Y-5.4439
X1.3053Y-6.1939
X1.3053Y-6.9439
X1.3289Y-0.436
X1.3289Y-1.186
X1.3289Y-1.936
X1.3289Y-2.686
X1.3289Y-3.436
X1.3289Y-4.186
X1.3289Y-4.936
X1.3289Y-5.686
X1.3289Y-6.436
X1.3289Y-7.186
X1.3618Y-0.2291
X1.3618Y-0.9791
X1.3618Y-1.7291
X1.3618Y-2.4791
X1.3618Y-3.2291
X1.3618Y-3.9791
X1.3618Y-4.7291
X1.3618Y-5.4791
X1.3618Y-6.2291
X1.3618Y-6.9791
X1.386Y-0.4104
X1.386Y-1.1604
X1.386Y-1.9104
X1.386Y-2.6604
X1.386Y-3.4104
X1.386Y-4.1604
X1.386Y-4.9104
X1.386Y-5.6604
X1.386Y-6.4104
X1.386Y-7.1604
X1.3881Y-0.3532
X1.3881Y-1.1032
X1.3881Y-1.8532
X1.3881Y-2.6032
X1.3881Y-3.3532
X1.3881Y-4.1032
X1.3881Y-4.8532
X1.3881Y-5.6032
X1.3881Y-6.3532
X1.3881Y-7.1032
X1.6045Y-0.3986
X1.6045Y-1.1486
X1.6045Y-1.8986
X1.6045Y-2.6486
X1.6045Y-3.3986
X1.6045Y-4.1486
X1.6045Y-4.8986
X1.6045Y-5.6486
X1.6045Y-6.3986
X1.6045Y-7.1486
X1.6284Y-0.3252
X1.6284Y-1.0752
X1.6284Y-1.8252
X1.6284Y-2.5752
X1.6284Y-3.3252
X1.6284Y-4.0752
X1.6284Y-4.8252
X1.6284Y-5.5752
X1.6284Y-6.3252
X1.6284Y-7.0752
X1.6301Y-0.2333
X1.6301Y-0.9833
X1.6301Y-1.7333
X1.6301Y-2.4833
X1.6301Y-3.2333
X1.6301Y-3.9833
X1.6301Y-4.7333
X1.6301Y-5.4833
X1.6301Y-6.2333
X1.6301Y-6.9833
X1.7226Y-0.4281
X1.7226Y-1.1781
X1.7226Y-1.9281
X1.7226Y-2.6781
X1.7226Y-3.4281
X1.7226Y-4.1781
X1.7226Y-4.9281
X1.7226Y-5.6781
X1.7226Y-6.4281
X1.7226Y-7.1781
X1.7384Y-0.2608
X1.7384Y-1.0108
X1.7384Y-1.7608
X1.7384Y-2.5108
X1.7384Y-3.2608
X1.7384Y-4.0108
X1.7384Y-4.7608
X1.7384Y-5.5108
X1.7384Y-6.2608
X1.7384Y-7.0108
X1.7896Y-0.2608
X1.7896Y-1.0108
X1.7896Y-1.7608
X1.7896Y-2.5108
X1.7896Y-3.2608
X1.7896Y-4.0108
X1.7896Y-4.7608
X1.7896Y-5.5108
X1.7896Y-6.2608
X1.7896Y-7.0108
X1.9372Y-0.3258
X1.9372Y-1.0758
X1.9372Y-1.8258
X1.9372Y-2.5758
X1.9372Y-3.3258
X1.9372Y-4.0758
X1.9372Y-4.8258
X1.9372Y-5.5758
X1.9372Y-6.3258
X1.9372Y-7.0758
X1.9805Y-0.3671
X1.9805Y-1.1171
X1.9805Y-1.8671
X1.9805Y-2.6171
X1.9805Y-3.3671
X1.9805Y-4.1171
X1.9805Y-4.8671
X1.9805Y-5.6171
X1.9805Y-6.3671
X1.9805Y-7.1171
X1.985Y-0.66
X1.985Y-1.41
X1.985Y-2.16
X1.985Y-2.91
X1.985Y-3.66
X1.985Y-4.41
X1.985Y-5.16
X1.985Y-5.91
X1.985Y-6.66
X1.985Y-7.41
X2.0061Y-0.1939
X2.0061Y-0.9439
X2.0061Y-1.6939
X2.0061Y-2.4439
X2.0061Y-3.1939
X2.0061Y-3.9439
X2.0061Y-4.6939
X2.0061Y-5.4439
X2.0061Y-6.1939
X2.0061Y-6.9439
X2.0396Y-0.6191
X2.0396Y-1.3691
X2.0396Y-2.1191
X2.0396Y-2.8691
X2.0396Y-3.6191
X2.0396Y-4.3691
X2.0396Y-5.1191
X2.0396Y-5.8691
X2.0396Y-6.6191
X2.0396Y-7.3691
X2.0553Y-0.1939
X2.0553Y-0.9439
X2.0553Y-1.6939
X2.0553Y-2.4439
X2.0553Y-3.1939
X2.0553Y-3.9439
X2.0553Y-4.6939
X2.0553Y-5.4439
X2.0553Y-6.1939
X2.0553Y-6.9439
X2.0789Y-0.436
X2.0789Y-1.186
X2.0789Y-1.936
X2.0789Y-2.686
X2.0789Y-3.436
X2.0789Y-4.186
X2.0789Y-4.936
X2.0789Y-5.686
X2.0789Y-6.436
X2.0789Y-7.186
X2.1118Y-0.2291
X2.1118Y-0.9791
X2.1118Y-1.7291
X2.1118Y-2.4791
X2.1118Y-3.2291
X2.1118Y-3.9791
X2.1118Y-4.7291
X2.1118Y-5.4791
X2.1118Y-6.2291
X2.1118Y-6.9791
X2.136Y-0.4104
X2.136Y-1.1604
X2.136Y-1.9104
X2.136Y-2.6604
X2.136Y-3.4104
X2.136Y-4.1604
X2.136Y-4.9104
X2.136Y-5.6604
X2.136Y-6.4104
X2.136Y-7.1604
X2.1381Y-0.3532
X2.1381Y-1.1032
X2.1381Y-1.8532
X2.1381Y-2.6032
X2.1381Y-3.3532
X2.1381Y-4.1032
X2.1381Y-4.8532
X2.1381Y-5.6032
X2.1381Y-6.3532
X2.1381Y-7.1032
X2.3545Y-0.3986
X2.3545Y-1.1486
X2.3545Y-1.8986
X2.3545Y-2.6486
X2.3545Y-3.3986
X2.3545Y-4.1486
X2.3545Y-4.8986
X2.3545Y-5.6486
X2.3545Y-6.3986
X2.3545Y-7.1486
X2.3784Y-0.3252
X2.3784Y-1.0752
X2.3784Y-1.8252
X2.3784Y-2.5752
X2.3784Y-3.3252
X2.3784Y-4.0752
X2.3784Y-4.8252
X2.3784Y-5.5752
X2.3784Y-6.3252
X2.3784Y-7.0752
X2.3801Y-0.2333
X2.3801Y-0.9833
X2.3801Y-1.7333
X2.3801Y-2.4833
X2.3801Y-3.2333
X2.3801Y-3.9833
X2.3801Y-4.7333
X2.3801Y-5.4833
X2.3801Y-6.2333
X2.3801Y-6.9833
X2.4726Y-0.4281
X2.4726Y-1.1781
X2.4726Y-1.9281
X2.4726Y-2.6781
X2.4726Y-3.4281
X2.4726Y-4.1781
X2.4726Y-4.9281
X2.4726Y-5.6781
X2.4726Y-6.4281
X2.4726Y-7.1781
X2.4884Y-0.2608
X2.4884Y-1.0108
X2.4884Y-1.7608
X2.4884Y-2.5108
X2.4884Y-3.2608
X2.4884Y-4.0108
X2.4884Y-4.7608
X2.4884Y-5.5108
X2.4884Y-6.2608
X2.4884Y-7.0108
X2.5396Y-0.2608
X2.5396Y-1.0108
X2.5396Y-1.7608
X2.5396Y-2.5108
X2.5396Y-3.2608
X2.5396Y-4.0108
X2.5396Y-4.7608
X2.5396Y-5.5108
X2.5396Y-6.2608
X2.5396Y-7.0108
X2.6872Y-0.3258
X2.6872Y-1.0758
X2.6872Y-1.8258
X2.6872Y-2.5758
X2.6872Y-3.3258
X2.6872Y-4.0758
X2.6872Y-4.8258
X2.6872Y-5.5758
X2.6872Y-6.3258
X2.6872Y-7.0758
X2.7305Y-0.3671
X2.7305Y-1.1171
X2.7305Y-1.8671
X2.7305Y-2.6171
X2.7305Y-3.3671
X2.7305Y-4.1171
X2.7305Y-4.8671
X2.7305Y-5.6171
X2.7305Y-6.3671
X2.7305Y-7.1171
X2.735Y-0.66
X2.735Y-1.41
X2.735Y-2.16
X2.735Y-2.91
X2.735Y-3.66
X2.735Y-4.41
X2.735Y-5.16
X2.735Y-5.91
X2.735Y-6.66
X2.735Y-7.41
X2.7561Y-0.1939
X2.7561Y-0.9439
X2.7561Y-1.6939
X2.7561Y-2.4439
X2.7561Y-3.1939
X2.7561Y-3.9439
X2.7561Y-4.6939
X2.7561Y-5.4439
X2.7561Y-6.1939
X2.7561Y-6.9439
X2.7896Y-0.6191
X2.7896Y-1.3691
X2.7896Y-2.1191
X2.7896Y-2.8691
X2.7896Y-3.6191
X2.7896Y-4.3691
X2.7896Y-5.1191
X2.7896Y-5.8691
X2.7896Y-6.6191
X2.7896Y-7.3691
X2.8053Y-0.1939
X2.8053Y-0.9439
X2.8053Y-1.6939
X2.8053Y-2.4439
X2.8053Y-3.1939
X2.8053Y-3.9439
X2.8053Y-4.6939
X2.8053Y-5.4439
X2.8053Y-6.1939
X2.8053Y-6.9439
X2.8289Y-0.436
X2.8289Y-1.186
X2.8289Y-1.936
X2.8289Y-2.686
X2.8289Y-3.436
X2.8289Y-4.186
X2.8289Y-4.936
X2.8289Y-5.686
X2.8289Y-6.436
X2.8289Y-7.186
X2.8618Y-0.2291
X2.8618Y-0.9791
X2.8618Y-1.7291
X2.8618Y-2.4791
X2.8618Y-3.2291
X2.8618Y-3.9791
X2.8618Y-4.7291
X2.8618Y-5.4791
X2.8618Y-6.2291
X2.8618Y-6.9791
X2.886Y-0.4104
X2.886Y-1.1604
X2.886Y-1.9104
X2.886Y-2.6604
X2.886Y-3.4104
X2.886Y-4.1604
X2.886Y-4.9104
X2.886Y-5.6604
X2.886Y-6.4104
X2.886Y-7.1604
X2.8881Y-0.3532
X2.8881Y-1.1032
X2.8881Y-1.8532
X2.8881Y-2.6032
X2.8881Y-3.3532
X2.8881Y-4.1032
X2.8881Y-4.8532
X2.8881Y-5.6032
X2.8881Y-6.3532
X2.8881Y-7.1032
X3.1045Y-0.3986
X3.1045Y-1.1486
X3.1045Y-1.8986
X3.1045Y-2.6486
X3.1045Y-3.3986
X3.1045Y-4.1486
X3.1045Y-4.8986
X3.1045Y-5.6486
X3.1045Y-6.3986
X3.1045Y-7.1486
X3.1284Y-0.3252
X3.1284Y-1.0752
X3.1284Y-1.8252
X3.1284Y-2.5752
X3.1284Y-3.3252
X3.1284Y-4.0752
X3.1284Y-4.8252
X3.1284Y-5.5752
X3.1284Y-6.3252
X3.1284Y-7.0752
X3.1301Y-0.2333
X3.1301Y-0.9833
X3.1301Y-1.7333
X3.1301Y-2.4833
X3.1301Y-3.2333
X3.1301Y-3.9833
X3.1301Y-4.7333
X3.1301Y-5.4833
X3.1301Y-6.2333
X3.1301Y-6.9833
X3.2226Y-0.4281
X3.2226Y-1.1781
X3.2226Y-1.9281
X3.2226Y-2.6781
X3.2226Y-3.4281
X3.2226Y-4.1781
X3.2226Y-4.9281
X3.2226Y-5.6781
X3.2226Y-6.4281
X3.2226Y-7.1781
X3.2384Y-0.2608
X3.2384Y-1.0108
X3.2384Y-1.7608
X3.2384Y-2.5108
X3.2384Y-3.2608
X3.2384Y-4.0108
X3.2384Y-4.7608
X3.2384Y-5.5108
X3.2384Y-6.2608
X3.2384Y-7.0108
X3.2896Y-0.2608
X3.2896Y-1.0108
X3.2896Y-1.7608
X3.2896Y-2.5108
X3.2896Y-3.2608
X3.2896Y-4.0108
X3.2896Y-4.7608
X3.2896Y-5.5108
X3.2896Y-6.2608
X3.2896Y-7.0108
X3.4372Y-0.3258
X3.4372Y-1.0758
X3.4372Y-1.8258
X3.4372Y-2.5758
X3.4372Y-3.3258
X3.4372Y-4.0758
X3.4372Y-4.8258
X3.4372Y-5.5758
X3.4372Y-6.3258
X3.4372Y-7.0758
X3.4805Y-0.3671
X3.4805Y-1.1171
X3.4805Y-1.8671
X3.4805Y-2.6171
X3.4805Y-3.3671
X3.4805Y-4.1171
X3.4805Y-4.8671
X3.4805Y-5.6171
X3.4805Y-6.3671
X3.4805Y-7.1171
X3.485Y-0.66
X3.485Y-1.41
X3.485Y-2.16
X3.485Y-2.91
X3.485Y-3.66
X3.485Y-4.41
X3.485Y-5.16
X3.485Y-5.91
X3.485Y-6.66
X3.485Y-7.41
X3.5061Y-0.1939
X3.5061Y-0.9439
X3.5061Y-1.6939
X3.5061Y-2.4439
X3.5061Y-3.1939
X3.5061Y-3.9439
X3.5061Y-4.6939
X3.5061Y-5.4439
X3.5061Y-6.1939
X3.5061Y-6.9439
X3.5396Y-0.6191
X3.5396Y-1.3691
X3.5396Y-2.1191
X3.5396Y-2.8691
X3.5396Y-3.6191
X3.5396Y-4.3691
X3.5396Y-5.1191
X3.5396Y-5.8691
X3.5396Y-6.6191
X3.5396Y-7.3691
X3.5553Y-0.1939
X3.5553Y-0.9439
X3.5553Y-1.6939
X3.5553Y-2.4439
X3.5553Y-3.1939
X3.5553Y-3.9439
X3.5553Y-4.6939
X3.5553Y-5.4439
X3.5553Y-6.1939
X3.5553Y-6.9439
X3.5789Y-0.436
X3.5789Y-1.186
X3.5789Y-1.936
X3.5789Y-2.686
X3.5789Y-3.436
X3.5789Y-4.186
X3.5789Y-4.936
X3.5789Y-5.686
X3.5789Y-6.436
X3.5789Y-7.186
X3.6118Y-0.2291
X3.6118Y-0.9791
X3.6118Y-1.7291
X3.6118Y-2.4791
X3.6118Y-3.2291
X3.6118Y-3.9791
X3.6118Y-4.7291
X3.6118Y-5.4791
X3.6118Y-6.2291
X3.6118Y-6.9791
X3.636Y-0.4104
X3.636Y-1.1604
X3.636Y-1.9104
X3.636Y-2.6604
X3.636Y-3.4104
X3.636Y-4.1604
X3.636Y-4.9104
X3.636Y-5.6604
X3.636Y-6.4104
X3.636Y-7.1604
X3.6381Y-0.3532
X3.6381Y-1.1032
X3.6381Y-1.8532
X3.6381Y-2.6032
X3.6381Y-3.3532
X3.6381Y-4.1032
X3.6381Y-4.8532
X3.6381Y-5.6032
X3.6381Y-6.3532
X3.6381Y-7.1032
T2
X0.0923Y-0.6742
X0.0923Y-1.4242
X0.0923Y-2.1742
X0.0923Y-2.9242
X0.0923Y-3.6742
X0.0923Y-4.4242
X0.0923Y-5.1742
X0.0923Y-5.9242
X0.0923Y-6.6742
X0.0923Y-7.4242
X0.6577Y-0.6742
X0.6577Y-1.4242
X0.6577Y-2.1742
X0.6577Y-2.9242
X0.6577Y-3.6742
X0.6577Y-4.4242
X0.6577Y-5.1742
X0.6577Y-5.9242
X0.6577Y-6.6742
X0.6577Y-7.4242
X0.8423Y-0.6742
X0.8423Y-1.4242
X0.8423Y-2.1742
X0.8423Y-2.9242
X0.8423Y-3.6742
X0.8423Y-4.4242
X0.8423Y-5.1742
X0.8423Y-5.9242
X0.8423Y-6.6742
X0.8423Y-7.4242
X1.4077Y-0.6742
X1.4077Y-1.4242
X1.4077Y-2.1742
X1.4077Y-2.9242
X1.4077Y-3.6742
X1.4077Y-4.4242
X1.4077Y-5.1742
X1.4077Y-5.9242
X1.4077Y-6.6742
X1.4077Y-7.4242
X1.5923Y-0.6742
X1.5923Y-1.4242
X1.5923Y-2.1742
X1.5923Y-2.9242
X1.5923Y-3.6742
X1.5923Y-4.4242
X1.5923Y-5.1742
X1.5923Y-5.9242
X1.5923Y-6.6742
X1.5923Y-7.4242
X2.1577Y-0.6742
X2.1577Y-1.4242
X2.1577Y-2.1742
X2.1577Y-2.9242
X2.1577Y-3.6742
X2.1577Y-4.4242
X2.1577Y-5.1742
X2.1577Y-5.9242
X2.1577Y-6.6742
X2.1577Y-7.4242
X2.3423Y-0.6742
X2.3423Y-1.4242
X2.3423Y-2.1742
X2.3423Y-2.9242
X2.3423Y-3.6742
X2.3423Y-4.4242
X2.3423Y-5.1742
X2.3423Y-5.9242
X2.3423Y-6.6742
X2.3423Y-7.4242
X2.9077Y-0.6742
X2.9077Y-1.4242
X2.9077Y-2.1742
X2.9077Y-2.9242
X2.9077Y-3.6742
X2.9077Y-4.4242
X2.9077Y-5.1742
X2.9077Y-5.9242
X2.9077Y-6.6742
X2.9077Y-7.4242
X3.0923Y-0.6742
X3.0923Y-1.4242
X3.0923Y-2.1742
X3.0923Y-2.9242
X3.0923Y-3.6742
X3.0923Y-4.4242
X3.0923Y-5.1742
X3.0923Y-5.9242
X3.0923Y-6.6742
X3.0923Y-7.4242
X3.6577Y-0.6742
X3.6577Y-1.4242
X3.6577Y-2.1742
X3.6577Y-2.9242
X3.6577Y-3.6742
X3.6577Y-4.4242
X3.6577Y-5.1742
X3.6577Y-5.9242
X3.6577Y-6.6742
X3.6577Y-7.4242
T3
X0.075Y-0.175
X0.075Y-0.275
X0.075Y-0.475
X0.075Y-0.575
X0.075Y-0.925
X0.075Y-1.025
X0.075Y-1.225
X0.075Y-1.325
X0.075Y-1.675
X0.075Y-1.775
X0.075Y-1.975
X0.075Y-2.075
X0.075Y-2.425
X0.075Y-2.525
X0.075Y-2.725
X0.075Y-2.825
X0.075Y-3.175
X0.075Y-3.275
X0.075Y-3.475
X0.075Y-3.575
X0.075Y-3.925
X0.075Y-4.025
X0.075Y-4.225
X0.075Y-4.325
X0.075Y-4.675
X0.075Y-4.775
X0.075Y-4.975
X0.075Y-5.075
X0.075Y-5.425
X0.075Y-5.525
X0.075Y-5.725
X0.075Y-5.825
X0.075Y-6.175
X0.075Y-6.275
X0.075Y-6.475
X0.075Y-6.575
X0.075Y-6.925
X0.075Y-7.025
X0.075Y-7.225
X0.075Y-7.325
X0.175Y-0.075
X0.175Y-0.675
X0.175Y-0.825
X0.175Y-1.425
X0.175Y-1.575
X0.175Y-2.175
X0.175Y-2.325
X0.175Y-2.925
X0.175Y-3.075
X0.175Y-3.675
X0.175Y-3.825
X0.175Y-4.425
X0.175Y-4.575
X0.175Y-5.175
X0.175Y-5.325
X0.175Y-5.925
X0.175Y-6.075
X0.175Y-6.675
X0.175Y-6.825
X0.175Y-7.425
X0.575Y-0.075
X0.575Y-0.675
X0.575Y-0.825
X0.575Y-1.425
X0.575Y-1.575
X0.575Y-2.175
X0.575Y-2.325
X0.575Y-2.925
X0.575Y-3.075
X0.575Y-3.675
X0.575Y-3.825
X0.575Y-4.425
X0.575Y-4.575
X0.575Y-5.175
X0.575Y-5.325
X0.575Y-5.925
X0.575Y-6.075
X0.575Y-6.675
X0.575Y-6.825
X0.575Y-7.425
X0.675Y-0.175
X0.675Y-0.275
X0.675Y-0.475
X0.675Y-0.575
X0.675Y-0.925
X0.675Y-1.025
X0.675Y-1.225
X0.675Y-1.325
X0.675Y-1.675
X0.675Y-1.775
X0.675Y-1.975
X0.675Y-2.075
X0.675Y-2.425
X0.675Y-2.525
X0.675Y-2.725
X0.675Y-2.825
X0.675Y-3.175
X0.675Y-3.275
X0.675Y-3.475
X0.675Y-3.575
X0.675Y-3.925
X0.675Y-4.025
X0.675Y-4.225
X0.675Y-4.325
X0.675Y-4.675
X0.675Y-4.775
X0.675Y-4.975
X0.675Y-5.075
X0.675Y-5.425
X0.675Y-5.525
X0.675Y-5.725
X0.675Y-5.825
X0.675Y-6.175
X0.675Y-6.275
X0.675Y-6.475
X0.675Y-6.575
X0.675Y-6.925
X0.675Y-7.025
X0.675Y-7.225
X0.675Y-7.325
X0.825Y-0.175
X0.825Y-0.275
X0.825Y-0.475
X0.825Y-0.575
X0.825Y-0.925
X0.825Y-1.025
X0.825Y-1.225
X0.825Y-1.325
X0.825Y-1.675
X0.825Y-1.775
X0.825Y-1.975
X0.825Y-2.075
X0.825Y-2.425
X0.825Y-2.525
X0.825Y-2.725
X0.825Y-2.825
X0.825Y-3.175
X0.825Y-3.275
X0.825Y-3.475
X0.825Y-3.575
X0.825Y-3.925
X0.825Y-4.025
X0.825Y-4.225
X0.825Y-4.325
X0.825Y-4.675
X0.825Y-4.775
X0.825Y-4.975
X0.825Y-5.075
X0.825Y-5.425
X0.825Y-5.525
X0.825Y-5.725
X0.825Y-5.825
X0.825Y-6.175
X0.825Y-6.275
X0.825Y-6.475
X0.825Y-6.575
X0.825Y-6.925
X0.825Y-7.025
X0.825Y-7.225
X0.825Y-7.325
X0.925Y-0.075
X0.925Y-0.675
X0.925Y-0.825
X0.925Y-1.425
X0.925Y-1.575
X0.925Y-2.175
X0.925Y-2.325
X0.925Y-2.925
X0.925Y-3.075
X0.925Y-3.675
X0.925Y-3.825
X0.925Y-4.425
X0.925Y-4.575
X0.925Y-5.175
X0.925Y-5.325
X0.925Y-5.925
X0.925Y-6.075
X0.925Y-6.675
X0.925Y-6.825
X0.925Y-7.425
X1.325Y-0.075
X1.325Y-0.675
X1.325Y-0.825
X1.325Y-1.425
X1.325Y-1.575
X1.325Y-2.175
X1.325Y-2.325
X1.325Y-2.925
X1.325Y-3.075
X1.325Y-3.675
X1.325Y-3.825
X1.325Y-4.425
X1.325Y-4.575
X1.325Y-5.175
X1.325Y-5.325
X1.325Y-5.925
X1.325Y-6.075
X1.325Y-6.675
X1.325Y-6.825
X1.325Y-7.425
X1.425Y-0.175
X1.425Y-0.275
X1.425Y-0.475
X1.425Y-0.575
X1.425Y-0.925
X1.425Y-1.025
X1.425Y-1.225
X1.425Y-1.325
X1.425Y-1.675
X1.425Y-1.775
X1.425Y-1.975
X1.425Y-2.075
X1.425Y-2.425
X1.425Y-2.525
X1.425Y-2.725
X1.425Y-2.825
X1.425Y-3.175
X1.425Y-3.275
X1.425Y-3.475
X1.425Y-3.575
X1.425Y-3.925
X1.425Y-4.025
X1.425Y-4.225
X1.425Y-4.325
X1.425Y-4.675
X1.425Y-4.775
X1.425Y-4.975
X1.425Y-5.075
X1.425Y-5.425
X1.425Y-5.525
X1.425Y-5.725
X1.425Y-5.825
X1.425Y-6.175
X1.425Y-6.275
X1.425Y-6.475
X1.425Y-6.575
X1.425Y-6.925
X1.425Y-7.025
X1.425Y-7.225
X1.425Y-7.325
X1.575Y-0.175
X1.575Y-0.275
X1.575Y-0.475
X1.575Y-0.575
X1.575Y-0.925
X1.575Y-1.025
X1.575Y-1.225
X1.575Y-1.325
X1.575Y-1.675
X1.575Y-1.775
X1.575Y-1.975
X1.575Y-2.075
X1.575Y-2.425
X1.575Y-2.525
X1.575Y-2.725
X1.575Y-2.825
X1.575Y-3.175
X1.575Y-3.275
X1.575Y-3.475
X1.575Y-3.575
X1.575Y-3.925
X1.575Y-4.025
X1.575Y-4.225
X1.575Y-4.325
X1.575Y-4.675
X1.575Y-4.775
X1.575Y-4.975
X1.575Y-5.075
X1.575Y-5.425
X1.575Y-5.525
X1.575Y-5.725
X1.575Y-5.825
X1.575Y-6.175
X1.575Y-6.275
X1.575Y-6.475
X1.575Y-6.575
X1.575Y-6.925
X1.575Y-7.025
X1.575Y-7.225
X1.575Y-7.325
X1.675Y-0.075
X1.675Y-0.675
X1.675Y-0.825
X1.675Y-1.425
X1.675Y-1.575
X1.675Y-2.175
X1.675Y-2.325
X1.675Y-2.925
X1.675Y-3.075
X1.675Y-3.675
X1.675Y-3.825
X1.675Y-4.425
X1.675Y-4.575
X1.675Y-5.175
X1.675Y-5.325
X1.675Y-5.925
X1.675Y-6.075
X1.675Y-6.675
X1.675Y-6.825
X1.675Y-7.425
X2.075Y-0.075
X2.075Y-0.675
X2.075Y-0.825
X2.075Y-1.425
X2.075Y-1.575
X2.075Y-2.175
X2.075Y-2.325
X2.075Y-2.925
X2.075Y-3.075
X2.075Y-3.675
X2.075Y-3.825
X2.075Y-4.425
X2.075Y-4.575
X2.075Y-5.175
X2.075Y-5.325
X2.075Y-5.925
X2.075Y-6.075
X2.075Y-6.675
X2.075Y-6.825
X2.075Y-7.425
X2.175Y-0.175
X2.175Y-0.275
X2.175Y-0.475
X2.175Y-0.575
X2.175Y-0.925
X2.175Y-1.025
X2.175Y-1.225
X2.175Y-1.325
X2.175Y-1.675
X2.175Y-1.775
X2.175Y-1.975
X2.175Y-2.075
X2.175Y-2.425
X2.175Y-2.525
X2.175Y-2.725
X2.175Y-2.825
X2.175Y-3.175
X2.175Y-3.275
X2.175Y-3.475
X2.175Y-3.575
X2.175Y-3.925
X2.175Y-4.025
X2.175Y-4.225
X2.175Y-4.325
X2.175Y-4.675
X2.175Y-4.775
X2.175Y-4.975
X2.175Y-5.075
X2.175Y-5.425
X2.175Y-5.525
X2.175Y-5.725
X2.175Y-5.825
X2.175Y-6.175
X2.175Y-6.275
X2.175Y-6.475
X2.175Y-6.575
X2.175Y-6.925
X2.175Y-7.025
X2.175Y-7.225
X2.175Y-7.325
X2.325Y-0.175
X2.325Y-0.275
X2.325Y-0.475
X2.325Y-0.575
X2.325Y-0.925
X2.325Y-1.025
X2.325Y-1.225
X2.325Y-1.325
X2.325Y-1.675
X2.325Y-1.775
X2.325Y-1.975
X2.325Y-2.075
X2.325Y-2.425
X2.325Y-2.525
X2.325Y-2.725
X2.325Y-2.825
X2.325Y-3.175
X2.325Y-3.275
X2.325Y-3.475
X2.325Y-3.575
X2.325Y-3.925
X2.325Y-4.025
X2.325Y-4.225
X2.325Y-4.325
X2.325Y-4.675
X2.325Y-4.775
X2.325Y-4.975
X2.325Y-5.075
X2.325Y-5.425
X2.325Y-5.525
X2.325Y-5.725
X2.325Y-5.825
X2.325Y-6.175
X2.325Y-6.275
X2.325Y-6.475
X2.325Y-6.575
X2.325Y-6.925
X2.325Y-7.025
X2.325Y-7.225
X2.325Y-7.325
X2.425Y-0.075
X2.425Y-0.675
X2.425Y-0.825
X2.425Y-1.425
X2.425Y-1.575
X2.425Y-2.175
X2.425Y-2.325
X2.425Y-2.925
X2.425Y-3.075
X2.425Y-3.675
X2.425Y-3.825
X2.425Y-4.425
X2.425Y-4.575
X2.425Y-5.175
X2.425Y-5.325
X2.425Y-5.925
X2.425Y-6.075
X2.425Y-6.675
X2.425Y-6.825
X2.425Y-7.425
X2.825Y-0.075
X2.825Y-0.675
X2.825Y-0.825
X2.825Y-1.425
X2.825Y-1.575
X2.825Y-2.175
X2.825Y-2.325
X2.825Y-2.925
X2.825Y-3.075
X2.825Y-3.675
X2.825Y-3.825
X2.825Y-4.425
X2.825Y-4.575
X2.825Y-5.175
X2.825Y-5.325
X2.825Y-5.925
X2.825Y-6.075
X2.825Y-6.675
X2.825Y-6.825
X2.825Y-7.425
X2.925Y-0.175
X2.925Y-0.275
X2.925Y-0.475
X2.925Y-0.575
X2.925Y-0.925
X2.925Y-1.025
X2.925Y-1.225
X2.925Y-1.325
X2.925Y-1.675
X2.925Y-1.775
X2.925Y-1.975
X2.925Y-2.075
X2.925Y-2.425
X2.925Y-2.525
X2.925Y-2.725
X2.925Y-2.825
X2.925Y-3.175
X2.925Y-3.275
X2.925Y-3.475
X2.925Y-3.575
X2.925Y-3.925
X2.925Y-4.025
X2.925Y-4.225
X2.925Y-4.325
X2.925Y-4.675
X2.925Y-4.775
X2.925Y-4.975
X2.925Y-5.075
X2.925Y-5.425
X2.925Y-5.525
X2.925Y-5.725
X2.925Y-5.825
X2.925Y-6.175
X2.925Y-6.275
X2.925Y-6.475
X2.925Y-6.575
X2.925Y-6.925
X2.925Y-7.025
X2.925Y-7.225
X2.925Y-7.325
X3.075Y-0.175
X3.075Y-0.275
X3.075Y-0.475
X3.075Y-0.575
X3.075Y-0.925
X3.075Y-1.025
X3.075Y-1.225
X3.075Y-1.325
X3.075Y-1.675
X3.075Y-1.775
X3.075Y-1.975
X3.075Y-2.075
X3.075Y-2.425
X3.075Y-2.525
X3.075Y-2.725
X3.075Y-2.825
X3.075Y-3.175
X3.075Y-3.275
X3.075Y-3.475
X3.075Y-3.575
X3.075Y-3.925
X3.075Y-4.025
X3.075Y-4.225
X3.075Y-4.325
X3.075Y-4.675
X3.075Y-4.775
X3.075Y-4.975
X3.075Y-5.075
X3.075Y-5.425
X3.075Y-5.525
X3.075Y-5.725
X3.075Y-5.825
X3.075Y-6.175
X3.075Y-6.275
X3.075Y-6.475
X3.075Y-6.575
X3.075Y-6.925
X3.075Y-7.025
X3.075Y-7.225
X3.075Y-7.325
X3.175Y-0.075
X3.175Y-0.675
X3.175Y-0.825
X3.175Y-1.425
X3.175Y-1.575
X3.175Y-2.175
X3.175Y-2.325
X3.175Y-2.925
X3.175Y-3.075
X3.175Y-3.675
X3.175Y-3.825
X3.175Y-4.425
X3.175Y-4.575
X3.175Y-5.175
X3.175Y-5.325
X3.175Y-5.925
X3.175Y-6.075
X3.175Y-6.675
X3.175Y-6.825
X3.175Y-7.425
X3.575Y-0.075
X3.575Y-0.675
X3.575Y-0.825
X3.575Y-1.425
X3.575Y-1.575
X3.575Y-2.175
X3.575Y-2.325
X3.575Y-2.925
X3.575Y-3.075
X3.575Y-3.675
X3.575Y-3.825
X3.575Y-4.425
X3.575Y-4.575
X3.575Y-5.175
X3.575Y-5.325
X3.575Y-5.925
X3.575Y-6.075
X3.575Y-6.675
X3.575Y-6.825
X3.575Y-7.425
X3.675Y-0.175
X3.675Y-0.275
X3.675Y-0.475
X3.675Y-0.575
X3.675Y-0.925
X3.675Y-1.025
X3.675Y-1.225
X3.675Y-1.325
X3.675Y-1.675
X3.675Y-1.775
X3.675Y-1.975
X3.675Y-2.075
X3.675Y-2.425
X3.675Y-2.525
X3.675Y-2.725
X3.675Y-2.825
X3.675Y-3.175
X3.675Y-3.275
X3.675Y-3.475
X3.675Y-3.575
X3.675Y-3.925
X3.675Y-4.025
X3.675Y-4.225
X3.675Y-4.325
X3.675Y-4.675
X3.675Y-4.775
X3.675Y-4.975
X3.675Y-5.075
X3.675Y-5.425
X3.675Y-5.525
X3.675Y-5.725
X3.675Y-5.825
X3.675Y-6.175
X3.675Y-6.275
X3.675Y-6.475
X3.675Y-6.575
X3.675Y-6.925
X3.675Y-7.025
X3.675Y-7.225
X3.675Y-7.325
T0
M30
