M48
; DRILL file {KiCad (7.0.0)} date Mon Mar 27 06:13:08 2023
; FORMAT={-:-/ absolute / metric / decimal}
; #@! TF.CreationDate,2023-03-27T06:13:08-05:00
; #@! TF.GenerationSoftware,Kicad,Pcbnew,(7.0.0)
; #@! TF.FileFunction,NonPlated,1,2,NPTH
FMAT,2
METRIC
; #@! TA.AperFunction,NonPlated,NPTH,ComponentDrill
T1C0.500
; #@! TA.AperFunction,NonPlated,NPTH,ComponentDrill
T2C1.700
; #@! TA.AperFunction,NonPlated,NPTH,ComponentDrill
T3C2.200
%
G90
G05
T1
X90.975Y-90.475
X91.0Y-109.525
X91.725Y-90.475
X91.75Y-109.525
X92.475Y-90.475
X92.5Y-109.525
X93.225Y-90.475
X93.25Y-109.525
X93.975Y-90.475
X94.0Y-109.525
X94.725Y-90.475
X94.75Y-109.525
X95.475Y-90.475
X95.5Y-109.525
X96.225Y-90.475
X96.25Y-109.525
X96.975Y-90.475
X97.0Y-109.525
X97.725Y-90.475
X97.75Y-109.525
X98.475Y-90.475
X98.5Y-109.525
X99.225Y-90.475
X99.25Y-109.525
X99.975Y-90.475
X100.0Y-109.525
X100.725Y-90.475
X100.75Y-109.525
X101.475Y-90.475
X101.5Y-109.525
X102.225Y-90.475
X102.25Y-109.525
X102.975Y-90.475
X103.0Y-109.525
X103.725Y-90.475
X103.75Y-109.525
X104.475Y-90.475
X104.5Y-109.525
X105.225Y-90.475
X105.25Y-109.525
X105.975Y-90.475
X106.0Y-109.525
X106.725Y-90.475
X106.75Y-109.525
X107.475Y-90.475
X107.5Y-109.525
X108.225Y-90.475
X108.25Y-109.525
X108.975Y-90.475
X109.0Y-109.525
T2
X94.92Y-100.794
X105.08Y-100.794
T3
X93.904Y-88.824
X93.904Y-111.176
X106.096Y-88.824
X106.096Y-111.176
T0
M30
