G04 #@! TF.GenerationSoftware,KiCad,Pcbnew,(7.0.0)*
G04 #@! TF.CreationDate,2023-03-27T06:12:53-05:00*
G04 #@! TF.ProjectId,he-sensor-breakout,68652d73-656e-4736-9f72-2d627265616b,rev?*
G04 #@! TF.SameCoordinates,Original*
G04 #@! TF.FileFunction,Copper,L1,Top*
G04 #@! TF.FilePolarity,Positive*
%FSLAX46Y46*%
G04 Gerber Fmt 4.6, Leading zero omitted, Abs format (unit mm)*
G04 Created by KiCad (PCBNEW (7.0.0)) date 2023-03-27 06:12:53*
%MOMM*%
%LPD*%
G01*
G04 APERTURE LIST*
G04 #@! TA.AperFunction,ComponentPad*
%ADD10O,1.700000X1.700000*%
G04 #@! TD*
G04 #@! TA.AperFunction,ComponentPad*
%ADD11R,1.700000X1.700000*%
G04 #@! TD*
G04 APERTURE END LIST*
D10*
X97459999Y-107619999D03*
X99999999Y-107619999D03*
D11*
X102539999Y-107619999D03*
X92379999Y-92379999D03*
X107619999Y-92379999D03*
D10*
X97459999Y-92379999D03*
X99999999Y-92379999D03*
D11*
X102539999Y-92379999D03*
G04 #@! TA.AperFunction,Conductor*
G36*
X96586061Y-91125547D02*
G01*
X96631103Y-91168290D01*
X96649775Y-91227511D01*
X96637395Y-91288358D01*
X96597068Y-91335575D01*
X96593034Y-91338399D01*
X96593029Y-91338402D01*
X96588599Y-91341505D01*
X96584775Y-91345328D01*
X96584769Y-91345334D01*
X96425334Y-91504769D01*
X96425328Y-91504775D01*
X96421505Y-91508599D01*
X96418402Y-91513029D01*
X96418399Y-91513034D01*
X96289073Y-91697731D01*
X96289068Y-91697738D01*
X96285965Y-91702171D01*
X96283677Y-91707077D01*
X96283675Y-91707081D01*
X96188386Y-91911427D01*
X96188383Y-91911432D01*
X96186097Y-91916337D01*
X96184698Y-91921557D01*
X96184694Y-91921569D01*
X96126337Y-92139365D01*
X96126335Y-92139371D01*
X96124937Y-92144592D01*
X96104341Y-92380000D01*
X96124937Y-92615408D01*
X96126336Y-92620630D01*
X96126337Y-92620634D01*
X96184694Y-92838430D01*
X96184697Y-92838438D01*
X96186097Y-92843663D01*
X96188385Y-92848570D01*
X96188386Y-92848572D01*
X96283678Y-93052927D01*
X96283681Y-93052933D01*
X96285965Y-93057830D01*
X96289064Y-93062257D01*
X96289066Y-93062259D01*
X96418399Y-93246966D01*
X96418402Y-93246970D01*
X96421505Y-93251401D01*
X96588599Y-93418495D01*
X96593031Y-93421598D01*
X96593033Y-93421600D01*
X96737260Y-93522589D01*
X96782170Y-93554035D01*
X96996337Y-93653903D01*
X97224592Y-93715063D01*
X97460000Y-93735659D01*
X97695408Y-93715063D01*
X97923663Y-93653903D01*
X98137830Y-93554035D01*
X98331401Y-93418495D01*
X98498495Y-93251401D01*
X98628424Y-93065842D01*
X98672743Y-93026976D01*
X98730000Y-93012965D01*
X98787257Y-93026976D01*
X98831575Y-93065842D01*
X98958395Y-93246961D01*
X98958401Y-93246968D01*
X98961505Y-93251401D01*
X99128599Y-93418495D01*
X99133031Y-93421598D01*
X99133033Y-93421600D01*
X99277260Y-93522589D01*
X99322170Y-93554035D01*
X99536337Y-93653903D01*
X99764592Y-93715063D01*
X100000000Y-93735659D01*
X100235408Y-93715063D01*
X100463663Y-93653903D01*
X100677830Y-93554035D01*
X100871401Y-93418495D01*
X100993717Y-93296178D01*
X101046460Y-93264885D01*
X101107753Y-93262696D01*
X101162597Y-93290149D01*
X101197577Y-93340528D01*
X101243548Y-93463779D01*
X101251962Y-93479189D01*
X101327498Y-93580092D01*
X101339907Y-93592501D01*
X101440810Y-93668037D01*
X101456222Y-93676452D01*
X101575358Y-93720888D01*
X101590332Y-93724426D01*
X101638885Y-93729646D01*
X101645482Y-93730000D01*
X102273674Y-93730000D01*
X102286549Y-93726549D01*
X102290000Y-93713674D01*
X102790000Y-93713674D01*
X102793450Y-93726549D01*
X102806326Y-93730000D01*
X103434518Y-93730000D01*
X103441114Y-93729646D01*
X103489667Y-93724426D01*
X103504641Y-93720888D01*
X103623777Y-93676452D01*
X103639189Y-93668037D01*
X103740092Y-93592501D01*
X103752501Y-93580092D01*
X103828037Y-93479189D01*
X103836452Y-93463777D01*
X103880888Y-93344641D01*
X103884426Y-93329667D01*
X103889646Y-93281114D01*
X103890000Y-93274518D01*
X103890000Y-92646326D01*
X103886549Y-92633450D01*
X103873674Y-92630000D01*
X102806326Y-92630000D01*
X102793450Y-92633450D01*
X102790000Y-92646326D01*
X102790000Y-93713674D01*
X102290000Y-93713674D01*
X102290000Y-92254000D01*
X102306613Y-92192000D01*
X102352000Y-92146613D01*
X102414000Y-92130000D01*
X103873674Y-92130000D01*
X103886549Y-92126549D01*
X103890000Y-92113674D01*
X103890000Y-91485482D01*
X103889646Y-91478885D01*
X103884426Y-91430332D01*
X103880888Y-91415358D01*
X103836452Y-91296219D01*
X103834927Y-91293427D01*
X103833993Y-91289627D01*
X103833353Y-91287911D01*
X103833553Y-91287836D01*
X103819779Y-91231787D01*
X103837117Y-91170726D01*
X103882399Y-91126246D01*
X103943759Y-91110000D01*
X106215666Y-91110000D01*
X106277026Y-91126246D01*
X106322308Y-91170727D01*
X106339646Y-91231788D01*
X106325937Y-91287569D01*
X106326204Y-91287669D01*
X106325351Y-91289954D01*
X106325349Y-91289959D01*
X106323105Y-91295976D01*
X106323103Y-91295981D01*
X106278620Y-91415247D01*
X106278619Y-91415250D01*
X106275909Y-91422517D01*
X106275079Y-91430227D01*
X106275079Y-91430232D01*
X106269855Y-91478819D01*
X106269854Y-91478831D01*
X106269500Y-91482127D01*
X106269500Y-91485448D01*
X106269500Y-91485449D01*
X106269500Y-93274560D01*
X106269500Y-93274578D01*
X106269501Y-93277872D01*
X106269853Y-93281150D01*
X106269854Y-93281161D01*
X106275079Y-93329768D01*
X106275080Y-93329773D01*
X106275909Y-93337483D01*
X106278619Y-93344749D01*
X106278620Y-93344753D01*
X106304695Y-93414663D01*
X106326204Y-93472331D01*
X106331518Y-93479430D01*
X106331519Y-93479431D01*
X106387367Y-93554035D01*
X106412454Y-93587546D01*
X106527669Y-93673796D01*
X106662517Y-93724091D01*
X106722127Y-93730500D01*
X108517872Y-93730499D01*
X108577483Y-93724091D01*
X108712331Y-93673796D01*
X108712430Y-93674062D01*
X108768212Y-93660354D01*
X108829273Y-93677692D01*
X108873754Y-93722974D01*
X108890000Y-93784334D01*
X108890000Y-108766000D01*
X108873387Y-108828000D01*
X108828000Y-108873387D01*
X108766000Y-108890000D01*
X103944334Y-108890000D01*
X103882974Y-108873754D01*
X103837692Y-108829273D01*
X103820354Y-108768212D01*
X103834062Y-108712430D01*
X103833796Y-108712331D01*
X103834053Y-108711642D01*
X103884091Y-108577483D01*
X103890500Y-108517873D01*
X103890499Y-106722128D01*
X103884091Y-106662517D01*
X103833796Y-106527669D01*
X103747546Y-106412454D01*
X103657030Y-106344694D01*
X103639431Y-106331519D01*
X103639430Y-106331518D01*
X103632331Y-106326204D01*
X103525442Y-106286337D01*
X103504752Y-106278620D01*
X103504750Y-106278619D01*
X103497483Y-106275909D01*
X103489770Y-106275079D01*
X103489767Y-106275079D01*
X103441180Y-106269855D01*
X103441169Y-106269854D01*
X103437873Y-106269500D01*
X103434550Y-106269500D01*
X101645439Y-106269500D01*
X101645420Y-106269500D01*
X101642128Y-106269501D01*
X101638850Y-106269853D01*
X101638838Y-106269854D01*
X101590231Y-106275079D01*
X101590225Y-106275080D01*
X101582517Y-106275909D01*
X101575252Y-106278618D01*
X101575246Y-106278620D01*
X101455980Y-106323104D01*
X101455978Y-106323104D01*
X101447669Y-106326204D01*
X101440572Y-106331516D01*
X101440568Y-106331519D01*
X101339550Y-106407141D01*
X101339546Y-106407144D01*
X101332454Y-106412454D01*
X101327144Y-106419546D01*
X101327141Y-106419550D01*
X101251519Y-106520568D01*
X101251516Y-106520572D01*
X101246204Y-106527669D01*
X101243104Y-106535978D01*
X101243105Y-106535978D01*
X101197189Y-106659083D01*
X101162210Y-106709462D01*
X101107365Y-106736915D01*
X101046072Y-106734726D01*
X100993326Y-106703430D01*
X100875232Y-106585336D01*
X100875230Y-106585334D01*
X100871401Y-106581505D01*
X100866970Y-106578402D01*
X100866966Y-106578399D01*
X100682259Y-106449066D01*
X100682257Y-106449064D01*
X100677830Y-106445965D01*
X100672933Y-106443681D01*
X100672927Y-106443678D01*
X100468572Y-106348386D01*
X100468570Y-106348385D01*
X100463663Y-106346097D01*
X100458438Y-106344697D01*
X100458430Y-106344694D01*
X100240634Y-106286337D01*
X100240630Y-106286336D01*
X100235408Y-106284937D01*
X100230020Y-106284465D01*
X100230017Y-106284465D01*
X100005395Y-106264813D01*
X100000000Y-106264341D01*
X99994605Y-106264813D01*
X99769982Y-106284465D01*
X99769977Y-106284465D01*
X99764592Y-106284937D01*
X99759371Y-106286335D01*
X99759365Y-106286337D01*
X99541569Y-106344694D01*
X99541557Y-106344698D01*
X99536337Y-106346097D01*
X99531432Y-106348383D01*
X99531427Y-106348386D01*
X99327081Y-106443675D01*
X99327077Y-106443677D01*
X99322171Y-106445965D01*
X99317738Y-106449068D01*
X99317731Y-106449073D01*
X99133034Y-106578399D01*
X99133029Y-106578402D01*
X99128599Y-106581505D01*
X99124775Y-106585328D01*
X99124769Y-106585334D01*
X98965334Y-106744769D01*
X98965328Y-106744775D01*
X98961505Y-106748599D01*
X98958402Y-106753029D01*
X98958399Y-106753034D01*
X98831575Y-106934159D01*
X98787257Y-106973025D01*
X98730000Y-106987036D01*
X98672743Y-106973025D01*
X98628425Y-106934159D01*
X98501600Y-106753034D01*
X98498495Y-106748599D01*
X98331401Y-106581505D01*
X98326970Y-106578402D01*
X98326966Y-106578399D01*
X98142259Y-106449066D01*
X98142257Y-106449064D01*
X98137830Y-106445965D01*
X98132933Y-106443681D01*
X98132927Y-106443678D01*
X97928572Y-106348386D01*
X97928570Y-106348385D01*
X97923663Y-106346097D01*
X97918438Y-106344697D01*
X97918430Y-106344694D01*
X97700634Y-106286337D01*
X97700630Y-106286336D01*
X97695408Y-106284937D01*
X97690020Y-106284465D01*
X97690017Y-106284465D01*
X97465395Y-106264813D01*
X97460000Y-106264341D01*
X97454605Y-106264813D01*
X97229982Y-106284465D01*
X97229977Y-106284465D01*
X97224592Y-106284937D01*
X97219371Y-106286335D01*
X97219365Y-106286337D01*
X97001569Y-106344694D01*
X97001557Y-106344698D01*
X96996337Y-106346097D01*
X96991432Y-106348383D01*
X96991427Y-106348386D01*
X96787081Y-106443675D01*
X96787077Y-106443677D01*
X96782171Y-106445965D01*
X96777738Y-106449068D01*
X96777731Y-106449073D01*
X96593034Y-106578399D01*
X96593029Y-106578402D01*
X96588599Y-106581505D01*
X96584775Y-106585328D01*
X96584769Y-106585334D01*
X96425334Y-106744769D01*
X96425328Y-106744775D01*
X96421505Y-106748599D01*
X96418402Y-106753029D01*
X96418399Y-106753034D01*
X96289073Y-106937731D01*
X96289068Y-106937738D01*
X96285965Y-106942171D01*
X96283677Y-106947077D01*
X96283675Y-106947081D01*
X96188386Y-107151427D01*
X96188383Y-107151432D01*
X96186097Y-107156337D01*
X96184698Y-107161557D01*
X96184694Y-107161569D01*
X96126337Y-107379365D01*
X96126335Y-107379371D01*
X96124937Y-107384592D01*
X96104341Y-107620000D01*
X96124937Y-107855408D01*
X96126336Y-107860630D01*
X96126337Y-107860634D01*
X96184694Y-108078430D01*
X96184697Y-108078438D01*
X96186097Y-108083663D01*
X96188385Y-108088570D01*
X96188386Y-108088572D01*
X96283678Y-108292927D01*
X96283681Y-108292933D01*
X96285965Y-108297830D01*
X96289064Y-108302257D01*
X96289066Y-108302259D01*
X96418399Y-108486966D01*
X96418402Y-108486970D01*
X96421505Y-108491401D01*
X96588599Y-108658495D01*
X96593032Y-108661599D01*
X96593038Y-108661604D01*
X96597067Y-108664425D01*
X96637394Y-108711642D01*
X96649774Y-108772489D01*
X96631102Y-108831710D01*
X96586060Y-108874453D01*
X96525944Y-108890000D01*
X91234000Y-108890000D01*
X91172000Y-108873387D01*
X91126613Y-108828000D01*
X91110000Y-108766000D01*
X91110000Y-100741148D01*
X93815746Y-100741148D01*
X93816026Y-100747032D01*
X93816026Y-100747039D01*
X93820757Y-100846352D01*
X93825746Y-100951080D01*
X93827135Y-100956808D01*
X93827137Y-100956817D01*
X93849389Y-101048538D01*
X93875296Y-101155326D01*
X93962604Y-101346503D01*
X93966031Y-101351316D01*
X93966032Y-101351317D01*
X94025626Y-101435006D01*
X94084514Y-101517702D01*
X94236622Y-101662736D01*
X94413428Y-101776363D01*
X94418911Y-101778558D01*
X94418913Y-101778559D01*
X94603060Y-101852280D01*
X94608543Y-101854475D01*
X94814915Y-101894250D01*
X94969471Y-101894250D01*
X94972425Y-101894250D01*
X95129218Y-101879278D01*
X95330875Y-101820066D01*
X95517682Y-101723761D01*
X95682886Y-101593842D01*
X95820519Y-101435006D01*
X95925604Y-101252994D01*
X95994344Y-101054383D01*
X96024254Y-100846352D01*
X96019243Y-100741148D01*
X103975746Y-100741148D01*
X103976026Y-100747032D01*
X103976026Y-100747039D01*
X103980757Y-100846352D01*
X103985746Y-100951080D01*
X103987135Y-100956808D01*
X103987137Y-100956817D01*
X104009389Y-101048538D01*
X104035296Y-101155326D01*
X104122604Y-101346503D01*
X104126031Y-101351316D01*
X104126032Y-101351317D01*
X104185626Y-101435006D01*
X104244514Y-101517702D01*
X104396622Y-101662736D01*
X104573428Y-101776363D01*
X104578911Y-101778558D01*
X104578913Y-101778559D01*
X104763060Y-101852280D01*
X104768543Y-101854475D01*
X104974915Y-101894250D01*
X105129471Y-101894250D01*
X105132425Y-101894250D01*
X105289218Y-101879278D01*
X105490875Y-101820066D01*
X105677682Y-101723761D01*
X105842886Y-101593842D01*
X105980519Y-101435006D01*
X106085604Y-101252994D01*
X106154344Y-101054383D01*
X106184254Y-100846352D01*
X106174254Y-100636420D01*
X106124704Y-100432174D01*
X106037396Y-100240997D01*
X105915486Y-100069798D01*
X105763378Y-99924764D01*
X105664210Y-99861032D01*
X105591544Y-99814332D01*
X105591541Y-99814330D01*
X105586572Y-99811137D01*
X105581092Y-99808943D01*
X105581086Y-99808940D01*
X105396939Y-99735219D01*
X105396932Y-99735217D01*
X105391457Y-99733025D01*
X105385662Y-99731908D01*
X105385655Y-99731906D01*
X105190882Y-99694367D01*
X105190879Y-99694366D01*
X105185085Y-99693250D01*
X105027575Y-99693250D01*
X105024646Y-99693529D01*
X105024639Y-99693530D01*
X104876662Y-99707660D01*
X104876656Y-99707661D01*
X104870782Y-99708222D01*
X104865112Y-99709886D01*
X104865111Y-99709887D01*
X104674787Y-99765771D01*
X104674782Y-99765772D01*
X104669125Y-99767434D01*
X104663884Y-99770135D01*
X104663881Y-99770137D01*
X104487568Y-99861032D01*
X104487564Y-99861034D01*
X104482318Y-99863739D01*
X104477676Y-99867388D01*
X104477672Y-99867392D01*
X104321759Y-99990004D01*
X104321752Y-99990010D01*
X104317114Y-99993658D01*
X104313250Y-99998117D01*
X104313245Y-99998122D01*
X104183347Y-100148032D01*
X104179481Y-100152494D01*
X104176530Y-100157604D01*
X104176528Y-100157608D01*
X104077352Y-100329385D01*
X104077349Y-100329390D01*
X104074396Y-100334506D01*
X104072465Y-100340085D01*
X104072461Y-100340094D01*
X104007587Y-100527535D01*
X104007584Y-100527544D01*
X104005656Y-100533117D01*
X104004816Y-100538953D01*
X104004815Y-100538961D01*
X103976585Y-100735308D01*
X103976584Y-100735314D01*
X103975746Y-100741148D01*
X96019243Y-100741148D01*
X96014254Y-100636420D01*
X95964704Y-100432174D01*
X95877396Y-100240997D01*
X95755486Y-100069798D01*
X95603378Y-99924764D01*
X95504210Y-99861032D01*
X95431544Y-99814332D01*
X95431541Y-99814330D01*
X95426572Y-99811137D01*
X95421092Y-99808943D01*
X95421086Y-99808940D01*
X95236939Y-99735219D01*
X95236932Y-99735217D01*
X95231457Y-99733025D01*
X95225662Y-99731908D01*
X95225655Y-99731906D01*
X95030882Y-99694367D01*
X95030879Y-99694366D01*
X95025085Y-99693250D01*
X94867575Y-99693250D01*
X94864646Y-99693529D01*
X94864639Y-99693530D01*
X94716662Y-99707660D01*
X94716656Y-99707661D01*
X94710782Y-99708222D01*
X94705112Y-99709886D01*
X94705111Y-99709887D01*
X94514787Y-99765771D01*
X94514782Y-99765772D01*
X94509125Y-99767434D01*
X94503884Y-99770135D01*
X94503881Y-99770137D01*
X94327568Y-99861032D01*
X94327564Y-99861034D01*
X94322318Y-99863739D01*
X94317676Y-99867388D01*
X94317672Y-99867392D01*
X94161759Y-99990004D01*
X94161752Y-99990010D01*
X94157114Y-99993658D01*
X94153250Y-99998117D01*
X94153245Y-99998122D01*
X94023347Y-100148032D01*
X94019481Y-100152494D01*
X94016530Y-100157604D01*
X94016528Y-100157608D01*
X93917352Y-100329385D01*
X93917349Y-100329390D01*
X93914396Y-100334506D01*
X93912465Y-100340085D01*
X93912461Y-100340094D01*
X93847587Y-100527535D01*
X93847584Y-100527544D01*
X93845656Y-100533117D01*
X93844816Y-100538953D01*
X93844815Y-100538961D01*
X93816585Y-100735308D01*
X93816584Y-100735314D01*
X93815746Y-100741148D01*
X91110000Y-100741148D01*
X91110000Y-93784334D01*
X91126246Y-93722974D01*
X91170727Y-93677692D01*
X91231788Y-93660354D01*
X91287569Y-93674062D01*
X91287669Y-93673796D01*
X91422517Y-93724091D01*
X91482127Y-93730500D01*
X93277872Y-93730499D01*
X93337483Y-93724091D01*
X93472331Y-93673796D01*
X93587546Y-93587546D01*
X93673796Y-93472331D01*
X93724091Y-93337483D01*
X93730500Y-93277873D01*
X93730499Y-91482128D01*
X93724091Y-91422517D01*
X93673796Y-91287669D01*
X93674062Y-91287569D01*
X93660354Y-91231788D01*
X93677692Y-91170727D01*
X93722974Y-91126246D01*
X93784334Y-91110000D01*
X96525945Y-91110000D01*
X96586061Y-91125547D01*
G37*
G04 #@! TD.AperFunction*
M02*
