G04 #@! TF.GenerationSoftware,KiCad,Pcbnew,(7.0.0)*
G04 #@! TF.CreationDate,2023-03-27T06:12:53-05:00*
G04 #@! TF.ProjectId,he-sensor-breakout,68652d73-656e-4736-9f72-2d627265616b,rev?*
G04 #@! TF.SameCoordinates,Original*
G04 #@! TF.FileFunction,Soldermask,Top*
G04 #@! TF.FilePolarity,Negative*
%FSLAX46Y46*%
G04 Gerber Fmt 4.6, Leading zero omitted, Abs format (unit mm)*
G04 Created by KiCad (PCBNEW (7.0.0)) date 2023-03-27 06:12:53*
%MOMM*%
%LPD*%
G01*
G04 APERTURE LIST*
%ADD10C,1.700000*%
%ADD11O,1.700000X1.700000*%
%ADD12R,1.700000X1.700000*%
%ADD13C,2.200000*%
%ADD14C,0.500000*%
G04 APERTURE END LIST*
D10*
X94920000Y-100793750D03*
X105080000Y-100793750D03*
D11*
X97459999Y-107619999D03*
X99999999Y-107619999D03*
D12*
X102539999Y-107619999D03*
X92379999Y-92379999D03*
X107619999Y-92379999D03*
D13*
X93904000Y-88824000D03*
X93904000Y-111176000D03*
D14*
X109000000Y-109525000D03*
X108250000Y-109525000D03*
X107500000Y-109525000D03*
X106750000Y-109525000D03*
X106000000Y-109525000D03*
X105250000Y-109525000D03*
X104500000Y-109525000D03*
X103750000Y-109525000D03*
X103000000Y-109525000D03*
X102250000Y-109525000D03*
X101500000Y-109525000D03*
X100750000Y-109525000D03*
X100000000Y-109525000D03*
X99250000Y-109525000D03*
X98500000Y-109525000D03*
X97750000Y-109525000D03*
X97000000Y-109525000D03*
X96250000Y-109525000D03*
X95500000Y-109525000D03*
X94750000Y-109525000D03*
X94000000Y-109525000D03*
X93250000Y-109525000D03*
X92500000Y-109525000D03*
X91750000Y-109525000D03*
X91000000Y-109525000D03*
D11*
X97459999Y-92379999D03*
X99999999Y-92379999D03*
D12*
X102539999Y-92379999D03*
D14*
X108974600Y-90475000D03*
X108224600Y-90475000D03*
X107474600Y-90475000D03*
X106724600Y-90475000D03*
X105974600Y-90475000D03*
X105224600Y-90475000D03*
X104474600Y-90475000D03*
X103724600Y-90475000D03*
X102974600Y-90475000D03*
X102224600Y-90475000D03*
X101474600Y-90475000D03*
X100724600Y-90475000D03*
X99974600Y-90475000D03*
X99224600Y-90475000D03*
X98474600Y-90475000D03*
X97724600Y-90475000D03*
X96974600Y-90475000D03*
X96224600Y-90475000D03*
X95474600Y-90475000D03*
X94724600Y-90475000D03*
X93974600Y-90475000D03*
X93224600Y-90475000D03*
X92474600Y-90475000D03*
X91724600Y-90475000D03*
X90974600Y-90475000D03*
D13*
X106096000Y-111176000D03*
X106096000Y-88824000D03*
M02*
