%TF.GenerationSoftware,KiCad,Pcbnew,(7.0.0)*%
%TF.CreationDate,2023-03-27T06:13:09-05:00*%
%TF.ProjectId,he-sensor-breakout,68652d73-656e-4736-9f72-2d627265616b,rev?*%
%TF.SameCoordinates,Original*%
%TF.FileFunction,Drillmap*%
%TF.FilePolarity,Positive*%
%FSLAX45Y45*%
G04 Gerber Fmt 4.5, Leading zero omitted, Abs format (unit mm)*
G04 Created by KiCad (PCBNEW (7.0.0)) date 2023-03-27 06:13:09*
%MOMM*%
%LPD*%
G01*
G04 APERTURE LIST*
%ADD10C,0.150000*%
%ADD11C,0.200000*%
%ADD12C,0.050000*%
%ADD13C,0.170000*%
%ADD14C,0.220000*%
G04 APERTURE END LIST*
D10*
X9047500Y-8547500D02*
X10952500Y-8547500D01*
X10952500Y-8547500D02*
X10952500Y-11452500D01*
X10952500Y-11452500D02*
X9047500Y-11452500D01*
X9047500Y-11452500D02*
X9047500Y-8547500D01*
D11*
D12*
X9072460Y-9022500D02*
X9122460Y-9072500D01*
X9122460Y-9022500D02*
X9072460Y-9072500D01*
X9075000Y-10927500D02*
X9125000Y-10977500D01*
X9125000Y-10927500D02*
X9075000Y-10977500D01*
X9147460Y-9022500D02*
X9197460Y-9072500D01*
X9197460Y-9022500D02*
X9147460Y-9072500D01*
X9150000Y-10927500D02*
X9200000Y-10977500D01*
X9200000Y-10927500D02*
X9150000Y-10977500D01*
X9222460Y-9022500D02*
X9272460Y-9072500D01*
X9272460Y-9022500D02*
X9222460Y-9072500D01*
X9225000Y-10927500D02*
X9275000Y-10977500D01*
X9275000Y-10927500D02*
X9225000Y-10977500D01*
X9297460Y-9022500D02*
X9347460Y-9072500D01*
X9347460Y-9022500D02*
X9297460Y-9072500D01*
X9300000Y-10927500D02*
X9350000Y-10977500D01*
X9350000Y-10927500D02*
X9300000Y-10977500D01*
X9372460Y-9022500D02*
X9422460Y-9072500D01*
X9422460Y-9022500D02*
X9372460Y-9072500D01*
X9375000Y-10927500D02*
X9425000Y-10977500D01*
X9425000Y-10927500D02*
X9375000Y-10977500D01*
X9447460Y-9022500D02*
X9497460Y-9072500D01*
X9497460Y-9022500D02*
X9447460Y-9072500D01*
X9450000Y-10927500D02*
X9500000Y-10977500D01*
X9500000Y-10927500D02*
X9450000Y-10977500D01*
X9522460Y-9022500D02*
X9572460Y-9072500D01*
X9572460Y-9022500D02*
X9522460Y-9072500D01*
X9525000Y-10927500D02*
X9575000Y-10977500D01*
X9575000Y-10927500D02*
X9525000Y-10977500D01*
X9597460Y-9022500D02*
X9647460Y-9072500D01*
X9647460Y-9022500D02*
X9597460Y-9072500D01*
X9600000Y-10927500D02*
X9650000Y-10977500D01*
X9650000Y-10927500D02*
X9600000Y-10977500D01*
X9672460Y-9022500D02*
X9722460Y-9072500D01*
X9722460Y-9022500D02*
X9672460Y-9072500D01*
X9675000Y-10927500D02*
X9725000Y-10977500D01*
X9725000Y-10927500D02*
X9675000Y-10977500D01*
X9747460Y-9022500D02*
X9797460Y-9072500D01*
X9797460Y-9022500D02*
X9747460Y-9072500D01*
X9750000Y-10927500D02*
X9800000Y-10977500D01*
X9800000Y-10927500D02*
X9750000Y-10977500D01*
X9822460Y-9022500D02*
X9872460Y-9072500D01*
X9872460Y-9022500D02*
X9822460Y-9072500D01*
X9825000Y-10927500D02*
X9875000Y-10977500D01*
X9875000Y-10927500D02*
X9825000Y-10977500D01*
X9897460Y-9022500D02*
X9947460Y-9072500D01*
X9947460Y-9022500D02*
X9897460Y-9072500D01*
X9900000Y-10927500D02*
X9950000Y-10977500D01*
X9950000Y-10927500D02*
X9900000Y-10977500D01*
X9972460Y-9022500D02*
X10022460Y-9072500D01*
X10022460Y-9022500D02*
X9972460Y-9072500D01*
X9975000Y-10927500D02*
X10025000Y-10977500D01*
X10025000Y-10927500D02*
X9975000Y-10977500D01*
X10047460Y-9022500D02*
X10097460Y-9072500D01*
X10097460Y-9022500D02*
X10047460Y-9072500D01*
X10050000Y-10927500D02*
X10100000Y-10977500D01*
X10100000Y-10927500D02*
X10050000Y-10977500D01*
X10122460Y-9022500D02*
X10172460Y-9072500D01*
X10172460Y-9022500D02*
X10122460Y-9072500D01*
X10125000Y-10927500D02*
X10175000Y-10977500D01*
X10175000Y-10927500D02*
X10125000Y-10977500D01*
X10197460Y-9022500D02*
X10247460Y-9072500D01*
X10247460Y-9022500D02*
X10197460Y-9072500D01*
X10200000Y-10927500D02*
X10250000Y-10977500D01*
X10250000Y-10927500D02*
X10200000Y-10977500D01*
X10272460Y-9022500D02*
X10322460Y-9072500D01*
X10322460Y-9022500D02*
X10272460Y-9072500D01*
X10275000Y-10927500D02*
X10325000Y-10977500D01*
X10325000Y-10927500D02*
X10275000Y-10977500D01*
X10347460Y-9022500D02*
X10397460Y-9072500D01*
X10397460Y-9022500D02*
X10347460Y-9072500D01*
X10350000Y-10927500D02*
X10400000Y-10977500D01*
X10400000Y-10927500D02*
X10350000Y-10977500D01*
X10422460Y-9022500D02*
X10472460Y-9072500D01*
X10472460Y-9022500D02*
X10422460Y-9072500D01*
X10425000Y-10927500D02*
X10475000Y-10977500D01*
X10475000Y-10927500D02*
X10425000Y-10977500D01*
X10497460Y-9022500D02*
X10547460Y-9072500D01*
X10547460Y-9022500D02*
X10497460Y-9072500D01*
X10500000Y-10927500D02*
X10550000Y-10977500D01*
X10550000Y-10927500D02*
X10500000Y-10977500D01*
X10572460Y-9022500D02*
X10622460Y-9072500D01*
X10622460Y-9022500D02*
X10572460Y-9072500D01*
X10575000Y-10927500D02*
X10625000Y-10977500D01*
X10625000Y-10927500D02*
X10575000Y-10977500D01*
X10647460Y-9022500D02*
X10697460Y-9072500D01*
X10697460Y-9022500D02*
X10647460Y-9072500D01*
X10650000Y-10927500D02*
X10700000Y-10977500D01*
X10700000Y-10927500D02*
X10650000Y-10977500D01*
X10722460Y-9022500D02*
X10772460Y-9072500D01*
X10772460Y-9022500D02*
X10722460Y-9072500D01*
X10725000Y-10927500D02*
X10775000Y-10977500D01*
X10775000Y-10927500D02*
X10725000Y-10977500D01*
X10797460Y-9022500D02*
X10847460Y-9072500D01*
X10847460Y-9022500D02*
X10797460Y-9072500D01*
X10800000Y-10927500D02*
X10850000Y-10977500D01*
X10850000Y-10927500D02*
X10800000Y-10977500D01*
X10872460Y-9022500D02*
X10922460Y-9072500D01*
X10922460Y-9022500D02*
X10872460Y-9072500D01*
X10875000Y-10927500D02*
X10925000Y-10977500D01*
X10925000Y-10927500D02*
X10875000Y-10977500D01*
D13*
X9577000Y-10079375D02*
G75*
G03*
X9577000Y-10079375I-85000J0D01*
G01*
X10593000Y-10079375D02*
G75*
G03*
X10593000Y-10079375I-85000J0D01*
G01*
D14*
X9390400Y-8772400D02*
X9390400Y-8992400D01*
X9280400Y-8882400D02*
X9500400Y-8882400D01*
X9390400Y-11007600D02*
X9390400Y-11227600D01*
X9280400Y-11117600D02*
X9500400Y-11117600D01*
X10609600Y-8772400D02*
X10609600Y-8992400D01*
X10499600Y-8882400D02*
X10719600Y-8882400D01*
X10609600Y-11007600D02*
X10609600Y-11227600D01*
X10499600Y-11117600D02*
X10719600Y-11117600D01*
D11*
X9287619Y-11753476D02*
X9287619Y-11553476D01*
X9287619Y-11553476D02*
X9335238Y-11553476D01*
X9335238Y-11553476D02*
X9363810Y-11563000D01*
X9363810Y-11563000D02*
X9382857Y-11582048D01*
X9382857Y-11582048D02*
X9392381Y-11601095D01*
X9392381Y-11601095D02*
X9401905Y-11639190D01*
X9401905Y-11639190D02*
X9401905Y-11667762D01*
X9401905Y-11667762D02*
X9392381Y-11705857D01*
X9392381Y-11705857D02*
X9382857Y-11724905D01*
X9382857Y-11724905D02*
X9363810Y-11743952D01*
X9363810Y-11743952D02*
X9335238Y-11753476D01*
X9335238Y-11753476D02*
X9287619Y-11753476D01*
X9487619Y-11753476D02*
X9487619Y-11620143D01*
X9487619Y-11658238D02*
X9497143Y-11639190D01*
X9497143Y-11639190D02*
X9506667Y-11629667D01*
X9506667Y-11629667D02*
X9525714Y-11620143D01*
X9525714Y-11620143D02*
X9544762Y-11620143D01*
X9611429Y-11753476D02*
X9611429Y-11620143D01*
X9611429Y-11553476D02*
X9601905Y-11563000D01*
X9601905Y-11563000D02*
X9611429Y-11572524D01*
X9611429Y-11572524D02*
X9620952Y-11563000D01*
X9620952Y-11563000D02*
X9611429Y-11553476D01*
X9611429Y-11553476D02*
X9611429Y-11572524D01*
X9735238Y-11753476D02*
X9716190Y-11743952D01*
X9716190Y-11743952D02*
X9706667Y-11724905D01*
X9706667Y-11724905D02*
X9706667Y-11553476D01*
X9840000Y-11753476D02*
X9820952Y-11743952D01*
X9820952Y-11743952D02*
X9811429Y-11724905D01*
X9811429Y-11724905D02*
X9811429Y-11553476D01*
X10036190Y-11753476D02*
X10036190Y-11553476D01*
X10036190Y-11553476D02*
X10102857Y-11696333D01*
X10102857Y-11696333D02*
X10169524Y-11553476D01*
X10169524Y-11553476D02*
X10169524Y-11753476D01*
X10350476Y-11753476D02*
X10350476Y-11648714D01*
X10350476Y-11648714D02*
X10340952Y-11629667D01*
X10340952Y-11629667D02*
X10321905Y-11620143D01*
X10321905Y-11620143D02*
X10283809Y-11620143D01*
X10283809Y-11620143D02*
X10264762Y-11629667D01*
X10350476Y-11743952D02*
X10331429Y-11753476D01*
X10331429Y-11753476D02*
X10283809Y-11753476D01*
X10283809Y-11753476D02*
X10264762Y-11743952D01*
X10264762Y-11743952D02*
X10255238Y-11724905D01*
X10255238Y-11724905D02*
X10255238Y-11705857D01*
X10255238Y-11705857D02*
X10264762Y-11686809D01*
X10264762Y-11686809D02*
X10283809Y-11677286D01*
X10283809Y-11677286D02*
X10331429Y-11677286D01*
X10331429Y-11677286D02*
X10350476Y-11667762D01*
X10445714Y-11620143D02*
X10445714Y-11820143D01*
X10445714Y-11629667D02*
X10464762Y-11620143D01*
X10464762Y-11620143D02*
X10502857Y-11620143D01*
X10502857Y-11620143D02*
X10521905Y-11629667D01*
X10521905Y-11629667D02*
X10531429Y-11639190D01*
X10531429Y-11639190D02*
X10540952Y-11658238D01*
X10540952Y-11658238D02*
X10540952Y-11715381D01*
X10540952Y-11715381D02*
X10531429Y-11734428D01*
X10531429Y-11734428D02*
X10521905Y-11743952D01*
X10521905Y-11743952D02*
X10502857Y-11753476D01*
X10502857Y-11753476D02*
X10464762Y-11753476D01*
X10464762Y-11753476D02*
X10445714Y-11743952D01*
X10626667Y-11734428D02*
X10636190Y-11743952D01*
X10636190Y-11743952D02*
X10626667Y-11753476D01*
X10626667Y-11753476D02*
X10617143Y-11743952D01*
X10617143Y-11743952D02*
X10626667Y-11734428D01*
X10626667Y-11734428D02*
X10626667Y-11753476D01*
X10626667Y-11629667D02*
X10636190Y-11639190D01*
X10636190Y-11639190D02*
X10626667Y-11648714D01*
X10626667Y-11648714D02*
X10617143Y-11639190D01*
X10617143Y-11639190D02*
X10626667Y-11629667D01*
X10626667Y-11629667D02*
X10626667Y-11648714D01*
D12*
X8990000Y-12075000D02*
X9040000Y-12125000D01*
X9040000Y-12075000D02*
X8990000Y-12125000D01*
D11*
X9325714Y-11973476D02*
X9344762Y-11973476D01*
X9344762Y-11973476D02*
X9363810Y-11983000D01*
X9363810Y-11983000D02*
X9373333Y-11992524D01*
X9373333Y-11992524D02*
X9382857Y-12011571D01*
X9382857Y-12011571D02*
X9392381Y-12049667D01*
X9392381Y-12049667D02*
X9392381Y-12097286D01*
X9392381Y-12097286D02*
X9382857Y-12135381D01*
X9382857Y-12135381D02*
X9373333Y-12154428D01*
X9373333Y-12154428D02*
X9363810Y-12163952D01*
X9363810Y-12163952D02*
X9344762Y-12173476D01*
X9344762Y-12173476D02*
X9325714Y-12173476D01*
X9325714Y-12173476D02*
X9306667Y-12163952D01*
X9306667Y-12163952D02*
X9297143Y-12154428D01*
X9297143Y-12154428D02*
X9287619Y-12135381D01*
X9287619Y-12135381D02*
X9278095Y-12097286D01*
X9278095Y-12097286D02*
X9278095Y-12049667D01*
X9278095Y-12049667D02*
X9287619Y-12011571D01*
X9287619Y-12011571D02*
X9297143Y-11992524D01*
X9297143Y-11992524D02*
X9306667Y-11983000D01*
X9306667Y-11983000D02*
X9325714Y-11973476D01*
X9478095Y-12154428D02*
X9487619Y-12163952D01*
X9487619Y-12163952D02*
X9478095Y-12173476D01*
X9478095Y-12173476D02*
X9468571Y-12163952D01*
X9468571Y-12163952D02*
X9478095Y-12154428D01*
X9478095Y-12154428D02*
X9478095Y-12173476D01*
X9668571Y-11973476D02*
X9573333Y-11973476D01*
X9573333Y-11973476D02*
X9563810Y-12068714D01*
X9563810Y-12068714D02*
X9573333Y-12059190D01*
X9573333Y-12059190D02*
X9592381Y-12049667D01*
X9592381Y-12049667D02*
X9640000Y-12049667D01*
X9640000Y-12049667D02*
X9659048Y-12059190D01*
X9659048Y-12059190D02*
X9668571Y-12068714D01*
X9668571Y-12068714D02*
X9678095Y-12087762D01*
X9678095Y-12087762D02*
X9678095Y-12135381D01*
X9678095Y-12135381D02*
X9668571Y-12154428D01*
X9668571Y-12154428D02*
X9659048Y-12163952D01*
X9659048Y-12163952D02*
X9640000Y-12173476D01*
X9640000Y-12173476D02*
X9592381Y-12173476D01*
X9592381Y-12173476D02*
X9573333Y-12163952D01*
X9573333Y-12163952D02*
X9563810Y-12154428D01*
X9801905Y-11973476D02*
X9820952Y-11973476D01*
X9820952Y-11973476D02*
X9840000Y-11983000D01*
X9840000Y-11983000D02*
X9849524Y-11992524D01*
X9849524Y-11992524D02*
X9859048Y-12011571D01*
X9859048Y-12011571D02*
X9868571Y-12049667D01*
X9868571Y-12049667D02*
X9868571Y-12097286D01*
X9868571Y-12097286D02*
X9859048Y-12135381D01*
X9859048Y-12135381D02*
X9849524Y-12154428D01*
X9849524Y-12154428D02*
X9840000Y-12163952D01*
X9840000Y-12163952D02*
X9820952Y-12173476D01*
X9820952Y-12173476D02*
X9801905Y-12173476D01*
X9801905Y-12173476D02*
X9782857Y-12163952D01*
X9782857Y-12163952D02*
X9773333Y-12154428D01*
X9773333Y-12154428D02*
X9763810Y-12135381D01*
X9763810Y-12135381D02*
X9754286Y-12097286D01*
X9754286Y-12097286D02*
X9754286Y-12049667D01*
X9754286Y-12049667D02*
X9763810Y-12011571D01*
X9763810Y-12011571D02*
X9773333Y-11992524D01*
X9773333Y-11992524D02*
X9782857Y-11983000D01*
X9782857Y-11983000D02*
X9801905Y-11973476D01*
X9992381Y-11973476D02*
X10011429Y-11973476D01*
X10011429Y-11973476D02*
X10030476Y-11983000D01*
X10030476Y-11983000D02*
X10040000Y-11992524D01*
X10040000Y-11992524D02*
X10049524Y-12011571D01*
X10049524Y-12011571D02*
X10059048Y-12049667D01*
X10059048Y-12049667D02*
X10059048Y-12097286D01*
X10059048Y-12097286D02*
X10049524Y-12135381D01*
X10049524Y-12135381D02*
X10040000Y-12154428D01*
X10040000Y-12154428D02*
X10030476Y-12163952D01*
X10030476Y-12163952D02*
X10011429Y-12173476D01*
X10011429Y-12173476D02*
X9992381Y-12173476D01*
X9992381Y-12173476D02*
X9973333Y-12163952D01*
X9973333Y-12163952D02*
X9963810Y-12154428D01*
X9963810Y-12154428D02*
X9954286Y-12135381D01*
X9954286Y-12135381D02*
X9944762Y-12097286D01*
X9944762Y-12097286D02*
X9944762Y-12049667D01*
X9944762Y-12049667D02*
X9954286Y-12011571D01*
X9954286Y-12011571D02*
X9963810Y-11992524D01*
X9963810Y-11992524D02*
X9973333Y-11983000D01*
X9973333Y-11983000D02*
X9992381Y-11973476D01*
X10144762Y-12173476D02*
X10144762Y-12040143D01*
X10144762Y-12059190D02*
X10154286Y-12049667D01*
X10154286Y-12049667D02*
X10173333Y-12040143D01*
X10173333Y-12040143D02*
X10201905Y-12040143D01*
X10201905Y-12040143D02*
X10220952Y-12049667D01*
X10220952Y-12049667D02*
X10230476Y-12068714D01*
X10230476Y-12068714D02*
X10230476Y-12173476D01*
X10230476Y-12068714D02*
X10240000Y-12049667D01*
X10240000Y-12049667D02*
X10259048Y-12040143D01*
X10259048Y-12040143D02*
X10287619Y-12040143D01*
X10287619Y-12040143D02*
X10306667Y-12049667D01*
X10306667Y-12049667D02*
X10316191Y-12068714D01*
X10316191Y-12068714D02*
X10316191Y-12173476D01*
X10411429Y-12173476D02*
X10411429Y-12040143D01*
X10411429Y-12059190D02*
X10420952Y-12049667D01*
X10420952Y-12049667D02*
X10440000Y-12040143D01*
X10440000Y-12040143D02*
X10468572Y-12040143D01*
X10468572Y-12040143D02*
X10487619Y-12049667D01*
X10487619Y-12049667D02*
X10497143Y-12068714D01*
X10497143Y-12068714D02*
X10497143Y-12173476D01*
X10497143Y-12068714D02*
X10506667Y-12049667D01*
X10506667Y-12049667D02*
X10525714Y-12040143D01*
X10525714Y-12040143D02*
X10554286Y-12040143D01*
X10554286Y-12040143D02*
X10573333Y-12049667D01*
X10573333Y-12049667D02*
X10582857Y-12068714D01*
X10582857Y-12068714D02*
X10582857Y-12173476D01*
X10940952Y-11963952D02*
X10769524Y-12221095D01*
X11165714Y-11973476D02*
X11184762Y-11973476D01*
X11184762Y-11973476D02*
X11203810Y-11983000D01*
X11203810Y-11983000D02*
X11213333Y-11992524D01*
X11213333Y-11992524D02*
X11222857Y-12011571D01*
X11222857Y-12011571D02*
X11232381Y-12049667D01*
X11232381Y-12049667D02*
X11232381Y-12097286D01*
X11232381Y-12097286D02*
X11222857Y-12135381D01*
X11222857Y-12135381D02*
X11213333Y-12154428D01*
X11213333Y-12154428D02*
X11203810Y-12163952D01*
X11203810Y-12163952D02*
X11184762Y-12173476D01*
X11184762Y-12173476D02*
X11165714Y-12173476D01*
X11165714Y-12173476D02*
X11146667Y-12163952D01*
X11146667Y-12163952D02*
X11137143Y-12154428D01*
X11137143Y-12154428D02*
X11127619Y-12135381D01*
X11127619Y-12135381D02*
X11118095Y-12097286D01*
X11118095Y-12097286D02*
X11118095Y-12049667D01*
X11118095Y-12049667D02*
X11127619Y-12011571D01*
X11127619Y-12011571D02*
X11137143Y-11992524D01*
X11137143Y-11992524D02*
X11146667Y-11983000D01*
X11146667Y-11983000D02*
X11165714Y-11973476D01*
X11318095Y-12154428D02*
X11327619Y-12163952D01*
X11327619Y-12163952D02*
X11318095Y-12173476D01*
X11318095Y-12173476D02*
X11308571Y-12163952D01*
X11308571Y-12163952D02*
X11318095Y-12154428D01*
X11318095Y-12154428D02*
X11318095Y-12173476D01*
X11451429Y-11973476D02*
X11470476Y-11973476D01*
X11470476Y-11973476D02*
X11489524Y-11983000D01*
X11489524Y-11983000D02*
X11499048Y-11992524D01*
X11499048Y-11992524D02*
X11508571Y-12011571D01*
X11508571Y-12011571D02*
X11518095Y-12049667D01*
X11518095Y-12049667D02*
X11518095Y-12097286D01*
X11518095Y-12097286D02*
X11508571Y-12135381D01*
X11508571Y-12135381D02*
X11499048Y-12154428D01*
X11499048Y-12154428D02*
X11489524Y-12163952D01*
X11489524Y-12163952D02*
X11470476Y-12173476D01*
X11470476Y-12173476D02*
X11451429Y-12173476D01*
X11451429Y-12173476D02*
X11432381Y-12163952D01*
X11432381Y-12163952D02*
X11422857Y-12154428D01*
X11422857Y-12154428D02*
X11413333Y-12135381D01*
X11413333Y-12135381D02*
X11403810Y-12097286D01*
X11403810Y-12097286D02*
X11403810Y-12049667D01*
X11403810Y-12049667D02*
X11413333Y-12011571D01*
X11413333Y-12011571D02*
X11422857Y-11992524D01*
X11422857Y-11992524D02*
X11432381Y-11983000D01*
X11432381Y-11983000D02*
X11451429Y-11973476D01*
X11708571Y-12173476D02*
X11594286Y-12173476D01*
X11651429Y-12173476D02*
X11651429Y-11973476D01*
X11651429Y-11973476D02*
X11632381Y-12002048D01*
X11632381Y-12002048D02*
X11613333Y-12021095D01*
X11613333Y-12021095D02*
X11594286Y-12030619D01*
X11803810Y-12173476D02*
X11841905Y-12173476D01*
X11841905Y-12173476D02*
X11860952Y-12163952D01*
X11860952Y-12163952D02*
X11870476Y-12154428D01*
X11870476Y-12154428D02*
X11889524Y-12125857D01*
X11889524Y-12125857D02*
X11899048Y-12087762D01*
X11899048Y-12087762D02*
X11899048Y-12011571D01*
X11899048Y-12011571D02*
X11889524Y-11992524D01*
X11889524Y-11992524D02*
X11880000Y-11983000D01*
X11880000Y-11983000D02*
X11860952Y-11973476D01*
X11860952Y-11973476D02*
X11822857Y-11973476D01*
X11822857Y-11973476D02*
X11803810Y-11983000D01*
X11803810Y-11983000D02*
X11794286Y-11992524D01*
X11794286Y-11992524D02*
X11784762Y-12011571D01*
X11784762Y-12011571D02*
X11784762Y-12059190D01*
X11784762Y-12059190D02*
X11794286Y-12078238D01*
X11794286Y-12078238D02*
X11803810Y-12087762D01*
X11803810Y-12087762D02*
X11822857Y-12097286D01*
X11822857Y-12097286D02*
X11860952Y-12097286D01*
X11860952Y-12097286D02*
X11880000Y-12087762D01*
X11880000Y-12087762D02*
X11889524Y-12078238D01*
X11889524Y-12078238D02*
X11899048Y-12059190D01*
X11965714Y-11973476D02*
X12099048Y-11973476D01*
X12099048Y-11973476D02*
X12013333Y-12173476D01*
X12165714Y-11973476D02*
X12165714Y-12011571D01*
X12241905Y-11973476D02*
X12241905Y-12011571D01*
X12504762Y-12249667D02*
X12495238Y-12240143D01*
X12495238Y-12240143D02*
X12476191Y-12211571D01*
X12476191Y-12211571D02*
X12466667Y-12192524D01*
X12466667Y-12192524D02*
X12457143Y-12163952D01*
X12457143Y-12163952D02*
X12447619Y-12116333D01*
X12447619Y-12116333D02*
X12447619Y-12078238D01*
X12447619Y-12078238D02*
X12457143Y-12030619D01*
X12457143Y-12030619D02*
X12466667Y-12002048D01*
X12466667Y-12002048D02*
X12476191Y-11983000D01*
X12476191Y-11983000D02*
X12495238Y-11954428D01*
X12495238Y-11954428D02*
X12504762Y-11944905D01*
X12676191Y-11973476D02*
X12580952Y-11973476D01*
X12580952Y-11973476D02*
X12571429Y-12068714D01*
X12571429Y-12068714D02*
X12580952Y-12059190D01*
X12580952Y-12059190D02*
X12600000Y-12049667D01*
X12600000Y-12049667D02*
X12647619Y-12049667D01*
X12647619Y-12049667D02*
X12666667Y-12059190D01*
X12666667Y-12059190D02*
X12676191Y-12068714D01*
X12676191Y-12068714D02*
X12685714Y-12087762D01*
X12685714Y-12087762D02*
X12685714Y-12135381D01*
X12685714Y-12135381D02*
X12676191Y-12154428D01*
X12676191Y-12154428D02*
X12666667Y-12163952D01*
X12666667Y-12163952D02*
X12647619Y-12173476D01*
X12647619Y-12173476D02*
X12600000Y-12173476D01*
X12600000Y-12173476D02*
X12580952Y-12163952D01*
X12580952Y-12163952D02*
X12571429Y-12154428D01*
X12809524Y-11973476D02*
X12828572Y-11973476D01*
X12828572Y-11973476D02*
X12847619Y-11983000D01*
X12847619Y-11983000D02*
X12857143Y-11992524D01*
X12857143Y-11992524D02*
X12866667Y-12011571D01*
X12866667Y-12011571D02*
X12876191Y-12049667D01*
X12876191Y-12049667D02*
X12876191Y-12097286D01*
X12876191Y-12097286D02*
X12866667Y-12135381D01*
X12866667Y-12135381D02*
X12857143Y-12154428D01*
X12857143Y-12154428D02*
X12847619Y-12163952D01*
X12847619Y-12163952D02*
X12828572Y-12173476D01*
X12828572Y-12173476D02*
X12809524Y-12173476D01*
X12809524Y-12173476D02*
X12790476Y-12163952D01*
X12790476Y-12163952D02*
X12780952Y-12154428D01*
X12780952Y-12154428D02*
X12771429Y-12135381D01*
X12771429Y-12135381D02*
X12761905Y-12097286D01*
X12761905Y-12097286D02*
X12761905Y-12049667D01*
X12761905Y-12049667D02*
X12771429Y-12011571D01*
X12771429Y-12011571D02*
X12780952Y-11992524D01*
X12780952Y-11992524D02*
X12790476Y-11983000D01*
X12790476Y-11983000D02*
X12809524Y-11973476D01*
X13081905Y-12173476D02*
X13081905Y-11973476D01*
X13167619Y-12173476D02*
X13167619Y-12068714D01*
X13167619Y-12068714D02*
X13158095Y-12049667D01*
X13158095Y-12049667D02*
X13139048Y-12040143D01*
X13139048Y-12040143D02*
X13110476Y-12040143D01*
X13110476Y-12040143D02*
X13091429Y-12049667D01*
X13091429Y-12049667D02*
X13081905Y-12059190D01*
X13291429Y-12173476D02*
X13272381Y-12163952D01*
X13272381Y-12163952D02*
X13262857Y-12154428D01*
X13262857Y-12154428D02*
X13253333Y-12135381D01*
X13253333Y-12135381D02*
X13253333Y-12078238D01*
X13253333Y-12078238D02*
X13262857Y-12059190D01*
X13262857Y-12059190D02*
X13272381Y-12049667D01*
X13272381Y-12049667D02*
X13291429Y-12040143D01*
X13291429Y-12040143D02*
X13320000Y-12040143D01*
X13320000Y-12040143D02*
X13339048Y-12049667D01*
X13339048Y-12049667D02*
X13348572Y-12059190D01*
X13348572Y-12059190D02*
X13358095Y-12078238D01*
X13358095Y-12078238D02*
X13358095Y-12135381D01*
X13358095Y-12135381D02*
X13348572Y-12154428D01*
X13348572Y-12154428D02*
X13339048Y-12163952D01*
X13339048Y-12163952D02*
X13320000Y-12173476D01*
X13320000Y-12173476D02*
X13291429Y-12173476D01*
X13472381Y-12173476D02*
X13453333Y-12163952D01*
X13453333Y-12163952D02*
X13443810Y-12144905D01*
X13443810Y-12144905D02*
X13443810Y-11973476D01*
X13624762Y-12163952D02*
X13605714Y-12173476D01*
X13605714Y-12173476D02*
X13567619Y-12173476D01*
X13567619Y-12173476D02*
X13548572Y-12163952D01*
X13548572Y-12163952D02*
X13539048Y-12144905D01*
X13539048Y-12144905D02*
X13539048Y-12068714D01*
X13539048Y-12068714D02*
X13548572Y-12049667D01*
X13548572Y-12049667D02*
X13567619Y-12040143D01*
X13567619Y-12040143D02*
X13605714Y-12040143D01*
X13605714Y-12040143D02*
X13624762Y-12049667D01*
X13624762Y-12049667D02*
X13634286Y-12068714D01*
X13634286Y-12068714D02*
X13634286Y-12087762D01*
X13634286Y-12087762D02*
X13539048Y-12106809D01*
X13710476Y-12163952D02*
X13729524Y-12173476D01*
X13729524Y-12173476D02*
X13767619Y-12173476D01*
X13767619Y-12173476D02*
X13786667Y-12163952D01*
X13786667Y-12163952D02*
X13796191Y-12144905D01*
X13796191Y-12144905D02*
X13796191Y-12135381D01*
X13796191Y-12135381D02*
X13786667Y-12116333D01*
X13786667Y-12116333D02*
X13767619Y-12106809D01*
X13767619Y-12106809D02*
X13739048Y-12106809D01*
X13739048Y-12106809D02*
X13720000Y-12097286D01*
X13720000Y-12097286D02*
X13710476Y-12078238D01*
X13710476Y-12078238D02*
X13710476Y-12068714D01*
X13710476Y-12068714D02*
X13720000Y-12049667D01*
X13720000Y-12049667D02*
X13739048Y-12040143D01*
X13739048Y-12040143D02*
X13767619Y-12040143D01*
X13767619Y-12040143D02*
X13786667Y-12049667D01*
X13862857Y-12249667D02*
X13872381Y-12240143D01*
X13872381Y-12240143D02*
X13891429Y-12211571D01*
X13891429Y-12211571D02*
X13900953Y-12192524D01*
X13900953Y-12192524D02*
X13910476Y-12163952D01*
X13910476Y-12163952D02*
X13920000Y-12116333D01*
X13920000Y-12116333D02*
X13920000Y-12078238D01*
X13920000Y-12078238D02*
X13910476Y-12030619D01*
X13910476Y-12030619D02*
X13900953Y-12002048D01*
X13900953Y-12002048D02*
X13891429Y-11983000D01*
X13891429Y-11983000D02*
X13872381Y-11954428D01*
X13872381Y-11954428D02*
X13862857Y-11944905D01*
X14192381Y-12249667D02*
X14182857Y-12240143D01*
X14182857Y-12240143D02*
X14163810Y-12211571D01*
X14163810Y-12211571D02*
X14154286Y-12192524D01*
X14154286Y-12192524D02*
X14144762Y-12163952D01*
X14144762Y-12163952D02*
X14135238Y-12116333D01*
X14135238Y-12116333D02*
X14135238Y-12078238D01*
X14135238Y-12078238D02*
X14144762Y-12030619D01*
X14144762Y-12030619D02*
X14154286Y-12002048D01*
X14154286Y-12002048D02*
X14163810Y-11983000D01*
X14163810Y-11983000D02*
X14182857Y-11954428D01*
X14182857Y-11954428D02*
X14192381Y-11944905D01*
X14268572Y-12040143D02*
X14268572Y-12173476D01*
X14268572Y-12059190D02*
X14278095Y-12049667D01*
X14278095Y-12049667D02*
X14297143Y-12040143D01*
X14297143Y-12040143D02*
X14325714Y-12040143D01*
X14325714Y-12040143D02*
X14344762Y-12049667D01*
X14344762Y-12049667D02*
X14354286Y-12068714D01*
X14354286Y-12068714D02*
X14354286Y-12173476D01*
X14478095Y-12173476D02*
X14459048Y-12163952D01*
X14459048Y-12163952D02*
X14449524Y-12154428D01*
X14449524Y-12154428D02*
X14440000Y-12135381D01*
X14440000Y-12135381D02*
X14440000Y-12078238D01*
X14440000Y-12078238D02*
X14449524Y-12059190D01*
X14449524Y-12059190D02*
X14459048Y-12049667D01*
X14459048Y-12049667D02*
X14478095Y-12040143D01*
X14478095Y-12040143D02*
X14506667Y-12040143D01*
X14506667Y-12040143D02*
X14525714Y-12049667D01*
X14525714Y-12049667D02*
X14535238Y-12059190D01*
X14535238Y-12059190D02*
X14544762Y-12078238D01*
X14544762Y-12078238D02*
X14544762Y-12135381D01*
X14544762Y-12135381D02*
X14535238Y-12154428D01*
X14535238Y-12154428D02*
X14525714Y-12163952D01*
X14525714Y-12163952D02*
X14506667Y-12173476D01*
X14506667Y-12173476D02*
X14478095Y-12173476D01*
X14601905Y-12040143D02*
X14678095Y-12040143D01*
X14630476Y-11973476D02*
X14630476Y-12144905D01*
X14630476Y-12144905D02*
X14640000Y-12163952D01*
X14640000Y-12163952D02*
X14659048Y-12173476D01*
X14659048Y-12173476D02*
X14678095Y-12173476D01*
X14864762Y-12040143D02*
X14864762Y-12240143D01*
X14864762Y-12049667D02*
X14883810Y-12040143D01*
X14883810Y-12040143D02*
X14921905Y-12040143D01*
X14921905Y-12040143D02*
X14940953Y-12049667D01*
X14940953Y-12049667D02*
X14950476Y-12059190D01*
X14950476Y-12059190D02*
X14960000Y-12078238D01*
X14960000Y-12078238D02*
X14960000Y-12135381D01*
X14960000Y-12135381D02*
X14950476Y-12154428D01*
X14950476Y-12154428D02*
X14940953Y-12163952D01*
X14940953Y-12163952D02*
X14921905Y-12173476D01*
X14921905Y-12173476D02*
X14883810Y-12173476D01*
X14883810Y-12173476D02*
X14864762Y-12163952D01*
X15074286Y-12173476D02*
X15055238Y-12163952D01*
X15055238Y-12163952D02*
X15045714Y-12144905D01*
X15045714Y-12144905D02*
X15045714Y-11973476D01*
X15236191Y-12173476D02*
X15236191Y-12068714D01*
X15236191Y-12068714D02*
X15226667Y-12049667D01*
X15226667Y-12049667D02*
X15207619Y-12040143D01*
X15207619Y-12040143D02*
X15169524Y-12040143D01*
X15169524Y-12040143D02*
X15150476Y-12049667D01*
X15236191Y-12163952D02*
X15217143Y-12173476D01*
X15217143Y-12173476D02*
X15169524Y-12173476D01*
X15169524Y-12173476D02*
X15150476Y-12163952D01*
X15150476Y-12163952D02*
X15140953Y-12144905D01*
X15140953Y-12144905D02*
X15140953Y-12125857D01*
X15140953Y-12125857D02*
X15150476Y-12106809D01*
X15150476Y-12106809D02*
X15169524Y-12097286D01*
X15169524Y-12097286D02*
X15217143Y-12097286D01*
X15217143Y-12097286D02*
X15236191Y-12087762D01*
X15302857Y-12040143D02*
X15379048Y-12040143D01*
X15331429Y-11973476D02*
X15331429Y-12144905D01*
X15331429Y-12144905D02*
X15340953Y-12163952D01*
X15340953Y-12163952D02*
X15360000Y-12173476D01*
X15360000Y-12173476D02*
X15379048Y-12173476D01*
X15521905Y-12163952D02*
X15502857Y-12173476D01*
X15502857Y-12173476D02*
X15464762Y-12173476D01*
X15464762Y-12173476D02*
X15445714Y-12163952D01*
X15445714Y-12163952D02*
X15436191Y-12144905D01*
X15436191Y-12144905D02*
X15436191Y-12068714D01*
X15436191Y-12068714D02*
X15445714Y-12049667D01*
X15445714Y-12049667D02*
X15464762Y-12040143D01*
X15464762Y-12040143D02*
X15502857Y-12040143D01*
X15502857Y-12040143D02*
X15521905Y-12049667D01*
X15521905Y-12049667D02*
X15531429Y-12068714D01*
X15531429Y-12068714D02*
X15531429Y-12087762D01*
X15531429Y-12087762D02*
X15436191Y-12106809D01*
X15702857Y-12173476D02*
X15702857Y-11973476D01*
X15702857Y-12163952D02*
X15683810Y-12173476D01*
X15683810Y-12173476D02*
X15645714Y-12173476D01*
X15645714Y-12173476D02*
X15626667Y-12163952D01*
X15626667Y-12163952D02*
X15617143Y-12154428D01*
X15617143Y-12154428D02*
X15607619Y-12135381D01*
X15607619Y-12135381D02*
X15607619Y-12078238D01*
X15607619Y-12078238D02*
X15617143Y-12059190D01*
X15617143Y-12059190D02*
X15626667Y-12049667D01*
X15626667Y-12049667D02*
X15645714Y-12040143D01*
X15645714Y-12040143D02*
X15683810Y-12040143D01*
X15683810Y-12040143D02*
X15702857Y-12049667D01*
X15779048Y-12249667D02*
X15788572Y-12240143D01*
X15788572Y-12240143D02*
X15807619Y-12211571D01*
X15807619Y-12211571D02*
X15817143Y-12192524D01*
X15817143Y-12192524D02*
X15826667Y-12163952D01*
X15826667Y-12163952D02*
X15836191Y-12116333D01*
X15836191Y-12116333D02*
X15836191Y-12078238D01*
X15836191Y-12078238D02*
X15826667Y-12030619D01*
X15826667Y-12030619D02*
X15817143Y-12002048D01*
X15817143Y-12002048D02*
X15807619Y-11983000D01*
X15807619Y-11983000D02*
X15788572Y-11954428D01*
X15788572Y-11954428D02*
X15779048Y-11944905D01*
D13*
X9040000Y-12364000D02*
G75*
G03*
X9040000Y-12364000I-85000J0D01*
G01*
D11*
X9392381Y-12437476D02*
X9278095Y-12437476D01*
X9335238Y-12437476D02*
X9335238Y-12237476D01*
X9335238Y-12237476D02*
X9316190Y-12266048D01*
X9316190Y-12266048D02*
X9297143Y-12285095D01*
X9297143Y-12285095D02*
X9278095Y-12294619D01*
X9478095Y-12418428D02*
X9487619Y-12427952D01*
X9487619Y-12427952D02*
X9478095Y-12437476D01*
X9478095Y-12437476D02*
X9468571Y-12427952D01*
X9468571Y-12427952D02*
X9478095Y-12418428D01*
X9478095Y-12418428D02*
X9478095Y-12437476D01*
X9554286Y-12237476D02*
X9687619Y-12237476D01*
X9687619Y-12237476D02*
X9601905Y-12437476D01*
X9801905Y-12237476D02*
X9820952Y-12237476D01*
X9820952Y-12237476D02*
X9840000Y-12247000D01*
X9840000Y-12247000D02*
X9849524Y-12256524D01*
X9849524Y-12256524D02*
X9859048Y-12275571D01*
X9859048Y-12275571D02*
X9868571Y-12313667D01*
X9868571Y-12313667D02*
X9868571Y-12361286D01*
X9868571Y-12361286D02*
X9859048Y-12399381D01*
X9859048Y-12399381D02*
X9849524Y-12418428D01*
X9849524Y-12418428D02*
X9840000Y-12427952D01*
X9840000Y-12427952D02*
X9820952Y-12437476D01*
X9820952Y-12437476D02*
X9801905Y-12437476D01*
X9801905Y-12437476D02*
X9782857Y-12427952D01*
X9782857Y-12427952D02*
X9773333Y-12418428D01*
X9773333Y-12418428D02*
X9763810Y-12399381D01*
X9763810Y-12399381D02*
X9754286Y-12361286D01*
X9754286Y-12361286D02*
X9754286Y-12313667D01*
X9754286Y-12313667D02*
X9763810Y-12275571D01*
X9763810Y-12275571D02*
X9773333Y-12256524D01*
X9773333Y-12256524D02*
X9782857Y-12247000D01*
X9782857Y-12247000D02*
X9801905Y-12237476D01*
X9992381Y-12237476D02*
X10011429Y-12237476D01*
X10011429Y-12237476D02*
X10030476Y-12247000D01*
X10030476Y-12247000D02*
X10040000Y-12256524D01*
X10040000Y-12256524D02*
X10049524Y-12275571D01*
X10049524Y-12275571D02*
X10059048Y-12313667D01*
X10059048Y-12313667D02*
X10059048Y-12361286D01*
X10059048Y-12361286D02*
X10049524Y-12399381D01*
X10049524Y-12399381D02*
X10040000Y-12418428D01*
X10040000Y-12418428D02*
X10030476Y-12427952D01*
X10030476Y-12427952D02*
X10011429Y-12437476D01*
X10011429Y-12437476D02*
X9992381Y-12437476D01*
X9992381Y-12437476D02*
X9973333Y-12427952D01*
X9973333Y-12427952D02*
X9963810Y-12418428D01*
X9963810Y-12418428D02*
X9954286Y-12399381D01*
X9954286Y-12399381D02*
X9944762Y-12361286D01*
X9944762Y-12361286D02*
X9944762Y-12313667D01*
X9944762Y-12313667D02*
X9954286Y-12275571D01*
X9954286Y-12275571D02*
X9963810Y-12256524D01*
X9963810Y-12256524D02*
X9973333Y-12247000D01*
X9973333Y-12247000D02*
X9992381Y-12237476D01*
X10144762Y-12437476D02*
X10144762Y-12304143D01*
X10144762Y-12323190D02*
X10154286Y-12313667D01*
X10154286Y-12313667D02*
X10173333Y-12304143D01*
X10173333Y-12304143D02*
X10201905Y-12304143D01*
X10201905Y-12304143D02*
X10220952Y-12313667D01*
X10220952Y-12313667D02*
X10230476Y-12332714D01*
X10230476Y-12332714D02*
X10230476Y-12437476D01*
X10230476Y-12332714D02*
X10240000Y-12313667D01*
X10240000Y-12313667D02*
X10259048Y-12304143D01*
X10259048Y-12304143D02*
X10287619Y-12304143D01*
X10287619Y-12304143D02*
X10306667Y-12313667D01*
X10306667Y-12313667D02*
X10316191Y-12332714D01*
X10316191Y-12332714D02*
X10316191Y-12437476D01*
X10411429Y-12437476D02*
X10411429Y-12304143D01*
X10411429Y-12323190D02*
X10420952Y-12313667D01*
X10420952Y-12313667D02*
X10440000Y-12304143D01*
X10440000Y-12304143D02*
X10468572Y-12304143D01*
X10468572Y-12304143D02*
X10487619Y-12313667D01*
X10487619Y-12313667D02*
X10497143Y-12332714D01*
X10497143Y-12332714D02*
X10497143Y-12437476D01*
X10497143Y-12332714D02*
X10506667Y-12313667D01*
X10506667Y-12313667D02*
X10525714Y-12304143D01*
X10525714Y-12304143D02*
X10554286Y-12304143D01*
X10554286Y-12304143D02*
X10573333Y-12313667D01*
X10573333Y-12313667D02*
X10582857Y-12332714D01*
X10582857Y-12332714D02*
X10582857Y-12437476D01*
X10940952Y-12227952D02*
X10769524Y-12485095D01*
X11165714Y-12237476D02*
X11184762Y-12237476D01*
X11184762Y-12237476D02*
X11203810Y-12247000D01*
X11203810Y-12247000D02*
X11213333Y-12256524D01*
X11213333Y-12256524D02*
X11222857Y-12275571D01*
X11222857Y-12275571D02*
X11232381Y-12313667D01*
X11232381Y-12313667D02*
X11232381Y-12361286D01*
X11232381Y-12361286D02*
X11222857Y-12399381D01*
X11222857Y-12399381D02*
X11213333Y-12418428D01*
X11213333Y-12418428D02*
X11203810Y-12427952D01*
X11203810Y-12427952D02*
X11184762Y-12437476D01*
X11184762Y-12437476D02*
X11165714Y-12437476D01*
X11165714Y-12437476D02*
X11146667Y-12427952D01*
X11146667Y-12427952D02*
X11137143Y-12418428D01*
X11137143Y-12418428D02*
X11127619Y-12399381D01*
X11127619Y-12399381D02*
X11118095Y-12361286D01*
X11118095Y-12361286D02*
X11118095Y-12313667D01*
X11118095Y-12313667D02*
X11127619Y-12275571D01*
X11127619Y-12275571D02*
X11137143Y-12256524D01*
X11137143Y-12256524D02*
X11146667Y-12247000D01*
X11146667Y-12247000D02*
X11165714Y-12237476D01*
X11318095Y-12418428D02*
X11327619Y-12427952D01*
X11327619Y-12427952D02*
X11318095Y-12437476D01*
X11318095Y-12437476D02*
X11308571Y-12427952D01*
X11308571Y-12427952D02*
X11318095Y-12418428D01*
X11318095Y-12418428D02*
X11318095Y-12437476D01*
X11451429Y-12237476D02*
X11470476Y-12237476D01*
X11470476Y-12237476D02*
X11489524Y-12247000D01*
X11489524Y-12247000D02*
X11499048Y-12256524D01*
X11499048Y-12256524D02*
X11508571Y-12275571D01*
X11508571Y-12275571D02*
X11518095Y-12313667D01*
X11518095Y-12313667D02*
X11518095Y-12361286D01*
X11518095Y-12361286D02*
X11508571Y-12399381D01*
X11508571Y-12399381D02*
X11499048Y-12418428D01*
X11499048Y-12418428D02*
X11489524Y-12427952D01*
X11489524Y-12427952D02*
X11470476Y-12437476D01*
X11470476Y-12437476D02*
X11451429Y-12437476D01*
X11451429Y-12437476D02*
X11432381Y-12427952D01*
X11432381Y-12427952D02*
X11422857Y-12418428D01*
X11422857Y-12418428D02*
X11413333Y-12399381D01*
X11413333Y-12399381D02*
X11403810Y-12361286D01*
X11403810Y-12361286D02*
X11403810Y-12313667D01*
X11403810Y-12313667D02*
X11413333Y-12275571D01*
X11413333Y-12275571D02*
X11422857Y-12256524D01*
X11422857Y-12256524D02*
X11432381Y-12247000D01*
X11432381Y-12247000D02*
X11451429Y-12237476D01*
X11689524Y-12237476D02*
X11651429Y-12237476D01*
X11651429Y-12237476D02*
X11632381Y-12247000D01*
X11632381Y-12247000D02*
X11622857Y-12256524D01*
X11622857Y-12256524D02*
X11603810Y-12285095D01*
X11603810Y-12285095D02*
X11594286Y-12323190D01*
X11594286Y-12323190D02*
X11594286Y-12399381D01*
X11594286Y-12399381D02*
X11603810Y-12418428D01*
X11603810Y-12418428D02*
X11613333Y-12427952D01*
X11613333Y-12427952D02*
X11632381Y-12437476D01*
X11632381Y-12437476D02*
X11670476Y-12437476D01*
X11670476Y-12437476D02*
X11689524Y-12427952D01*
X11689524Y-12427952D02*
X11699048Y-12418428D01*
X11699048Y-12418428D02*
X11708571Y-12399381D01*
X11708571Y-12399381D02*
X11708571Y-12351762D01*
X11708571Y-12351762D02*
X11699048Y-12332714D01*
X11699048Y-12332714D02*
X11689524Y-12323190D01*
X11689524Y-12323190D02*
X11670476Y-12313667D01*
X11670476Y-12313667D02*
X11632381Y-12313667D01*
X11632381Y-12313667D02*
X11613333Y-12323190D01*
X11613333Y-12323190D02*
X11603810Y-12332714D01*
X11603810Y-12332714D02*
X11594286Y-12351762D01*
X11880000Y-12237476D02*
X11841905Y-12237476D01*
X11841905Y-12237476D02*
X11822857Y-12247000D01*
X11822857Y-12247000D02*
X11813333Y-12256524D01*
X11813333Y-12256524D02*
X11794286Y-12285095D01*
X11794286Y-12285095D02*
X11784762Y-12323190D01*
X11784762Y-12323190D02*
X11784762Y-12399381D01*
X11784762Y-12399381D02*
X11794286Y-12418428D01*
X11794286Y-12418428D02*
X11803810Y-12427952D01*
X11803810Y-12427952D02*
X11822857Y-12437476D01*
X11822857Y-12437476D02*
X11860952Y-12437476D01*
X11860952Y-12437476D02*
X11880000Y-12427952D01*
X11880000Y-12427952D02*
X11889524Y-12418428D01*
X11889524Y-12418428D02*
X11899048Y-12399381D01*
X11899048Y-12399381D02*
X11899048Y-12351762D01*
X11899048Y-12351762D02*
X11889524Y-12332714D01*
X11889524Y-12332714D02*
X11880000Y-12323190D01*
X11880000Y-12323190D02*
X11860952Y-12313667D01*
X11860952Y-12313667D02*
X11822857Y-12313667D01*
X11822857Y-12313667D02*
X11803810Y-12323190D01*
X11803810Y-12323190D02*
X11794286Y-12332714D01*
X11794286Y-12332714D02*
X11784762Y-12351762D01*
X11994286Y-12437476D02*
X12032381Y-12437476D01*
X12032381Y-12437476D02*
X12051429Y-12427952D01*
X12051429Y-12427952D02*
X12060952Y-12418428D01*
X12060952Y-12418428D02*
X12080000Y-12389857D01*
X12080000Y-12389857D02*
X12089524Y-12351762D01*
X12089524Y-12351762D02*
X12089524Y-12275571D01*
X12089524Y-12275571D02*
X12080000Y-12256524D01*
X12080000Y-12256524D02*
X12070476Y-12247000D01*
X12070476Y-12247000D02*
X12051429Y-12237476D01*
X12051429Y-12237476D02*
X12013333Y-12237476D01*
X12013333Y-12237476D02*
X11994286Y-12247000D01*
X11994286Y-12247000D02*
X11984762Y-12256524D01*
X11984762Y-12256524D02*
X11975238Y-12275571D01*
X11975238Y-12275571D02*
X11975238Y-12323190D01*
X11975238Y-12323190D02*
X11984762Y-12342238D01*
X11984762Y-12342238D02*
X11994286Y-12351762D01*
X11994286Y-12351762D02*
X12013333Y-12361286D01*
X12013333Y-12361286D02*
X12051429Y-12361286D01*
X12051429Y-12361286D02*
X12070476Y-12351762D01*
X12070476Y-12351762D02*
X12080000Y-12342238D01*
X12080000Y-12342238D02*
X12089524Y-12323190D01*
X12165714Y-12237476D02*
X12165714Y-12275571D01*
X12241905Y-12237476D02*
X12241905Y-12275571D01*
X12504762Y-12513667D02*
X12495238Y-12504143D01*
X12495238Y-12504143D02*
X12476191Y-12475571D01*
X12476191Y-12475571D02*
X12466667Y-12456524D01*
X12466667Y-12456524D02*
X12457143Y-12427952D01*
X12457143Y-12427952D02*
X12447619Y-12380333D01*
X12447619Y-12380333D02*
X12447619Y-12342238D01*
X12447619Y-12342238D02*
X12457143Y-12294619D01*
X12457143Y-12294619D02*
X12466667Y-12266048D01*
X12466667Y-12266048D02*
X12476191Y-12247000D01*
X12476191Y-12247000D02*
X12495238Y-12218428D01*
X12495238Y-12218428D02*
X12504762Y-12208905D01*
X12571429Y-12256524D02*
X12580952Y-12247000D01*
X12580952Y-12247000D02*
X12600000Y-12237476D01*
X12600000Y-12237476D02*
X12647619Y-12237476D01*
X12647619Y-12237476D02*
X12666667Y-12247000D01*
X12666667Y-12247000D02*
X12676191Y-12256524D01*
X12676191Y-12256524D02*
X12685714Y-12275571D01*
X12685714Y-12275571D02*
X12685714Y-12294619D01*
X12685714Y-12294619D02*
X12676191Y-12323190D01*
X12676191Y-12323190D02*
X12561905Y-12437476D01*
X12561905Y-12437476D02*
X12685714Y-12437476D01*
X12891429Y-12437476D02*
X12891429Y-12237476D01*
X12977143Y-12437476D02*
X12977143Y-12332714D01*
X12977143Y-12332714D02*
X12967619Y-12313667D01*
X12967619Y-12313667D02*
X12948572Y-12304143D01*
X12948572Y-12304143D02*
X12920000Y-12304143D01*
X12920000Y-12304143D02*
X12900952Y-12313667D01*
X12900952Y-12313667D02*
X12891429Y-12323190D01*
X13100952Y-12437476D02*
X13081905Y-12427952D01*
X13081905Y-12427952D02*
X13072381Y-12418428D01*
X13072381Y-12418428D02*
X13062857Y-12399381D01*
X13062857Y-12399381D02*
X13062857Y-12342238D01*
X13062857Y-12342238D02*
X13072381Y-12323190D01*
X13072381Y-12323190D02*
X13081905Y-12313667D01*
X13081905Y-12313667D02*
X13100952Y-12304143D01*
X13100952Y-12304143D02*
X13129524Y-12304143D01*
X13129524Y-12304143D02*
X13148572Y-12313667D01*
X13148572Y-12313667D02*
X13158095Y-12323190D01*
X13158095Y-12323190D02*
X13167619Y-12342238D01*
X13167619Y-12342238D02*
X13167619Y-12399381D01*
X13167619Y-12399381D02*
X13158095Y-12418428D01*
X13158095Y-12418428D02*
X13148572Y-12427952D01*
X13148572Y-12427952D02*
X13129524Y-12437476D01*
X13129524Y-12437476D02*
X13100952Y-12437476D01*
X13281905Y-12437476D02*
X13262857Y-12427952D01*
X13262857Y-12427952D02*
X13253333Y-12408905D01*
X13253333Y-12408905D02*
X13253333Y-12237476D01*
X13434286Y-12427952D02*
X13415238Y-12437476D01*
X13415238Y-12437476D02*
X13377143Y-12437476D01*
X13377143Y-12437476D02*
X13358095Y-12427952D01*
X13358095Y-12427952D02*
X13348572Y-12408905D01*
X13348572Y-12408905D02*
X13348572Y-12332714D01*
X13348572Y-12332714D02*
X13358095Y-12313667D01*
X13358095Y-12313667D02*
X13377143Y-12304143D01*
X13377143Y-12304143D02*
X13415238Y-12304143D01*
X13415238Y-12304143D02*
X13434286Y-12313667D01*
X13434286Y-12313667D02*
X13443810Y-12332714D01*
X13443810Y-12332714D02*
X13443810Y-12351762D01*
X13443810Y-12351762D02*
X13348572Y-12370809D01*
X13520000Y-12427952D02*
X13539048Y-12437476D01*
X13539048Y-12437476D02*
X13577143Y-12437476D01*
X13577143Y-12437476D02*
X13596191Y-12427952D01*
X13596191Y-12427952D02*
X13605714Y-12408905D01*
X13605714Y-12408905D02*
X13605714Y-12399381D01*
X13605714Y-12399381D02*
X13596191Y-12380333D01*
X13596191Y-12380333D02*
X13577143Y-12370809D01*
X13577143Y-12370809D02*
X13548572Y-12370809D01*
X13548572Y-12370809D02*
X13529524Y-12361286D01*
X13529524Y-12361286D02*
X13520000Y-12342238D01*
X13520000Y-12342238D02*
X13520000Y-12332714D01*
X13520000Y-12332714D02*
X13529524Y-12313667D01*
X13529524Y-12313667D02*
X13548572Y-12304143D01*
X13548572Y-12304143D02*
X13577143Y-12304143D01*
X13577143Y-12304143D02*
X13596191Y-12313667D01*
X13672381Y-12513667D02*
X13681905Y-12504143D01*
X13681905Y-12504143D02*
X13700953Y-12475571D01*
X13700953Y-12475571D02*
X13710476Y-12456524D01*
X13710476Y-12456524D02*
X13720000Y-12427952D01*
X13720000Y-12427952D02*
X13729524Y-12380333D01*
X13729524Y-12380333D02*
X13729524Y-12342238D01*
X13729524Y-12342238D02*
X13720000Y-12294619D01*
X13720000Y-12294619D02*
X13710476Y-12266048D01*
X13710476Y-12266048D02*
X13700953Y-12247000D01*
X13700953Y-12247000D02*
X13681905Y-12218428D01*
X13681905Y-12218428D02*
X13672381Y-12208905D01*
X14001905Y-12513667D02*
X13992381Y-12504143D01*
X13992381Y-12504143D02*
X13973333Y-12475571D01*
X13973333Y-12475571D02*
X13963810Y-12456524D01*
X13963810Y-12456524D02*
X13954286Y-12427952D01*
X13954286Y-12427952D02*
X13944762Y-12380333D01*
X13944762Y-12380333D02*
X13944762Y-12342238D01*
X13944762Y-12342238D02*
X13954286Y-12294619D01*
X13954286Y-12294619D02*
X13963810Y-12266048D01*
X13963810Y-12266048D02*
X13973333Y-12247000D01*
X13973333Y-12247000D02*
X13992381Y-12218428D01*
X13992381Y-12218428D02*
X14001905Y-12208905D01*
X14078095Y-12304143D02*
X14078095Y-12437476D01*
X14078095Y-12323190D02*
X14087619Y-12313667D01*
X14087619Y-12313667D02*
X14106667Y-12304143D01*
X14106667Y-12304143D02*
X14135238Y-12304143D01*
X14135238Y-12304143D02*
X14154286Y-12313667D01*
X14154286Y-12313667D02*
X14163810Y-12332714D01*
X14163810Y-12332714D02*
X14163810Y-12437476D01*
X14287619Y-12437476D02*
X14268572Y-12427952D01*
X14268572Y-12427952D02*
X14259048Y-12418428D01*
X14259048Y-12418428D02*
X14249524Y-12399381D01*
X14249524Y-12399381D02*
X14249524Y-12342238D01*
X14249524Y-12342238D02*
X14259048Y-12323190D01*
X14259048Y-12323190D02*
X14268572Y-12313667D01*
X14268572Y-12313667D02*
X14287619Y-12304143D01*
X14287619Y-12304143D02*
X14316191Y-12304143D01*
X14316191Y-12304143D02*
X14335238Y-12313667D01*
X14335238Y-12313667D02*
X14344762Y-12323190D01*
X14344762Y-12323190D02*
X14354286Y-12342238D01*
X14354286Y-12342238D02*
X14354286Y-12399381D01*
X14354286Y-12399381D02*
X14344762Y-12418428D01*
X14344762Y-12418428D02*
X14335238Y-12427952D01*
X14335238Y-12427952D02*
X14316191Y-12437476D01*
X14316191Y-12437476D02*
X14287619Y-12437476D01*
X14411429Y-12304143D02*
X14487619Y-12304143D01*
X14440000Y-12237476D02*
X14440000Y-12408905D01*
X14440000Y-12408905D02*
X14449524Y-12427952D01*
X14449524Y-12427952D02*
X14468572Y-12437476D01*
X14468572Y-12437476D02*
X14487619Y-12437476D01*
X14674286Y-12304143D02*
X14674286Y-12504143D01*
X14674286Y-12313667D02*
X14693333Y-12304143D01*
X14693333Y-12304143D02*
X14731429Y-12304143D01*
X14731429Y-12304143D02*
X14750476Y-12313667D01*
X14750476Y-12313667D02*
X14760000Y-12323190D01*
X14760000Y-12323190D02*
X14769524Y-12342238D01*
X14769524Y-12342238D02*
X14769524Y-12399381D01*
X14769524Y-12399381D02*
X14760000Y-12418428D01*
X14760000Y-12418428D02*
X14750476Y-12427952D01*
X14750476Y-12427952D02*
X14731429Y-12437476D01*
X14731429Y-12437476D02*
X14693333Y-12437476D01*
X14693333Y-12437476D02*
X14674286Y-12427952D01*
X14883810Y-12437476D02*
X14864762Y-12427952D01*
X14864762Y-12427952D02*
X14855238Y-12408905D01*
X14855238Y-12408905D02*
X14855238Y-12237476D01*
X15045714Y-12437476D02*
X15045714Y-12332714D01*
X15045714Y-12332714D02*
X15036191Y-12313667D01*
X15036191Y-12313667D02*
X15017143Y-12304143D01*
X15017143Y-12304143D02*
X14979048Y-12304143D01*
X14979048Y-12304143D02*
X14960000Y-12313667D01*
X15045714Y-12427952D02*
X15026667Y-12437476D01*
X15026667Y-12437476D02*
X14979048Y-12437476D01*
X14979048Y-12437476D02*
X14960000Y-12427952D01*
X14960000Y-12427952D02*
X14950476Y-12408905D01*
X14950476Y-12408905D02*
X14950476Y-12389857D01*
X14950476Y-12389857D02*
X14960000Y-12370809D01*
X14960000Y-12370809D02*
X14979048Y-12361286D01*
X14979048Y-12361286D02*
X15026667Y-12361286D01*
X15026667Y-12361286D02*
X15045714Y-12351762D01*
X15112381Y-12304143D02*
X15188572Y-12304143D01*
X15140953Y-12237476D02*
X15140953Y-12408905D01*
X15140953Y-12408905D02*
X15150476Y-12427952D01*
X15150476Y-12427952D02*
X15169524Y-12437476D01*
X15169524Y-12437476D02*
X15188572Y-12437476D01*
X15331429Y-12427952D02*
X15312381Y-12437476D01*
X15312381Y-12437476D02*
X15274286Y-12437476D01*
X15274286Y-12437476D02*
X15255238Y-12427952D01*
X15255238Y-12427952D02*
X15245714Y-12408905D01*
X15245714Y-12408905D02*
X15245714Y-12332714D01*
X15245714Y-12332714D02*
X15255238Y-12313667D01*
X15255238Y-12313667D02*
X15274286Y-12304143D01*
X15274286Y-12304143D02*
X15312381Y-12304143D01*
X15312381Y-12304143D02*
X15331429Y-12313667D01*
X15331429Y-12313667D02*
X15340953Y-12332714D01*
X15340953Y-12332714D02*
X15340953Y-12351762D01*
X15340953Y-12351762D02*
X15245714Y-12370809D01*
X15512381Y-12437476D02*
X15512381Y-12237476D01*
X15512381Y-12427952D02*
X15493334Y-12437476D01*
X15493334Y-12437476D02*
X15455238Y-12437476D01*
X15455238Y-12437476D02*
X15436191Y-12427952D01*
X15436191Y-12427952D02*
X15426667Y-12418428D01*
X15426667Y-12418428D02*
X15417143Y-12399381D01*
X15417143Y-12399381D02*
X15417143Y-12342238D01*
X15417143Y-12342238D02*
X15426667Y-12323190D01*
X15426667Y-12323190D02*
X15436191Y-12313667D01*
X15436191Y-12313667D02*
X15455238Y-12304143D01*
X15455238Y-12304143D02*
X15493334Y-12304143D01*
X15493334Y-12304143D02*
X15512381Y-12313667D01*
X15588572Y-12513667D02*
X15598095Y-12504143D01*
X15598095Y-12504143D02*
X15617143Y-12475571D01*
X15617143Y-12475571D02*
X15626667Y-12456524D01*
X15626667Y-12456524D02*
X15636191Y-12427952D01*
X15636191Y-12427952D02*
X15645714Y-12380333D01*
X15645714Y-12380333D02*
X15645714Y-12342238D01*
X15645714Y-12342238D02*
X15636191Y-12294619D01*
X15636191Y-12294619D02*
X15626667Y-12266048D01*
X15626667Y-12266048D02*
X15617143Y-12247000D01*
X15617143Y-12247000D02*
X15598095Y-12218428D01*
X15598095Y-12218428D02*
X15588572Y-12208905D01*
X8940000Y-12554000D02*
X8940000Y-12754000D01*
X8840000Y-12654000D02*
X9040000Y-12654000D01*
X9278095Y-12546524D02*
X9287619Y-12537000D01*
X9287619Y-12537000D02*
X9306667Y-12527476D01*
X9306667Y-12527476D02*
X9354286Y-12527476D01*
X9354286Y-12527476D02*
X9373333Y-12537000D01*
X9373333Y-12537000D02*
X9382857Y-12546524D01*
X9382857Y-12546524D02*
X9392381Y-12565571D01*
X9392381Y-12565571D02*
X9392381Y-12584619D01*
X9392381Y-12584619D02*
X9382857Y-12613190D01*
X9382857Y-12613190D02*
X9268571Y-12727476D01*
X9268571Y-12727476D02*
X9392381Y-12727476D01*
X9478095Y-12708428D02*
X9487619Y-12717952D01*
X9487619Y-12717952D02*
X9478095Y-12727476D01*
X9478095Y-12727476D02*
X9468571Y-12717952D01*
X9468571Y-12717952D02*
X9478095Y-12708428D01*
X9478095Y-12708428D02*
X9478095Y-12727476D01*
X9563810Y-12546524D02*
X9573333Y-12537000D01*
X9573333Y-12537000D02*
X9592381Y-12527476D01*
X9592381Y-12527476D02*
X9640000Y-12527476D01*
X9640000Y-12527476D02*
X9659048Y-12537000D01*
X9659048Y-12537000D02*
X9668571Y-12546524D01*
X9668571Y-12546524D02*
X9678095Y-12565571D01*
X9678095Y-12565571D02*
X9678095Y-12584619D01*
X9678095Y-12584619D02*
X9668571Y-12613190D01*
X9668571Y-12613190D02*
X9554286Y-12727476D01*
X9554286Y-12727476D02*
X9678095Y-12727476D01*
X9801905Y-12527476D02*
X9820952Y-12527476D01*
X9820952Y-12527476D02*
X9840000Y-12537000D01*
X9840000Y-12537000D02*
X9849524Y-12546524D01*
X9849524Y-12546524D02*
X9859048Y-12565571D01*
X9859048Y-12565571D02*
X9868571Y-12603667D01*
X9868571Y-12603667D02*
X9868571Y-12651286D01*
X9868571Y-12651286D02*
X9859048Y-12689381D01*
X9859048Y-12689381D02*
X9849524Y-12708428D01*
X9849524Y-12708428D02*
X9840000Y-12717952D01*
X9840000Y-12717952D02*
X9820952Y-12727476D01*
X9820952Y-12727476D02*
X9801905Y-12727476D01*
X9801905Y-12727476D02*
X9782857Y-12717952D01*
X9782857Y-12717952D02*
X9773333Y-12708428D01*
X9773333Y-12708428D02*
X9763810Y-12689381D01*
X9763810Y-12689381D02*
X9754286Y-12651286D01*
X9754286Y-12651286D02*
X9754286Y-12603667D01*
X9754286Y-12603667D02*
X9763810Y-12565571D01*
X9763810Y-12565571D02*
X9773333Y-12546524D01*
X9773333Y-12546524D02*
X9782857Y-12537000D01*
X9782857Y-12537000D02*
X9801905Y-12527476D01*
X9992381Y-12527476D02*
X10011429Y-12527476D01*
X10011429Y-12527476D02*
X10030476Y-12537000D01*
X10030476Y-12537000D02*
X10040000Y-12546524D01*
X10040000Y-12546524D02*
X10049524Y-12565571D01*
X10049524Y-12565571D02*
X10059048Y-12603667D01*
X10059048Y-12603667D02*
X10059048Y-12651286D01*
X10059048Y-12651286D02*
X10049524Y-12689381D01*
X10049524Y-12689381D02*
X10040000Y-12708428D01*
X10040000Y-12708428D02*
X10030476Y-12717952D01*
X10030476Y-12717952D02*
X10011429Y-12727476D01*
X10011429Y-12727476D02*
X9992381Y-12727476D01*
X9992381Y-12727476D02*
X9973333Y-12717952D01*
X9973333Y-12717952D02*
X9963810Y-12708428D01*
X9963810Y-12708428D02*
X9954286Y-12689381D01*
X9954286Y-12689381D02*
X9944762Y-12651286D01*
X9944762Y-12651286D02*
X9944762Y-12603667D01*
X9944762Y-12603667D02*
X9954286Y-12565571D01*
X9954286Y-12565571D02*
X9963810Y-12546524D01*
X9963810Y-12546524D02*
X9973333Y-12537000D01*
X9973333Y-12537000D02*
X9992381Y-12527476D01*
X10144762Y-12727476D02*
X10144762Y-12594143D01*
X10144762Y-12613190D02*
X10154286Y-12603667D01*
X10154286Y-12603667D02*
X10173333Y-12594143D01*
X10173333Y-12594143D02*
X10201905Y-12594143D01*
X10201905Y-12594143D02*
X10220952Y-12603667D01*
X10220952Y-12603667D02*
X10230476Y-12622714D01*
X10230476Y-12622714D02*
X10230476Y-12727476D01*
X10230476Y-12622714D02*
X10240000Y-12603667D01*
X10240000Y-12603667D02*
X10259048Y-12594143D01*
X10259048Y-12594143D02*
X10287619Y-12594143D01*
X10287619Y-12594143D02*
X10306667Y-12603667D01*
X10306667Y-12603667D02*
X10316191Y-12622714D01*
X10316191Y-12622714D02*
X10316191Y-12727476D01*
X10411429Y-12727476D02*
X10411429Y-12594143D01*
X10411429Y-12613190D02*
X10420952Y-12603667D01*
X10420952Y-12603667D02*
X10440000Y-12594143D01*
X10440000Y-12594143D02*
X10468572Y-12594143D01*
X10468572Y-12594143D02*
X10487619Y-12603667D01*
X10487619Y-12603667D02*
X10497143Y-12622714D01*
X10497143Y-12622714D02*
X10497143Y-12727476D01*
X10497143Y-12622714D02*
X10506667Y-12603667D01*
X10506667Y-12603667D02*
X10525714Y-12594143D01*
X10525714Y-12594143D02*
X10554286Y-12594143D01*
X10554286Y-12594143D02*
X10573333Y-12603667D01*
X10573333Y-12603667D02*
X10582857Y-12622714D01*
X10582857Y-12622714D02*
X10582857Y-12727476D01*
X10940952Y-12517952D02*
X10769524Y-12775095D01*
X11165714Y-12527476D02*
X11184762Y-12527476D01*
X11184762Y-12527476D02*
X11203810Y-12537000D01*
X11203810Y-12537000D02*
X11213333Y-12546524D01*
X11213333Y-12546524D02*
X11222857Y-12565571D01*
X11222857Y-12565571D02*
X11232381Y-12603667D01*
X11232381Y-12603667D02*
X11232381Y-12651286D01*
X11232381Y-12651286D02*
X11222857Y-12689381D01*
X11222857Y-12689381D02*
X11213333Y-12708428D01*
X11213333Y-12708428D02*
X11203810Y-12717952D01*
X11203810Y-12717952D02*
X11184762Y-12727476D01*
X11184762Y-12727476D02*
X11165714Y-12727476D01*
X11165714Y-12727476D02*
X11146667Y-12717952D01*
X11146667Y-12717952D02*
X11137143Y-12708428D01*
X11137143Y-12708428D02*
X11127619Y-12689381D01*
X11127619Y-12689381D02*
X11118095Y-12651286D01*
X11118095Y-12651286D02*
X11118095Y-12603667D01*
X11118095Y-12603667D02*
X11127619Y-12565571D01*
X11127619Y-12565571D02*
X11137143Y-12546524D01*
X11137143Y-12546524D02*
X11146667Y-12537000D01*
X11146667Y-12537000D02*
X11165714Y-12527476D01*
X11318095Y-12708428D02*
X11327619Y-12717952D01*
X11327619Y-12717952D02*
X11318095Y-12727476D01*
X11318095Y-12727476D02*
X11308571Y-12717952D01*
X11308571Y-12717952D02*
X11318095Y-12708428D01*
X11318095Y-12708428D02*
X11318095Y-12727476D01*
X11451429Y-12527476D02*
X11470476Y-12527476D01*
X11470476Y-12527476D02*
X11489524Y-12537000D01*
X11489524Y-12537000D02*
X11499048Y-12546524D01*
X11499048Y-12546524D02*
X11508571Y-12565571D01*
X11508571Y-12565571D02*
X11518095Y-12603667D01*
X11518095Y-12603667D02*
X11518095Y-12651286D01*
X11518095Y-12651286D02*
X11508571Y-12689381D01*
X11508571Y-12689381D02*
X11499048Y-12708428D01*
X11499048Y-12708428D02*
X11489524Y-12717952D01*
X11489524Y-12717952D02*
X11470476Y-12727476D01*
X11470476Y-12727476D02*
X11451429Y-12727476D01*
X11451429Y-12727476D02*
X11432381Y-12717952D01*
X11432381Y-12717952D02*
X11422857Y-12708428D01*
X11422857Y-12708428D02*
X11413333Y-12689381D01*
X11413333Y-12689381D02*
X11403810Y-12651286D01*
X11403810Y-12651286D02*
X11403810Y-12603667D01*
X11403810Y-12603667D02*
X11413333Y-12565571D01*
X11413333Y-12565571D02*
X11422857Y-12546524D01*
X11422857Y-12546524D02*
X11432381Y-12537000D01*
X11432381Y-12537000D02*
X11451429Y-12527476D01*
X11632381Y-12613190D02*
X11613333Y-12603667D01*
X11613333Y-12603667D02*
X11603810Y-12594143D01*
X11603810Y-12594143D02*
X11594286Y-12575095D01*
X11594286Y-12575095D02*
X11594286Y-12565571D01*
X11594286Y-12565571D02*
X11603810Y-12546524D01*
X11603810Y-12546524D02*
X11613333Y-12537000D01*
X11613333Y-12537000D02*
X11632381Y-12527476D01*
X11632381Y-12527476D02*
X11670476Y-12527476D01*
X11670476Y-12527476D02*
X11689524Y-12537000D01*
X11689524Y-12537000D02*
X11699048Y-12546524D01*
X11699048Y-12546524D02*
X11708571Y-12565571D01*
X11708571Y-12565571D02*
X11708571Y-12575095D01*
X11708571Y-12575095D02*
X11699048Y-12594143D01*
X11699048Y-12594143D02*
X11689524Y-12603667D01*
X11689524Y-12603667D02*
X11670476Y-12613190D01*
X11670476Y-12613190D02*
X11632381Y-12613190D01*
X11632381Y-12613190D02*
X11613333Y-12622714D01*
X11613333Y-12622714D02*
X11603810Y-12632238D01*
X11603810Y-12632238D02*
X11594286Y-12651286D01*
X11594286Y-12651286D02*
X11594286Y-12689381D01*
X11594286Y-12689381D02*
X11603810Y-12708428D01*
X11603810Y-12708428D02*
X11613333Y-12717952D01*
X11613333Y-12717952D02*
X11632381Y-12727476D01*
X11632381Y-12727476D02*
X11670476Y-12727476D01*
X11670476Y-12727476D02*
X11689524Y-12717952D01*
X11689524Y-12717952D02*
X11699048Y-12708428D01*
X11699048Y-12708428D02*
X11708571Y-12689381D01*
X11708571Y-12689381D02*
X11708571Y-12651286D01*
X11708571Y-12651286D02*
X11699048Y-12632238D01*
X11699048Y-12632238D02*
X11689524Y-12622714D01*
X11689524Y-12622714D02*
X11670476Y-12613190D01*
X11880000Y-12527476D02*
X11841905Y-12527476D01*
X11841905Y-12527476D02*
X11822857Y-12537000D01*
X11822857Y-12537000D02*
X11813333Y-12546524D01*
X11813333Y-12546524D02*
X11794286Y-12575095D01*
X11794286Y-12575095D02*
X11784762Y-12613190D01*
X11784762Y-12613190D02*
X11784762Y-12689381D01*
X11784762Y-12689381D02*
X11794286Y-12708428D01*
X11794286Y-12708428D02*
X11803810Y-12717952D01*
X11803810Y-12717952D02*
X11822857Y-12727476D01*
X11822857Y-12727476D02*
X11860952Y-12727476D01*
X11860952Y-12727476D02*
X11880000Y-12717952D01*
X11880000Y-12717952D02*
X11889524Y-12708428D01*
X11889524Y-12708428D02*
X11899048Y-12689381D01*
X11899048Y-12689381D02*
X11899048Y-12641762D01*
X11899048Y-12641762D02*
X11889524Y-12622714D01*
X11889524Y-12622714D02*
X11880000Y-12613190D01*
X11880000Y-12613190D02*
X11860952Y-12603667D01*
X11860952Y-12603667D02*
X11822857Y-12603667D01*
X11822857Y-12603667D02*
X11803810Y-12613190D01*
X11803810Y-12613190D02*
X11794286Y-12622714D01*
X11794286Y-12622714D02*
X11784762Y-12641762D01*
X12070476Y-12527476D02*
X12032381Y-12527476D01*
X12032381Y-12527476D02*
X12013333Y-12537000D01*
X12013333Y-12537000D02*
X12003810Y-12546524D01*
X12003810Y-12546524D02*
X11984762Y-12575095D01*
X11984762Y-12575095D02*
X11975238Y-12613190D01*
X11975238Y-12613190D02*
X11975238Y-12689381D01*
X11975238Y-12689381D02*
X11984762Y-12708428D01*
X11984762Y-12708428D02*
X11994286Y-12717952D01*
X11994286Y-12717952D02*
X12013333Y-12727476D01*
X12013333Y-12727476D02*
X12051429Y-12727476D01*
X12051429Y-12727476D02*
X12070476Y-12717952D01*
X12070476Y-12717952D02*
X12080000Y-12708428D01*
X12080000Y-12708428D02*
X12089524Y-12689381D01*
X12089524Y-12689381D02*
X12089524Y-12641762D01*
X12089524Y-12641762D02*
X12080000Y-12622714D01*
X12080000Y-12622714D02*
X12070476Y-12613190D01*
X12070476Y-12613190D02*
X12051429Y-12603667D01*
X12051429Y-12603667D02*
X12013333Y-12603667D01*
X12013333Y-12603667D02*
X11994286Y-12613190D01*
X11994286Y-12613190D02*
X11984762Y-12622714D01*
X11984762Y-12622714D02*
X11975238Y-12641762D01*
X12165714Y-12527476D02*
X12165714Y-12565571D01*
X12241905Y-12527476D02*
X12241905Y-12565571D01*
X12504762Y-12803667D02*
X12495238Y-12794143D01*
X12495238Y-12794143D02*
X12476191Y-12765571D01*
X12476191Y-12765571D02*
X12466667Y-12746524D01*
X12466667Y-12746524D02*
X12457143Y-12717952D01*
X12457143Y-12717952D02*
X12447619Y-12670333D01*
X12447619Y-12670333D02*
X12447619Y-12632238D01*
X12447619Y-12632238D02*
X12457143Y-12584619D01*
X12457143Y-12584619D02*
X12466667Y-12556048D01*
X12466667Y-12556048D02*
X12476191Y-12537000D01*
X12476191Y-12537000D02*
X12495238Y-12508428D01*
X12495238Y-12508428D02*
X12504762Y-12498905D01*
X12666667Y-12594143D02*
X12666667Y-12727476D01*
X12619048Y-12517952D02*
X12571429Y-12660809D01*
X12571429Y-12660809D02*
X12695238Y-12660809D01*
X12891429Y-12727476D02*
X12891429Y-12527476D01*
X12977143Y-12727476D02*
X12977143Y-12622714D01*
X12977143Y-12622714D02*
X12967619Y-12603667D01*
X12967619Y-12603667D02*
X12948572Y-12594143D01*
X12948572Y-12594143D02*
X12920000Y-12594143D01*
X12920000Y-12594143D02*
X12900952Y-12603667D01*
X12900952Y-12603667D02*
X12891429Y-12613190D01*
X13100952Y-12727476D02*
X13081905Y-12717952D01*
X13081905Y-12717952D02*
X13072381Y-12708428D01*
X13072381Y-12708428D02*
X13062857Y-12689381D01*
X13062857Y-12689381D02*
X13062857Y-12632238D01*
X13062857Y-12632238D02*
X13072381Y-12613190D01*
X13072381Y-12613190D02*
X13081905Y-12603667D01*
X13081905Y-12603667D02*
X13100952Y-12594143D01*
X13100952Y-12594143D02*
X13129524Y-12594143D01*
X13129524Y-12594143D02*
X13148572Y-12603667D01*
X13148572Y-12603667D02*
X13158095Y-12613190D01*
X13158095Y-12613190D02*
X13167619Y-12632238D01*
X13167619Y-12632238D02*
X13167619Y-12689381D01*
X13167619Y-12689381D02*
X13158095Y-12708428D01*
X13158095Y-12708428D02*
X13148572Y-12717952D01*
X13148572Y-12717952D02*
X13129524Y-12727476D01*
X13129524Y-12727476D02*
X13100952Y-12727476D01*
X13281905Y-12727476D02*
X13262857Y-12717952D01*
X13262857Y-12717952D02*
X13253333Y-12698905D01*
X13253333Y-12698905D02*
X13253333Y-12527476D01*
X13434286Y-12717952D02*
X13415238Y-12727476D01*
X13415238Y-12727476D02*
X13377143Y-12727476D01*
X13377143Y-12727476D02*
X13358095Y-12717952D01*
X13358095Y-12717952D02*
X13348572Y-12698905D01*
X13348572Y-12698905D02*
X13348572Y-12622714D01*
X13348572Y-12622714D02*
X13358095Y-12603667D01*
X13358095Y-12603667D02*
X13377143Y-12594143D01*
X13377143Y-12594143D02*
X13415238Y-12594143D01*
X13415238Y-12594143D02*
X13434286Y-12603667D01*
X13434286Y-12603667D02*
X13443810Y-12622714D01*
X13443810Y-12622714D02*
X13443810Y-12641762D01*
X13443810Y-12641762D02*
X13348572Y-12660809D01*
X13520000Y-12717952D02*
X13539048Y-12727476D01*
X13539048Y-12727476D02*
X13577143Y-12727476D01*
X13577143Y-12727476D02*
X13596191Y-12717952D01*
X13596191Y-12717952D02*
X13605714Y-12698905D01*
X13605714Y-12698905D02*
X13605714Y-12689381D01*
X13605714Y-12689381D02*
X13596191Y-12670333D01*
X13596191Y-12670333D02*
X13577143Y-12660809D01*
X13577143Y-12660809D02*
X13548572Y-12660809D01*
X13548572Y-12660809D02*
X13529524Y-12651286D01*
X13529524Y-12651286D02*
X13520000Y-12632238D01*
X13520000Y-12632238D02*
X13520000Y-12622714D01*
X13520000Y-12622714D02*
X13529524Y-12603667D01*
X13529524Y-12603667D02*
X13548572Y-12594143D01*
X13548572Y-12594143D02*
X13577143Y-12594143D01*
X13577143Y-12594143D02*
X13596191Y-12603667D01*
X13672381Y-12803667D02*
X13681905Y-12794143D01*
X13681905Y-12794143D02*
X13700953Y-12765571D01*
X13700953Y-12765571D02*
X13710476Y-12746524D01*
X13710476Y-12746524D02*
X13720000Y-12717952D01*
X13720000Y-12717952D02*
X13729524Y-12670333D01*
X13729524Y-12670333D02*
X13729524Y-12632238D01*
X13729524Y-12632238D02*
X13720000Y-12584619D01*
X13720000Y-12584619D02*
X13710476Y-12556048D01*
X13710476Y-12556048D02*
X13700953Y-12537000D01*
X13700953Y-12537000D02*
X13681905Y-12508428D01*
X13681905Y-12508428D02*
X13672381Y-12498905D01*
X14001905Y-12803667D02*
X13992381Y-12794143D01*
X13992381Y-12794143D02*
X13973333Y-12765571D01*
X13973333Y-12765571D02*
X13963810Y-12746524D01*
X13963810Y-12746524D02*
X13954286Y-12717952D01*
X13954286Y-12717952D02*
X13944762Y-12670333D01*
X13944762Y-12670333D02*
X13944762Y-12632238D01*
X13944762Y-12632238D02*
X13954286Y-12584619D01*
X13954286Y-12584619D02*
X13963810Y-12556048D01*
X13963810Y-12556048D02*
X13973333Y-12537000D01*
X13973333Y-12537000D02*
X13992381Y-12508428D01*
X13992381Y-12508428D02*
X14001905Y-12498905D01*
X14078095Y-12594143D02*
X14078095Y-12727476D01*
X14078095Y-12613190D02*
X14087619Y-12603667D01*
X14087619Y-12603667D02*
X14106667Y-12594143D01*
X14106667Y-12594143D02*
X14135238Y-12594143D01*
X14135238Y-12594143D02*
X14154286Y-12603667D01*
X14154286Y-12603667D02*
X14163810Y-12622714D01*
X14163810Y-12622714D02*
X14163810Y-12727476D01*
X14287619Y-12727476D02*
X14268572Y-12717952D01*
X14268572Y-12717952D02*
X14259048Y-12708428D01*
X14259048Y-12708428D02*
X14249524Y-12689381D01*
X14249524Y-12689381D02*
X14249524Y-12632238D01*
X14249524Y-12632238D02*
X14259048Y-12613190D01*
X14259048Y-12613190D02*
X14268572Y-12603667D01*
X14268572Y-12603667D02*
X14287619Y-12594143D01*
X14287619Y-12594143D02*
X14316191Y-12594143D01*
X14316191Y-12594143D02*
X14335238Y-12603667D01*
X14335238Y-12603667D02*
X14344762Y-12613190D01*
X14344762Y-12613190D02*
X14354286Y-12632238D01*
X14354286Y-12632238D02*
X14354286Y-12689381D01*
X14354286Y-12689381D02*
X14344762Y-12708428D01*
X14344762Y-12708428D02*
X14335238Y-12717952D01*
X14335238Y-12717952D02*
X14316191Y-12727476D01*
X14316191Y-12727476D02*
X14287619Y-12727476D01*
X14411429Y-12594143D02*
X14487619Y-12594143D01*
X14440000Y-12527476D02*
X14440000Y-12698905D01*
X14440000Y-12698905D02*
X14449524Y-12717952D01*
X14449524Y-12717952D02*
X14468572Y-12727476D01*
X14468572Y-12727476D02*
X14487619Y-12727476D01*
X14674286Y-12594143D02*
X14674286Y-12794143D01*
X14674286Y-12603667D02*
X14693333Y-12594143D01*
X14693333Y-12594143D02*
X14731429Y-12594143D01*
X14731429Y-12594143D02*
X14750476Y-12603667D01*
X14750476Y-12603667D02*
X14760000Y-12613190D01*
X14760000Y-12613190D02*
X14769524Y-12632238D01*
X14769524Y-12632238D02*
X14769524Y-12689381D01*
X14769524Y-12689381D02*
X14760000Y-12708428D01*
X14760000Y-12708428D02*
X14750476Y-12717952D01*
X14750476Y-12717952D02*
X14731429Y-12727476D01*
X14731429Y-12727476D02*
X14693333Y-12727476D01*
X14693333Y-12727476D02*
X14674286Y-12717952D01*
X14883810Y-12727476D02*
X14864762Y-12717952D01*
X14864762Y-12717952D02*
X14855238Y-12698905D01*
X14855238Y-12698905D02*
X14855238Y-12527476D01*
X15045714Y-12727476D02*
X15045714Y-12622714D01*
X15045714Y-12622714D02*
X15036191Y-12603667D01*
X15036191Y-12603667D02*
X15017143Y-12594143D01*
X15017143Y-12594143D02*
X14979048Y-12594143D01*
X14979048Y-12594143D02*
X14960000Y-12603667D01*
X15045714Y-12717952D02*
X15026667Y-12727476D01*
X15026667Y-12727476D02*
X14979048Y-12727476D01*
X14979048Y-12727476D02*
X14960000Y-12717952D01*
X14960000Y-12717952D02*
X14950476Y-12698905D01*
X14950476Y-12698905D02*
X14950476Y-12679857D01*
X14950476Y-12679857D02*
X14960000Y-12660809D01*
X14960000Y-12660809D02*
X14979048Y-12651286D01*
X14979048Y-12651286D02*
X15026667Y-12651286D01*
X15026667Y-12651286D02*
X15045714Y-12641762D01*
X15112381Y-12594143D02*
X15188572Y-12594143D01*
X15140953Y-12527476D02*
X15140953Y-12698905D01*
X15140953Y-12698905D02*
X15150476Y-12717952D01*
X15150476Y-12717952D02*
X15169524Y-12727476D01*
X15169524Y-12727476D02*
X15188572Y-12727476D01*
X15331429Y-12717952D02*
X15312381Y-12727476D01*
X15312381Y-12727476D02*
X15274286Y-12727476D01*
X15274286Y-12727476D02*
X15255238Y-12717952D01*
X15255238Y-12717952D02*
X15245714Y-12698905D01*
X15245714Y-12698905D02*
X15245714Y-12622714D01*
X15245714Y-12622714D02*
X15255238Y-12603667D01*
X15255238Y-12603667D02*
X15274286Y-12594143D01*
X15274286Y-12594143D02*
X15312381Y-12594143D01*
X15312381Y-12594143D02*
X15331429Y-12603667D01*
X15331429Y-12603667D02*
X15340953Y-12622714D01*
X15340953Y-12622714D02*
X15340953Y-12641762D01*
X15340953Y-12641762D02*
X15245714Y-12660809D01*
X15512381Y-12727476D02*
X15512381Y-12527476D01*
X15512381Y-12717952D02*
X15493334Y-12727476D01*
X15493334Y-12727476D02*
X15455238Y-12727476D01*
X15455238Y-12727476D02*
X15436191Y-12717952D01*
X15436191Y-12717952D02*
X15426667Y-12708428D01*
X15426667Y-12708428D02*
X15417143Y-12689381D01*
X15417143Y-12689381D02*
X15417143Y-12632238D01*
X15417143Y-12632238D02*
X15426667Y-12613190D01*
X15426667Y-12613190D02*
X15436191Y-12603667D01*
X15436191Y-12603667D02*
X15455238Y-12594143D01*
X15455238Y-12594143D02*
X15493334Y-12594143D01*
X15493334Y-12594143D02*
X15512381Y-12603667D01*
X15588572Y-12803667D02*
X15598095Y-12794143D01*
X15598095Y-12794143D02*
X15617143Y-12765571D01*
X15617143Y-12765571D02*
X15626667Y-12746524D01*
X15626667Y-12746524D02*
X15636191Y-12717952D01*
X15636191Y-12717952D02*
X15645714Y-12670333D01*
X15645714Y-12670333D02*
X15645714Y-12632238D01*
X15645714Y-12632238D02*
X15636191Y-12584619D01*
X15636191Y-12584619D02*
X15626667Y-12556048D01*
X15626667Y-12556048D02*
X15617143Y-12537000D01*
X15617143Y-12537000D02*
X15598095Y-12508428D01*
X15598095Y-12508428D02*
X15588572Y-12498905D01*
M02*
