G04 #@! TF.GenerationSoftware,KiCad,Pcbnew,(7.0.0)*
G04 #@! TF.CreationDate,2023-03-27T06:12:53-05:00*
G04 #@! TF.ProjectId,he-sensor-breakout,68652d73-656e-4736-9f72-2d627265616b,rev?*
G04 #@! TF.SameCoordinates,Original*
G04 #@! TF.FileFunction,Legend,Top*
G04 #@! TF.FilePolarity,Positive*
%FSLAX46Y46*%
G04 Gerber Fmt 4.6, Leading zero omitted, Abs format (unit mm)*
G04 Created by KiCad (PCBNEW (7.0.0)) date 2023-03-27 06:12:53*
%MOMM*%
%LPD*%
G01*
G04 APERTURE LIST*
%ADD10C,0.150000*%
%ADD11C,0.100000*%
%ADD12C,0.120000*%
%ADD13C,1.700000*%
%ADD14O,1.700000X1.700000*%
%ADD15R,1.700000X1.700000*%
%ADD16C,2.200000*%
%ADD17C,0.500000*%
G04 APERTURE END LIST*
D10*
X102166943Y-96200484D02*
X102119323Y-96295722D01*
X102119323Y-96295722D02*
X102119323Y-96438579D01*
X102119323Y-96438579D02*
X102166943Y-96581436D01*
X102166943Y-96581436D02*
X102262181Y-96676674D01*
X102262181Y-96676674D02*
X102357419Y-96724293D01*
X102357419Y-96724293D02*
X102547895Y-96771912D01*
X102547895Y-96771912D02*
X102690752Y-96771912D01*
X102690752Y-96771912D02*
X102881228Y-96724293D01*
X102881228Y-96724293D02*
X102976466Y-96676674D01*
X102976466Y-96676674D02*
X103071704Y-96581436D01*
X103071704Y-96581436D02*
X103119323Y-96438579D01*
X103119323Y-96438579D02*
X103119323Y-96343341D01*
X103119323Y-96343341D02*
X103071704Y-96200484D01*
X103071704Y-96200484D02*
X103024085Y-96152865D01*
X103024085Y-96152865D02*
X102690752Y-96152865D01*
X102690752Y-96152865D02*
X102690752Y-96343341D01*
X103119323Y-95724293D02*
X102119323Y-95724293D01*
X102119323Y-95724293D02*
X103119323Y-95152865D01*
X103119323Y-95152865D02*
X102119323Y-95152865D01*
X103119323Y-94676674D02*
X102119323Y-94676674D01*
X102119323Y-94676674D02*
X102119323Y-94438579D01*
X102119323Y-94438579D02*
X102166943Y-94295722D01*
X102166943Y-94295722D02*
X102262181Y-94200484D01*
X102262181Y-94200484D02*
X102357419Y-94152865D01*
X102357419Y-94152865D02*
X102547895Y-94105246D01*
X102547895Y-94105246D02*
X102690752Y-94105246D01*
X102690752Y-94105246D02*
X102881228Y-94152865D01*
X102881228Y-94152865D02*
X102976466Y-94200484D01*
X102976466Y-94200484D02*
X103071704Y-94295722D01*
X103071704Y-94295722D02*
X103119323Y-94438579D01*
X103119323Y-94438579D02*
X103119323Y-94676674D01*
X96880322Y-96900520D02*
X97880322Y-96567187D01*
X97880322Y-96567187D02*
X96880322Y-96233854D01*
X97785084Y-95329092D02*
X97832703Y-95376711D01*
X97832703Y-95376711D02*
X97880322Y-95519568D01*
X97880322Y-95519568D02*
X97880322Y-95614806D01*
X97880322Y-95614806D02*
X97832703Y-95757663D01*
X97832703Y-95757663D02*
X97737465Y-95852901D01*
X97737465Y-95852901D02*
X97642227Y-95900520D01*
X97642227Y-95900520D02*
X97451751Y-95948139D01*
X97451751Y-95948139D02*
X97308894Y-95948139D01*
X97308894Y-95948139D02*
X97118418Y-95900520D01*
X97118418Y-95900520D02*
X97023180Y-95852901D01*
X97023180Y-95852901D02*
X96927942Y-95757663D01*
X96927942Y-95757663D02*
X96880322Y-95614806D01*
X96880322Y-95614806D02*
X96880322Y-95519568D01*
X96880322Y-95519568D02*
X96927942Y-95376711D01*
X96927942Y-95376711D02*
X96975561Y-95329092D01*
X97785084Y-94329092D02*
X97832703Y-94376711D01*
X97832703Y-94376711D02*
X97880322Y-94519568D01*
X97880322Y-94519568D02*
X97880322Y-94614806D01*
X97880322Y-94614806D02*
X97832703Y-94757663D01*
X97832703Y-94757663D02*
X97737465Y-94852901D01*
X97737465Y-94852901D02*
X97642227Y-94900520D01*
X97642227Y-94900520D02*
X97451751Y-94948139D01*
X97451751Y-94948139D02*
X97308894Y-94948139D01*
X97308894Y-94948139D02*
X97118418Y-94900520D01*
X97118418Y-94900520D02*
X97023180Y-94852901D01*
X97023180Y-94852901D02*
X96927942Y-94757663D01*
X96927942Y-94757663D02*
X96880322Y-94614806D01*
X96880322Y-94614806D02*
X96880322Y-94519568D01*
X96880322Y-94519568D02*
X96927942Y-94376711D01*
X96927942Y-94376711D02*
X96975561Y-94329092D01*
X99483138Y-97200844D02*
X100483138Y-96867511D01*
X100483138Y-96867511D02*
X99483138Y-96534178D01*
X100483138Y-96057987D02*
X100435519Y-96153225D01*
X100435519Y-96153225D02*
X100387900Y-96200844D01*
X100387900Y-96200844D02*
X100292662Y-96248463D01*
X100292662Y-96248463D02*
X100006948Y-96248463D01*
X100006948Y-96248463D02*
X99911710Y-96200844D01*
X99911710Y-96200844D02*
X99864091Y-96153225D01*
X99864091Y-96153225D02*
X99816472Y-96057987D01*
X99816472Y-96057987D02*
X99816472Y-95915130D01*
X99816472Y-95915130D02*
X99864091Y-95819892D01*
X99864091Y-95819892D02*
X99911710Y-95772273D01*
X99911710Y-95772273D02*
X100006948Y-95724654D01*
X100006948Y-95724654D02*
X100292662Y-95724654D01*
X100292662Y-95724654D02*
X100387900Y-95772273D01*
X100387900Y-95772273D02*
X100435519Y-95819892D01*
X100435519Y-95819892D02*
X100483138Y-95915130D01*
X100483138Y-95915130D02*
X100483138Y-96057987D01*
X99816472Y-94867511D02*
X100483138Y-94867511D01*
X99816472Y-95296082D02*
X100340281Y-95296082D01*
X100340281Y-95296082D02*
X100435519Y-95248463D01*
X100435519Y-95248463D02*
X100483138Y-95153225D01*
X100483138Y-95153225D02*
X100483138Y-95010368D01*
X100483138Y-95010368D02*
X100435519Y-94915130D01*
X100435519Y-94915130D02*
X100387900Y-94867511D01*
X99816472Y-94534177D02*
X99816472Y-94153225D01*
X99483138Y-94391320D02*
X100340281Y-94391320D01*
X100340281Y-94391320D02*
X100435519Y-94343701D01*
X100435519Y-94343701D02*
X100483138Y-94248463D01*
X100483138Y-94248463D02*
X100483138Y-94153225D01*
X96698095Y-89191380D02*
X96698095Y-88191380D01*
X96698095Y-88667571D02*
X97269523Y-88667571D01*
X97269523Y-89191380D02*
X97269523Y-88191380D01*
X98269523Y-89191380D02*
X97698095Y-89191380D01*
X97983809Y-89191380D02*
X97983809Y-88191380D01*
X97983809Y-88191380D02*
X97888571Y-88334238D01*
X97888571Y-88334238D02*
X97793333Y-88429476D01*
X97793333Y-88429476D02*
X97698095Y-88477095D01*
X96698095Y-111543380D02*
X96698095Y-110543380D01*
X96698095Y-111019571D02*
X97269523Y-111019571D01*
X97269523Y-111543380D02*
X97269523Y-110543380D01*
X97650476Y-110543380D02*
X98269523Y-110543380D01*
X98269523Y-110543380D02*
X97936190Y-110924333D01*
X97936190Y-110924333D02*
X98079047Y-110924333D01*
X98079047Y-110924333D02*
X98174285Y-110971952D01*
X98174285Y-110971952D02*
X98221904Y-111019571D01*
X98221904Y-111019571D02*
X98269523Y-111114809D01*
X98269523Y-111114809D02*
X98269523Y-111352904D01*
X98269523Y-111352904D02*
X98221904Y-111448142D01*
X98221904Y-111448142D02*
X98174285Y-111495761D01*
X98174285Y-111495761D02*
X98079047Y-111543380D01*
X98079047Y-111543380D02*
X97793333Y-111543380D01*
X97793333Y-111543380D02*
X97698095Y-111495761D01*
X97698095Y-111495761D02*
X97650476Y-111448142D01*
X101778095Y-111543380D02*
X101778095Y-110543380D01*
X101778095Y-111019571D02*
X102349523Y-111019571D01*
X102349523Y-111543380D02*
X102349523Y-110543380D01*
X103254285Y-110876714D02*
X103254285Y-111543380D01*
X103016190Y-110495761D02*
X102778095Y-111210047D01*
X102778095Y-111210047D02*
X103397142Y-111210047D01*
X101778095Y-89191380D02*
X101778095Y-88191380D01*
X101778095Y-88667571D02*
X102349523Y-88667571D01*
X102349523Y-89191380D02*
X102349523Y-88191380D01*
X102778095Y-88286619D02*
X102825714Y-88239000D01*
X102825714Y-88239000D02*
X102920952Y-88191380D01*
X102920952Y-88191380D02*
X103159047Y-88191380D01*
X103159047Y-88191380D02*
X103254285Y-88239000D01*
X103254285Y-88239000D02*
X103301904Y-88286619D01*
X103301904Y-88286619D02*
X103349523Y-88381857D01*
X103349523Y-88381857D02*
X103349523Y-88477095D01*
X103349523Y-88477095D02*
X103301904Y-88619952D01*
X103301904Y-88619952D02*
X102730476Y-89191380D01*
X102730476Y-89191380D02*
X103349523Y-89191380D01*
D11*
X104450000Y-106843750D02*
X95540000Y-106843750D01*
X95540000Y-106843750D02*
X95540000Y-104543750D01*
X95540000Y-104543750D02*
X104450000Y-104543750D01*
X104450000Y-104543750D02*
X104450000Y-106843750D01*
D12*
X93015000Y-93808750D02*
X106985000Y-93808750D01*
X93015000Y-107778750D02*
X93015000Y-93808750D01*
X106985000Y-93808750D02*
X106985000Y-107778750D01*
X106985000Y-107778750D02*
X93015000Y-107778750D01*
%LPC*%
D13*
X94920000Y-100793750D03*
X105080000Y-100793750D03*
D14*
X97459999Y-107619999D03*
X99999999Y-107619999D03*
D15*
X102539999Y-107619999D03*
X92379999Y-92379999D03*
X107619999Y-92379999D03*
D16*
X93904000Y-88824000D03*
X93904000Y-111176000D03*
D17*
X109000000Y-109525000D03*
X108250000Y-109525000D03*
X107500000Y-109525000D03*
X106750000Y-109525000D03*
X106000000Y-109525000D03*
X105250000Y-109525000D03*
X104500000Y-109525000D03*
X103750000Y-109525000D03*
X103000000Y-109525000D03*
X102250000Y-109525000D03*
X101500000Y-109525000D03*
X100750000Y-109525000D03*
X100000000Y-109525000D03*
X99250000Y-109525000D03*
X98500000Y-109525000D03*
X97750000Y-109525000D03*
X97000000Y-109525000D03*
X96250000Y-109525000D03*
X95500000Y-109525000D03*
X94750000Y-109525000D03*
X94000000Y-109525000D03*
X93250000Y-109525000D03*
X92500000Y-109525000D03*
X91750000Y-109525000D03*
X91000000Y-109525000D03*
D14*
X97459999Y-92379999D03*
X99999999Y-92379999D03*
D15*
X102539999Y-92379999D03*
D17*
X108974600Y-90475000D03*
X108224600Y-90475000D03*
X107474600Y-90475000D03*
X106724600Y-90475000D03*
X105974600Y-90475000D03*
X105224600Y-90475000D03*
X104474600Y-90475000D03*
X103724600Y-90475000D03*
X102974600Y-90475000D03*
X102224600Y-90475000D03*
X101474600Y-90475000D03*
X100724600Y-90475000D03*
X99974600Y-90475000D03*
X99224600Y-90475000D03*
X98474600Y-90475000D03*
X97724600Y-90475000D03*
X96974600Y-90475000D03*
X96224600Y-90475000D03*
X95474600Y-90475000D03*
X94724600Y-90475000D03*
X93974600Y-90475000D03*
X93224600Y-90475000D03*
X92474600Y-90475000D03*
X91724600Y-90475000D03*
X90974600Y-90475000D03*
D16*
X106096000Y-111176000D03*
X106096000Y-88824000D03*
M02*
